<svg xmlns="http://www.w3.org/2000/svg" xmlns:xlink="http://www.w3.org/1999/xlink" width="2000" zoomAndPan="magnify" viewBox="0 0 1500 599.999999" height="800" preserveAspectRatio="xMidYMid meet" version="1.0"><defs><g/><clipPath id="0adea069c2"><path d="M 271 0 L 302 0 L 302 347.25 L 271 347.25 Z M 271 0 " clip-rule="nonzero"/></clipPath><clipPath id="a6be315c5e"><path d="M 301 0 L 332 0 L 332 347.25 L 301 347.25 Z M 301 0 " clip-rule="nonzero"/></clipPath><clipPath id="4c2c49a19b"><path d="M 331 0 L 362 0 L 362 347.25 L 331 347.25 Z M 331 0 " clip-rule="nonzero"/></clipPath><clipPath id="3de602b705"><path d="M 361 0 L 392 0 L 392 347.25 L 361 347.25 Z M 361 0 " clip-rule="nonzero"/></clipPath><clipPath id="0b36a48868"><path d="M 391 0 L 422 0 L 422 347.25 L 391 347.25 Z M 391 0 " clip-rule="nonzero"/></clipPath><clipPath id="2d7efd5253"><path d="M 421 0 L 452 0 L 452 347.25 L 421 347.25 Z M 421 0 " clip-rule="nonzero"/></clipPath><clipPath id="a32ed913f8"><path d="M 451 0 L 482 0 L 482 347.25 L 451 347.25 Z M 451 0 " clip-rule="nonzero"/></clipPath><clipPath id="e5afe525b0"><path d="M 481 0 L 512 0 L 512 347.25 L 481 347.25 Z M 481 0 " clip-rule="nonzero"/></clipPath><clipPath id="1c46ee6e7b"><path d="M 511 0 L 542 0 L 542 347.25 L 511 347.25 Z M 511 0 " clip-rule="nonzero"/></clipPath><clipPath id="d9be7ca075"><path d="M 541 0 L 572 0 L 572 347.25 L 541 347.25 Z M 541 0 " clip-rule="nonzero"/></clipPath><clipPath id="cfa5008b2c"><path d="M 571 0 L 602 0 L 602 347.25 L 571 347.25 Z M 571 0 " clip-rule="nonzero"/></clipPath><clipPath id="6d9fea93a6"><path d="M 601 0 L 631 0 L 631 347.25 L 601 347.25 Z M 601 0 " clip-rule="nonzero"/></clipPath><clipPath id="8074e65485"><path d="M 630 0 L 661 0 L 661 347.25 L 630 347.25 Z M 630 0 " clip-rule="nonzero"/></clipPath><clipPath id="2a92e78fc0"><path d="M 660 0 L 691 0 L 691 347.25 L 660 347.25 Z M 660 0 " clip-rule="nonzero"/></clipPath><clipPath id="ce212af132"><path d="M 690 0 L 721 0 L 721 347.25 L 690 347.25 Z M 690 0 " clip-rule="nonzero"/></clipPath><clipPath id="9167905b59"><path d="M 720 0 L 751 0 L 751 347.25 L 720 347.25 Z M 720 0 " clip-rule="nonzero"/></clipPath><clipPath id="d1945533f7"><path d="M 750 0 L 781 0 L 781 347.25 L 750 347.25 Z M 750 0 " clip-rule="nonzero"/></clipPath><clipPath id="ff0457cdda"><path d="M 780 0 L 811 0 L 811 347.25 L 780 347.25 Z M 780 0 " clip-rule="nonzero"/></clipPath><clipPath id="491915b52d"><path d="M 810 0 L 841 0 L 841 347.25 L 810 347.25 Z M 810 0 " clip-rule="nonzero"/></clipPath><clipPath id="2437ac5a5a"><path d="M 840 0 L 871 0 L 871 347.25 L 840 347.25 Z M 840 0 " clip-rule="nonzero"/></clipPath><clipPath id="5b1cd1d347"><path d="M 870 0 L 901 0 L 901 347.25 L 870 347.25 Z M 870 0 " clip-rule="nonzero"/></clipPath><clipPath id="cde860ff55"><path d="M 900 0 L 931 0 L 931 347.25 L 900 347.25 Z M 900 0 " clip-rule="nonzero"/></clipPath><clipPath id="0ea91c6564"><path d="M 930 0 L 961 0 L 961 347.25 L 930 347.25 Z M 930 0 " clip-rule="nonzero"/></clipPath><clipPath id="54ea2c1a4a"><path d="M 960 0 L 991 0 L 991 347.25 L 960 347.25 Z M 960 0 " clip-rule="nonzero"/></clipPath><clipPath id="03cf45ebb0"><path d="M 990 0 L 1021 0 L 1021 347.25 L 990 347.25 Z M 990 0 " clip-rule="nonzero"/></clipPath><clipPath id="0d0062e719"><path d="M 1020 0 L 1051 0 L 1051 347.25 L 1020 347.25 Z M 1020 0 " clip-rule="nonzero"/></clipPath><clipPath id="57d4a8c671"><path d="M 1050 0 L 1080 0 L 1080 347.25 L 1050 347.25 Z M 1050 0 " clip-rule="nonzero"/></clipPath><clipPath id="96043e4927"><path d="M 1079 0 L 1110 0 L 1110 347.25 L 1079 347.25 Z M 1079 0 " clip-rule="nonzero"/></clipPath><clipPath id="92ebeda482"><path d="M 1109 0 L 1140 0 L 1140 347.25 L 1109 347.25 Z M 1109 0 " clip-rule="nonzero"/></clipPath><clipPath id="d57068eeec"><path d="M 1139 0 L 1170 0 L 1170 347.25 L 1139 347.25 Z M 1139 0 " clip-rule="nonzero"/></clipPath><clipPath id="259240b9b4"><path d="M 1169 0 L 1200 0 L 1200 347.25 L 1169 347.25 Z M 1169 0 " clip-rule="nonzero"/></clipPath><clipPath id="88ae6988fa"><path d="M 1199 0 L 1230 0 L 1230 347.25 L 1199 347.25 Z M 1199 0 " clip-rule="nonzero"/></clipPath><clipPath id="696b06ba14"><path d="M 271 0 L 302 0 L 302 347.25 L 271 347.25 Z M 271 0 " clip-rule="nonzero"/></clipPath><clipPath id="21a09ea9ea"><path d="M 301 0 L 332 0 L 332 347.25 L 301 347.25 Z M 301 0 " clip-rule="nonzero"/></clipPath><clipPath id="0e1d4e2e61"><path d="M 331 0 L 362 0 L 362 347.25 L 331 347.25 Z M 331 0 " clip-rule="nonzero"/></clipPath><clipPath id="a3fa71dd46"><path d="M 361 0 L 392 0 L 392 347.25 L 361 347.25 Z M 361 0 " clip-rule="nonzero"/></clipPath><clipPath id="15d9dbb474"><path d="M 391 0 L 422 0 L 422 347.25 L 391 347.25 Z M 391 0 " clip-rule="nonzero"/></clipPath><clipPath id="3d68cb1569"><path d="M 421 0 L 452 0 L 452 347.25 L 421 347.25 Z M 421 0 " clip-rule="nonzero"/></clipPath><clipPath id="261d931d8f"><path d="M 451 0 L 482 0 L 482 347.25 L 451 347.25 Z M 451 0 " clip-rule="nonzero"/></clipPath><clipPath id="f5ef3a96fe"><path d="M 481 0 L 512 0 L 512 347.25 L 481 347.25 Z M 481 0 " clip-rule="nonzero"/></clipPath><clipPath id="ce72d8691e"><path d="M 511 0 L 542 0 L 542 347.25 L 511 347.25 Z M 511 0 " clip-rule="nonzero"/></clipPath><clipPath id="9e6bc8d7b7"><path d="M 541 0 L 572 0 L 572 347.25 L 541 347.25 Z M 541 0 " clip-rule="nonzero"/></clipPath><clipPath id="4e7d76eb82"><path d="M 571 0 L 602 0 L 602 347.25 L 571 347.25 Z M 571 0 " clip-rule="nonzero"/></clipPath><clipPath id="ee1cd713f1"><path d="M 601 0 L 631 0 L 631 347.25 L 601 347.25 Z M 601 0 " clip-rule="nonzero"/></clipPath><clipPath id="cf85c5393a"><path d="M 630 0 L 661 0 L 661 347.25 L 630 347.25 Z M 630 0 " clip-rule="nonzero"/></clipPath><clipPath id="492f2e3726"><path d="M 660 0 L 691 0 L 691 347.25 L 660 347.25 Z M 660 0 " clip-rule="nonzero"/></clipPath><clipPath id="0e58fb93ed"><path d="M 690 0 L 721 0 L 721 347.25 L 690 347.25 Z M 690 0 " clip-rule="nonzero"/></clipPath><clipPath id="275b0eca1a"><path d="M 720 0 L 751 0 L 751 347.25 L 720 347.25 Z M 720 0 " clip-rule="nonzero"/></clipPath><clipPath id="f14ab04b9d"><path d="M 750 0 L 781 0 L 781 347.25 L 750 347.25 Z M 750 0 " clip-rule="nonzero"/></clipPath><clipPath id="4542a0d252"><path d="M 780 0 L 811 0 L 811 347.25 L 780 347.25 Z M 780 0 " clip-rule="nonzero"/></clipPath><clipPath id="0385befe43"><path d="M 810 0 L 841 0 L 841 347.25 L 810 347.25 Z M 810 0 " clip-rule="nonzero"/></clipPath><clipPath id="8eeab53f5f"><path d="M 840 0 L 871 0 L 871 347.25 L 840 347.25 Z M 840 0 " clip-rule="nonzero"/></clipPath><clipPath id="b17bc9efc7"><path d="M 870 0 L 901 0 L 901 347.25 L 870 347.25 Z M 870 0 " clip-rule="nonzero"/></clipPath><clipPath id="16f10e1628"><path d="M 900 0 L 931 0 L 931 347.25 L 900 347.25 Z M 900 0 " clip-rule="nonzero"/></clipPath><clipPath id="7f36ab073b"><path d="M 930 0 L 961 0 L 961 347.25 L 930 347.25 Z M 930 0 " clip-rule="nonzero"/></clipPath><clipPath id="5b674cb1f0"><path d="M 960 0 L 991 0 L 991 347.25 L 960 347.25 Z M 960 0 " clip-rule="nonzero"/></clipPath><clipPath id="77339912b1"><path d="M 990 0 L 1021 0 L 1021 347.25 L 990 347.25 Z M 990 0 " clip-rule="nonzero"/></clipPath><clipPath id="b6e446c86f"><path d="M 1020 0 L 1051 0 L 1051 347.25 L 1020 347.25 Z M 1020 0 " clip-rule="nonzero"/></clipPath><clipPath id="bf67eae8e6"><path d="M 1050 0 L 1080 0 L 1080 347.25 L 1050 347.25 Z M 1050 0 " clip-rule="nonzero"/></clipPath><clipPath id="ff82604c46"><path d="M 1079 0 L 1110 0 L 1110 347.25 L 1079 347.25 Z M 1079 0 " clip-rule="nonzero"/></clipPath><clipPath id="2fae3479fb"><path d="M 1109 0 L 1140 0 L 1140 347.25 L 1109 347.25 Z M 1109 0 " clip-rule="nonzero"/></clipPath><clipPath id="640481f1c8"><path d="M 1139 0 L 1170 0 L 1170 347.25 L 1139 347.25 Z M 1139 0 " clip-rule="nonzero"/></clipPath><clipPath id="482c66b5e9"><path d="M 1169 0 L 1200 0 L 1200 347.25 L 1169 347.25 Z M 1169 0 " clip-rule="nonzero"/></clipPath><clipPath id="541cdb7ace"><path d="M 1199 0 L 1230 0 L 1230 347.25 L 1199 347.25 Z M 1199 0 " clip-rule="nonzero"/></clipPath><clipPath id="f4545cdbab"><path d="M 283.277344 364.644531 L 598.675781 364.644531 L 598.675781 570.09375 L 283.277344 570.09375 Z M 283.277344 364.644531 " clip-rule="nonzero"/></clipPath><clipPath id="ae5b37fc21"><path d="M 289.453125 364.644531 L 592.21875 364.644531 C 593.855469 364.644531 595.425781 365.292969 596.582031 366.453125 C 597.738281 367.609375 598.390625 369.179688 598.390625 370.816406 L 598.390625 563.921875 C 598.390625 565.558594 597.738281 567.128906 596.582031 568.285156 C 595.425781 569.445312 593.855469 570.09375 592.21875 570.09375 L 289.453125 570.09375 C 287.816406 570.09375 286.246094 569.445312 285.085938 568.285156 C 283.929688 567.128906 283.277344 565.558594 283.277344 563.921875 L 283.277344 370.816406 C 283.277344 369.179688 283.929688 367.609375 285.085938 366.453125 C 286.246094 365.292969 287.816406 364.644531 289.453125 364.644531 Z M 289.453125 364.644531 " clip-rule="nonzero"/></clipPath><clipPath id="573e2472a0"><path d="M 109.058594 238 L 199.417969 238 L 199.417969 570.085938 L 109.058594 570.085938 Z M 109.058594 238 " clip-rule="nonzero"/></clipPath><clipPath id="e3be35c4f3"><path d="M 109.058594 564.085938 L 109.058594 244.199219 C 109.058594 240.886719 111.746094 238.199219 115.058594 238.199219 L 193.417969 238.199219 C 196.734375 238.199219 199.417969 240.886719 199.417969 244.199219 L 199.417969 564.085938 C 199.417969 567.398438 196.734375 570.085938 193.417969 570.085938 L 115.058594 570.085938 C 111.746094 570.085938 109.058594 567.398438 109.058594 564.085938 Z M 109.058594 564.085938 " clip-rule="nonzero"/></clipPath><clipPath id="21658a8a47"><path d="M 231.320312 65.441406 L 283.28125 65.441406 L 283.28125 281.800781 L 231.320312 281.800781 Z M 231.320312 65.441406 " clip-rule="nonzero"/></clipPath><clipPath id="cd8362395d"><path d="M 231.320312 275.800781 L 231.320312 71.523438 C 231.320312 69.933594 231.953125 68.40625 233.078125 67.28125 C 234.203125 66.15625 235.730469 65.523438 237.320312 65.523438 L 277.28125 65.523438 C 278.871094 65.523438 280.398438 66.15625 281.523438 67.28125 C 282.648438 68.40625 283.28125 69.933594 283.28125 71.523438 L 283.28125 275.800781 C 283.28125 277.390625 282.648438 278.917969 281.523438 280.042969 C 280.398438 281.167969 278.871094 281.800781 277.28125 281.800781 L 237.320312 281.800781 C 235.730469 281.800781 234.203125 281.167969 233.078125 280.042969 C 231.953125 278.917969 231.320312 277.390625 231.320312 275.800781 Z M 231.320312 275.800781 " clip-rule="nonzero"/></clipPath><clipPath id="aabb94253d"><path d="M 109.058594 0 L 199.417969 0 L 199.417969 173.660156 L 109.058594 173.660156 Z M 109.058594 0 " clip-rule="nonzero"/></clipPath><clipPath id="442392721f"><path d="M 109.058594 167.660156 L 109.058594 -12.128906 C 109.058594 -15.441406 111.746094 -18.128906 115.058594 -18.128906 L 193.417969 -18.128906 C 196.734375 -18.128906 199.417969 -15.441406 199.417969 -12.128906 L 199.417969 167.660156 C 199.417969 170.976562 196.734375 173.660156 193.417969 173.660156 L 115.058594 173.660156 C 111.746094 173.660156 109.058594 170.976562 109.058594 167.660156 Z M 109.058594 167.660156 " clip-rule="nonzero"/></clipPath><clipPath id="a827105541"><path d="M 836.574219 364.640625 L 1230.136719 364.640625 L 1230.136719 571.523438 L 836.574219 571.523438 Z M 836.574219 364.640625 " clip-rule="nonzero"/></clipPath><clipPath id="930fcc524b"><path d="M 836.574219 565.523438 L 836.574219 370.640625 C 836.574219 367.324219 839.257812 364.640625 842.574219 364.640625 L 1224.097656 364.640625 C 1227.410156 364.640625 1230.097656 367.324219 1230.097656 370.640625 L 1230.097656 565.523438 C 1230.097656 568.835938 1227.410156 571.523438 1224.097656 571.523438 L 842.574219 571.523438 C 839.257812 571.523438 836.574219 568.835938 836.574219 565.523438 Z M 836.574219 565.523438 " clip-rule="nonzero"/></clipPath><clipPath id="db9721a1b1"><path d="M 1208.421875 0 L 1269.636719 0 L 1269.636719 319.765625 L 1208.421875 319.765625 Z M 1208.421875 0 " clip-rule="nonzero"/></clipPath><clipPath id="384cc94367"><path d="M 1208.421875 313.765625 L 1208.421875 -51.96875 C 1208.421875 -53.558594 1209.054688 -55.085938 1210.179688 -56.210938 C 1211.304688 -57.335938 1212.832031 -57.96875 1214.421875 -57.96875 L 1263.636719 -57.96875 C 1265.226562 -57.96875 1266.753906 -57.335938 1267.878906 -56.210938 C 1269.003906 -55.085938 1269.636719 -53.558594 1269.636719 -51.96875 L 1269.636719 313.765625 C 1269.636719 315.355469 1269.003906 316.882812 1267.878906 318.007812 C 1266.753906 319.132812 1265.226562 319.765625 1263.636719 319.765625 L 1214.421875 319.765625 C 1212.832031 319.765625 1211.304688 319.132812 1210.179688 318.007812 C 1209.054688 316.882812 1208.421875 315.355469 1208.421875 313.765625 Z M 1208.421875 313.765625 " clip-rule="nonzero"/></clipPath><clipPath id="d10e6badc4"><path d="M 1315.632812 238 L 1405.992188 238 L 1405.992188 570.085938 L 1315.632812 570.085938 Z M 1315.632812 238 " clip-rule="nonzero"/></clipPath><clipPath id="62f843cddb"><path d="M 1315.632812 564.085938 L 1315.632812 244.199219 C 1315.632812 240.886719 1318.320312 238.199219 1321.632812 238.199219 L 1399.992188 238.199219 C 1403.304688 238.199219 1405.992188 240.886719 1405.992188 244.199219 L 1405.992188 564.085938 C 1405.992188 567.398438 1403.304688 570.085938 1399.992188 570.085938 L 1321.632812 570.085938 C 1318.320312 570.085938 1315.632812 567.398438 1315.632812 564.085938 Z M 1315.632812 564.085938 " clip-rule="nonzero"/></clipPath><clipPath id="6e345ac938"><path d="M 1315.632812 0 L 1405.992188 0 L 1405.992188 173.660156 L 1315.632812 173.660156 Z M 1315.632812 0 " clip-rule="nonzero"/></clipPath><clipPath id="dd621bbd30"><path d="M 1315.632812 167.660156 L 1315.632812 -12.128906 C 1315.632812 -15.441406 1318.320312 -18.128906 1321.632812 -18.128906 L 1399.992188 -18.128906 C 1403.304688 -18.128906 1405.992188 -15.441406 1405.992188 -12.128906 L 1405.992188 167.660156 C 1405.992188 170.976562 1403.304688 173.660156 1399.992188 173.660156 L 1321.632812 173.660156 C 1318.320312 173.660156 1315.632812 170.976562 1315.632812 167.660156 Z M 1315.632812 167.660156 " clip-rule="nonzero"/></clipPath></defs><g clip-path="url(#0adea069c2)"><path fill="#dea55a" d="M 301.734375 347.265625 L 301.734375 -1117.515625 L 271.785156 -1117.515625 L 271.785156 347.265625 Z M 301.734375 347.265625 " fill-opacity="1" fill-rule="nonzero"/></g><g clip-path="url(#a6be315c5e)"><path fill="#d39d49" d="M 331.648438 347.265625 L 331.648438 -1117.515625 L 301.734375 -1117.515625 L 301.734375 347.265625 Z M 331.648438 347.265625 " fill-opacity="1" fill-rule="nonzero"/></g><g clip-path="url(#4c2c49a19b)"><path fill="#dea55a" d="M 361.597656 347.265625 L 361.597656 -1117.515625 L 331.648438 -1117.515625 L 331.648438 347.265625 Z M 361.597656 347.265625 " fill-opacity="1" fill-rule="nonzero"/></g><g clip-path="url(#3de602b705)"><path fill="#dea55a" d="M 391.511719 347.265625 L 391.511719 -1117.515625 L 361.597656 -1117.515625 L 361.597656 347.265625 Z M 391.511719 347.265625 " fill-opacity="1" fill-rule="nonzero"/></g><g clip-path="url(#0b36a48868)"><path fill="#dea55a" d="M 421.445312 347.265625 L 421.445312 -1117.515625 L 391.511719 -1117.515625 L 391.511719 347.265625 Z M 421.445312 347.265625 " fill-opacity="1" fill-rule="nonzero"/></g><g clip-path="url(#2d7efd5253)"><path fill="#dea55a" d="M 451.375 347.265625 L 451.375 -1117.515625 L 421.445312 -1117.515625 L 421.445312 347.265625 Z M 451.375 347.265625 " fill-opacity="1" fill-rule="nonzero"/></g><g clip-path="url(#a32ed913f8)"><path fill="#dea55a" d="M 481.324219 347.265625 L 481.324219 -1117.515625 L 451.375 -1117.515625 L 451.375 347.265625 Z M 481.324219 347.265625 " fill-opacity="1" fill-rule="nonzero"/></g><g clip-path="url(#e5afe525b0)"><path fill="#d39d48" d="M 511.242188 347.265625 L 511.242188 -1117.515625 L 481.324219 -1117.515625 L 481.324219 347.265625 Z M 511.242188 347.265625 " fill-opacity="1" fill-rule="nonzero"/></g><g clip-path="url(#1c46ee6e7b)"><path fill="#dea55a" d="M 541.191406 347.265625 L 541.191406 -1117.515625 L 511.242188 -1117.515625 L 511.242188 347.265625 Z M 541.191406 347.265625 " fill-opacity="1" fill-rule="nonzero"/></g><g clip-path="url(#d9be7ca075)"><path fill="#d39d49" d="M 571.121094 347.265625 L 571.121094 -1117.515625 L 541.191406 -1117.515625 L 541.191406 347.265625 Z M 571.121094 347.265625 " fill-opacity="1" fill-rule="nonzero"/></g><g clip-path="url(#cfa5008b2c)"><path fill="#dea55a" d="M 601.054688 347.265625 L 601.054688 -1117.515625 L 571.121094 -1117.515625 L 571.121094 347.265625 Z M 601.054688 347.265625 " fill-opacity="1" fill-rule="nonzero"/></g><g clip-path="url(#6d9fea93a6)"><path fill="#d39d48" d="M 630.988281 347.265625 L 630.988281 -1117.515625 L 601.054688 -1117.515625 L 601.054688 347.265625 Z M 630.988281 347.265625 " fill-opacity="1" fill-rule="nonzero"/></g><g clip-path="url(#8074e65485)"><path fill="#dea55a" d="M 660.902344 347.265625 L 660.902344 -1117.515625 L 630.988281 -1117.515625 L 630.988281 347.265625 Z M 660.902344 347.265625 " fill-opacity="1" fill-rule="nonzero"/></g><g clip-path="url(#2a92e78fc0)"><path fill="#dea55a" d="M 690.851562 347.265625 L 690.851562 -1117.515625 L 660.902344 -1117.515625 L 660.902344 347.265625 Z M 690.851562 347.265625 " fill-opacity="1" fill-rule="nonzero"/></g><g clip-path="url(#ce212af132)"><path fill="#dea55a" d="M 720.785156 347.265625 L 720.785156 -1117.515625 L 690.851562 -1117.515625 L 690.851562 347.265625 Z M 720.785156 347.265625 " fill-opacity="1" fill-rule="nonzero"/></g><g clip-path="url(#9167905b59)"><path fill="#dea55a" d="M 750.714844 347.265625 L 750.714844 -1117.515625 L 720.785156 -1117.515625 L 720.785156 347.265625 Z M 750.714844 347.265625 " fill-opacity="1" fill-rule="nonzero"/></g><g clip-path="url(#d1945533f7)"><path fill="#dea55a" d="M 780.648438 347.265625 L 780.648438 -1117.515625 L 750.714844 -1117.515625 L 750.714844 347.265625 Z M 780.648438 347.265625 " fill-opacity="1" fill-rule="nonzero"/></g><g clip-path="url(#ff0457cdda)"><path fill="#d39d49" d="M 810.578125 347.265625 L 810.578125 -1117.515625 L 780.648438 -1117.515625 L 780.648438 347.265625 Z M 810.578125 347.265625 " fill-opacity="1" fill-rule="nonzero"/></g><g clip-path="url(#491915b52d)"><path fill="#dea55a" d="M 840.511719 347.265625 L 840.511719 -1117.515625 L 810.578125 -1117.515625 L 810.578125 347.265625 Z M 840.511719 347.265625 " fill-opacity="1" fill-rule="nonzero"/></g><g clip-path="url(#2437ac5a5a)"><path fill="#d39d48" d="M 870.445312 347.265625 L 870.445312 -1117.515625 L 840.511719 -1117.515625 L 840.511719 347.265625 Z M 870.445312 347.265625 " fill-opacity="1" fill-rule="nonzero"/></g><g clip-path="url(#5b1cd1d347)"><path fill="#dea55a" d="M 900.375 347.265625 L 900.375 -1117.515625 L 870.445312 -1117.515625 L 870.445312 347.265625 Z M 900.375 347.265625 " fill-opacity="1" fill-rule="nonzero"/></g><g clip-path="url(#cde860ff55)"><path fill="#d39d49" d="M 930.324219 347.265625 L 930.324219 -1117.515625 L 900.375 -1117.515625 L 900.375 347.265625 Z M 930.324219 347.265625 " fill-opacity="1" fill-rule="nonzero"/></g><g clip-path="url(#0ea91c6564)"><path fill="#dea55a" d="M 960.257812 347.265625 L 960.257812 -1117.515625 L 930.324219 -1117.515625 L 930.324219 347.265625 Z M 960.257812 347.265625 " fill-opacity="1" fill-rule="nonzero"/></g><g clip-path="url(#54ea2c1a4a)"><path fill="#dea55a" d="M 990.191406 347.265625 L 990.191406 -1117.515625 L 960.257812 -1117.515625 L 960.257812 347.265625 Z M 990.191406 347.265625 " fill-opacity="1" fill-rule="nonzero"/></g><g clip-path="url(#03cf45ebb0)"><path fill="#dea55a" d="M 1020.121094 347.265625 L 1020.121094 -1117.515625 L 990.191406 -1117.515625 L 990.191406 347.265625 Z M 1020.121094 347.265625 " fill-opacity="1" fill-rule="nonzero"/></g><g clip-path="url(#0d0062e719)"><path fill="#dea55a" d="M 1050.054688 347.265625 L 1050.054688 -1117.515625 L 1020.121094 -1117.515625 L 1020.121094 347.265625 Z M 1050.054688 347.265625 " fill-opacity="1" fill-rule="nonzero"/></g><g clip-path="url(#57d4a8c671)"><path fill="#dea55a" d="M 1079.984375 347.265625 L 1079.984375 -1117.515625 L 1050.054688 -1117.515625 L 1050.054688 347.265625 Z M 1079.984375 347.265625 " fill-opacity="1" fill-rule="nonzero"/></g><g clip-path="url(#96043e4927)"><path fill="#dea55a" d="M 1109.917969 347.265625 L 1109.917969 -1117.515625 L 1079.984375 -1117.515625 L 1079.984375 347.265625 Z M 1109.917969 347.265625 " fill-opacity="1" fill-rule="nonzero"/></g><g clip-path="url(#92ebeda482)"><path fill="#dea55a" d="M 1139.851562 347.265625 L 1139.851562 -1117.515625 L 1109.917969 -1117.515625 L 1109.917969 347.265625 Z M 1139.851562 347.265625 " fill-opacity="1" fill-rule="nonzero"/></g><g clip-path="url(#d57068eeec)"><path fill="#d39d49" d="M 1169.78125 347.265625 L 1169.78125 -1117.515625 L 1139.851562 -1117.515625 L 1139.851562 347.265625 Z M 1169.78125 347.265625 " fill-opacity="1" fill-rule="nonzero"/></g><g clip-path="url(#259240b9b4)"><path fill="#dea55a" d="M 1199.714844 347.265625 L 1199.714844 -1117.515625 L 1169.78125 -1117.515625 L 1169.78125 347.265625 Z M 1199.714844 347.265625 " fill-opacity="1" fill-rule="nonzero"/></g><g clip-path="url(#88ae6988fa)"><path fill="#d39d48" d="M 1229.648438 347.265625 L 1229.648438 -1117.515625 L 1199.714844 -1117.515625 L 1199.714844 347.265625 Z M 1229.648438 347.265625 " fill-opacity="1" fill-rule="nonzero"/></g><path fill="#c79146" d="M 481.324219 138.242188 L 481.324219 -71.820312 L 466.34375 -71.820312 L 466.34375 138.242188 Z M 481.324219 138.242188 " fill-opacity="1" fill-rule="nonzero"/><path fill="#c28e3f" d="M 496.273438 138.242188 L 496.273438 -71.820312 L 481.324219 -71.820312 L 481.324219 138.242188 Z M 496.273438 138.242188 " fill-opacity="1" fill-rule="nonzero"/><path fill="#c28e3f" d="M 1169.78125 138.242188 L 1169.78125 -71.820312 L 1154.816406 -71.820312 L 1154.816406 138.242188 Z M 1169.78125 138.242188 " fill-opacity="1" fill-rule="nonzero"/><path fill="#c79146" d="M 1184.75 138.242188 L 1184.75 -71.820312 L 1169.78125 -71.820312 L 1169.78125 138.242188 Z M 1184.75 138.242188 " fill-opacity="1" fill-rule="nonzero"/><path fill="#c79146" d="M 391.511719 291.628906 L 391.511719 81.597656 L 361.597656 81.597656 L 361.597656 291.628906 Z M 391.511719 291.628906 " fill-opacity="1" fill-rule="nonzero"/><path fill="#c79146" d="M 1079.984375 291.628906 L 1079.984375 81.597656 L 1050.054688 81.597656 L 1050.054688 291.628906 Z M 1079.984375 291.628906 " fill-opacity="1" fill-rule="nonzero"/><path fill="#c28e3f" d="M 930.324219 49.390625 L 930.324219 -148.378906 L 900.375 -148.378906 L 900.375 49.390625 Z M 930.324219 49.390625 " fill-opacity="1" fill-rule="nonzero"/><path fill="#c79146" d="M 660.902344 49.390625 L 660.902344 -148.378906 L 630.988281 -148.378906 L 630.988281 49.390625 Z M 660.902344 49.390625 " fill-opacity="1" fill-rule="nonzero"/><g clip-path="url(#696b06ba14)"><path fill="#ae703f" d="M 301.734375 347.265625 L 301.734375 -1117.515625 L 271.785156 -1117.515625 L 271.785156 347.265625 Z M 301.734375 347.265625 " fill-opacity="1" fill-rule="nonzero"/></g><g clip-path="url(#21a09ea9ea)"><path fill="#a86c37" d="M 331.648438 -1117.515625 L 331.648438 -1070.859375 L 302.992188 -1070.859375 L 302.992188 300.945312 L 331.648438 300.945312 L 331.648438 347.265625 L 301.734375 347.265625 L 301.734375 -1117.515625 L 331.648438 -1117.515625 " fill-opacity="1" fill-rule="nonzero"/></g><g clip-path="url(#0e1d4e2e61)"><path fill="#ae703f" d="M 361.597656 -1117.515625 L 361.597656 -1070.859375 L 331.648438 -1070.859375 L 331.648438 -1117.515625 L 361.597656 -1117.515625 M 361.597656 300.945312 L 361.597656 347.265625 L 331.648438 347.265625 L 331.648438 300.945312 L 361.597656 300.945312 " fill-opacity="1" fill-rule="nonzero"/></g><g clip-path="url(#a3fa71dd46)"><path fill="#ae703f" d="M 391.511719 -1117.515625 L 391.511719 -1070.859375 L 361.597656 -1070.859375 L 361.597656 -1117.515625 L 391.511719 -1117.515625 M 391.511719 300.945312 L 391.511719 347.265625 L 361.597656 347.265625 L 361.597656 300.945312 L 391.511719 300.945312 " fill-opacity="1" fill-rule="nonzero"/></g><g clip-path="url(#15d9dbb474)"><path fill="#ae703f" d="M 421.445312 -1117.515625 L 421.445312 -1070.859375 L 391.511719 -1070.859375 L 391.511719 -1117.515625 L 421.445312 -1117.515625 M 421.445312 300.945312 L 421.445312 347.265625 L 391.511719 347.265625 L 391.511719 300.945312 L 421.445312 300.945312 " fill-opacity="1" fill-rule="nonzero"/></g><g clip-path="url(#3d68cb1569)"><path fill="#ae703f" d="M 451.375 -1117.515625 L 451.375 -1070.859375 L 421.445312 -1070.859375 L 421.445312 -1117.515625 L 451.375 -1117.515625 M 451.375 300.945312 L 451.375 347.265625 L 421.445312 347.265625 L 421.445312 300.945312 L 451.375 300.945312 " fill-opacity="1" fill-rule="nonzero"/></g><g clip-path="url(#261d931d8f)"><path fill="#ae703f" d="M 481.324219 -1117.515625 L 481.324219 -1070.859375 L 451.375 -1070.859375 L 451.375 -1117.515625 L 481.324219 -1117.515625 M 481.324219 300.945312 L 481.324219 347.265625 L 451.375 347.265625 L 451.375 300.945312 L 481.324219 300.945312 " fill-opacity="1" fill-rule="nonzero"/></g><g clip-path="url(#f5ef3a96fe)"><path fill="#a86c36" d="M 511.242188 -1117.515625 L 511.242188 -1070.859375 L 481.324219 -1070.859375 L 481.324219 -1117.515625 L 511.242188 -1117.515625 M 511.242188 300.945312 L 511.242188 347.265625 L 481.324219 347.265625 L 481.324219 300.945312 L 511.242188 300.945312 " fill-opacity="1" fill-rule="nonzero"/></g><g clip-path="url(#ce72d8691e)"><path fill="#ae703f" d="M 541.191406 -1117.515625 L 541.191406 -1070.859375 L 511.242188 -1070.859375 L 511.242188 -1117.515625 L 541.191406 -1117.515625 M 541.191406 300.945312 L 541.191406 347.265625 L 511.242188 347.265625 L 511.242188 300.945312 L 541.191406 300.945312 " fill-opacity="1" fill-rule="nonzero"/></g><g clip-path="url(#9e6bc8d7b7)"><path fill="#a86c37" d="M 571.121094 -1117.515625 L 571.121094 -1070.859375 L 541.191406 -1070.859375 L 541.191406 -1117.515625 L 571.121094 -1117.515625 M 571.121094 300.945312 L 571.121094 347.265625 L 541.191406 347.265625 L 541.191406 300.945312 L 571.121094 300.945312 " fill-opacity="1" fill-rule="nonzero"/></g><g clip-path="url(#4e7d76eb82)"><path fill="#ae703f" d="M 601.054688 -1117.515625 L 601.054688 -1070.859375 L 571.121094 -1070.859375 L 571.121094 -1117.515625 L 601.054688 -1117.515625 M 601.054688 300.945312 L 601.054688 347.265625 L 571.121094 347.265625 L 571.121094 300.945312 L 601.054688 300.945312 " fill-opacity="1" fill-rule="nonzero"/></g><g clip-path="url(#ee1cd713f1)"><path fill="#a86c36" d="M 630.988281 -1117.515625 L 630.988281 -1070.859375 L 601.054688 -1070.859375 L 601.054688 -1117.515625 L 630.988281 -1117.515625 M 630.988281 300.945312 L 630.988281 347.265625 L 601.054688 347.265625 L 601.054688 300.945312 L 630.988281 300.945312 " fill-opacity="1" fill-rule="nonzero"/></g><g clip-path="url(#cf85c5393a)"><path fill="#ae703f" d="M 660.902344 -1117.515625 L 660.902344 -1070.859375 L 630.988281 -1070.859375 L 630.988281 -1117.515625 L 660.902344 -1117.515625 M 660.902344 300.945312 L 660.902344 347.265625 L 630.988281 347.265625 L 630.988281 300.945312 L 660.902344 300.945312 " fill-opacity="1" fill-rule="nonzero"/></g><g clip-path="url(#492f2e3726)"><path fill="#ae703f" d="M 690.851562 -1117.515625 L 690.851562 -1070.859375 L 660.902344 -1070.859375 L 660.902344 -1117.515625 L 690.851562 -1117.515625 M 690.851562 300.945312 L 690.851562 347.265625 L 660.902344 347.265625 L 660.902344 300.945312 L 690.851562 300.945312 " fill-opacity="1" fill-rule="nonzero"/></g><g clip-path="url(#0e58fb93ed)"><path fill="#ae703f" d="M 720.785156 -1117.515625 L 720.785156 -1070.859375 L 690.851562 -1070.859375 L 690.851562 -1117.515625 L 720.785156 -1117.515625 M 720.785156 300.945312 L 720.785156 347.265625 L 690.851562 347.265625 L 690.851562 300.945312 L 720.785156 300.945312 " fill-opacity="1" fill-rule="nonzero"/></g><g clip-path="url(#275b0eca1a)"><path fill="#ae703f" d="M 750.714844 -1117.515625 L 750.714844 -1070.859375 L 720.785156 -1070.859375 L 720.785156 -1117.515625 L 750.714844 -1117.515625 M 750.714844 300.945312 L 750.714844 347.265625 L 720.785156 347.265625 L 720.785156 300.945312 L 750.714844 300.945312 " fill-opacity="1" fill-rule="nonzero"/></g><g clip-path="url(#f14ab04b9d)"><path fill="#ae703f" d="M 780.648438 -1117.515625 L 780.648438 -1070.859375 L 750.714844 -1070.859375 L 750.714844 -1117.515625 L 780.648438 -1117.515625 M 780.648438 300.945312 L 780.648438 347.265625 L 750.714844 347.265625 L 750.714844 300.945312 L 780.648438 300.945312 " fill-opacity="1" fill-rule="nonzero"/></g><g clip-path="url(#4542a0d252)"><path fill="#a86c37" d="M 810.578125 -1117.515625 L 810.578125 -1070.859375 L 780.648438 -1070.859375 L 780.648438 -1117.515625 L 810.578125 -1117.515625 M 810.578125 300.945312 L 810.578125 347.265625 L 780.648438 347.265625 L 780.648438 300.945312 L 810.578125 300.945312 " fill-opacity="1" fill-rule="nonzero"/></g><g clip-path="url(#0385befe43)"><path fill="#ae703f" d="M 840.511719 -1117.515625 L 840.511719 -1070.859375 L 810.578125 -1070.859375 L 810.578125 -1117.515625 L 840.511719 -1117.515625 M 840.511719 300.945312 L 840.511719 347.265625 L 810.578125 347.265625 L 810.578125 300.945312 L 840.511719 300.945312 " fill-opacity="1" fill-rule="nonzero"/></g><g clip-path="url(#8eeab53f5f)"><path fill="#a86c36" d="M 870.445312 -1117.515625 L 870.445312 -1070.859375 L 840.511719 -1070.859375 L 840.511719 -1117.515625 L 870.445312 -1117.515625 M 870.445312 300.945312 L 870.445312 347.265625 L 840.511719 347.265625 L 840.511719 300.945312 L 870.445312 300.945312 " fill-opacity="1" fill-rule="nonzero"/></g><g clip-path="url(#b17bc9efc7)"><path fill="#ae703f" d="M 900.375 -1117.515625 L 900.375 -1070.859375 L 870.445312 -1070.859375 L 870.445312 -1117.515625 L 900.375 -1117.515625 M 900.375 300.945312 L 900.375 347.265625 L 870.445312 347.265625 L 870.445312 300.945312 L 900.375 300.945312 " fill-opacity="1" fill-rule="nonzero"/></g><g clip-path="url(#16f10e1628)"><path fill="#a86c37" d="M 930.324219 -1117.515625 L 930.324219 -1070.859375 L 900.375 -1070.859375 L 900.375 -1117.515625 L 930.324219 -1117.515625 M 930.324219 300.945312 L 930.324219 347.265625 L 900.375 347.265625 L 900.375 300.945312 L 930.324219 300.945312 " fill-opacity="1" fill-rule="nonzero"/></g><g clip-path="url(#7f36ab073b)"><path fill="#ae703f" d="M 960.257812 -1117.515625 L 960.257812 -1070.859375 L 930.324219 -1070.859375 L 930.324219 -1117.515625 L 960.257812 -1117.515625 M 960.257812 300.945312 L 960.257812 347.265625 L 930.324219 347.265625 L 930.324219 300.945312 L 960.257812 300.945312 " fill-opacity="1" fill-rule="nonzero"/></g><g clip-path="url(#5b674cb1f0)"><path fill="#ae703f" d="M 990.191406 -1117.515625 L 990.191406 -1070.859375 L 960.257812 -1070.859375 L 960.257812 -1117.515625 L 990.191406 -1117.515625 M 990.191406 300.945312 L 990.191406 347.265625 L 960.257812 347.265625 L 960.257812 300.945312 L 990.191406 300.945312 " fill-opacity="1" fill-rule="nonzero"/></g><g clip-path="url(#77339912b1)"><path fill="#ae703f" d="M 1020.121094 -1117.515625 L 1020.121094 -1070.859375 L 990.191406 -1070.859375 L 990.191406 -1117.515625 L 1020.121094 -1117.515625 M 1020.121094 300.945312 L 1020.121094 347.265625 L 990.191406 347.265625 L 990.191406 300.945312 L 1020.121094 300.945312 " fill-opacity="1" fill-rule="nonzero"/></g><g clip-path="url(#b6e446c86f)"><path fill="#ae703f" d="M 1050.054688 -1117.515625 L 1050.054688 -1070.859375 L 1020.121094 -1070.859375 L 1020.121094 -1117.515625 L 1050.054688 -1117.515625 M 1050.054688 300.945312 L 1050.054688 347.265625 L 1020.121094 347.265625 L 1020.121094 300.945312 L 1050.054688 300.945312 " fill-opacity="1" fill-rule="nonzero"/></g><g clip-path="url(#bf67eae8e6)"><path fill="#ae703f" d="M 1079.984375 -1117.515625 L 1079.984375 -1070.859375 L 1050.054688 -1070.859375 L 1050.054688 -1117.515625 L 1079.984375 -1117.515625 M 1079.984375 300.945312 L 1079.984375 347.265625 L 1050.054688 347.265625 L 1050.054688 300.945312 L 1079.984375 300.945312 " fill-opacity="1" fill-rule="nonzero"/></g><g clip-path="url(#ff82604c46)"><path fill="#ae703f" d="M 1109.917969 -1117.515625 L 1109.917969 -1070.859375 L 1079.984375 -1070.859375 L 1079.984375 -1117.515625 L 1109.917969 -1117.515625 M 1109.917969 300.945312 L 1109.917969 347.265625 L 1079.984375 347.265625 L 1079.984375 300.945312 L 1109.917969 300.945312 " fill-opacity="1" fill-rule="nonzero"/></g><g clip-path="url(#2fae3479fb)"><path fill="#ae703f" d="M 1139.851562 -1117.515625 L 1139.851562 -1070.859375 L 1109.917969 -1070.859375 L 1109.917969 -1117.515625 L 1139.851562 -1117.515625 M 1139.851562 300.945312 L 1139.851562 347.265625 L 1109.917969 347.265625 L 1109.917969 300.945312 L 1139.851562 300.945312 " fill-opacity="1" fill-rule="nonzero"/></g><g clip-path="url(#640481f1c8)"><path fill="#a86c37" d="M 1169.78125 -1117.515625 L 1169.78125 -1070.859375 L 1139.851562 -1070.859375 L 1139.851562 -1117.515625 L 1169.78125 -1117.515625 M 1169.78125 300.945312 L 1169.78125 347.265625 L 1139.851562 347.265625 L 1139.851562 300.945312 L 1169.78125 300.945312 " fill-opacity="1" fill-rule="nonzero"/></g><g clip-path="url(#482c66b5e9)"><path fill="#ae703f" d="M 1199.714844 -1117.515625 L 1199.714844 347.265625 L 1169.78125 347.265625 L 1169.78125 300.945312 L 1198.421875 300.945312 L 1198.421875 -1070.859375 L 1169.78125 -1070.859375 L 1169.78125 -1117.515625 L 1199.714844 -1117.515625 " fill-opacity="1" fill-rule="nonzero"/></g><g clip-path="url(#541cdb7ace)"><path fill="#a86c36" d="M 1229.648438 347.265625 L 1229.648438 -1117.515625 L 1199.714844 -1117.515625 L 1199.714844 347.265625 Z M 1229.648438 347.265625 " fill-opacity="1" fill-rule="nonzero"/></g><path fill="#ae703f" d="M 660.902344 300.945312 L 660.902344 65.417969 L 645.953125 65.417969 L 645.953125 300.945312 Z M 660.902344 300.945312 " fill-opacity="1" fill-rule="nonzero"/><path fill="#ae703f" d="M 690.851562 300.945312 L 690.851562 65.417969 L 660.902344 65.417969 L 660.902344 300.945312 Z M 690.851562 300.945312 " fill-opacity="1" fill-rule="nonzero"/><path fill="#ae703f" d="M 720.785156 300.945312 L 720.785156 65.417969 L 690.851562 65.417969 L 690.851562 300.945312 Z M 720.785156 300.945312 " fill-opacity="1" fill-rule="nonzero"/><path fill="#ae703f" d="M 750.714844 300.945312 L 750.714844 65.417969 L 720.785156 65.417969 L 720.785156 300.945312 Z M 750.714844 300.945312 " fill-opacity="1" fill-rule="nonzero"/><path fill="#ae703f" d="M 780.648438 300.945312 L 780.648438 65.417969 L 750.714844 65.417969 L 750.714844 300.945312 Z M 780.648438 300.945312 " fill-opacity="1" fill-rule="nonzero"/><path fill="#a86c37" d="M 810.578125 300.945312 L 810.578125 65.417969 L 780.648438 65.417969 L 780.648438 300.945312 Z M 810.578125 300.945312 " fill-opacity="1" fill-rule="nonzero"/><path fill="#ae703f" d="M 840.511719 300.945312 L 840.511719 65.417969 L 810.578125 65.417969 L 810.578125 300.945312 Z M 840.511719 300.945312 " fill-opacity="1" fill-rule="nonzero"/><path fill="#a86c36" d="M 851.542969 300.945312 L 851.542969 65.417969 L 840.511719 65.417969 L 840.511719 300.945312 Z M 851.542969 300.945312 " fill-opacity="1" fill-rule="nonzero"/><path fill="#ffffff" d="M 1096.449219 296.371094 C 1094.816406 205.835938 1058.816406 120.988281 994.613281 56.773438 C 928.914062 -8.953125 841.539062 -45.128906 748.613281 -45.128906 L 746.8125 -45.128906 C 746.207031 -45.128906 745.585938 -45.113281 744.964844 -45.113281 C 556.964844 -43.160156 404.207031 108.695312 400.777344 296.371094 L 315.875 296.371094 L 315.875 -378.726562 L 565.269531 -378.726562 C 568.683594 -279.363281 650.511719 -199.589844 750.664062 -199.589844 C 850.804688 -199.589844 932.644531 -279.363281 936.058594 -378.726562 L 1185.457031 -378.726562 L 1185.457031 296.371094 Z M 638.6875 56.742188 L 638.503906 56.742188 L 638.503906 296.371094 L 413.675781 296.371094 C 416.738281 135.941406 533.050781 2.769531 685.875 -26.308594 C 658.953125 -7.910156 640.738281 22.28125 638.6875 56.742188 Z M 854.570312 73.945312 C 854.90625 70.378906 855.140625 66.796875 855.140625 63.199219 C 855.140625 25.40625 835.6875 -7.910156 806.273438 -27.300781 C 873.824219 -15.644531 936.027344 16.445312 985.480469 65.90625 C 1047.230469 127.664062 1081.886719 209.300781 1083.519531 296.371094 L 854.570312 296.371094 Z M 651.402344 114.359375 C 653.351562 117.992188 655.453125 121.558594 657.773438 124.90625 C 659.035156 126.722656 661.054688 127.699219 663.089844 127.699219 C 664.347656 127.699219 665.644531 127.3125 666.753906 126.539062 C 669.695312 124.503906 670.402344 120.484375 668.386719 117.539062 C 665.527344 113.417969 662.96875 109.011719 660.785156 104.503906 C 659.238281 101.277344 655.371094 99.929688 652.175781 101.460938 L 651.402344 101.933594 L 651.402344 98.265625 C 654.5625 97.089844 656.328125 93.675781 655.351562 90.394531 C 653.921875 85.601562 652.863281 80.640625 652.226562 75.628906 C 652.109375 74.769531 651.820312 73.980469 651.402344 73.257812 L 651.402344 69.65625 L 841.640625 69.65625 L 841.640625 73.273438 C 841.46875 74.957031 841.300781 76.621094 841.035156 78.269531 C 840.847656 79.632812 841.066406 80.960938 841.640625 82.121094 L 841.640625 88.847656 C 839.738281 89.46875 838.175781 90.933594 837.484375 92.953125 C 835.921875 97.726562 833.972656 102.421875 831.667969 106.894531 C 830.035156 110.039062 831.28125 113.957031 834.441406 115.605469 C 835.382812 116.078125 836.410156 116.3125 837.402344 116.3125 C 838.980469 116.3125 840.445312 115.707031 841.640625 114.664062 L 841.640625 296.371094 L 651.402344 296.371094 Z M 747.4375 -32.195312 C 797.597656 -31.875 838.664062 7.34375 841.992188 56.742188 L 651.652344 56.742188 C 654.949219 7.730469 695.410156 -31.21875 744.964844 -32.164062 C 745.804688 -32.179688 746.613281 -32.195312 747.4375 -32.195312 Z M 795.394531 -391.640625 C 792.25 -413.558594 773.449219 -430.425781 750.664062 -430.425781 C 727.878906 -430.425781 709.097656 -413.558594 705.933594 -391.640625 L 578.183594 -391.640625 C 581.617188 -483.875 657.640625 -557.859375 750.664062 -557.859375 C 843.691406 -557.859375 919.730469 -483.875 923.128906 -391.640625 Z M 705.933594 -378.726562 C 709.097656 -356.792969 727.878906 -339.941406 750.664062 -339.941406 C 773.449219 -339.941406 792.25 -356.792969 795.394531 -378.726562 L 923.128906 -378.726562 C 919.730469 -286.492188 843.691406 -212.507812 750.664062 -212.507812 C 657.640625 -212.507812 581.617188 -286.492188 578.183594 -378.726562 Z M 400.777344 -1066.738281 C 404.226562 -877.832031 558.929688 -725.238281 748.613281 -725.238281 C 749 -725.238281 749.402344 -725.253906 749.789062 -725.253906 L 750.394531 -725.238281 C 751 -725.238281 751.589844 -725.273438 752.195312 -725.273438 C 940.246094 -727.191406 1093 -879.027344 1096.449219 -1066.738281 L 1185.457031 -1066.738281 L 1185.457031 -391.640625 L 936.058594 -391.640625 C 932.644531 -490.988281 850.804688 -570.777344 750.664062 -570.777344 C 650.511719 -570.777344 568.683594 -490.988281 565.269531 -391.640625 L 315.875 -391.640625 L 315.875 -1066.738281 Z M 858.503906 -827.109375 L 858.707031 -827.109375 L 858.707031 -1066.738281 L 1083.519531 -1066.738281 C 1080.457031 -906.308594 964.140625 -773.136719 811.371094 -744.074219 C 838.257812 -762.457031 856.453125 -792.632812 858.503906 -827.109375 Z M 642.675781 -843.507812 C 642.539062 -843.070312 642.4375 -842.617188 642.40625 -842.144531 C 642.1875 -839.320312 642.070312 -836.441406 642.070312 -833.585938 C 642.070312 -795.828125 661.472656 -762.574219 690.816406 -743.167969 C 535.589844 -770.277344 416.769531 -904.574219 413.675781 -1066.738281 L 642.675781 -1066.738281 Z M 845.808594 -879.0625 C 844.546875 -879.347656 843.21875 -879.230469 841.957031 -878.707031 C 838.664062 -877.347656 837.132812 -873.578125 838.496094 -870.25 C 840.394531 -865.675781 841.957031 -860.898438 843.136719 -856.070312 C 843.523438 -854.421875 844.515625 -853.109375 845.808594 -852.253906 L 845.808594 -843.625 C 845.558594 -842.835938 845.421875 -842.011719 845.507812 -841.136719 L 845.558594 -840.042969 L 655.589844 -840.042969 L 655.589844 -852.589844 C 656.5625 -853.429688 657.285156 -854.574219 657.625 -855.917969 C 658.800781 -860.761719 660.332031 -865.554688 662.246094 -870.148438 C 663.609375 -873.425781 662.0625 -877.226562 658.765625 -878.589844 C 657.722656 -879.027344 656.632812 -879.128906 655.589844 -879.027344 L 655.589844 -1066.738281 L 845.808594 -1066.738281 Z M 749.808594 -738.171875 C 699.628906 -738.457031 658.546875 -777.695312 655.21875 -827.109375 L 845.558594 -827.109375 C 842.261719 -778.082031 801.800781 -739.113281 752.179688 -738.1875 C 751.371094 -738.1875 750.597656 -738.171875 749.808594 -738.171875 Z M 302.960938 -1079.671875 L 302.960938 309.289062 L 1198.371094 309.289062 L 1198.371094 -1079.671875 L 302.960938 -1079.671875 " fill-opacity="1" fill-rule="nonzero"/><path fill="#ffffff" d="M 802.238281 140.902344 C 798.136719 143.8125 793.796875 146.433594 789.292969 148.671875 C 786.113281 150.269531 784.816406 154.136719 786.398438 157.347656 C 787.542969 159.601562 789.828125 160.898438 792.183594 160.898438 C 793.160156 160.898438 794.132812 160.679688 795.058594 160.242188 C 800.171875 157.6875 805.113281 154.710938 809.757812 151.394531 C 812.664062 149.328125 813.320312 145.289062 811.269531 142.382812 C 809.183594 139.472656 805.148438 138.816406 802.238281 140.902344 " fill-opacity="1" fill-rule="nonzero"/><path fill="#ffffff" d="M 832.742188 118.363281 C 829.851562 116.226562 825.796875 116.851562 823.714844 119.726562 C 820.71875 123.78125 817.390625 127.613281 813.792969 131.144531 C 811.269531 133.652344 811.234375 137.757812 813.742188 140.277344 C 815.003906 141.574219 816.683594 142.210938 818.347656 142.210938 C 819.980469 142.210938 821.609375 141.589844 822.871094 140.363281 C 826.941406 136.34375 830.707031 131.988281 834.105469 127.378906 C 836.191406 124.503906 835.585938 120.464844 832.742188 118.363281 " fill-opacity="1" fill-rule="nonzero"/><path fill="#ffffff" d="M 775.300781 154.304688 C 770.507812 155.800781 765.546875 156.914062 760.585938 157.652344 C 757.039062 158.15625 754.582031 161.4375 755.105469 164.953125 C 755.558594 168.164062 758.316406 170.5 761.476562 170.5 L 762.417969 170.433594 C 768.085938 169.609375 773.703125 168.332031 779.132812 166.648438 C 782.546875 165.574219 784.449219 161.957031 783.40625 158.542969 C 782.328125 155.144531 778.695312 153.246094 775.300781 154.304688 " fill-opacity="1" fill-rule="nonzero"/><path fill="#ffffff" d="M 745.484375 158.609375 C 740.457031 158.542969 735.378906 158.089844 730.453125 157.214844 C 726.921875 156.609375 723.589844 158.980469 722.953125 162.496094 C 722.363281 166.011719 724.71875 169.339844 728.234375 169.964844 C 733.832031 170.921875 739.582031 171.445312 745.316406 171.542969 L 745.402344 171.542969 C 748.933594 171.542969 751.808594 168.703125 751.84375 165.171875 C 751.925781 161.605469 749.050781 158.660156 745.484375 158.609375 " fill-opacity="1" fill-rule="nonzero"/><path fill="#ffffff" d="M 715.824219 153.464844 C 711.082031 151.832031 706.40625 149.816406 701.949219 147.445312 C 698.820312 145.761719 694.902344 146.957031 693.222656 150.101562 C 691.558594 153.246094 692.734375 157.148438 695.894531 158.828125 C 700.925781 161.539062 706.222656 163.839844 711.617188 165.707031 C 712.308594 165.945312 713.03125 166.042969 713.71875 166.042969 C 716.410156 166.042969 718.898438 164.363281 719.824219 161.6875 C 720.984375 158.308594 719.1875 154.640625 715.824219 153.464844 " fill-opacity="1" fill-rule="nonzero"/><path fill="#ffffff" d="M 689.238281 139.304688 C 685.234375 136.257812 681.433594 132.878906 677.953125 129.246094 C 675.480469 126.671875 671.394531 126.570312 668.824219 129.0625 C 666.234375 131.53125 666.148438 135.601562 668.621094 138.191406 C 672.589844 142.3125 676.894531 146.148438 681.433594 149.597656 C 682.59375 150.472656 683.972656 150.90625 685.351562 150.90625 C 687.285156 150.90625 689.21875 150.015625 690.480469 148.335938 C 692.652344 145.507812 692.078125 141.457031 689.238281 139.304688 " fill-opacity="1" fill-rule="nonzero"/><g clip-path="url(#f4545cdbab)"><g clip-path="url(#ae5b37fc21)"><path fill="#7ed957" d="M 283.277344 364.644531 L 598.675781 364.644531 L 598.675781 570.09375 L 283.277344 570.09375 Z M 283.277344 364.644531 " fill-opacity="1" fill-rule="nonzero"/></g></g><g fill="#000000" fill-opacity="1"><g transform="translate(348.704898, 474.144492)"><g/></g></g><g fill="#000000" fill-opacity="1"><g transform="translate(353.908022, 474.144492)"><g><path d="M 10.21875 -3.96875 C 10.21875 -2.675781 9.753906 -1.65625 8.828125 -0.90625 C 7.898438 -0.164062 6.613281 0.203125 4.96875 0.203125 C 3.4375 0.203125 2.085938 -0.0859375 0.921875 -0.671875 L 0.921875 -3.484375 C 1.878906 -3.046875 2.691406 -2.738281 3.359375 -2.5625 C 4.023438 -2.394531 4.640625 -2.3125 5.203125 -2.3125 C 5.859375 -2.3125 6.363281 -2.4375 6.71875 -2.6875 C 7.070312 -2.9375 7.25 -3.3125 7.25 -3.8125 C 7.25 -4.09375 7.171875 -4.34375 7.015625 -4.5625 C 6.859375 -4.78125 6.628906 -4.988281 6.328125 -5.1875 C 6.023438 -5.394531 5.410156 -5.71875 4.484375 -6.15625 C 3.609375 -6.570312 2.953125 -6.96875 2.515625 -7.34375 C 2.078125 -7.71875 1.726562 -8.15625 1.46875 -8.65625 C 1.207031 -9.164062 1.078125 -9.753906 1.078125 -10.421875 C 1.078125 -11.679688 1.503906 -12.671875 2.359375 -13.390625 C 3.222656 -14.117188 4.410156 -14.484375 5.921875 -14.484375 C 6.660156 -14.484375 7.363281 -14.394531 8.03125 -14.21875 C 8.707031 -14.039062 9.414062 -13.796875 10.15625 -13.484375 L 9.1875 -11.125 C 8.414062 -11.4375 7.78125 -11.65625 7.28125 -11.78125 C 6.789062 -11.90625 6.304688 -11.96875 5.828125 -11.96875 C 5.253906 -11.96875 4.8125 -11.832031 4.5 -11.5625 C 4.195312 -11.289062 4.046875 -10.941406 4.046875 -10.515625 C 4.046875 -10.253906 4.109375 -10.019531 4.234375 -9.8125 C 4.359375 -9.613281 4.550781 -9.421875 4.8125 -9.234375 C 5.082031 -9.054688 5.722656 -8.726562 6.734375 -8.25 C 8.066406 -7.601562 8.976562 -6.957031 9.46875 -6.3125 C 9.96875 -5.675781 10.21875 -4.894531 10.21875 -3.96875 Z M 10.21875 -3.96875 "/></g></g></g><g fill="#000000" fill-opacity="1"><g transform="translate(364.919344, 474.144492)"><g><path d="M 1.796875 0 L 1.796875 -14.28125 L 4.828125 -14.28125 L 4.828125 0 Z M 1.796875 0 "/></g></g></g><g fill="#000000" fill-opacity="1"><g transform="translate(371.537851, 474.144492)"><g><path d="M 1.796875 0 L 1.796875 -14.28125 L 4.828125 -14.28125 L 4.828125 -2.5 L 10.609375 -2.5 L 10.609375 0 Z M 1.796875 0 "/></g></g></g><g fill="#000000" fill-opacity="1"><g transform="translate(382.832265, 474.144492)"><g><path d="M 1.796875 0 L 1.796875 -14.28125 L 4.828125 -14.28125 L 4.828125 -2.5 L 10.609375 -2.5 L 10.609375 0 Z M 1.796875 0 "/></g></g></g><g fill="#000000" fill-opacity="1"><g transform="translate(394.126679, 474.144492)"><g><path d="M 10.53125 0 L 9.5 -3.40625 L 4.296875 -3.40625 L 3.265625 0 L 0 0 L 5.046875 -14.34375 L 8.734375 -14.34375 L 13.796875 0 Z M 8.78125 -5.9375 C 7.820312 -9.019531 7.28125 -10.757812 7.15625 -11.15625 C 7.039062 -11.5625 6.957031 -11.882812 6.90625 -12.125 C 6.6875 -11.289062 6.070312 -9.226562 5.0625 -5.9375 Z M 8.78125 -5.9375 "/></g></g></g><g fill="#000000" fill-opacity="1"><g transform="translate(407.920117, 474.144492)"><g><path d="M 10.21875 -3.96875 C 10.21875 -2.675781 9.753906 -1.65625 8.828125 -0.90625 C 7.898438 -0.164062 6.613281 0.203125 4.96875 0.203125 C 3.4375 0.203125 2.085938 -0.0859375 0.921875 -0.671875 L 0.921875 -3.484375 C 1.878906 -3.046875 2.691406 -2.738281 3.359375 -2.5625 C 4.023438 -2.394531 4.640625 -2.3125 5.203125 -2.3125 C 5.859375 -2.3125 6.363281 -2.4375 6.71875 -2.6875 C 7.070312 -2.9375 7.25 -3.3125 7.25 -3.8125 C 7.25 -4.09375 7.171875 -4.34375 7.015625 -4.5625 C 6.859375 -4.78125 6.628906 -4.988281 6.328125 -5.1875 C 6.023438 -5.394531 5.410156 -5.71875 4.484375 -6.15625 C 3.609375 -6.570312 2.953125 -6.96875 2.515625 -7.34375 C 2.078125 -7.71875 1.726562 -8.15625 1.46875 -8.65625 C 1.207031 -9.164062 1.078125 -9.753906 1.078125 -10.421875 C 1.078125 -11.679688 1.503906 -12.671875 2.359375 -13.390625 C 3.222656 -14.117188 4.410156 -14.484375 5.921875 -14.484375 C 6.660156 -14.484375 7.363281 -14.394531 8.03125 -14.21875 C 8.707031 -14.039062 9.414062 -13.796875 10.15625 -13.484375 L 9.1875 -11.125 C 8.414062 -11.4375 7.78125 -11.65625 7.28125 -11.78125 C 6.789062 -11.90625 6.304688 -11.96875 5.828125 -11.96875 C 5.253906 -11.96875 4.8125 -11.832031 4.5 -11.5625 C 4.195312 -11.289062 4.046875 -10.941406 4.046875 -10.515625 C 4.046875 -10.253906 4.109375 -10.019531 4.234375 -9.8125 C 4.359375 -9.613281 4.550781 -9.421875 4.8125 -9.234375 C 5.082031 -9.054688 5.722656 -8.726562 6.734375 -8.25 C 8.066406 -7.601562 8.976562 -6.957031 9.46875 -6.3125 C 9.96875 -5.675781 10.21875 -4.894531 10.21875 -3.96875 Z M 10.21875 -3.96875 "/></g></g></g><g fill="#000000" fill-opacity="1"><g transform="translate(418.931438, 474.144492)"><g/></g></g><g fill="#000000" fill-opacity="1"><g transform="translate(424.124721, 474.144492)"><g><path d="M 7.859375 -11.96875 C 6.722656 -11.96875 5.84375 -11.535156 5.21875 -10.671875 C 4.59375 -9.816406 4.28125 -8.625 4.28125 -7.09375 C 4.28125 -3.914062 5.472656 -2.328125 7.859375 -2.328125 C 8.859375 -2.328125 10.070312 -2.578125 11.5 -3.078125 L 11.5 -0.53125 C 10.332031 -0.0390625 9.023438 0.203125 7.578125 0.203125 C 5.503906 0.203125 3.914062 -0.425781 2.8125 -1.6875 C 1.707031 -2.945312 1.15625 -4.757812 1.15625 -7.125 C 1.15625 -8.601562 1.425781 -9.898438 1.96875 -11.015625 C 2.507812 -12.140625 3.285156 -13 4.296875 -13.59375 C 5.316406 -14.1875 6.503906 -14.484375 7.859375 -14.484375 C 9.242188 -14.484375 10.640625 -14.148438 12.046875 -13.484375 L 11.0625 -11.015625 C 10.53125 -11.265625 9.992188 -11.484375 9.453125 -11.671875 C 8.910156 -11.867188 8.378906 -11.96875 7.859375 -11.96875 Z M 7.859375 -11.96875 "/></g></g></g><g fill="#000000" fill-opacity="1"><g transform="translate(436.863883, 474.144492)"><g><path d="M 10.53125 0 L 9.5 -3.40625 L 4.296875 -3.40625 L 3.265625 0 L 0 0 L 5.046875 -14.34375 L 8.734375 -14.34375 L 13.796875 0 Z M 8.78125 -5.9375 C 7.820312 -9.019531 7.28125 -10.757812 7.15625 -11.15625 C 7.039062 -11.5625 6.957031 -11.882812 6.90625 -12.125 C 6.6875 -11.289062 6.070312 -9.226562 5.0625 -5.9375 Z M 8.78125 -5.9375 "/></g></g></g><g fill="#000000" fill-opacity="1"><g transform="translate(450.657321, 474.144492)"><g><path d="M 14.46875 0 L 10.609375 0 L 4.40625 -10.796875 L 4.3125 -10.796875 C 4.4375 -8.890625 4.5 -7.53125 4.5 -6.71875 L 4.5 0 L 1.796875 0 L 1.796875 -14.28125 L 5.609375 -14.28125 L 11.8125 -3.578125 L 11.890625 -3.578125 C 11.785156 -5.441406 11.734375 -6.753906 11.734375 -7.515625 L 11.734375 -14.28125 L 14.46875 -14.28125 Z M 14.46875 0 "/></g></g></g><g fill="#000000" fill-opacity="1"><g transform="translate(466.910734, 474.144492)"><g><path d="M 7.859375 -11.96875 C 6.722656 -11.96875 5.84375 -11.535156 5.21875 -10.671875 C 4.59375 -9.816406 4.28125 -8.625 4.28125 -7.09375 C 4.28125 -3.914062 5.472656 -2.328125 7.859375 -2.328125 C 8.859375 -2.328125 10.070312 -2.578125 11.5 -3.078125 L 11.5 -0.53125 C 10.332031 -0.0390625 9.023438 0.203125 7.578125 0.203125 C 5.503906 0.203125 3.914062 -0.425781 2.8125 -1.6875 C 1.707031 -2.945312 1.15625 -4.757812 1.15625 -7.125 C 1.15625 -8.601562 1.425781 -9.898438 1.96875 -11.015625 C 2.507812 -12.140625 3.285156 -13 4.296875 -13.59375 C 5.316406 -14.1875 6.503906 -14.484375 7.859375 -14.484375 C 9.242188 -14.484375 10.640625 -14.148438 12.046875 -13.484375 L 11.0625 -11.015625 C 10.53125 -11.265625 9.992188 -11.484375 9.453125 -11.671875 C 8.910156 -11.867188 8.378906 -11.96875 7.859375 -11.96875 Z M 7.859375 -11.96875 "/></g></g></g><g fill="#000000" fill-opacity="1"><g transform="translate(479.649896, 474.144492)"><g><path d="M 13.5 0 L 10.484375 0 L 10.484375 -6.15625 L 4.828125 -6.15625 L 4.828125 0 L 1.796875 0 L 1.796875 -14.28125 L 4.828125 -14.28125 L 4.828125 -8.6875 L 10.484375 -8.6875 L 10.484375 -14.28125 L 13.5 -14.28125 Z M 13.5 0 "/></g></g></g><g fill="#000000" fill-opacity="1"><g transform="translate(494.946653, 474.144492)"><g><path d="M 10.53125 0 L 9.5 -3.40625 L 4.296875 -3.40625 L 3.265625 0 L 0 0 L 5.046875 -14.34375 L 8.734375 -14.34375 L 13.796875 0 Z M 8.78125 -5.9375 C 7.820312 -9.019531 7.28125 -10.757812 7.15625 -11.15625 C 7.039062 -11.5625 6.957031 -11.882812 6.90625 -12.125 C 6.6875 -11.289062 6.070312 -9.226562 5.0625 -5.9375 Z M 8.78125 -5.9375 "/></g></g></g><g fill="#000000" fill-opacity="1"><g transform="translate(508.747859, 474.144492)"><g/></g></g><g fill="#000000" fill-opacity="1"><g transform="translate(513.941142, 474.144492)"><g/></g></g><g fill="#000000" fill-opacity="1"><g transform="translate(519.142394, 474.144492)"><g><path d="M 10.53125 0 L 9.5 -3.40625 L 4.296875 -3.40625 L 3.265625 0 L 0 0 L 5.046875 -14.34375 L 8.734375 -14.34375 L 13.796875 0 Z M 8.78125 -5.9375 C 7.820312 -9.019531 7.28125 -10.757812 7.15625 -11.15625 C 7.039062 -11.5625 6.957031 -11.882812 6.90625 -12.125 C 6.6875 -11.289062 6.070312 -9.226562 5.0625 -5.9375 Z M 8.78125 -5.9375 "/></g></g></g><g clip-path="url(#573e2472a0)"><g clip-path="url(#e3be35c4f3)"><path fill="#d9d9d9" d="M 109.058594 570.085938 L 109.058594 238.300781 L 199.417969 238.300781 L 199.417969 570.085938 Z M 109.058594 570.085938 " fill-opacity="1" fill-rule="nonzero"/></g></g><g clip-path="url(#21658a8a47)"><g clip-path="url(#cd8362395d)"><path fill="#ff66c4" d="M 231.320312 281.800781 L 231.320312 65.441406 L 283.28125 65.441406 L 283.28125 281.800781 Z M 231.320312 281.800781 " fill-opacity="1" fill-rule="nonzero"/></g></g><g fill="#000000" fill-opacity="1"><g transform="translate(263.571933, 217.710597)"><g><path d="M 0 -3.75 L -9.828125 0 L -9.828125 -2.796875 L -4.234375 -4.703125 C -3.523438 -4.910156 -2.851562 -5.039062 -2.21875 -5.09375 L -2.21875 -5.15625 C -2.78125 -5.175781 -3.453125 -5.304688 -4.234375 -5.546875 L -9.828125 -7.4375 L -9.828125 -10.234375 L 0 -6.5 Z M 0 -3.75 "/></g></g><g transform="translate(263.571933, 207.47134)"><g><path d="M -12.359375 -1.296875 C -13.234375 -1.296875 -13.671875 -1.78125 -13.671875 -2.75 C -13.671875 -3.71875 -13.234375 -4.203125 -12.359375 -4.203125 C -11.953125 -4.203125 -11.628906 -4.082031 -11.390625 -3.84375 C -11.160156 -3.601562 -11.046875 -3.238281 -11.046875 -2.75 C -11.046875 -1.78125 -11.484375 -1.296875 -12.359375 -1.296875 Z M 0 -4.09375 L 0 -1.40625 L -9.828125 -1.40625 L -9.828125 -4.09375 Z M 0 -4.09375 "/></g></g><g transform="translate(263.571933, 201.978176)"><g><path d="M -2.921875 -8.265625 C -1.910156 -8.265625 -1.140625 -7.910156 -0.609375 -7.203125 C -0.0859375 -6.503906 0.171875 -5.457031 0.171875 -4.0625 C 0.171875 -3.351562 0.125 -2.742188 0.03125 -2.234375 C -0.0625 -1.734375 -0.203125 -1.265625 -0.390625 -0.828125 L -2.609375 -0.828125 C -2.378906 -1.328125 -2.179688 -1.890625 -2.015625 -2.515625 C -1.859375 -3.140625 -1.78125 -3.6875 -1.78125 -4.15625 C -1.78125 -5.125 -2.0625 -5.609375 -2.625 -5.609375 C -2.832031 -5.609375 -3.003906 -5.546875 -3.140625 -5.421875 C -3.273438 -5.296875 -3.425781 -5.070312 -3.59375 -4.75 C -3.757812 -4.4375 -3.953125 -4.015625 -4.171875 -3.484375 C -4.492188 -2.734375 -4.785156 -2.179688 -5.046875 -1.828125 C -5.316406 -1.472656 -5.625 -1.210938 -5.96875 -1.046875 C -6.320312 -0.890625 -6.753906 -0.8125 -7.265625 -0.8125 C -8.140625 -0.8125 -8.816406 -1.148438 -9.296875 -1.828125 C -9.773438 -2.503906 -10.015625 -3.460938 -10.015625 -4.703125 C -10.015625 -5.890625 -9.753906 -7.039062 -9.234375 -8.15625 L -7.296875 -7.34375 C -7.515625 -6.851562 -7.691406 -6.394531 -7.828125 -5.96875 C -7.960938 -5.539062 -8.03125 -5.101562 -8.03125 -4.65625 C -8.03125 -3.863281 -7.816406 -3.46875 -7.390625 -3.46875 C -7.140625 -3.46875 -6.925781 -3.59375 -6.75 -3.84375 C -6.582031 -4.101562 -6.328125 -4.664062 -5.984375 -5.53125 C -5.671875 -6.300781 -5.378906 -6.863281 -5.109375 -7.21875 C -4.835938 -7.570312 -4.523438 -7.832031 -4.171875 -8 C -3.816406 -8.175781 -3.398438 -8.265625 -2.921875 -8.265625 Z M -2.921875 -8.265625 "/></g></g><g transform="translate(263.571933, 193.030911)"><g><path d="M -12.359375 -1.296875 C -13.234375 -1.296875 -13.671875 -1.78125 -13.671875 -2.75 C -13.671875 -3.71875 -13.234375 -4.203125 -12.359375 -4.203125 C -11.953125 -4.203125 -11.628906 -4.082031 -11.390625 -3.84375 C -11.160156 -3.601562 -11.046875 -3.238281 -11.046875 -2.75 C -11.046875 -1.78125 -11.484375 -1.296875 -12.359375 -1.296875 Z M 0 -4.09375 L 0 -1.40625 L -9.828125 -1.40625 L -9.828125 -4.09375 Z M 0 -4.09375 "/></g></g><g transform="translate(263.571933, 187.537747)"><g><path d="M -1.953125 -5.546875 C -1.953125 -6.015625 -2.054688 -6.578125 -2.265625 -7.234375 L -0.265625 -7.234375 C 0.0234375 -6.566406 0.171875 -5.742188 0.171875 -4.765625 C 0.171875 -3.703125 -0.0976562 -2.925781 -0.640625 -2.4375 C -1.179688 -1.945312 -1.992188 -1.703125 -3.078125 -1.703125 L -7.8125 -1.703125 L -7.8125 -0.40625 L -8.953125 -0.40625 L -9.84375 -1.890625 L -11.921875 -2.65625 L -11.921875 -4.375 L -9.828125 -4.375 L -9.828125 -7.125 L -7.8125 -7.125 L -7.8125 -4.375 L -3.078125 -4.375 C -2.691406 -4.375 -2.40625 -4.476562 -2.21875 -4.6875 C -2.039062 -4.90625 -1.953125 -5.191406 -1.953125 -5.546875 Z M -1.953125 -5.546875 "/></g></g><g transform="translate(263.571933, 179.724271)"><g><path d="M 0 -7.640625 L -1.34375 -7.125 L -1.34375 -7.0625 C -0.769531 -6.601562 -0.375 -6.132812 -0.15625 -5.65625 C 0.0625 -5.1875 0.171875 -4.566406 0.171875 -3.796875 C 0.171875 -2.847656 -0.09375 -2.101562 -0.625 -1.5625 C -1.164062 -1.019531 -1.9375 -0.75 -2.9375 -0.75 C -3.976562 -0.75 -4.742188 -1.113281 -5.234375 -1.84375 C -5.734375 -2.570312 -6.007812 -3.675781 -6.0625 -5.15625 L -6.125 -6.859375 L -6.546875 -6.859375 C -7.546875 -6.859375 -8.046875 -6.347656 -8.046875 -5.328125 C -8.046875 -4.546875 -7.804688 -3.625 -7.328125 -2.5625 L -9.140625 -1.671875 C -9.734375 -2.796875 -10.03125 -4.050781 -10.03125 -5.4375 C -10.03125 -6.75 -9.742188 -7.753906 -9.171875 -8.453125 C -8.597656 -9.160156 -7.722656 -9.515625 -6.546875 -9.515625 L 0 -9.515625 Z M -4.546875 -6.859375 L -4.515625 -5.8125 C -4.492188 -5.039062 -4.351562 -4.460938 -4.09375 -4.078125 C -3.832031 -3.691406 -3.441406 -3.5 -2.921875 -3.5 C -2.160156 -3.5 -1.78125 -3.9375 -1.78125 -4.8125 C -1.78125 -5.425781 -1.957031 -5.921875 -2.3125 -6.296875 C -2.675781 -6.671875 -3.15625 -6.859375 -3.75 -6.859375 Z M -4.546875 -6.859375 "/></g></g><g transform="translate(263.571933, 168.852201)"><g><path d="M 0 -10.484375 L 0 -7.796875 L -5.734375 -7.796875 C -6.441406 -7.796875 -6.972656 -7.671875 -7.328125 -7.421875 C -7.679688 -7.171875 -7.859375 -6.769531 -7.859375 -6.21875 C -7.859375 -5.46875 -7.609375 -4.925781 -7.109375 -4.59375 C -6.609375 -4.257812 -5.78125 -4.09375 -4.625 -4.09375 L 0 -4.09375 L 0 -1.40625 L -9.828125 -1.40625 L -9.828125 -3.453125 L -8.5625 -3.8125 L -8.5625 -3.96875 C -9.039062 -4.257812 -9.398438 -4.664062 -9.640625 -5.1875 C -9.890625 -5.71875 -10.015625 -6.316406 -10.015625 -6.984375 C -10.015625 -8.128906 -9.703125 -9 -9.078125 -9.59375 C -8.460938 -10.1875 -7.570312 -10.484375 -6.40625 -10.484375 Z M 0 -10.484375 "/></g></g><g transform="translate(263.571933, 157.022123)"><g><path d="M -1.953125 -5.546875 C -1.953125 -6.015625 -2.054688 -6.578125 -2.265625 -7.234375 L -0.265625 -7.234375 C 0.0234375 -6.566406 0.171875 -5.742188 0.171875 -4.765625 C 0.171875 -3.703125 -0.0976562 -2.925781 -0.640625 -2.4375 C -1.179688 -1.945312 -1.992188 -1.703125 -3.078125 -1.703125 L -7.8125 -1.703125 L -7.8125 -0.40625 L -8.953125 -0.40625 L -9.84375 -1.890625 L -11.921875 -2.65625 L -11.921875 -4.375 L -9.828125 -4.375 L -9.828125 -7.125 L -7.8125 -7.125 L -7.8125 -4.375 L -3.078125 -4.375 C -2.691406 -4.375 -2.40625 -4.476562 -2.21875 -4.6875 C -2.039062 -4.90625 -1.953125 -5.191406 -1.953125 -5.546875 Z M -1.953125 -5.546875 "/></g></g><g transform="translate(263.571933, 149.208647)"><g><path d="M -8.109375 -5.46875 C -8.109375 -4.90625 -7.925781 -4.460938 -7.5625 -4.140625 C -7.195312 -3.816406 -6.6875 -3.632812 -6.03125 -3.59375 L -6.03125 -7.34375 C -6.6875 -7.332031 -7.195312 -7.160156 -7.5625 -6.828125 C -7.925781 -6.492188 -8.109375 -6.039062 -8.109375 -5.46875 Z M 0.171875 -5.859375 C 0.171875 -4.273438 -0.257812 -3.035156 -1.125 -2.140625 C -2 -1.253906 -3.238281 -0.8125 -4.84375 -0.8125 C -6.488281 -0.8125 -7.757812 -1.222656 -8.65625 -2.046875 C -9.5625 -2.867188 -10.015625 -4.003906 -10.015625 -5.453125 C -10.015625 -6.847656 -9.617188 -7.929688 -8.828125 -8.703125 C -8.035156 -9.472656 -6.941406 -9.859375 -5.546875 -9.859375 L -4.25 -9.859375 L -4.25 -3.53125 C -3.488281 -3.550781 -2.890625 -3.769531 -2.453125 -4.1875 C -2.023438 -4.613281 -1.8125 -5.210938 -1.8125 -5.984375 C -1.8125 -6.566406 -1.875 -7.125 -2 -7.65625 C -2.125 -8.1875 -2.320312 -8.738281 -2.59375 -9.3125 L -0.515625 -9.3125 C -0.285156 -8.84375 -0.113281 -8.335938 0 -7.796875 C 0.113281 -7.265625 0.171875 -6.617188 0.171875 -5.859375 Z M 0.171875 -5.859375 "/></g></g><g transform="translate(263.571933, 138.573882)"><g><path d="M -2.921875 -8.265625 C -1.910156 -8.265625 -1.140625 -7.910156 -0.609375 -7.203125 C -0.0859375 -6.503906 0.171875 -5.457031 0.171875 -4.0625 C 0.171875 -3.351562 0.125 -2.742188 0.03125 -2.234375 C -0.0625 -1.734375 -0.203125 -1.265625 -0.390625 -0.828125 L -2.609375 -0.828125 C -2.378906 -1.328125 -2.179688 -1.890625 -2.015625 -2.515625 C -1.859375 -3.140625 -1.78125 -3.6875 -1.78125 -4.15625 C -1.78125 -5.125 -2.0625 -5.609375 -2.625 -5.609375 C -2.832031 -5.609375 -3.003906 -5.546875 -3.140625 -5.421875 C -3.273438 -5.296875 -3.425781 -5.070312 -3.59375 -4.75 C -3.757812 -4.4375 -3.953125 -4.015625 -4.171875 -3.484375 C -4.492188 -2.734375 -4.785156 -2.179688 -5.046875 -1.828125 C -5.316406 -1.472656 -5.625 -1.210938 -5.96875 -1.046875 C -6.320312 -0.890625 -6.753906 -0.8125 -7.265625 -0.8125 C -8.140625 -0.8125 -8.816406 -1.148438 -9.296875 -1.828125 C -9.773438 -2.503906 -10.015625 -3.460938 -10.015625 -4.703125 C -10.015625 -5.890625 -9.753906 -7.039062 -9.234375 -8.15625 L -7.296875 -7.34375 C -7.515625 -6.851562 -7.691406 -6.394531 -7.828125 -5.96875 C -7.960938 -5.539062 -8.03125 -5.101562 -8.03125 -4.65625 C -8.03125 -3.863281 -7.816406 -3.46875 -7.390625 -3.46875 C -7.140625 -3.46875 -6.925781 -3.59375 -6.75 -3.84375 C -6.582031 -4.101562 -6.328125 -4.664062 -5.984375 -5.53125 C -5.671875 -6.300781 -5.378906 -6.863281 -5.109375 -7.21875 C -4.835938 -7.570312 -4.523438 -7.832031 -4.171875 -8 C -3.816406 -8.175781 -3.398438 -8.265625 -2.921875 -8.265625 Z M -2.921875 -8.265625 "/></g></g></g><g clip-path="url(#aabb94253d)"><g clip-path="url(#442392721f)"><path fill="#d9d9d9" d="M 109.058594 173.660156 L 109.058594 -17.996094 L 199.417969 -17.996094 L 199.417969 173.660156 Z M 109.058594 173.660156 " fill-opacity="1" fill-rule="nonzero"/></g></g><g clip-path="url(#a827105541)"><g clip-path="url(#930fcc524b)"><path fill="#d9d9d9" d="M 836.574219 571.523438 L 836.574219 364.640625 L 1230.136719 364.640625 L 1230.136719 571.523438 Z M 836.574219 571.523438 " fill-opacity="1" fill-rule="nonzero"/></g></g><g clip-path="url(#db9721a1b1)"><g clip-path="url(#384cc94367)"><path fill="#d9d9d9" d="M 1208.421875 319.765625 L 1208.421875 -58.03125 L 1269.636719 -58.03125 L 1269.636719 319.765625 Z M 1208.421875 319.765625 " fill-opacity="1" fill-rule="nonzero"/></g></g><g clip-path="url(#d10e6badc4)"><g clip-path="url(#62f843cddb)"><path fill="#d9d9d9" d="M 1315.632812 570.085938 L 1315.632812 238.300781 L 1405.992188 238.300781 L 1405.992188 570.085938 Z M 1315.632812 570.085938 " fill-opacity="1" fill-rule="nonzero"/></g></g><g clip-path="url(#6e345ac938)"><g clip-path="url(#dd621bbd30)"><path fill="#d9d9d9" d="M 1315.632812 173.660156 L 1315.632812 -17.996094 L 1405.992188 -17.996094 L 1405.992188 173.660156 Z M 1315.632812 173.660156 " fill-opacity="1" fill-rule="nonzero"/></g></g></svg>