<svg xmlns="http://www.w3.org/2000/svg" xmlns:xlink="http://www.w3.org/1999/xlink" width="2000" zoomAndPan="magnify" viewBox="0 0 1500 599.999999" height="800" preserveAspectRatio="xMidYMid meet" version="1.0"><defs><g/><clipPath id="80648d5778"><path d="M 348.761719 0 L 1155.761719 0 L 1155.761719 15 L 348.761719 15 Z M 348.761719 0 " clip-rule="nonzero"/></clipPath><clipPath id="3466cb2b44"><path d="M 348.761719 14 L 1155.761719 14 L 1155.761719 31 L 348.761719 31 Z M 348.761719 14 " clip-rule="nonzero"/></clipPath><clipPath id="f8a1cf6405"><path d="M 348.761719 30 L 1155.761719 30 L 1155.761719 48 L 348.761719 48 Z M 348.761719 30 " clip-rule="nonzero"/></clipPath><clipPath id="fd0985d9be"><path d="M 348.761719 47 L 1155.761719 47 L 1155.761719 64 L 348.761719 64 Z M 348.761719 47 " clip-rule="nonzero"/></clipPath><clipPath id="0c47638425"><path d="M 348.761719 63 L 1155.761719 63 L 1155.761719 81 L 348.761719 81 Z M 348.761719 63 " clip-rule="nonzero"/></clipPath><clipPath id="16f817babc"><path d="M 348.761719 80 L 1155.761719 80 L 1155.761719 97 L 348.761719 97 Z M 348.761719 80 " clip-rule="nonzero"/></clipPath><clipPath id="d47111b4e8"><path d="M 348.761719 96 L 1155.761719 96 L 1155.761719 114 L 348.761719 114 Z M 348.761719 96 " clip-rule="nonzero"/></clipPath><clipPath id="36fb3da5ea"><path d="M 348.761719 113 L 1155.761719 113 L 1155.761719 130 L 348.761719 130 Z M 348.761719 113 " clip-rule="nonzero"/></clipPath><clipPath id="6e4249fb4c"><path d="M 348.761719 129 L 1155.761719 129 L 1155.761719 147 L 348.761719 147 Z M 348.761719 129 " clip-rule="nonzero"/></clipPath><clipPath id="a32e314500"><path d="M 348.761719 146 L 1155.761719 146 L 1155.761719 163 L 348.761719 163 Z M 348.761719 146 " clip-rule="nonzero"/></clipPath><clipPath id="046690062c"><path d="M 348.761719 162 L 1155.761719 162 L 1155.761719 180 L 348.761719 180 Z M 348.761719 162 " clip-rule="nonzero"/></clipPath><clipPath id="93457ed2f9"><path d="M 348.761719 179 L 1155.761719 179 L 1155.761719 196 L 348.761719 196 Z M 348.761719 179 " clip-rule="nonzero"/></clipPath><clipPath id="e119597cda"><path d="M 348.761719 195 L 1155.761719 195 L 1155.761719 212.269531 L 348.761719 212.269531 Z M 348.761719 195 " clip-rule="nonzero"/></clipPath><clipPath id="9ca39ab0cd"><path d="M 348.761719 0 L 1155.761719 0 L 1155.761719 15 L 348.761719 15 Z M 348.761719 0 " clip-rule="nonzero"/></clipPath><clipPath id="6d46c42207"><path d="M 348.761719 14 L 1155.761719 14 L 1155.761719 31 L 348.761719 31 Z M 348.761719 14 " clip-rule="nonzero"/></clipPath><clipPath id="afa2425b4d"><path d="M 348.761719 30 L 1155.761719 30 L 1155.761719 48 L 348.761719 48 Z M 348.761719 30 " clip-rule="nonzero"/></clipPath><clipPath id="7895aa0f76"><path d="M 348.761719 47 L 1155.761719 47 L 1155.761719 64 L 348.761719 64 Z M 348.761719 47 " clip-rule="nonzero"/></clipPath><clipPath id="26e8f0ac64"><path d="M 348.761719 63 L 1155.761719 63 L 1155.761719 81 L 348.761719 81 Z M 348.761719 63 " clip-rule="nonzero"/></clipPath><clipPath id="ca40dd9d10"><path d="M 348.761719 80 L 1155.761719 80 L 1155.761719 97 L 348.761719 97 Z M 348.761719 80 " clip-rule="nonzero"/></clipPath><clipPath id="8f6745d5f1"><path d="M 348.761719 96 L 1155.761719 96 L 1155.761719 114 L 348.761719 114 Z M 348.761719 96 " clip-rule="nonzero"/></clipPath><clipPath id="856bc66714"><path d="M 348.761719 113 L 1155.761719 113 L 1155.761719 130 L 348.761719 130 Z M 348.761719 113 " clip-rule="nonzero"/></clipPath><clipPath id="1d3c9da418"><path d="M 348.761719 129 L 1155.761719 129 L 1155.761719 147 L 348.761719 147 Z M 348.761719 129 " clip-rule="nonzero"/></clipPath><clipPath id="8abc9a0345"><path d="M 348.761719 146 L 1155.761719 146 L 1155.761719 163 L 348.761719 163 Z M 348.761719 146 " clip-rule="nonzero"/></clipPath><clipPath id="cc07a37ccf"><path d="M 348.761719 162 L 1155.761719 162 L 1155.761719 180 L 348.761719 180 Z M 348.761719 162 " clip-rule="nonzero"/></clipPath><clipPath id="07fed24261"><path d="M 348.761719 179 L 1155.761719 179 L 1155.761719 196 L 348.761719 196 Z M 348.761719 179 " clip-rule="nonzero"/></clipPath><clipPath id="35c8a744cd"><path d="M 348.761719 195 L 1155.761719 195 L 1155.761719 212.269531 L 348.761719 212.269531 Z M 348.761719 195 " clip-rule="nonzero"/></clipPath><clipPath id="d64feaef6a"><path d="M 452.054688 282.679688 L 1062.433594 282.679688 L 1062.433594 359.65625 L 452.054688 359.65625 Z M 452.054688 282.679688 " clip-rule="nonzero"/></clipPath><clipPath id="6f241d97c4"><path d="M 458.164062 282.679688 L 1056.15625 282.679688 C 1059.53125 282.679688 1062.265625 285.417969 1062.265625 288.792969 L 1062.265625 353.542969 C 1062.265625 356.917969 1059.53125 359.65625 1056.15625 359.65625 L 458.164062 359.65625 C 454.789062 359.65625 452.054688 356.917969 452.054688 353.542969 L 452.054688 288.792969 C 452.054688 285.417969 454.789062 282.679688 458.164062 282.679688 Z M 458.164062 282.679688 " clip-rule="nonzero"/></clipPath><clipPath id="75a8141ba0"><path d="M 524.445312 406.808594 L 999 406.808594 L 999 600 L 524.445312 600 Z M 524.445312 406.808594 " clip-rule="nonzero"/></clipPath><clipPath id="9e927d1b8b"><path d="M 530.554688 406.808594 L 992.8125 406.808594 C 996.1875 406.808594 998.925781 409.542969 998.925781 412.917969 L 998.925781 593.890625 C 998.925781 597.265625 996.1875 600 992.8125 600 L 530.554688 600 C 527.179688 600 524.445312 597.265625 524.445312 593.890625 L 524.445312 412.917969 C 524.445312 409.542969 527.179688 406.808594 530.554688 406.808594 Z M 530.554688 406.808594 " clip-rule="nonzero"/></clipPath><clipPath id="3a6bdc8dfa"><path d="M 1117.285156 406.808594 L 1368 406.808594 L 1368 575.921875 L 1117.285156 575.921875 Z M 1117.285156 406.808594 " clip-rule="nonzero"/></clipPath><clipPath id="f79cee3732"><path d="M 1123.394531 406.808594 L 1361.871094 406.808594 C 1365.246094 406.808594 1367.984375 409.542969 1367.984375 412.917969 L 1367.984375 569.8125 C 1367.984375 573.1875 1365.246094 575.921875 1361.871094 575.921875 L 1123.394531 575.921875 C 1120.019531 575.921875 1117.285156 573.1875 1117.285156 569.8125 L 1117.285156 412.917969 C 1117.285156 409.542969 1120.019531 406.808594 1123.394531 406.808594 Z M 1123.394531 406.808594 " clip-rule="nonzero"/></clipPath><clipPath id="85d353435c"><path d="M 119.550781 406.808594 L 370.582031 406.808594 L 370.582031 575.921875 L 119.550781 575.921875 Z M 119.550781 406.808594 " clip-rule="nonzero"/></clipPath><clipPath id="eb5935aff7"><path d="M 125.664062 406.808594 L 364.140625 406.808594 C 367.515625 406.808594 370.25 409.542969 370.25 412.917969 L 370.25 569.8125 C 370.25 573.1875 367.515625 575.921875 364.140625 575.921875 L 125.664062 575.921875 C 122.289062 575.921875 119.550781 573.1875 119.550781 569.8125 L 119.550781 412.917969 C 119.550781 409.542969 122.289062 406.808594 125.664062 406.808594 Z M 125.664062 406.808594 " clip-rule="nonzero"/></clipPath><clipPath id="fbbcd76282"><path d="M 1090.46875 280.167969 L 1380.589844 280.167969 L 1380.589844 355.722656 L 1090.46875 355.722656 Z M 1090.46875 280.167969 " clip-rule="nonzero"/></clipPath><clipPath id="15dd6eb29a"><path d="M 1096.582031 280.167969 L 1374.335938 280.167969 C 1377.710938 280.167969 1380.449219 282.902344 1380.449219 286.277344 L 1380.449219 349.613281 C 1380.449219 352.988281 1377.710938 355.722656 1374.335938 355.722656 L 1096.582031 355.722656 C 1093.207031 355.722656 1090.46875 352.988281 1090.46875 349.613281 L 1090.46875 286.277344 C 1090.46875 282.902344 1093.207031 280.167969 1096.582031 280.167969 Z M 1096.582031 280.167969 " clip-rule="nonzero"/></clipPath><clipPath id="45834f5060"><path d="M 119.550781 280.167969 L 397 280.167969 L 397 355.722656 L 119.550781 355.722656 Z M 119.550781 280.167969 " clip-rule="nonzero"/></clipPath><clipPath id="2eb5e921f2"><path d="M 125.664062 280.167969 L 390.953125 280.167969 C 394.328125 280.167969 397.066406 282.902344 397.066406 286.277344 L 397.066406 349.613281 C 397.066406 352.988281 394.328125 355.722656 390.953125 355.722656 L 125.664062 355.722656 C 122.289062 355.722656 119.550781 352.988281 119.550781 349.613281 L 119.550781 286.277344 C 119.550781 282.902344 122.289062 280.167969 125.664062 280.167969 Z M 125.664062 280.167969 " clip-rule="nonzero"/></clipPath><clipPath id="6a868dd9bf"><path d="M 136.203125 25.429688 L 309.941406 25.429688 L 309.941406 194.542969 L 136.203125 194.542969 Z M 136.203125 25.429688 " clip-rule="nonzero"/></clipPath><clipPath id="f4c8f4534b"><path d="M 142.3125 25.429688 L 303.730469 25.429688 C 307.105469 25.429688 309.839844 28.167969 309.839844 31.542969 L 309.839844 188.433594 C 309.839844 191.808594 307.105469 194.542969 303.730469 194.542969 L 142.3125 194.542969 C 138.9375 194.542969 136.203125 191.808594 136.203125 188.433594 L 136.203125 31.542969 C 136.203125 28.167969 138.9375 25.429688 142.3125 25.429688 Z M 142.3125 25.429688 " clip-rule="nonzero"/></clipPath><clipPath id="752df0c1c0"><path d="M 1194.34375 48.082031 L 1367.996094 48.082031 L 1367.996094 212.730469 L 1194.34375 212.730469 Z M 1194.34375 48.082031 " clip-rule="nonzero"/></clipPath><clipPath id="898169cb61"><path d="M 1200.457031 48.082031 L 1361.871094 48.082031 C 1365.246094 48.082031 1367.984375 50.820312 1367.984375 54.195312 L 1367.984375 206.617188 C 1367.984375 209.992188 1365.246094 212.730469 1361.871094 212.730469 L 1200.457031 212.730469 C 1197.082031 212.730469 1194.34375 209.992188 1194.34375 206.617188 L 1194.34375 54.195312 C 1194.34375 50.820312 1197.082031 48.082031 1200.457031 48.082031 Z M 1200.457031 48.082031 " clip-rule="nonzero"/></clipPath><clipPath id="617a8294d8"><path d="M 353.671875 203.589844 L 1160.816406 203.589844 L 1160.816406 263.34375 L 353.671875 263.34375 Z M 353.671875 203.589844 " clip-rule="nonzero"/></clipPath><clipPath id="69f1100747"><path d="M 359.78125 203.589844 L 1154.539062 203.589844 C 1157.914062 203.589844 1160.648438 206.324219 1160.648438 209.699219 L 1160.648438 257.230469 C 1160.648438 260.605469 1157.914062 263.34375 1154.539062 263.34375 L 359.78125 263.34375 C 356.40625 263.34375 353.671875 260.605469 353.671875 257.230469 L 353.671875 209.699219 C 353.671875 206.324219 356.40625 203.589844 359.78125 203.589844 Z M 359.78125 203.589844 " clip-rule="nonzero"/></clipPath></defs><path fill="#d39d48" d="M 718.832031 129.628906 L 1058.929688 129.628906 L 1058.929688 113.132812 L 718.832031 113.132812 Z M 718.832031 129.628906 " fill-opacity="1" fill-rule="nonzero"/><g clip-path="url(#80648d5778)"><path fill="#d39d48" d="M 348.753906 14.128906 L 1155.769531 14.128906 L 1155.769531 -2.371094 L 348.753906 -2.371094 Z M 348.753906 14.128906 " fill-opacity="1" fill-rule="nonzero"/></g><g clip-path="url(#3466cb2b44)"><path fill="#dea55a" d="M 348.753906 30.625 L 1155.769531 30.625 L 1155.769531 14.128906 L 348.753906 14.128906 Z M 348.753906 30.625 " fill-opacity="1" fill-rule="nonzero"/></g><g clip-path="url(#f8a1cf6405)"><path fill="#d39d49" d="M 348.753906 47.132812 L 1155.769531 47.132812 L 1155.769531 30.625 L 348.753906 30.625 Z M 348.753906 47.132812 " fill-opacity="1" fill-rule="nonzero"/></g><g clip-path="url(#fd0985d9be)"><path fill="#dea55a" d="M 348.753906 63.632812 L 1155.769531 63.632812 L 1155.769531 47.132812 L 348.753906 47.132812 Z M 348.753906 63.632812 " fill-opacity="1" fill-rule="nonzero"/></g><g clip-path="url(#0c47638425)"><path fill="#dea55a" d="M 348.753906 80.132812 L 1155.769531 80.132812 L 1155.769531 63.632812 L 348.753906 63.632812 Z M 348.753906 80.132812 " fill-opacity="1" fill-rule="nonzero"/></g><g clip-path="url(#16f817babc)"><path fill="#dea55a" d="M 348.753906 96.632812 L 1155.769531 96.632812 L 1155.769531 80.132812 L 348.753906 80.132812 Z M 348.753906 96.632812 " fill-opacity="1" fill-rule="nonzero"/></g><g clip-path="url(#d47111b4e8)"><path fill="#dea55a" d="M 348.753906 113.132812 L 1155.769531 113.132812 L 1155.769531 96.632812 L 348.753906 96.632812 Z M 348.753906 113.132812 " fill-opacity="1" fill-rule="nonzero"/></g><g clip-path="url(#36fb3da5ea)"><path fill="#dea55a" d="M 348.753906 129.628906 L 1155.769531 129.628906 L 1155.769531 113.132812 L 348.753906 113.132812 Z M 348.753906 129.628906 " fill-opacity="1" fill-rule="nonzero"/></g><g clip-path="url(#6e4249fb4c)"><path fill="#dea55a" d="M 348.753906 146.128906 L 1155.769531 146.128906 L 1155.769531 129.628906 L 348.753906 129.628906 Z M 348.753906 146.128906 " fill-opacity="1" fill-rule="nonzero"/></g><g clip-path="url(#a32e314500)"><path fill="#dea55a" d="M 348.753906 162.628906 L 1155.769531 162.628906 L 1155.769531 146.128906 L 348.753906 146.128906 Z M 348.753906 162.628906 " fill-opacity="1" fill-rule="nonzero"/></g><g clip-path="url(#046690062c)"><path fill="#d39d49" d="M 348.753906 179.128906 L 1155.769531 179.128906 L 1155.769531 162.628906 L 348.753906 162.628906 Z M 348.753906 179.128906 " fill-opacity="1" fill-rule="nonzero"/></g><g clip-path="url(#93457ed2f9)"><path fill="#dea55a" d="M 348.753906 195.625 L 1155.769531 195.625 L 1155.769531 179.128906 L 348.753906 179.128906 Z M 348.753906 195.625 " fill-opacity="1" fill-rule="nonzero"/></g><g clip-path="url(#e119597cda)"><path fill="#d39d48" d="M 348.753906 212.125 L 1155.769531 212.125 L 1155.769531 195.625 L 348.753906 195.625 Z M 348.753906 212.125 " fill-opacity="1" fill-rule="nonzero"/></g><path fill="#c79146" d="M 884.890625 146.128906 L 1041.859375 146.128906 L 1041.859375 129.628906 L 884.890625 129.628906 Z M 884.890625 146.128906 " fill-opacity="1" fill-rule="nonzero"/><path fill="#c28e3f" d="M 463.914062 179.128906 L 579.648438 179.128906 L 579.648438 170.878906 L 463.914062 170.878906 Z M 463.914062 179.128906 " fill-opacity="1" fill-rule="nonzero"/><path fill="#c79146" d="M 463.914062 187.378906 L 579.648438 187.378906 L 579.648438 179.128906 L 463.914062 179.128906 Z M 463.914062 187.378906 " fill-opacity="1" fill-rule="nonzero"/><path fill="#c79146" d="M 379.40625 129.628906 L 495.121094 129.628906 L 495.121094 113.132812 L 379.40625 113.132812 Z M 379.40625 129.628906 " fill-opacity="1" fill-rule="nonzero"/><path fill="#c28e3f" d="M 512.867188 47.132812 L 621.828125 47.132812 L 621.828125 30.625 L 512.867188 30.625 Z M 512.867188 47.132812 " fill-opacity="1" fill-rule="nonzero"/><path fill="#c79146" d="M 1016.84375 113.132812 L 1125.820312 113.132812 L 1125.820312 96.632812 L 1016.84375 96.632812 Z M 1016.84375 113.132812 " fill-opacity="1" fill-rule="nonzero"/><g clip-path="url(#9ca39ab0cd)"><path fill="#a86c36" d="M 1155.769531 14.128906 L 1130.066406 14.128906 L 1130.066406 -2.371094 L 1155.769531 -2.371094 L 1155.769531 14.128906 M 374.273438 14.128906 L 348.753906 14.128906 L 348.753906 -2.371094 L 374.273438 -2.371094 L 374.273438 14.128906 " fill-opacity="1" fill-rule="nonzero"/></g><g clip-path="url(#6d46c42207)"><path fill="#ae703f" d="M 1155.769531 30.625 L 1130.066406 30.625 L 1130.066406 14.128906 L 1155.769531 14.128906 L 1155.769531 30.625 M 374.273438 30.625 L 348.753906 30.625 L 348.753906 14.128906 L 374.273438 14.128906 L 374.273438 30.625 " fill-opacity="1" fill-rule="nonzero"/></g><g clip-path="url(#afa2425b4d)"><path fill="#a86c37" d="M 1155.769531 47.132812 L 1130.066406 47.132812 L 1130.066406 30.625 L 1155.769531 30.625 L 1155.769531 47.132812 M 374.273438 47.132812 L 348.753906 47.132812 L 348.753906 30.625 L 374.273438 30.625 L 374.273438 47.132812 " fill-opacity="1" fill-rule="nonzero"/></g><g clip-path="url(#7895aa0f76)"><path fill="#ae703f" d="M 1155.769531 63.632812 L 1130.066406 63.632812 L 1130.066406 47.132812 L 1155.769531 47.132812 L 1155.769531 63.632812 M 374.273438 63.632812 L 348.753906 63.632812 L 348.753906 47.132812 L 374.273438 47.132812 L 374.273438 63.632812 " fill-opacity="1" fill-rule="nonzero"/></g><g clip-path="url(#26e8f0ac64)"><path fill="#ae703f" d="M 1155.769531 80.132812 L 1130.066406 80.132812 L 1130.066406 63.632812 L 1155.769531 63.632812 L 1155.769531 80.132812 M 374.273438 80.132812 L 348.753906 80.132812 L 348.753906 63.632812 L 374.273438 63.632812 L 374.273438 80.132812 " fill-opacity="1" fill-rule="nonzero"/></g><g clip-path="url(#ca40dd9d10)"><path fill="#ae703f" d="M 1155.769531 96.632812 L 1130.066406 96.632812 L 1130.066406 80.132812 L 1155.769531 80.132812 L 1155.769531 96.632812 M 374.273438 96.632812 L 348.753906 96.632812 L 348.753906 80.132812 L 374.273438 80.132812 L 374.273438 96.632812 " fill-opacity="1" fill-rule="nonzero"/></g><g clip-path="url(#8f6745d5f1)"><path fill="#ae703f" d="M 1155.769531 113.132812 L 1130.066406 113.132812 L 1130.066406 96.632812 L 1155.769531 96.632812 L 1155.769531 113.132812 M 374.273438 113.132812 L 348.753906 113.132812 L 348.753906 96.632812 L 374.273438 96.632812 L 374.273438 113.132812 " fill-opacity="1" fill-rule="nonzero"/></g><g clip-path="url(#856bc66714)"><path fill="#ae703f" d="M 1155.769531 129.628906 L 1130.066406 129.628906 L 1130.066406 113.132812 L 1155.769531 113.132812 L 1155.769531 129.628906 M 374.273438 129.628906 L 348.753906 129.628906 L 348.753906 113.132812 L 374.273438 113.132812 L 374.273438 129.628906 " fill-opacity="1" fill-rule="nonzero"/></g><g clip-path="url(#1d3c9da418)"><path fill="#ae703f" d="M 1155.769531 146.128906 L 1130.066406 146.128906 L 1130.066406 129.628906 L 1155.769531 129.628906 L 1155.769531 146.128906 M 374.273438 146.128906 L 348.753906 146.128906 L 348.753906 129.628906 L 374.273438 129.628906 L 374.273438 146.128906 " fill-opacity="1" fill-rule="nonzero"/></g><g clip-path="url(#8abc9a0345)"><path fill="#ae703f" d="M 1155.769531 162.628906 L 1130.066406 162.628906 L 1130.066406 146.128906 L 1155.769531 146.128906 L 1155.769531 162.628906 M 374.273438 162.628906 L 348.753906 162.628906 L 348.753906 146.128906 L 374.273438 146.128906 L 374.273438 162.628906 " fill-opacity="1" fill-rule="nonzero"/></g><g clip-path="url(#cc07a37ccf)"><path fill="#a86c37" d="M 1155.769531 179.128906 L 1130.066406 179.128906 L 1130.066406 162.628906 L 1155.769531 162.628906 L 1155.769531 179.128906 M 374.273438 179.128906 L 348.753906 179.128906 L 348.753906 162.628906 L 374.273438 162.628906 L 374.273438 179.128906 " fill-opacity="1" fill-rule="nonzero"/></g><g clip-path="url(#07fed24261)"><path fill="#ae703f" d="M 1155.769531 195.625 L 348.753906 195.625 L 348.753906 179.128906 L 374.273438 179.128906 L 374.273438 194.914062 L 1130.066406 194.914062 L 1130.066406 179.128906 L 1155.769531 179.128906 L 1155.769531 195.625 " fill-opacity="1" fill-rule="nonzero"/></g><g clip-path="url(#35c8a744cd)"><path fill="#a86c36" d="M 348.753906 212.125 L 1155.769531 212.125 L 1155.769531 195.625 L 348.753906 195.625 Z M 348.753906 212.125 " fill-opacity="1" fill-rule="nonzero"/></g><path fill="#a86c36" d="M 1000.320312 3.707031 L 1130.074219 3.707031 L 1130.074219 -2.371094 L 1000.320312 -2.371094 Z M 1000.320312 3.707031 " fill-opacity="1" fill-rule="nonzero"/><path fill="#a86c36" d="M 374.273438 3.707031 L 504.035156 3.707031 L 504.035156 -2.371094 L 374.273438 -2.371094 Z M 374.273438 3.707031 " fill-opacity="1" fill-rule="nonzero"/><path fill="#ffffff" d="M 376.792969 138.703125 C 426.671875 137.804688 473.417969 117.960938 508.796875 82.570312 C 545.011719 46.355469 564.941406 -1.804688 564.941406 -53.027344 L 564.941406 -54.019531 C 564.941406 -54.351562 564.933594 -54.695312 564.933594 -55.039062 C 563.855469 -158.667969 480.191406 -242.871094 376.792969 -244.761719 L 376.792969 -291.5625 L 748.734375 -291.5625 L 748.734375 -154.089844 C 693.992188 -152.207031 650.042969 -107.105469 650.042969 -51.898438 C 650.042969 3.300781 693.992188 48.414062 748.734375 50.296875 L 748.734375 187.765625 L 376.792969 187.765625 Z M 508.816406 -113.621094 L 508.816406 -113.722656 L 376.792969 -113.722656 L 376.792969 -237.652344 C 465.183594 -235.964844 538.550781 -171.847656 554.574219 -87.609375 C 544.433594 -102.449219 527.800781 -112.488281 508.816406 -113.621094 Z M 499.335938 5.378906 C 501.300781 5.5625 503.273438 5.691406 505.257812 5.691406 C 526.078125 5.691406 544.433594 -5.03125 555.121094 -21.242188 C 548.699219 15.988281 531.019531 50.277344 503.765625 77.539062 C 469.742188 111.574219 424.761719 130.675781 376.792969 131.578125 L 376.792969 5.378906 Z M 477.070312 -106.613281 C 475.070312 -105.539062 473.105469 -104.378906 471.261719 -103.101562 C 470.261719 -102.40625 469.722656 -101.292969 469.722656 -100.171875 C 469.722656 -99.476562 469.933594 -98.761719 470.363281 -98.148438 C 471.484375 -96.527344 473.699219 -96.140625 475.320312 -97.25 C 477.589844 -98.828125 480.015625 -100.234375 482.5 -101.441406 C 484.28125 -102.292969 485.019531 -104.425781 484.175781 -106.1875 L 483.917969 -106.613281 L 485.9375 -106.613281 C 486.585938 -104.871094 488.46875 -103.898438 490.273438 -104.433594 C 492.914062 -105.222656 495.648438 -105.804688 498.410156 -106.160156 C 498.882812 -106.222656 499.320312 -106.382812 499.71875 -106.613281 L 501.699219 -106.613281 L 501.699219 -1.75 L 499.707031 -1.75 C 498.78125 -1.84375 497.863281 -1.9375 496.957031 -2.085938 C 496.203125 -2.1875 495.472656 -2.066406 494.832031 -1.75 L 491.128906 -1.75 C 490.785156 -2.796875 489.976562 -3.660156 488.867188 -4.039062 C 486.234375 -4.902344 483.648438 -5.976562 481.183594 -7.246094 C 479.453125 -8.148438 477.292969 -7.460938 476.382812 -5.71875 C 476.125 -5.199219 475.996094 -4.632812 475.996094 -4.085938 C 475.996094 -3.214844 476.328125 -2.410156 476.902344 -1.75 L 376.792969 -1.75 L 376.792969 -106.613281 Z M 557.816406 -53.675781 C 557.640625 -26.027344 536.03125 -3.390625 508.816406 -1.554688 L 508.816406 -106.472656 C 535.816406 -104.65625 557.277344 -82.355469 557.796875 -55.039062 C 557.804688 -54.574219 557.816406 -54.132812 557.816406 -53.675781 Z M 755.851562 -27.242188 C 767.925781 -28.972656 777.21875 -39.335938 777.21875 -51.898438 C 777.21875 -64.457031 767.925781 -74.808594 755.851562 -76.554688 L 755.851562 -146.972656 C 806.667969 -145.078125 847.429688 -103.175781 847.429688 -51.898438 C 847.429688 -0.621094 806.667969 41.296875 755.851562 43.167969 Z M 748.734375 -76.554688 C 736.652344 -74.808594 727.367188 -64.457031 727.367188 -51.898438 C 727.367188 -39.335938 736.652344 -28.972656 748.734375 -27.242188 L 748.734375 43.167969 C 697.917969 41.296875 657.15625 -0.621094 657.15625 -51.898438 C 657.15625 -103.175781 697.917969 -145.078125 748.734375 -146.972656 Z M 1127.796875 -244.761719 C 1023.71875 -242.859375 939.644531 -157.585938 939.644531 -53.027344 C 939.644531 -52.816406 939.65625 -52.59375 939.65625 -52.378906 L 939.644531 -52.046875 C 939.644531 -51.710938 939.664062 -51.386719 939.664062 -51.054688 C 940.71875 52.601562 1024.375 136.804688 1127.796875 138.703125 L 1127.796875 187.765625 L 755.851562 187.765625 L 755.851562 50.296875 C 810.585938 48.414062 854.546875 3.300781 854.546875 -51.898438 C 854.546875 -107.105469 810.585938 -152.207031 755.851562 -154.089844 L 755.851562 -291.5625 L 1127.796875 -291.5625 Z M 995.769531 7.546875 L 995.769531 7.65625 L 1127.796875 7.65625 L 1127.796875 131.578125 C 1039.40625 129.890625 966.035156 65.773438 950.023438 -18.433594 C 960.152344 -3.613281 976.773438 6.414062 995.769531 7.546875 Z M 1004.804688 -111.421875 C 1004.5625 -111.496094 1004.3125 -111.554688 1004.054688 -111.570312 C 1002.5 -111.691406 1000.914062 -111.757812 999.339844 -111.757812 C 978.535156 -111.757812 960.214844 -101.0625 949.523438 -84.886719 C 964.460938 -170.449219 1038.449219 -235.945312 1127.796875 -237.652344 L 1127.796875 -111.421875 Z M 1024.394531 0.546875 C 1024.550781 -0.148438 1024.488281 -0.878906 1024.199219 -1.574219 C 1023.449219 -3.390625 1021.375 -4.234375 1019.539062 -3.484375 C 1017.019531 -2.4375 1014.386719 -1.574219 1011.726562 -0.925781 C 1010.820312 -0.710938 1010.097656 -0.164062 1009.625 0.546875 L 1004.871094 0.546875 C 1004.433594 0.410156 1003.980469 0.335938 1003.5 0.382812 L 1002.898438 0.410156 L 1002.898438 -104.304688 L 1009.808594 -104.304688 C 1010.273438 -103.765625 1010.902344 -103.367188 1011.644531 -103.183594 C 1014.3125 -102.535156 1016.953125 -101.691406 1019.484375 -100.632812 C 1021.289062 -99.882812 1023.382812 -100.738281 1024.132812 -102.554688 C 1024.375 -103.128906 1024.429688 -103.730469 1024.375 -104.304688 L 1127.796875 -104.304688 L 1127.796875 0.546875 Z M 946.769531 -52.371094 C 946.929688 -80.027344 968.546875 -102.671875 995.769531 -104.507812 L 995.769531 0.410156 C 968.761719 -1.40625 947.289062 -23.710938 946.78125 -51.0625 C 946.78125 -51.507812 946.769531 -51.933594 946.769531 -52.371094 Z M 1134.921875 -298.679688 L 369.675781 -298.679688 L 369.675781 194.886719 L 1134.921875 194.886719 L 1134.921875 -298.679688 " fill-opacity="1" fill-rule="nonzero"/><g clip-path="url(#d64feaef6a)"><g clip-path="url(#6f241d97c4)"><path fill="#d9d9d9" d="M 452.054688 282.679688 L 1062.132812 282.679688 L 1062.132812 359.65625 L 452.054688 359.65625 Z M 452.054688 282.679688 " fill-opacity="1" fill-rule="nonzero"/></g></g><g clip-path="url(#75a8141ba0)"><g clip-path="url(#9e927d1b8b)"><path fill="#d9d9d9" d="M 524.445312 406.808594 L 999.125 406.808594 L 999.125 600 L 524.445312 600 Z M 524.445312 406.808594 " fill-opacity="1" fill-rule="nonzero"/></g></g><g clip-path="url(#3a6bdc8dfa)"><g clip-path="url(#f79cee3732)"><path fill="#d9d9d9" d="M 1117.285156 406.808594 L 1368.3125 406.808594 L 1368.3125 575.921875 L 1117.285156 575.921875 Z M 1117.285156 406.808594 " fill-opacity="1" fill-rule="nonzero"/></g></g><g clip-path="url(#85d353435c)"><g clip-path="url(#eb5935aff7)"><path fill="#d9d9d9" d="M 119.550781 406.808594 L 370.582031 406.808594 L 370.582031 575.921875 L 119.550781 575.921875 Z M 119.550781 406.808594 " fill-opacity="1" fill-rule="nonzero"/></g></g><g clip-path="url(#fbbcd76282)"><g clip-path="url(#15dd6eb29a)"><path fill="#d9d9d9" d="M 1090.46875 280.167969 L 1380.589844 280.167969 L 1380.589844 355.722656 L 1090.46875 355.722656 Z M 1090.46875 280.167969 " fill-opacity="1" fill-rule="nonzero"/></g></g><g clip-path="url(#45834f5060)"><g clip-path="url(#2eb5e921f2)"><path fill="#d9d9d9" d="M 119.550781 280.167969 L 396.980469 280.167969 L 396.980469 355.722656 L 119.550781 355.722656 Z M 119.550781 280.167969 " fill-opacity="1" fill-rule="nonzero"/></g></g><g clip-path="url(#6a868dd9bf)"><g clip-path="url(#f4c8f4534b)"><path fill="#d9d9d9" d="M 136.203125 25.429688 L 309.941406 25.429688 L 309.941406 194.542969 L 136.203125 194.542969 Z M 136.203125 25.429688 " fill-opacity="1" fill-rule="nonzero"/></g></g><g clip-path="url(#752df0c1c0)"><g clip-path="url(#898169cb61)"><path fill="#d9d9d9" d="M 1194.34375 48.082031 L 1367.996094 48.082031 L 1367.996094 212.730469 L 1194.34375 212.730469 Z M 1194.34375 48.082031 " fill-opacity="1" fill-rule="nonzero"/></g></g><g clip-path="url(#617a8294d8)"><g clip-path="url(#69f1100747)"><path fill="#7ed957" d="M 353.671875 203.589844 L 1160.582031 203.589844 L 1160.582031 263.34375 L 353.671875 263.34375 Z M 353.671875 203.589844 " fill-opacity="1" fill-rule="nonzero"/></g></g><g fill="#000000" fill-opacity="1"><g transform="translate(670.767575, 240.338681)"><g><path d="M 10.21875 -3.96875 C 10.21875 -2.675781 9.753906 -1.65625 8.828125 -0.90625 C 7.898438 -0.164062 6.613281 0.203125 4.96875 0.203125 C 3.4375 0.203125 2.085938 -0.0859375 0.921875 -0.671875 L 0.921875 -3.484375 C 1.878906 -3.046875 2.691406 -2.738281 3.359375 -2.5625 C 4.023438 -2.394531 4.640625 -2.3125 5.203125 -2.3125 C 5.859375 -2.3125 6.363281 -2.4375 6.71875 -2.6875 C 7.070312 -2.9375 7.25 -3.3125 7.25 -3.8125 C 7.25 -4.09375 7.171875 -4.34375 7.015625 -4.5625 C 6.859375 -4.78125 6.628906 -4.988281 6.328125 -5.1875 C 6.023438 -5.394531 5.410156 -5.71875 4.484375 -6.15625 C 3.609375 -6.570312 2.953125 -6.96875 2.515625 -7.34375 C 2.078125 -7.71875 1.726562 -8.15625 1.46875 -8.65625 C 1.207031 -9.164062 1.078125 -9.753906 1.078125 -10.421875 C 1.078125 -11.679688 1.503906 -12.671875 2.359375 -13.390625 C 3.222656 -14.117188 4.410156 -14.484375 5.921875 -14.484375 C 6.660156 -14.484375 7.363281 -14.394531 8.03125 -14.21875 C 8.707031 -14.039062 9.414062 -13.796875 10.15625 -13.484375 L 9.1875 -11.125 C 8.414062 -11.4375 7.78125 -11.65625 7.28125 -11.78125 C 6.789062 -11.90625 6.304688 -11.96875 5.828125 -11.96875 C 5.253906 -11.96875 4.8125 -11.832031 4.5 -11.5625 C 4.195312 -11.289062 4.046875 -10.941406 4.046875 -10.515625 C 4.046875 -10.253906 4.109375 -10.019531 4.234375 -9.8125 C 4.359375 -9.613281 4.550781 -9.421875 4.8125 -9.234375 C 5.082031 -9.054688 5.722656 -8.726562 6.734375 -8.25 C 8.066406 -7.601562 8.976562 -6.957031 9.46875 -6.3125 C 9.96875 -5.675781 10.21875 -4.894531 10.21875 -3.96875 Z M 10.21875 -3.96875 "/></g></g></g><g fill="#000000" fill-opacity="1"><g transform="translate(681.778896, 240.338681)"><g><path d="M 1.796875 0 L 1.796875 -14.28125 L 4.828125 -14.28125 L 4.828125 0 Z M 1.796875 0 "/></g></g></g><g fill="#000000" fill-opacity="1"><g transform="translate(688.397403, 240.338681)"><g><path d="M 1.796875 0 L 1.796875 -14.28125 L 4.828125 -14.28125 L 4.828125 -2.5 L 10.609375 -2.5 L 10.609375 0 Z M 1.796875 0 "/></g></g></g><g fill="#000000" fill-opacity="1"><g transform="translate(699.691817, 240.338681)"><g><path d="M 1.796875 0 L 1.796875 -14.28125 L 4.828125 -14.28125 L 4.828125 -2.5 L 10.609375 -2.5 L 10.609375 0 Z M 1.796875 0 "/></g></g></g><g fill="#000000" fill-opacity="1"><g transform="translate(710.986231, 240.338681)"><g><path d="M 10.53125 0 L 9.5 -3.40625 L 4.296875 -3.40625 L 3.265625 0 L 0 0 L 5.046875 -14.34375 L 8.734375 -14.34375 L 13.796875 0 Z M 8.78125 -5.9375 C 7.820312 -9.019531 7.28125 -10.757812 7.15625 -11.15625 C 7.039062 -11.5625 6.957031 -11.882812 6.90625 -12.125 C 6.6875 -11.289062 6.070312 -9.226562 5.0625 -5.9375 Z M 8.78125 -5.9375 "/></g></g></g><g fill="#000000" fill-opacity="1"><g transform="translate(724.779669, 240.338681)"><g><path d="M 10.21875 -3.96875 C 10.21875 -2.675781 9.753906 -1.65625 8.828125 -0.90625 C 7.898438 -0.164062 6.613281 0.203125 4.96875 0.203125 C 3.4375 0.203125 2.085938 -0.0859375 0.921875 -0.671875 L 0.921875 -3.484375 C 1.878906 -3.046875 2.691406 -2.738281 3.359375 -2.5625 C 4.023438 -2.394531 4.640625 -2.3125 5.203125 -2.3125 C 5.859375 -2.3125 6.363281 -2.4375 6.71875 -2.6875 C 7.070312 -2.9375 7.25 -3.3125 7.25 -3.8125 C 7.25 -4.09375 7.171875 -4.34375 7.015625 -4.5625 C 6.859375 -4.78125 6.628906 -4.988281 6.328125 -5.1875 C 6.023438 -5.394531 5.410156 -5.71875 4.484375 -6.15625 C 3.609375 -6.570312 2.953125 -6.96875 2.515625 -7.34375 C 2.078125 -7.71875 1.726562 -8.15625 1.46875 -8.65625 C 1.207031 -9.164062 1.078125 -9.753906 1.078125 -10.421875 C 1.078125 -11.679688 1.503906 -12.671875 2.359375 -13.390625 C 3.222656 -14.117188 4.410156 -14.484375 5.921875 -14.484375 C 6.660156 -14.484375 7.363281 -14.394531 8.03125 -14.21875 C 8.707031 -14.039062 9.414062 -13.796875 10.15625 -13.484375 L 9.1875 -11.125 C 8.414062 -11.4375 7.78125 -11.65625 7.28125 -11.78125 C 6.789062 -11.90625 6.304688 -11.96875 5.828125 -11.96875 C 5.253906 -11.96875 4.8125 -11.832031 4.5 -11.5625 C 4.195312 -11.289062 4.046875 -10.941406 4.046875 -10.515625 C 4.046875 -10.253906 4.109375 -10.019531 4.234375 -9.8125 C 4.359375 -9.613281 4.550781 -9.421875 4.8125 -9.234375 C 5.082031 -9.054688 5.722656 -8.726562 6.734375 -8.25 C 8.066406 -7.601562 8.976562 -6.957031 9.46875 -6.3125 C 9.96875 -5.675781 10.21875 -4.894531 10.21875 -3.96875 Z M 10.21875 -3.96875 "/></g></g></g><g fill="#000000" fill-opacity="1"><g transform="translate(735.790991, 240.338681)"><g/></g></g><g fill="#000000" fill-opacity="1"><g transform="translate(740.984273, 240.338681)"><g><path d="M 7.859375 -11.96875 C 6.722656 -11.96875 5.84375 -11.535156 5.21875 -10.671875 C 4.59375 -9.816406 4.28125 -8.625 4.28125 -7.09375 C 4.28125 -3.914062 5.472656 -2.328125 7.859375 -2.328125 C 8.859375 -2.328125 10.070312 -2.578125 11.5 -3.078125 L 11.5 -0.53125 C 10.332031 -0.0390625 9.023438 0.203125 7.578125 0.203125 C 5.503906 0.203125 3.914062 -0.425781 2.8125 -1.6875 C 1.707031 -2.945312 1.15625 -4.757812 1.15625 -7.125 C 1.15625 -8.601562 1.425781 -9.898438 1.96875 -11.015625 C 2.507812 -12.140625 3.285156 -13 4.296875 -13.59375 C 5.316406 -14.1875 6.503906 -14.484375 7.859375 -14.484375 C 9.242188 -14.484375 10.640625 -14.148438 12.046875 -13.484375 L 11.0625 -11.015625 C 10.53125 -11.265625 9.992188 -11.484375 9.453125 -11.671875 C 8.910156 -11.867188 8.378906 -11.96875 7.859375 -11.96875 Z M 7.859375 -11.96875 "/></g></g></g><g fill="#000000" fill-opacity="1"><g transform="translate(753.723435, 240.338681)"><g><path d="M 10.53125 0 L 9.5 -3.40625 L 4.296875 -3.40625 L 3.265625 0 L 0 0 L 5.046875 -14.34375 L 8.734375 -14.34375 L 13.796875 0 Z M 8.78125 -5.9375 C 7.820312 -9.019531 7.28125 -10.757812 7.15625 -11.15625 C 7.039062 -11.5625 6.957031 -11.882812 6.90625 -12.125 C 6.6875 -11.289062 6.070312 -9.226562 5.0625 -5.9375 Z M 8.78125 -5.9375 "/></g></g></g><g fill="#000000" fill-opacity="1"><g transform="translate(767.516873, 240.338681)"><g><path d="M 14.46875 0 L 10.609375 0 L 4.40625 -10.796875 L 4.3125 -10.796875 C 4.4375 -8.890625 4.5 -7.53125 4.5 -6.71875 L 4.5 0 L 1.796875 0 L 1.796875 -14.28125 L 5.609375 -14.28125 L 11.8125 -3.578125 L 11.890625 -3.578125 C 11.785156 -5.441406 11.734375 -6.753906 11.734375 -7.515625 L 11.734375 -14.28125 L 14.46875 -14.28125 Z M 14.46875 0 "/></g></g></g><g fill="#000000" fill-opacity="1"><g transform="translate(783.770287, 240.338681)"><g><path d="M 7.859375 -11.96875 C 6.722656 -11.96875 5.84375 -11.535156 5.21875 -10.671875 C 4.59375 -9.816406 4.28125 -8.625 4.28125 -7.09375 C 4.28125 -3.914062 5.472656 -2.328125 7.859375 -2.328125 C 8.859375 -2.328125 10.070312 -2.578125 11.5 -3.078125 L 11.5 -0.53125 C 10.332031 -0.0390625 9.023438 0.203125 7.578125 0.203125 C 5.503906 0.203125 3.914062 -0.425781 2.8125 -1.6875 C 1.707031 -2.945312 1.15625 -4.757812 1.15625 -7.125 C 1.15625 -8.601562 1.425781 -9.898438 1.96875 -11.015625 C 2.507812 -12.140625 3.285156 -13 4.296875 -13.59375 C 5.316406 -14.1875 6.503906 -14.484375 7.859375 -14.484375 C 9.242188 -14.484375 10.640625 -14.148438 12.046875 -13.484375 L 11.0625 -11.015625 C 10.53125 -11.265625 9.992188 -11.484375 9.453125 -11.671875 C 8.910156 -11.867188 8.378906 -11.96875 7.859375 -11.96875 Z M 7.859375 -11.96875 "/></g></g></g><g fill="#000000" fill-opacity="1"><g transform="translate(796.509448, 240.338681)"><g><path d="M 13.5 0 L 10.484375 0 L 10.484375 -6.15625 L 4.828125 -6.15625 L 4.828125 0 L 1.796875 0 L 1.796875 -14.28125 L 4.828125 -14.28125 L 4.828125 -8.6875 L 10.484375 -8.6875 L 10.484375 -14.28125 L 13.5 -14.28125 Z M 13.5 0 "/></g></g></g><g fill="#000000" fill-opacity="1"><g transform="translate(811.806205, 240.338681)"><g><path d="M 10.53125 0 L 9.5 -3.40625 L 4.296875 -3.40625 L 3.265625 0 L 0 0 L 5.046875 -14.34375 L 8.734375 -14.34375 L 13.796875 0 Z M 8.78125 -5.9375 C 7.820312 -9.019531 7.28125 -10.757812 7.15625 -11.15625 C 7.039062 -11.5625 6.957031 -11.882812 6.90625 -12.125 C 6.6875 -11.289062 6.070312 -9.226562 5.0625 -5.9375 Z M 8.78125 -5.9375 "/></g></g></g><g fill="#000000" fill-opacity="1"><g transform="translate(825.599642, 240.338681)"><g/></g></g><g fill="#000000" fill-opacity="1"><g transform="translate(830.792925, 240.338681)"><g><path d="M 7.859375 -11.96875 C 6.722656 -11.96875 5.84375 -11.535156 5.21875 -10.671875 C 4.59375 -9.816406 4.28125 -8.625 4.28125 -7.09375 C 4.28125 -3.914062 5.472656 -2.328125 7.859375 -2.328125 C 8.859375 -2.328125 10.070312 -2.578125 11.5 -3.078125 L 11.5 -0.53125 C 10.332031 -0.0390625 9.023438 0.203125 7.578125 0.203125 C 5.503906 0.203125 3.914062 -0.425781 2.8125 -1.6875 C 1.707031 -2.945312 1.15625 -4.757812 1.15625 -7.125 C 1.15625 -8.601562 1.425781 -9.898438 1.96875 -11.015625 C 2.507812 -12.140625 3.285156 -13 4.296875 -13.59375 C 5.316406 -14.1875 6.503906 -14.484375 7.859375 -14.484375 C 9.242188 -14.484375 10.640625 -14.148438 12.046875 -13.484375 L 11.0625 -11.015625 C 10.53125 -11.265625 9.992188 -11.484375 9.453125 -11.671875 C 8.910156 -11.867188 8.378906 -11.96875 7.859375 -11.96875 Z M 7.859375 -11.96875 "/></g></g></g></svg>