<svg xmlns="http://www.w3.org/2000/svg" xmlns:xlink="http://www.w3.org/1999/xlink" width="2000" zoomAndPan="magnify" viewBox="0 0 1500 599.999999" height="800" preserveAspectRatio="xMidYMid meet" version="1.0"><defs><g/><clipPath id="67d3210a87"><path d="M 1206 0 L 1236 0 L 1236 297.964844 L 1206 297.964844 Z M 1206 0 " clip-rule="nonzero"/></clipPath><clipPath id="0ce3072b75"><path d="M 1177 0 L 1207 0 L 1207 297.964844 L 1177 297.964844 Z M 1177 0 " clip-rule="nonzero"/></clipPath><clipPath id="e8afd9f00c"><path d="M 1148 0 L 1178 0 L 1178 297.964844 L 1148 297.964844 Z M 1148 0 " clip-rule="nonzero"/></clipPath><clipPath id="94a3fa8c76"><path d="M 1119 0 L 1149 0 L 1149 297.964844 L 1119 297.964844 Z M 1119 0 " clip-rule="nonzero"/></clipPath><clipPath id="e176cefd53"><path d="M 1089 0 L 1120 0 L 1120 297.964844 L 1089 297.964844 Z M 1089 0 " clip-rule="nonzero"/></clipPath><clipPath id="4712a57674"><path d="M 1060 0 L 1090 0 L 1090 297.964844 L 1060 297.964844 Z M 1060 0 " clip-rule="nonzero"/></clipPath><clipPath id="8bb10340f6"><path d="M 1031 0 L 1061 0 L 1061 297.964844 L 1031 297.964844 Z M 1031 0 " clip-rule="nonzero"/></clipPath><clipPath id="9e19bd7b4d"><path d="M 1002 0 L 1032 0 L 1032 297.964844 L 1002 297.964844 Z M 1002 0 " clip-rule="nonzero"/></clipPath><clipPath id="09301de2ef"><path d="M 973 0 L 1003 0 L 1003 297.964844 L 973 297.964844 Z M 973 0 " clip-rule="nonzero"/></clipPath><clipPath id="de3e9fe461"><path d="M 944 0 L 974 0 L 974 297.964844 L 944 297.964844 Z M 944 0 " clip-rule="nonzero"/></clipPath><clipPath id="d5dc673529"><path d="M 915 0 L 945 0 L 945 297.964844 L 915 297.964844 Z M 915 0 " clip-rule="nonzero"/></clipPath><clipPath id="28fe535e2e"><path d="M 886 0 L 916 0 L 916 297.964844 L 886 297.964844 Z M 886 0 " clip-rule="nonzero"/></clipPath><clipPath id="570278ef91"><path d="M 857 0 L 887 0 L 887 297.964844 L 857 297.964844 Z M 857 0 " clip-rule="nonzero"/></clipPath><clipPath id="c980217b9e"><path d="M 828 0 L 858 0 L 858 297.964844 L 828 297.964844 Z M 828 0 " clip-rule="nonzero"/></clipPath><clipPath id="d567d2e136"><path d="M 799 0 L 829 0 L 829 297.964844 L 799 297.964844 Z M 799 0 " clip-rule="nonzero"/></clipPath><clipPath id="e2d4da697e"><path d="M 770 0 L 800 0 L 800 297.964844 L 770 297.964844 Z M 770 0 " clip-rule="nonzero"/></clipPath><clipPath id="226030d873"><path d="M 741 0 L 771 0 L 771 297.964844 L 741 297.964844 Z M 741 0 " clip-rule="nonzero"/></clipPath><clipPath id="fbd3edbc86"><path d="M 712 0 L 742 0 L 742 297.964844 L 712 297.964844 Z M 712 0 " clip-rule="nonzero"/></clipPath><clipPath id="587aa59f47"><path d="M 683 0 L 713 0 L 713 297.964844 L 683 297.964844 Z M 683 0 " clip-rule="nonzero"/></clipPath><clipPath id="5eaa3a96f4"><path d="M 654 0 L 684 0 L 684 297.964844 L 654 297.964844 Z M 654 0 " clip-rule="nonzero"/></clipPath><clipPath id="7553b5da95"><path d="M 625 0 L 655 0 L 655 297.964844 L 625 297.964844 Z M 625 0 " clip-rule="nonzero"/></clipPath><clipPath id="378a90d580"><path d="M 596 0 L 626 0 L 626 297.964844 L 596 297.964844 Z M 596 0 " clip-rule="nonzero"/></clipPath><clipPath id="7dd9f20552"><path d="M 567 0 L 597 0 L 597 297.964844 L 567 297.964844 Z M 567 0 " clip-rule="nonzero"/></clipPath><clipPath id="2e235d56b7"><path d="M 538 0 L 568 0 L 568 297.964844 L 538 297.964844 Z M 538 0 " clip-rule="nonzero"/></clipPath><clipPath id="7987778ca7"><path d="M 509 0 L 539 0 L 539 297.964844 L 509 297.964844 Z M 509 0 " clip-rule="nonzero"/></clipPath><clipPath id="ca1ccd78d2"><path d="M 480 0 L 510 0 L 510 297.964844 L 480 297.964844 Z M 480 0 " clip-rule="nonzero"/></clipPath><clipPath id="c464832e8d"><path d="M 451 0 L 481 0 L 481 297.964844 L 451 297.964844 Z M 451 0 " clip-rule="nonzero"/></clipPath><clipPath id="e79379acf3"><path d="M 421 0 L 452 0 L 452 297.964844 L 421 297.964844 Z M 421 0 " clip-rule="nonzero"/></clipPath><clipPath id="898a93cf96"><path d="M 392 0 L 422 0 L 422 297.964844 L 392 297.964844 Z M 392 0 " clip-rule="nonzero"/></clipPath><clipPath id="bfee68d6e2"><path d="M 363 0 L 393 0 L 393 297.964844 L 363 297.964844 Z M 363 0 " clip-rule="nonzero"/></clipPath><clipPath id="6da819432e"><path d="M 334 0 L 364 0 L 364 297.964844 L 334 297.964844 Z M 334 0 " clip-rule="nonzero"/></clipPath><clipPath id="f77fdf62db"><path d="M 305.34375 0 L 335 0 L 335 297.964844 L 305.34375 297.964844 Z M 305.34375 0 " clip-rule="nonzero"/></clipPath><clipPath id="0993e6f6af"><path d="M 1206 0 L 1236 0 L 1236 297.964844 L 1206 297.964844 Z M 1206 0 " clip-rule="nonzero"/></clipPath><clipPath id="cfbb3861e4"><path d="M 1177 0 L 1207 0 L 1207 297.964844 L 1177 297.964844 Z M 1177 0 " clip-rule="nonzero"/></clipPath><clipPath id="554c481143"><path d="M 1148 0 L 1178 0 L 1178 297.964844 L 1148 297.964844 Z M 1148 0 " clip-rule="nonzero"/></clipPath><clipPath id="6d847a4d40"><path d="M 1119 0 L 1149 0 L 1149 297.964844 L 1119 297.964844 Z M 1119 0 " clip-rule="nonzero"/></clipPath><clipPath id="943fa9a46a"><path d="M 1089 0 L 1120 0 L 1120 297.964844 L 1089 297.964844 Z M 1089 0 " clip-rule="nonzero"/></clipPath><clipPath id="486daba873"><path d="M 1060 0 L 1090 0 L 1090 297.964844 L 1060 297.964844 Z M 1060 0 " clip-rule="nonzero"/></clipPath><clipPath id="9d9ce179ad"><path d="M 1031 0 L 1061 0 L 1061 297.964844 L 1031 297.964844 Z M 1031 0 " clip-rule="nonzero"/></clipPath><clipPath id="284da8c10d"><path d="M 1002 0 L 1032 0 L 1032 297.964844 L 1002 297.964844 Z M 1002 0 " clip-rule="nonzero"/></clipPath><clipPath id="1c71e54248"><path d="M 973 0 L 1003 0 L 1003 297.964844 L 973 297.964844 Z M 973 0 " clip-rule="nonzero"/></clipPath><clipPath id="ea44c43804"><path d="M 944 0 L 974 0 L 974 297.964844 L 944 297.964844 Z M 944 0 " clip-rule="nonzero"/></clipPath><clipPath id="203fe9c5a0"><path d="M 915 0 L 945 0 L 945 297.964844 L 915 297.964844 Z M 915 0 " clip-rule="nonzero"/></clipPath><clipPath id="e513e82971"><path d="M 886 0 L 916 0 L 916 297.964844 L 886 297.964844 Z M 886 0 " clip-rule="nonzero"/></clipPath><clipPath id="a509d6ffb0"><path d="M 857 0 L 887 0 L 887 297.964844 L 857 297.964844 Z M 857 0 " clip-rule="nonzero"/></clipPath><clipPath id="22191005dd"><path d="M 828 0 L 858 0 L 858 297.964844 L 828 297.964844 Z M 828 0 " clip-rule="nonzero"/></clipPath><clipPath id="9140420182"><path d="M 799 0 L 829 0 L 829 297.964844 L 799 297.964844 Z M 799 0 " clip-rule="nonzero"/></clipPath><clipPath id="1bc2434bd2"><path d="M 770 0 L 800 0 L 800 297.964844 L 770 297.964844 Z M 770 0 " clip-rule="nonzero"/></clipPath><clipPath id="4b2699557c"><path d="M 741 0 L 771 0 L 771 297.964844 L 741 297.964844 Z M 741 0 " clip-rule="nonzero"/></clipPath><clipPath id="de3c828ac2"><path d="M 712 0 L 742 0 L 742 297.964844 L 712 297.964844 Z M 712 0 " clip-rule="nonzero"/></clipPath><clipPath id="fb6477bf07"><path d="M 683 0 L 713 0 L 713 297.964844 L 683 297.964844 Z M 683 0 " clip-rule="nonzero"/></clipPath><clipPath id="1835dcc4a4"><path d="M 654 0 L 684 0 L 684 297.964844 L 654 297.964844 Z M 654 0 " clip-rule="nonzero"/></clipPath><clipPath id="9815a38794"><path d="M 625 0 L 655 0 L 655 297.964844 L 625 297.964844 Z M 625 0 " clip-rule="nonzero"/></clipPath><clipPath id="d109c7f1ad"><path d="M 596 0 L 626 0 L 626 297.964844 L 596 297.964844 Z M 596 0 " clip-rule="nonzero"/></clipPath><clipPath id="faead62f29"><path d="M 567 0 L 597 0 L 597 297.964844 L 567 297.964844 Z M 567 0 " clip-rule="nonzero"/></clipPath><clipPath id="cd67a3cc49"><path d="M 538 0 L 568 0 L 568 297.964844 L 538 297.964844 Z M 538 0 " clip-rule="nonzero"/></clipPath><clipPath id="fee003e7db"><path d="M 509 0 L 539 0 L 539 297.964844 L 509 297.964844 Z M 509 0 " clip-rule="nonzero"/></clipPath><clipPath id="e60d13d327"><path d="M 480 0 L 510 0 L 510 297.964844 L 480 297.964844 Z M 480 0 " clip-rule="nonzero"/></clipPath><clipPath id="5badefc8c1"><path d="M 451 0 L 481 0 L 481 297.964844 L 451 297.964844 Z M 451 0 " clip-rule="nonzero"/></clipPath><clipPath id="fe9bf2d61a"><path d="M 421 0 L 452 0 L 452 297.964844 L 421 297.964844 Z M 421 0 " clip-rule="nonzero"/></clipPath><clipPath id="7ea0085b57"><path d="M 392 0 L 422 0 L 422 297.964844 L 392 297.964844 Z M 392 0 " clip-rule="nonzero"/></clipPath><clipPath id="f2310bcffb"><path d="M 363 0 L 393 0 L 393 297.964844 L 363 297.964844 Z M 363 0 " clip-rule="nonzero"/></clipPath><clipPath id="006789e0de"><path d="M 334 0 L 364 0 L 364 297.964844 L 334 297.964844 Z M 334 0 " clip-rule="nonzero"/></clipPath><clipPath id="82b3b85b22"><path d="M 305.34375 0 L 335 0 L 335 297.964844 L 305.34375 297.964844 Z M 305.34375 0 " clip-rule="nonzero"/></clipPath><clipPath id="0d5e9f1221"><path d="M 45.285156 0 L 180.851562 0 L 180.851562 133.636719 L 45.285156 133.636719 Z M 45.285156 0 " clip-rule="nonzero"/></clipPath><clipPath id="a0fb87ebb6"><path d="M 180.851562 -935.253906 L 180.851562 127.234375 C 180.851562 130.609375 178.113281 133.34375 174.738281 133.34375 L 51.394531 133.34375 C 48.019531 133.34375 45.285156 130.609375 45.285156 127.234375 L 45.285156 -935.253906 C 45.285156 -938.628906 48.019531 -941.367188 51.394531 -941.367188 L 174.738281 -941.367188 C 178.113281 -941.367188 180.851562 -938.628906 180.851562 -935.253906 Z M 180.851562 -935.253906 " clip-rule="nonzero"/></clipPath><clipPath id="c04d675995"><path d="M 1321.636719 0 L 1454.707031 0 L 1454.707031 133.574219 L 1321.636719 133.574219 Z M 1321.636719 0 " clip-rule="nonzero"/></clipPath><clipPath id="10e67f36b3"><path d="M 1454.707031 -935.253906 L 1454.707031 127.234375 C 1454.707031 130.609375 1451.96875 133.34375 1448.59375 133.34375 L 1327.75 133.34375 C 1324.375 133.34375 1321.636719 130.609375 1321.636719 127.234375 L 1321.636719 -935.253906 C 1321.636719 -938.628906 1324.375 -941.363281 1327.75 -941.363281 L 1448.59375 -941.363281 C 1451.96875 -941.363281 1454.707031 -938.628906 1454.707031 -935.253906 Z M 1454.707031 -935.253906 " clip-rule="nonzero"/></clipPath><clipPath id="40f22dde82"><path d="M 1321.640625 183.011719 L 1454.707031 183.011719 L 1454.707031 572.859375 L 1321.640625 572.859375 Z M 1321.640625 183.011719 " clip-rule="nonzero"/></clipPath><clipPath id="fbc0c763f2"><path d="M 1454.707031 189.125 L 1454.707031 566.480469 C 1454.707031 569.855469 1451.972656 572.59375 1448.597656 572.59375 L 1327.75 572.59375 C 1324.375 572.59375 1321.640625 569.855469 1321.640625 566.480469 L 1321.640625 189.125 C 1321.640625 185.75 1324.375 183.011719 1327.75 183.011719 L 1448.597656 183.011719 C 1451.972656 183.011719 1454.707031 185.75 1454.707031 189.125 Z M 1454.707031 189.125 " clip-rule="nonzero"/></clipPath><clipPath id="8bd4293cdd"><path d="M 52.214844 183.011719 L 185.28125 183.011719 L 185.28125 572.859375 L 52.214844 572.859375 Z M 52.214844 183.011719 " clip-rule="nonzero"/></clipPath><clipPath id="3767e2c39c"><path d="M 185.28125 189.125 L 185.28125 566.480469 C 185.28125 569.855469 182.546875 572.59375 179.171875 572.59375 L 58.324219 572.59375 C 54.949219 572.59375 52.214844 569.855469 52.214844 566.480469 L 52.214844 189.125 C 52.214844 185.75 54.949219 183.011719 58.324219 183.011719 L 179.171875 183.011719 C 182.546875 183.011719 185.28125 185.75 185.28125 189.125 Z M 185.28125 189.125 " clip-rule="nonzero"/></clipPath><clipPath id="708215e334"><path d="M 329.015625 318.328125 L 682 318.328125 L 682 552.574219 L 329.015625 552.574219 Z M 329.015625 318.328125 " clip-rule="nonzero"/></clipPath><clipPath id="15d42c62b1"><path d="M 335.125 318.328125 L 675.429688 318.328125 C 678.804688 318.328125 681.539062 321.0625 681.539062 324.4375 L 681.539062 546.464844 C 681.539062 549.839844 678.804688 552.574219 675.429688 552.574219 L 335.125 552.574219 C 331.75 552.574219 329.015625 549.839844 329.015625 546.464844 L 329.015625 324.4375 C 329.015625 321.0625 331.75 318.328125 335.125 318.328125 Z M 335.125 318.328125 " clip-rule="nonzero"/></clipPath><clipPath id="1a0a31eabe"><path d="M 214.910156 0 L 320.152344 0 L 320.152344 306.910156 L 214.910156 306.910156 Z M 214.910156 0 " clip-rule="nonzero"/></clipPath><clipPath id="442cd763e9"><path d="M 320.152344 -1108.527344 L 320.152344 300.503906 C 320.152344 303.878906 317.414062 306.613281 314.039062 306.613281 L 221.023438 306.613281 C 217.648438 306.613281 214.910156 303.878906 214.910156 300.503906 L 214.910156 -1108.527344 C 214.910156 -1111.902344 217.648438 -1114.640625 221.023438 -1114.640625 L 314.039062 -1114.640625 C 317.414062 -1114.640625 320.152344 -1111.902344 320.152344 -1108.527344 Z M 320.152344 -1108.527344 " clip-rule="nonzero"/></clipPath><clipPath id="4ec31a6e82"><path d="M 1215.351562 28.300781 L 1287.808594 28.300781 L 1287.808594 269.449219 L 1215.351562 269.449219 Z M 1215.351562 28.300781 " clip-rule="nonzero"/></clipPath><clipPath id="5d8fe79e99"><path d="M 1287.808594 34.414062 L 1287.808594 263.109375 C 1287.808594 266.484375 1285.074219 269.21875 1281.699219 269.21875 L 1221.464844 269.21875 C 1218.089844 269.21875 1215.351562 266.484375 1215.351562 263.109375 L 1215.351562 34.414062 C 1215.351562 31.039062 1218.089844 28.300781 1221.464844 28.300781 L 1281.699219 28.300781 C 1285.074219 28.300781 1287.808594 31.039062 1287.808594 34.414062 Z M 1287.808594 34.414062 " clip-rule="nonzero"/></clipPath><clipPath id="7c5c514a2c"><path d="M 883.574219 318.328125 L 1236 318.328125 L 1236 552.574219 L 883.574219 552.574219 Z M 883.574219 318.328125 " clip-rule="nonzero"/></clipPath><clipPath id="fd7553da2a"><path d="M 889.574219 318.328125 L 1230.097656 318.328125 C 1233.414062 318.328125 1236.097656 321.015625 1236.097656 324.328125 L 1236.097656 546.574219 C 1236.097656 549.886719 1233.414062 552.574219 1230.097656 552.574219 L 889.574219 552.574219 C 886.261719 552.574219 883.574219 549.886719 883.574219 546.574219 L 883.574219 324.328125 C 883.574219 321.015625 886.261719 318.328125 889.574219 318.328125 Z M 889.574219 318.328125 " clip-rule="nonzero"/></clipPath></defs><g clip-path="url(#67d3210a87)"><path fill="#dea55a" d="M 1206.144531 -1123.300781 L 1206.144531 297.976562 L 1235.203125 297.976562 L 1235.203125 -1123.300781 Z M 1206.144531 -1123.300781 " fill-opacity="1" fill-rule="nonzero"/></g><g clip-path="url(#0ce3072b75)"><path fill="#d39d49" d="M 1177.117188 -1123.300781 L 1177.117188 297.976562 L 1206.144531 297.976562 L 1206.144531 -1123.300781 Z M 1177.117188 -1123.300781 " fill-opacity="1" fill-rule="nonzero"/></g><g clip-path="url(#e8afd9f00c)"><path fill="#dea55a" d="M 1148.058594 -1123.300781 L 1148.058594 297.976562 L 1177.117188 297.976562 L 1177.117188 -1123.300781 Z M 1148.058594 -1123.300781 " fill-opacity="1" fill-rule="nonzero"/></g><g clip-path="url(#94a3fa8c76)"><path fill="#dea55a" d="M 1119.03125 -1123.300781 L 1119.03125 297.976562 L 1148.058594 297.976562 L 1148.058594 -1123.300781 Z M 1119.03125 -1123.300781 " fill-opacity="1" fill-rule="nonzero"/></g><g clip-path="url(#e176cefd53)"><path fill="#dea55a" d="M 1089.988281 -1123.300781 L 1089.988281 297.976562 L 1119.03125 297.976562 L 1119.03125 -1123.300781 Z M 1089.988281 -1123.300781 " fill-opacity="1" fill-rule="nonzero"/></g><g clip-path="url(#4712a57674)"><path fill="#dea55a" d="M 1060.945312 -1123.300781 L 1060.945312 297.976562 L 1089.988281 297.976562 L 1089.988281 -1123.300781 Z M 1060.945312 -1123.300781 " fill-opacity="1" fill-rule="nonzero"/></g><g clip-path="url(#8bb10340f6)"><path fill="#dea55a" d="M 1031.886719 -1123.300781 L 1031.886719 297.976562 L 1060.945312 297.976562 L 1060.945312 -1123.300781 Z M 1031.886719 -1123.300781 " fill-opacity="1" fill-rule="nonzero"/></g><g clip-path="url(#9e19bd7b4d)"><path fill="#d39d48" d="M 1002.859375 -1123.300781 L 1002.859375 297.976562 L 1031.886719 297.976562 L 1031.886719 -1123.300781 Z M 1002.859375 -1123.300781 " fill-opacity="1" fill-rule="nonzero"/></g><g clip-path="url(#09301de2ef)"><path fill="#dea55a" d="M 973.800781 -1123.300781 L 973.800781 297.976562 L 1002.859375 297.976562 L 1002.859375 -1123.300781 Z M 973.800781 -1123.300781 " fill-opacity="1" fill-rule="nonzero"/></g><g clip-path="url(#de3e9fe461)"><path fill="#d39d49" d="M 944.757812 -1123.300781 L 944.757812 297.976562 L 973.800781 297.976562 L 973.800781 -1123.300781 Z M 944.757812 -1123.300781 " fill-opacity="1" fill-rule="nonzero"/></g><g clip-path="url(#d5dc673529)"><path fill="#dea55a" d="M 915.714844 -1123.300781 L 915.714844 297.976562 L 944.757812 297.976562 L 944.757812 -1123.300781 Z M 915.714844 -1123.300781 " fill-opacity="1" fill-rule="nonzero"/></g><g clip-path="url(#28fe535e2e)"><path fill="#d39d48" d="M 886.671875 -1123.300781 L 886.671875 297.976562 L 915.714844 297.976562 L 915.714844 -1123.300781 Z M 886.671875 -1123.300781 " fill-opacity="1" fill-rule="nonzero"/></g><path fill="#d39d48" d="M 1119.03125 -471.535156 L 1119.03125 127.425781 L 1148.058594 127.425781 L 1148.058594 -471.535156 Z M 1119.03125 -471.535156 " fill-opacity="1" fill-rule="nonzero"/><path fill="#d39d48" d="M 451.015625 -471.535156 L 451.015625 127.425781 L 480.054688 127.425781 L 480.054688 -471.535156 Z M 451.015625 -471.535156 " fill-opacity="1" fill-rule="nonzero"/><g clip-path="url(#570278ef91)"><path fill="#dea55a" d="M 857.648438 -1123.300781 L 857.648438 297.976562 L 886.671875 297.976562 L 886.671875 -1123.300781 Z M 857.648438 -1123.300781 " fill-opacity="1" fill-rule="nonzero"/></g><g clip-path="url(#c980217b9e)"><path fill="#dea55a" d="M 828.585938 -1123.300781 L 828.585938 297.976562 L 857.648438 297.976562 L 857.648438 -1123.300781 Z M 828.585938 -1123.300781 " fill-opacity="1" fill-rule="nonzero"/></g><g clip-path="url(#d567d2e136)"><path fill="#dea55a" d="M 799.542969 -1123.300781 L 799.542969 297.976562 L 828.585938 297.976562 L 828.585938 -1123.300781 Z M 799.542969 -1123.300781 " fill-opacity="1" fill-rule="nonzero"/></g><g clip-path="url(#e2d4da697e)"><path fill="#dea55a" d="M 770.5 -1123.300781 L 770.5 297.976562 L 799.542969 297.976562 L 799.542969 -1123.300781 Z M 770.5 -1123.300781 " fill-opacity="1" fill-rule="nonzero"/></g><g clip-path="url(#226030d873)"><path fill="#dea55a" d="M 741.457031 -1123.300781 L 741.457031 297.976562 L 770.5 297.976562 L 770.5 -1123.300781 Z M 741.457031 -1123.300781 " fill-opacity="1" fill-rule="nonzero"/></g><g clip-path="url(#fbd3edbc86)"><path fill="#d39d49" d="M 712.414062 -1123.300781 L 712.414062 297.976562 L 741.457031 297.976562 L 741.457031 -1123.300781 Z M 712.414062 -1123.300781 " fill-opacity="1" fill-rule="nonzero"/></g><g clip-path="url(#587aa59f47)"><path fill="#dea55a" d="M 683.371094 -1123.300781 L 683.371094 297.976562 L 712.414062 297.976562 L 712.414062 -1123.300781 Z M 683.371094 -1123.300781 " fill-opacity="1" fill-rule="nonzero"/></g><g clip-path="url(#5eaa3a96f4)"><path fill="#d39d48" d="M 654.332031 -1123.300781 L 654.332031 297.976562 L 683.371094 297.976562 L 683.371094 -1123.300781 Z M 654.332031 -1123.300781 " fill-opacity="1" fill-rule="nonzero"/></g><g clip-path="url(#7553b5da95)"><path fill="#dea55a" d="M 625.289062 -1123.300781 L 625.289062 297.976562 L 654.332031 297.976562 L 654.332031 -1123.300781 Z M 625.289062 -1123.300781 " fill-opacity="1" fill-rule="nonzero"/></g><g clip-path="url(#378a90d580)"><path fill="#d39d49" d="M 596.226562 -1123.300781 L 596.226562 297.976562 L 625.289062 297.976562 L 625.289062 -1123.300781 Z M 596.226562 -1123.300781 " fill-opacity="1" fill-rule="nonzero"/></g><g clip-path="url(#7dd9f20552)"><path fill="#dea55a" d="M 567.183594 -1123.300781 L 567.183594 297.976562 L 596.226562 297.976562 L 596.226562 -1123.300781 Z M 567.183594 -1123.300781 " fill-opacity="1" fill-rule="nonzero"/></g><g clip-path="url(#2e235d56b7)"><path fill="#dea55a" d="M 538.140625 -1123.300781 L 538.140625 297.976562 L 567.183594 297.976562 L 567.183594 -1123.300781 Z M 538.140625 -1123.300781 " fill-opacity="1" fill-rule="nonzero"/></g><g clip-path="url(#7987778ca7)"><path fill="#dea55a" d="M 509.097656 -1123.300781 L 509.097656 297.976562 L 538.140625 297.976562 L 538.140625 -1123.300781 Z M 509.097656 -1123.300781 " fill-opacity="1" fill-rule="nonzero"/></g><g clip-path="url(#ca1ccd78d2)"><path fill="#dea55a" d="M 480.054688 -1123.300781 L 480.054688 297.976562 L 509.097656 297.976562 L 509.097656 -1123.300781 Z M 480.054688 -1123.300781 " fill-opacity="1" fill-rule="nonzero"/></g><g clip-path="url(#c464832e8d)"><path fill="#dea55a" d="M 451.015625 -1123.300781 L 451.015625 297.976562 L 480.054688 297.976562 L 480.054688 -1123.300781 Z M 451.015625 -1123.300781 " fill-opacity="1" fill-rule="nonzero"/></g><g clip-path="url(#e79379acf3)"><path fill="#dea55a" d="M 421.972656 -1123.300781 L 421.972656 297.976562 L 451.015625 297.976562 L 451.015625 -1123.300781 Z M 421.972656 -1123.300781 " fill-opacity="1" fill-rule="nonzero"/></g><g clip-path="url(#898a93cf96)"><path fill="#dea55a" d="M 392.929688 -1123.300781 L 392.929688 297.976562 L 421.972656 297.976562 L 421.972656 -1123.300781 Z M 392.929688 -1123.300781 " fill-opacity="1" fill-rule="nonzero"/></g><g clip-path="url(#bfee68d6e2)"><path fill="#d39d49" d="M 363.886719 -1123.300781 L 363.886719 297.976562 L 392.929688 297.976562 L 392.929688 -1123.300781 Z M 363.886719 -1123.300781 " fill-opacity="1" fill-rule="nonzero"/></g><g clip-path="url(#6da819432e)"><path fill="#dea55a" d="M 334.84375 -1123.300781 L 334.84375 297.976562 L 363.886719 297.976562 L 363.886719 -1123.300781 Z M 334.84375 -1123.300781 " fill-opacity="1" fill-rule="nonzero"/></g><g clip-path="url(#f77fdf62db)"><path fill="#d39d48" d="M 305.800781 -1123.300781 L 305.800781 297.976562 L 334.84375 297.976562 L 334.84375 -1123.300781 Z M 305.800781 -1123.300781 " fill-opacity="1" fill-rule="nonzero"/></g><path fill="#c79146" d="M 1089.988281 -179.078125 L 1089.988281 97.367188 L 1119.03125 97.367188 L 1119.03125 -179.078125 Z M 1089.988281 -179.078125 " fill-opacity="1" fill-rule="nonzero"/><path fill="#c79146" d="M 421.972656 -179.078125 L 421.972656 97.367188 L 451.015625 97.367188 L 451.015625 -179.078125 Z M 421.972656 -179.078125 " fill-opacity="1" fill-rule="nonzero"/><path fill="#c79146" d="M 480.054688 53.304688 L 480.054688 245.234375 L 509.097656 245.234375 L 509.097656 53.304688 Z M 480.054688 53.304688 " fill-opacity="1" fill-rule="nonzero"/><g clip-path="url(#0993e6f6af)"><path fill="#ae703f" d="M 1206.144531 -1123.300781 L 1206.144531 297.976562 L 1235.203125 297.976562 L 1235.203125 -1123.300781 Z M 1206.144531 -1123.300781 " fill-opacity="1" fill-rule="nonzero"/></g><g clip-path="url(#cfbb3861e4)"><path fill="#a86c37" d="M 1177.117188 297.976562 L 1177.117188 252.707031 L 1204.921875 252.707031 L 1204.921875 -1078.359375 L 1177.117188 -1078.359375 L 1177.117188 -1123.300781 L 1206.144531 -1123.300781 L 1206.144531 297.976562 L 1177.117188 297.976562 " fill-opacity="1" fill-rule="nonzero"/></g><g clip-path="url(#554c481143)"><path fill="#ae703f" d="M 1148.058594 297.976562 L 1148.058594 252.707031 L 1177.117188 252.707031 L 1177.117188 297.976562 L 1148.058594 297.976562 M 1148.058594 -1078.359375 L 1148.058594 -1123.300781 L 1177.117188 -1123.300781 L 1177.117188 -1078.359375 L 1148.058594 -1078.359375 " fill-opacity="1" fill-rule="nonzero"/></g><g clip-path="url(#6d847a4d40)"><path fill="#ae703f" d="M 1119.03125 297.976562 L 1119.03125 252.707031 L 1148.058594 252.707031 L 1148.058594 297.976562 L 1119.03125 297.976562 M 1119.03125 -1078.359375 L 1119.03125 -1123.300781 L 1148.058594 -1123.300781 L 1148.058594 -1078.359375 L 1119.03125 -1078.359375 " fill-opacity="1" fill-rule="nonzero"/></g><g clip-path="url(#943fa9a46a)"><path fill="#ae703f" d="M 1089.988281 297.976562 L 1089.988281 252.707031 L 1119.03125 252.707031 L 1119.03125 297.976562 L 1089.988281 297.976562 M 1089.988281 -1078.359375 L 1089.988281 -1123.300781 L 1119.03125 -1123.300781 L 1119.03125 -1078.359375 L 1089.988281 -1078.359375 " fill-opacity="1" fill-rule="nonzero"/></g><g clip-path="url(#486daba873)"><path fill="#ae703f" d="M 1060.945312 297.976562 L 1060.945312 252.707031 L 1089.988281 252.707031 L 1089.988281 297.976562 L 1060.945312 297.976562 M 1060.945312 -1078.359375 L 1060.945312 -1123.300781 L 1089.988281 -1123.300781 L 1089.988281 -1078.359375 L 1060.945312 -1078.359375 " fill-opacity="1" fill-rule="nonzero"/></g><g clip-path="url(#9d9ce179ad)"><path fill="#ae703f" d="M 1031.886719 297.976562 L 1031.886719 252.707031 L 1060.945312 252.707031 L 1060.945312 297.976562 L 1031.886719 297.976562 M 1031.886719 -1078.359375 L 1031.886719 -1123.300781 L 1060.945312 -1123.300781 L 1060.945312 -1078.359375 L 1031.886719 -1078.359375 " fill-opacity="1" fill-rule="nonzero"/></g><g clip-path="url(#284da8c10d)"><path fill="#a86c36" d="M 1002.859375 297.976562 L 1002.859375 252.707031 L 1031.886719 252.707031 L 1031.886719 297.976562 L 1002.859375 297.976562 M 1002.859375 -1078.359375 L 1002.859375 -1123.300781 L 1031.886719 -1123.300781 L 1031.886719 -1078.359375 L 1002.859375 -1078.359375 " fill-opacity="1" fill-rule="nonzero"/></g><g clip-path="url(#1c71e54248)"><path fill="#ae703f" d="M 973.800781 297.976562 L 973.800781 252.707031 L 1002.859375 252.707031 L 1002.859375 297.976562 L 973.800781 297.976562 M 973.800781 -1078.359375 L 973.800781 -1123.300781 L 1002.859375 -1123.300781 L 1002.859375 -1078.359375 L 973.800781 -1078.359375 " fill-opacity="1" fill-rule="nonzero"/></g><g clip-path="url(#ea44c43804)"><path fill="#a86c37" d="M 944.757812 297.976562 L 944.757812 252.707031 L 973.800781 252.707031 L 973.800781 297.976562 L 944.757812 297.976562 M 944.757812 -1078.359375 L 944.757812 -1123.300781 L 973.800781 -1123.300781 L 973.800781 -1078.359375 L 944.757812 -1078.359375 " fill-opacity="1" fill-rule="nonzero"/></g><g clip-path="url(#203fe9c5a0)"><path fill="#ae703f" d="M 915.714844 297.976562 L 915.714844 252.707031 L 944.757812 252.707031 L 944.757812 297.976562 L 915.714844 297.976562 M 915.714844 -1078.359375 L 915.714844 -1123.300781 L 944.757812 -1123.300781 L 944.757812 -1078.359375 L 915.714844 -1078.359375 " fill-opacity="1" fill-rule="nonzero"/></g><g clip-path="url(#e513e82971)"><path fill="#a86c36" d="M 886.671875 297.976562 L 886.671875 252.707031 L 915.714844 252.707031 L 915.714844 297.976562 L 886.671875 297.976562 M 886.671875 -1078.359375 L 886.671875 -1123.300781 L 915.714844 -1123.300781 L 915.714844 -1078.359375 L 886.671875 -1078.359375 " fill-opacity="1" fill-rule="nonzero"/></g><g clip-path="url(#a509d6ffb0)"><path fill="#ae703f" d="M 857.648438 297.976562 L 857.648438 252.707031 L 886.671875 252.707031 L 886.671875 297.976562 L 857.648438 297.976562 M 857.648438 -1078.359375 L 857.648438 -1123.300781 L 886.671875 -1123.300781 L 886.671875 -1078.359375 L 857.648438 -1078.359375 " fill-opacity="1" fill-rule="nonzero"/></g><g clip-path="url(#22191005dd)"><path fill="#ae703f" d="M 828.585938 297.976562 L 828.585938 252.707031 L 857.648438 252.707031 L 857.648438 297.976562 L 828.585938 297.976562 M 828.585938 -1078.359375 L 828.585938 -1123.300781 L 857.648438 -1123.300781 L 857.648438 -1078.359375 L 828.585938 -1078.359375 " fill-opacity="1" fill-rule="nonzero"/></g><g clip-path="url(#9140420182)"><path fill="#ae703f" d="M 799.542969 297.976562 L 799.542969 252.707031 L 828.585938 252.707031 L 828.585938 297.976562 L 799.542969 297.976562 M 799.542969 -1078.359375 L 799.542969 -1123.300781 L 828.585938 -1123.300781 L 828.585938 -1078.359375 L 799.542969 -1078.359375 " fill-opacity="1" fill-rule="nonzero"/></g><g clip-path="url(#1bc2434bd2)"><path fill="#ae703f" d="M 770.5 297.976562 L 770.5 252.707031 L 799.542969 252.707031 L 799.542969 297.976562 L 770.5 297.976562 M 770.5 -1078.359375 L 770.5 -1123.300781 L 799.542969 -1123.300781 L 799.542969 -1078.359375 L 770.5 -1078.359375 " fill-opacity="1" fill-rule="nonzero"/></g><g clip-path="url(#4b2699557c)"><path fill="#ae703f" d="M 741.457031 297.976562 L 741.457031 252.707031 L 770.5 252.707031 L 770.5 297.976562 L 741.457031 297.976562 M 741.457031 -1078.359375 L 741.457031 -1123.300781 L 770.5 -1123.300781 L 770.5 -1078.359375 L 741.457031 -1078.359375 " fill-opacity="1" fill-rule="nonzero"/></g><g clip-path="url(#de3c828ac2)"><path fill="#a86c37" d="M 712.414062 297.976562 L 712.414062 252.707031 L 741.457031 252.707031 L 741.457031 297.976562 L 712.414062 297.976562 M 712.414062 -1078.359375 L 712.414062 -1123.300781 L 741.457031 -1123.300781 L 741.457031 -1078.359375 L 712.414062 -1078.359375 " fill-opacity="1" fill-rule="nonzero"/></g><g clip-path="url(#fb6477bf07)"><path fill="#ae703f" d="M 683.371094 297.976562 L 683.371094 252.707031 L 712.414062 252.707031 L 712.414062 297.976562 L 683.371094 297.976562 M 683.371094 -1078.359375 L 683.371094 -1123.300781 L 712.414062 -1123.300781 L 712.414062 -1078.359375 L 683.371094 -1078.359375 " fill-opacity="1" fill-rule="nonzero"/></g><g clip-path="url(#1835dcc4a4)"><path fill="#a86c36" d="M 654.332031 297.976562 L 654.332031 252.707031 L 683.371094 252.707031 L 683.371094 297.976562 L 654.332031 297.976562 M 654.332031 -1078.359375 L 654.332031 -1123.300781 L 683.371094 -1123.300781 L 683.371094 -1078.359375 L 654.332031 -1078.359375 " fill-opacity="1" fill-rule="nonzero"/></g><g clip-path="url(#9815a38794)"><path fill="#ae703f" d="M 625.289062 297.976562 L 625.289062 252.707031 L 654.332031 252.707031 L 654.332031 297.976562 L 625.289062 297.976562 M 625.289062 -1078.359375 L 625.289062 -1123.300781 L 654.332031 -1123.300781 L 654.332031 -1078.359375 L 625.289062 -1078.359375 " fill-opacity="1" fill-rule="nonzero"/></g><g clip-path="url(#d109c7f1ad)"><path fill="#a86c37" d="M 596.226562 297.976562 L 596.226562 252.707031 L 625.289062 252.707031 L 625.289062 297.976562 L 596.226562 297.976562 M 596.226562 -1078.359375 L 596.226562 -1123.300781 L 625.289062 -1123.300781 L 625.289062 -1078.359375 L 596.226562 -1078.359375 " fill-opacity="1" fill-rule="nonzero"/></g><g clip-path="url(#faead62f29)"><path fill="#ae703f" d="M 567.183594 297.976562 L 567.183594 252.707031 L 596.226562 252.707031 L 596.226562 297.976562 L 567.183594 297.976562 M 567.183594 -1078.359375 L 567.183594 -1123.300781 L 596.226562 -1123.300781 L 596.226562 -1078.359375 L 567.183594 -1078.359375 " fill-opacity="1" fill-rule="nonzero"/></g><g clip-path="url(#cd67a3cc49)"><path fill="#ae703f" d="M 538.140625 297.976562 L 538.140625 252.707031 L 567.183594 252.707031 L 567.183594 297.976562 L 538.140625 297.976562 M 538.140625 -1078.359375 L 538.140625 -1123.300781 L 567.183594 -1123.300781 L 567.183594 -1078.359375 L 538.140625 -1078.359375 " fill-opacity="1" fill-rule="nonzero"/></g><g clip-path="url(#fee003e7db)"><path fill="#ae703f" d="M 509.097656 297.976562 L 509.097656 252.707031 L 538.140625 252.707031 L 538.140625 297.976562 L 509.097656 297.976562 M 509.097656 -1078.359375 L 509.097656 -1123.300781 L 538.140625 -1123.300781 L 538.140625 -1078.359375 L 509.097656 -1078.359375 " fill-opacity="1" fill-rule="nonzero"/></g><g clip-path="url(#e60d13d327)"><path fill="#ae703f" d="M 480.054688 297.976562 L 480.054688 252.707031 L 509.097656 252.707031 L 509.097656 297.976562 L 480.054688 297.976562 M 480.054688 -1078.359375 L 480.054688 -1123.300781 L 509.097656 -1123.300781 L 509.097656 -1078.359375 L 480.054688 -1078.359375 " fill-opacity="1" fill-rule="nonzero"/></g><g clip-path="url(#5badefc8c1)"><path fill="#ae703f" d="M 451.015625 297.976562 L 451.015625 252.707031 L 480.054688 252.707031 L 480.054688 297.976562 L 451.015625 297.976562 M 451.015625 -1078.359375 L 451.015625 -1123.300781 L 480.054688 -1123.300781 L 480.054688 -1078.359375 L 451.015625 -1078.359375 " fill-opacity="1" fill-rule="nonzero"/></g><g clip-path="url(#fe9bf2d61a)"><path fill="#ae703f" d="M 421.972656 297.976562 L 421.972656 252.707031 L 451.015625 252.707031 L 451.015625 297.976562 L 421.972656 297.976562 M 421.972656 -1078.359375 L 421.972656 -1123.300781 L 451.015625 -1123.300781 L 451.015625 -1078.359375 L 421.972656 -1078.359375 " fill-opacity="1" fill-rule="nonzero"/></g><g clip-path="url(#7ea0085b57)"><path fill="#ae703f" d="M 392.929688 297.976562 L 392.929688 252.707031 L 421.972656 252.707031 L 421.972656 297.976562 L 392.929688 297.976562 M 392.929688 -1078.359375 L 392.929688 -1123.300781 L 421.972656 -1123.300781 L 421.972656 -1078.359375 L 392.929688 -1078.359375 " fill-opacity="1" fill-rule="nonzero"/></g><g clip-path="url(#f2310bcffb)"><path fill="#a86c37" d="M 363.886719 297.976562 L 363.886719 252.707031 L 392.929688 252.707031 L 392.929688 297.976562 L 363.886719 297.976562 M 363.886719 -1078.359375 L 363.886719 -1123.300781 L 392.929688 -1123.300781 L 392.929688 -1078.359375 L 363.886719 -1078.359375 " fill-opacity="1" fill-rule="nonzero"/></g><g clip-path="url(#006789e0de)"><path fill="#ae703f" d="M 334.84375 297.976562 L 334.84375 -1123.300781 L 363.886719 -1123.300781 L 363.886719 -1078.359375 L 336.097656 -1078.359375 L 336.097656 252.707031 L 363.886719 252.707031 L 363.886719 297.976562 L 334.84375 297.976562 " fill-opacity="1" fill-rule="nonzero"/></g><g clip-path="url(#82b3b85b22)"><path fill="#a86c36" d="M 305.800781 -1123.300781 L 305.800781 297.976562 L 334.84375 297.976562 L 334.84375 -1123.300781 Z M 305.800781 -1123.300781 " fill-opacity="1" fill-rule="nonzero"/></g><path fill="#ae703f" d="M 857.648438 24.207031 L 857.648438 252.722656 L 872.152344 252.722656 L 872.152344 24.207031 Z M 857.648438 24.207031 " fill-opacity="1" fill-rule="nonzero"/><path fill="#ae703f" d="M 828.585938 24.207031 L 828.585938 252.722656 L 857.648438 252.722656 L 857.648438 24.207031 Z M 828.585938 24.207031 " fill-opacity="1" fill-rule="nonzero"/><path fill="#ae703f" d="M 799.542969 24.207031 L 799.542969 252.722656 L 828.585938 252.722656 L 828.585938 24.207031 Z M 799.542969 24.207031 " fill-opacity="1" fill-rule="nonzero"/><path fill="#ae703f" d="M 770.5 24.207031 L 770.5 252.722656 L 799.542969 252.722656 L 799.542969 24.207031 Z M 770.5 24.207031 " fill-opacity="1" fill-rule="nonzero"/><path fill="#ae703f" d="M 741.457031 252.707031 L 741.457031 245.234375 L 770.5 245.234375 L 770.5 53.304688 L 741.457031 53.304688 L 741.457031 24.207031 L 770.5 24.207031 L 770.5 252.707031 L 741.457031 252.707031 " fill-opacity="1" fill-rule="nonzero"/><path fill="#a86c37" d="M 712.414062 252.707031 L 712.414062 24.207031 L 741.457031 24.207031 L 741.457031 252.707031 L 712.414062 252.707031 " fill-opacity="1" fill-rule="nonzero"/><path fill="#ae703f" d="M 683.371094 24.207031 L 683.371094 252.722656 L 712.414062 252.722656 L 712.414062 24.207031 Z M 683.371094 24.207031 " fill-opacity="1" fill-rule="nonzero"/><path fill="#a86c36" d="M 672.667969 24.207031 L 672.667969 252.722656 L 683.371094 252.722656 L 683.371094 24.207031 Z M 672.667969 24.207031 " fill-opacity="1" fill-rule="nonzero"/><path fill="#a26635" d="M 741.457031 53.304688 L 741.457031 245.234375 L 770.5 245.234375 L 770.5 53.304688 Z M 741.457031 53.304688 " fill-opacity="1" fill-rule="nonzero"/><path fill="#ffffff" d="M 435.039062 -1073.921875 C 436.621094 -986.074219 471.554688 -903.746094 533.851562 -841.4375 C 597.597656 -777.664062 682.378906 -742.5625 772.542969 -742.5625 L 774.285156 -742.5625 C 774.875 -742.5625 775.476562 -742.578125 776.082031 -742.578125 C 958.496094 -744.46875 1106.714844 -891.816406 1110.042969 -1073.921875 L 1192.421875 -1073.921875 L 1192.421875 -418.871094 L 950.4375 -418.871094 C 947.125 -515.285156 867.730469 -592.6875 770.550781 -592.6875 C 673.386719 -592.6875 593.976562 -515.285156 590.664062 -418.871094 L 348.679688 -418.871094 L 348.679688 -1073.921875 Z M 879.199219 -841.40625 L 879.378906 -841.40625 L 879.378906 -1073.921875 L 1097.527344 -1073.921875 C 1094.558594 -918.253906 981.699219 -789.039062 833.417969 -760.820312 C 859.539062 -778.675781 877.210938 -807.96875 879.199219 -841.40625 Z M 669.734375 -858.101562 C 669.40625 -854.640625 669.179688 -851.164062 669.179688 -847.671875 C 669.179688 -811.003906 688.054688 -778.675781 716.59375 -759.859375 C 651.050781 -771.167969 590.695312 -802.304688 542.710938 -850.300781 C 482.796875 -910.222656 449.171875 -989.4375 447.585938 -1073.921875 L 669.734375 -1073.921875 Z M 866.867188 -897.316406 C 864.972656 -900.839844 862.933594 -904.300781 860.679688 -907.546875 C 859.457031 -909.308594 857.5 -910.257812 855.527344 -910.257812 C 854.300781 -910.257812 853.046875 -909.878906 851.96875 -909.128906 C 849.113281 -907.15625 848.429688 -903.253906 850.386719 -900.398438 C 853.160156 -896.402344 855.640625 -892.125 857.761719 -887.753906 C 859.261719 -884.617188 863.015625 -883.3125 866.113281 -884.796875 L 866.867188 -885.253906 L 866.867188 -881.699219 C 863.796875 -880.554688 862.085938 -877.242188 863.03125 -874.058594 C 864.417969 -869.410156 865.445312 -864.59375 866.066406 -859.730469 C 866.179688 -858.898438 866.457031 -858.132812 866.867188 -857.429688 L 866.867188 -853.9375 L 682.28125 -853.9375 L 682.28125 -857.449219 C 682.441406 -859.078125 682.605469 -860.695312 682.867188 -862.292969 C 683.046875 -863.617188 682.835938 -864.90625 682.28125 -866.03125 L 682.28125 -872.558594 C 684.125 -873.164062 685.640625 -874.582031 686.308594 -876.539062 C 687.828125 -881.175781 689.71875 -885.726562 691.957031 -890.070312 C 693.539062 -893.121094 692.332031 -896.921875 689.261719 -898.523438 C 688.347656 -898.980469 687.355469 -899.207031 686.390625 -899.207031 C 684.859375 -899.207031 683.4375 -898.621094 682.28125 -897.609375 L 682.28125 -1073.921875 L 866.867188 -1073.921875 Z M 773.683594 -755.109375 C 725.011719 -755.421875 685.167969 -793.476562 681.9375 -841.40625 L 866.621094 -841.40625 C 863.421875 -793.851562 824.164062 -756.058594 776.082031 -755.144531 C 775.265625 -755.125 774.484375 -755.109375 773.683594 -755.109375 Z M 727.148438 -406.339844 C 730.199219 -385.074219 748.441406 -368.707031 770.550781 -368.707031 C 792.660156 -368.707031 810.882812 -385.074219 813.953125 -406.339844 L 937.90625 -406.339844 C 934.578125 -316.84375 860.8125 -245.058594 770.550781 -245.058594 C 680.289062 -245.058594 606.507812 -316.84375 603.210938 -406.339844 Z M 813.953125 -418.871094 C 810.882812 -440.152344 792.660156 -456.503906 770.550781 -456.503906 C 748.441406 -456.503906 730.199219 -440.152344 727.148438 -418.871094 L 603.210938 -418.871094 C 606.507812 -508.367188 680.289062 -580.152344 770.550781 -580.152344 C 860.8125 -580.152344 934.578125 -508.367188 937.90625 -418.871094 Z M 1110.042969 248.710938 C 1106.699219 65.414062 956.589844 -82.648438 772.542969 -82.648438 C 772.164062 -82.648438 771.773438 -82.632812 771.398438 -82.632812 L 770.8125 -82.648438 C 770.222656 -82.648438 769.652344 -82.617188 769.066406 -82.617188 C 586.601562 -80.757812 438.386719 66.574219 435.039062 248.710938 L 348.679688 248.710938 L 348.679688 -406.339844 L 590.664062 -406.339844 C 593.976562 -309.941406 673.386719 -232.523438 770.550781 -232.523438 C 867.730469 -232.523438 947.125 -309.941406 950.4375 -406.339844 L 1192.421875 -406.339844 L 1192.421875 248.710938 Z M 665.914062 16.195312 L 665.71875 16.195312 L 665.71875 248.710938 L 447.585938 248.710938 C 450.558594 93.042969 563.417969 -36.171875 711.648438 -64.371094 C 685.558594 -46.535156 667.90625 -17.257812 665.914062 16.195312 Z M 875.332031 32.105469 C 875.464844 31.683594 875.5625 31.242188 875.59375 30.785156 C 875.804688 28.042969 875.921875 25.253906 875.921875 22.476562 C 875.921875 -14.15625 857.09375 -46.421875 828.621094 -65.253906 C 979.234375 -38.945312 1094.527344 91.359375 1097.527344 248.710938 L 875.332031 248.710938 Z M 678.234375 66.605469 C 679.457031 66.882812 680.746094 66.769531 681.96875 66.261719 C 685.167969 64.941406 686.652344 61.285156 685.332031 58.054688 C 683.488281 53.613281 681.96875 48.980469 680.828125 44.296875 C 680.453125 42.699219 679.488281 41.425781 678.234375 40.59375 L 678.234375 32.222656 C 678.476562 31.453125 678.609375 30.652344 678.527344 29.804688 L 678.476562 28.746094 L 862.800781 28.746094 L 862.800781 40.917969 C 861.855469 41.734375 861.15625 42.84375 860.828125 44.148438 C 859.6875 48.851562 858.203125 53.5 856.339844 57.957031 C 855.019531 61.136719 856.519531 64.828125 859.71875 66.148438 C 860.730469 66.574219 861.789062 66.671875 862.800781 66.574219 L 862.800781 248.710938 L 678.234375 248.710938 Z M 771.382812 -70.101562 C 820.070312 -69.824219 859.929688 -31.75 863.160156 16.195312 L 678.476562 16.195312 C 681.675781 -31.375 720.933594 -69.1875 769.082031 -70.082031 C 769.867188 -70.082031 770.617188 -70.101562 771.382812 -70.101562 Z M 1204.953125 261.257812 L 1204.953125 -1086.453125 L 336.148438 -1086.453125 L 336.148438 261.257812 L 1204.953125 261.257812 " fill-opacity="1" fill-rule="nonzero"/><path fill="#ffffff" d="M 835 91.359375 C 833.5625 91.359375 832.113281 91.867188 830.921875 92.878906 C 827.234375 96.011719 823.300781 98.902344 819.1875 101.398438 C 816.234375 103.242188 815.304688 107.09375 817.117188 110.046875 C 818.929688 113 822.796875 113.914062 825.75 112.101562 C 830.414062 109.230469 834.886719 105.949219 839.078125 102.425781 C 841.6875 100.15625 842 96.207031 839.765625 93.5625 C 838.507812 92.128906 836.761719 91.359375 835 91.359375 " fill-opacity="1" fill-rule="nonzero"/><path fill="#ffffff" d="M 749.289062 112.527344 C 744.574219 111.417969 739.941406 109.917969 735.488281 108.054688 C 734.6875 107.746094 733.886719 107.597656 733.089844 107.597656 C 730.625 107.597656 728.292969 109.050781 727.28125 111.464844 C 725.957031 114.664062 727.492188 118.320312 730.691406 119.660156 C 735.75 121.746094 741.035156 123.460938 746.371094 124.734375 C 749.746094 125.535156 753.125 123.460938 753.925781 120.082031 C 754.722656 116.703125 752.652344 113.328125 749.289062 112.527344 " fill-opacity="1" fill-rule="nonzero"/><path fill="#ffffff" d="M 700.503906 82.710938 C 697.355469 79.039062 694.484375 75.089844 691.9375 70.980469 C 690.765625 69.054688 688.707031 67.992188 686.621094 67.992188 C 685.476562 67.992188 684.351562 68.320312 683.324219 68.9375 C 680.386719 70.75 679.457031 74.601562 681.285156 77.554688 C 684.15625 82.238281 687.417969 86.695312 690.992188 90.871094 C 693.246094 93.5 697.191406 93.792969 699.835938 91.539062 C 702.445312 89.273438 702.773438 85.324219 700.503906 82.710938 " fill-opacity="1" fill-rule="nonzero"/><path fill="#ffffff" d="M 778.644531 114.746094 L 778.136719 114.761719 C 773.339844 115.136719 768.445312 115.136719 763.617188 114.777344 C 760.191406 114.5 757.140625 117.082031 756.878906 120.539062 C 756.632812 124 759.195312 127.003906 762.652344 127.261719 C 768.121094 127.6875 773.683594 127.6875 779.132812 127.261719 C 782.558594 126.984375 785.152344 123.984375 784.875 120.523438 C 784.613281 117.242188 781.875 114.746094 778.644531 114.746094 " fill-opacity="1" fill-rule="nonzero"/><path fill="#ffffff" d="M 722.546875 101.496094 C 718.4375 98.949219 714.472656 96.09375 710.785156 92.945312 C 709.625 91.949219 708.171875 91.460938 706.722656 91.460938 C 704.960938 91.460938 703.199219 92.195312 701.957031 93.664062 C 699.707031 96.289062 700.03125 100.238281 702.660156 102.492188 C 706.835938 106.066406 711.324219 109.296875 715.988281 112.167969 C 718.957031 113.980469 722.808594 113.050781 724.621094 110.09375 C 726.429688 107.140625 725.5 103.289062 722.546875 101.496094 " fill-opacity="1" fill-rule="nonzero"/><path fill="#ffffff" d="M 808.664062 107.535156 C 807.867188 107.535156 807.050781 107.695312 806.28125 108.007812 C 801.828125 109.867188 797.164062 111.367188 792.480469 112.511719 C 789.117188 113.328125 787.03125 116.703125 787.847656 120.050781 C 788.628906 123.429688 792.023438 125.515625 795.398438 124.699219 C 800.734375 123.410156 806.003906 121.714844 811.0625 119.609375 C 814.261719 118.269531 815.777344 114.601562 814.457031 111.417969 C 813.480469 109.003906 811.128906 107.535156 808.664062 107.535156 " fill-opacity="1" fill-rule="nonzero"/><path fill="#ffffff" d="M 858.363281 68.839844 C 857.335938 68.1875 856.195312 67.878906 855.085938 67.878906 C 852.980469 67.878906 850.925781 68.957031 849.734375 70.863281 C 847.21875 74.976562 844.347656 78.925781 841.183594 82.613281 C 838.933594 85.242188 839.257812 89.207031 841.867188 91.441406 C 844.496094 93.710938 848.460938 93.402344 850.710938 90.773438 C 854.285156 86.597656 857.546875 82.109375 860.4375 77.425781 C 862.214844 74.488281 861.300781 70.621094 858.363281 68.839844 " fill-opacity="1" fill-rule="nonzero"/><g clip-path="url(#0d5e9f1221)"><g clip-path="url(#a0fb87ebb6)"><path fill="#d9d9d9" d="M 180.851562 -941.367188 L 180.851562 133.109375 L 45.285156 133.109375 L 45.285156 -941.367188 Z M 180.851562 -941.367188 " fill-opacity="1" fill-rule="nonzero"/></g></g><g clip-path="url(#c04d675995)"><g clip-path="url(#10e67f36b3)"><path fill="#d9d9d9" d="M 1454.707031 -941.363281 L 1454.707031 133.574219 L 1321.636719 133.574219 L 1321.636719 -941.363281 Z M 1454.707031 -941.363281 " fill-opacity="1" fill-rule="nonzero"/></g></g><g clip-path="url(#40f22dde82)"><g clip-path="url(#fbc0c763f2)"><path fill="#d9d9d9" d="M 1454.707031 183.011719 L 1454.707031 572.339844 L 1321.640625 572.339844 L 1321.640625 183.011719 Z M 1454.707031 183.011719 " fill-opacity="1" fill-rule="nonzero"/></g></g><g clip-path="url(#8bd4293cdd)"><g clip-path="url(#3767e2c39c)"><path fill="#d9d9d9" d="M 185.28125 183.011719 L 185.28125 572.339844 L 52.214844 572.339844 L 52.214844 183.011719 Z M 185.28125 183.011719 " fill-opacity="1" fill-rule="nonzero"/></g></g><g clip-path="url(#708215e334)"><g clip-path="url(#15d42c62b1)"><path fill="#7ed957" d="M 329.015625 318.328125 L 681.300781 318.328125 L 681.300781 552.574219 L 329.015625 552.574219 Z M 329.015625 318.328125 " fill-opacity="1" fill-rule="nonzero"/></g></g><g fill="#000000" fill-opacity="1"><g transform="translate(417.855217, 442.827656)"><g><path d="M 10.21875 -3.96875 C 10.21875 -2.675781 9.753906 -1.65625 8.828125 -0.90625 C 7.898438 -0.164062 6.613281 0.203125 4.96875 0.203125 C 3.4375 0.203125 2.085938 -0.0859375 0.921875 -0.671875 L 0.921875 -3.484375 C 1.878906 -3.046875 2.691406 -2.738281 3.359375 -2.5625 C 4.023438 -2.394531 4.640625 -2.3125 5.203125 -2.3125 C 5.859375 -2.3125 6.363281 -2.4375 6.71875 -2.6875 C 7.070312 -2.9375 7.25 -3.3125 7.25 -3.8125 C 7.25 -4.09375 7.171875 -4.34375 7.015625 -4.5625 C 6.859375 -4.78125 6.628906 -4.988281 6.328125 -5.1875 C 6.023438 -5.394531 5.410156 -5.71875 4.484375 -6.15625 C 3.609375 -6.570312 2.953125 -6.96875 2.515625 -7.34375 C 2.078125 -7.71875 1.726562 -8.15625 1.46875 -8.65625 C 1.207031 -9.164062 1.078125 -9.753906 1.078125 -10.421875 C 1.078125 -11.679688 1.503906 -12.671875 2.359375 -13.390625 C 3.222656 -14.117188 4.410156 -14.484375 5.921875 -14.484375 C 6.660156 -14.484375 7.363281 -14.394531 8.03125 -14.21875 C 8.707031 -14.039062 9.414062 -13.796875 10.15625 -13.484375 L 9.1875 -11.125 C 8.414062 -11.4375 7.78125 -11.65625 7.28125 -11.78125 C 6.789062 -11.90625 6.304688 -11.96875 5.828125 -11.96875 C 5.253906 -11.96875 4.8125 -11.832031 4.5 -11.5625 C 4.195312 -11.289062 4.046875 -10.941406 4.046875 -10.515625 C 4.046875 -10.253906 4.109375 -10.019531 4.234375 -9.8125 C 4.359375 -9.613281 4.550781 -9.421875 4.8125 -9.234375 C 5.082031 -9.054688 5.722656 -8.726562 6.734375 -8.25 C 8.066406 -7.601562 8.976562 -6.957031 9.46875 -6.3125 C 9.96875 -5.675781 10.21875 -4.894531 10.21875 -3.96875 Z M 10.21875 -3.96875 "/></g></g></g><g fill="#000000" fill-opacity="1"><g transform="translate(428.866539, 442.827656)"><g><path d="M 1.796875 0 L 1.796875 -14.28125 L 4.828125 -14.28125 L 4.828125 0 Z M 1.796875 0 "/></g></g></g><g fill="#000000" fill-opacity="1"><g transform="translate(435.485046, 442.827656)"><g><path d="M 1.796875 0 L 1.796875 -14.28125 L 4.828125 -14.28125 L 4.828125 -2.5 L 10.609375 -2.5 L 10.609375 0 Z M 1.796875 0 "/></g></g></g><g fill="#000000" fill-opacity="1"><g transform="translate(446.77946, 442.827656)"><g><path d="M 1.796875 0 L 1.796875 -14.28125 L 4.828125 -14.28125 L 4.828125 -2.5 L 10.609375 -2.5 L 10.609375 0 Z M 1.796875 0 "/></g></g></g><g fill="#000000" fill-opacity="1"><g transform="translate(458.073874, 442.827656)"><g><path d="M 10.53125 0 L 9.5 -3.40625 L 4.296875 -3.40625 L 3.265625 0 L 0 0 L 5.046875 -14.34375 L 8.734375 -14.34375 L 13.796875 0 Z M 8.78125 -5.9375 C 7.820312 -9.019531 7.28125 -10.757812 7.15625 -11.15625 C 7.039062 -11.5625 6.957031 -11.882812 6.90625 -12.125 C 6.6875 -11.289062 6.070312 -9.226562 5.0625 -5.9375 Z M 8.78125 -5.9375 "/></g></g></g><g fill="#000000" fill-opacity="1"><g transform="translate(471.867312, 442.827656)"><g><path d="M 10.21875 -3.96875 C 10.21875 -2.675781 9.753906 -1.65625 8.828125 -0.90625 C 7.898438 -0.164062 6.613281 0.203125 4.96875 0.203125 C 3.4375 0.203125 2.085938 -0.0859375 0.921875 -0.671875 L 0.921875 -3.484375 C 1.878906 -3.046875 2.691406 -2.738281 3.359375 -2.5625 C 4.023438 -2.394531 4.640625 -2.3125 5.203125 -2.3125 C 5.859375 -2.3125 6.363281 -2.4375 6.71875 -2.6875 C 7.070312 -2.9375 7.25 -3.3125 7.25 -3.8125 C 7.25 -4.09375 7.171875 -4.34375 7.015625 -4.5625 C 6.859375 -4.78125 6.628906 -4.988281 6.328125 -5.1875 C 6.023438 -5.394531 5.410156 -5.71875 4.484375 -6.15625 C 3.609375 -6.570312 2.953125 -6.96875 2.515625 -7.34375 C 2.078125 -7.71875 1.726562 -8.15625 1.46875 -8.65625 C 1.207031 -9.164062 1.078125 -9.753906 1.078125 -10.421875 C 1.078125 -11.679688 1.503906 -12.671875 2.359375 -13.390625 C 3.222656 -14.117188 4.410156 -14.484375 5.921875 -14.484375 C 6.660156 -14.484375 7.363281 -14.394531 8.03125 -14.21875 C 8.707031 -14.039062 9.414062 -13.796875 10.15625 -13.484375 L 9.1875 -11.125 C 8.414062 -11.4375 7.78125 -11.65625 7.28125 -11.78125 C 6.789062 -11.90625 6.304688 -11.96875 5.828125 -11.96875 C 5.253906 -11.96875 4.8125 -11.832031 4.5 -11.5625 C 4.195312 -11.289062 4.046875 -10.941406 4.046875 -10.515625 C 4.046875 -10.253906 4.109375 -10.019531 4.234375 -9.8125 C 4.359375 -9.613281 4.550781 -9.421875 4.8125 -9.234375 C 5.082031 -9.054688 5.722656 -8.726562 6.734375 -8.25 C 8.066406 -7.601562 8.976562 -6.957031 9.46875 -6.3125 C 9.96875 -5.675781 10.21875 -4.894531 10.21875 -3.96875 Z M 10.21875 -3.96875 "/></g></g></g><g fill="#000000" fill-opacity="1"><g transform="translate(482.878633, 442.827656)"><g/></g></g><g fill="#000000" fill-opacity="1"><g transform="translate(488.071916, 442.827656)"><g><path d="M 7.859375 -11.96875 C 6.722656 -11.96875 5.84375 -11.535156 5.21875 -10.671875 C 4.59375 -9.816406 4.28125 -8.625 4.28125 -7.09375 C 4.28125 -3.914062 5.472656 -2.328125 7.859375 -2.328125 C 8.859375 -2.328125 10.070312 -2.578125 11.5 -3.078125 L 11.5 -0.53125 C 10.332031 -0.0390625 9.023438 0.203125 7.578125 0.203125 C 5.503906 0.203125 3.914062 -0.425781 2.8125 -1.6875 C 1.707031 -2.945312 1.15625 -4.757812 1.15625 -7.125 C 1.15625 -8.601562 1.425781 -9.898438 1.96875 -11.015625 C 2.507812 -12.140625 3.285156 -13 4.296875 -13.59375 C 5.316406 -14.1875 6.503906 -14.484375 7.859375 -14.484375 C 9.242188 -14.484375 10.640625 -14.148438 12.046875 -13.484375 L 11.0625 -11.015625 C 10.53125 -11.265625 9.992188 -11.484375 9.453125 -11.671875 C 8.910156 -11.867188 8.378906 -11.96875 7.859375 -11.96875 Z M 7.859375 -11.96875 "/></g></g></g><g fill="#000000" fill-opacity="1"><g transform="translate(500.811078, 442.827656)"><g><path d="M 10.53125 0 L 9.5 -3.40625 L 4.296875 -3.40625 L 3.265625 0 L 0 0 L 5.046875 -14.34375 L 8.734375 -14.34375 L 13.796875 0 Z M 8.78125 -5.9375 C 7.820312 -9.019531 7.28125 -10.757812 7.15625 -11.15625 C 7.039062 -11.5625 6.957031 -11.882812 6.90625 -12.125 C 6.6875 -11.289062 6.070312 -9.226562 5.0625 -5.9375 Z M 8.78125 -5.9375 "/></g></g></g><g fill="#000000" fill-opacity="1"><g transform="translate(514.604516, 442.827656)"><g><path d="M 14.46875 0 L 10.609375 0 L 4.40625 -10.796875 L 4.3125 -10.796875 C 4.4375 -8.890625 4.5 -7.53125 4.5 -6.71875 L 4.5 0 L 1.796875 0 L 1.796875 -14.28125 L 5.609375 -14.28125 L 11.8125 -3.578125 L 11.890625 -3.578125 C 11.785156 -5.441406 11.734375 -6.753906 11.734375 -7.515625 L 11.734375 -14.28125 L 14.46875 -14.28125 Z M 14.46875 0 "/></g></g></g><g fill="#000000" fill-opacity="1"><g transform="translate(530.857929, 442.827656)"><g><path d="M 7.859375 -11.96875 C 6.722656 -11.96875 5.84375 -11.535156 5.21875 -10.671875 C 4.59375 -9.816406 4.28125 -8.625 4.28125 -7.09375 C 4.28125 -3.914062 5.472656 -2.328125 7.859375 -2.328125 C 8.859375 -2.328125 10.070312 -2.578125 11.5 -3.078125 L 11.5 -0.53125 C 10.332031 -0.0390625 9.023438 0.203125 7.578125 0.203125 C 5.503906 0.203125 3.914062 -0.425781 2.8125 -1.6875 C 1.707031 -2.945312 1.15625 -4.757812 1.15625 -7.125 C 1.15625 -8.601562 1.425781 -9.898438 1.96875 -11.015625 C 2.507812 -12.140625 3.285156 -13 4.296875 -13.59375 C 5.316406 -14.1875 6.503906 -14.484375 7.859375 -14.484375 C 9.242188 -14.484375 10.640625 -14.148438 12.046875 -13.484375 L 11.0625 -11.015625 C 10.53125 -11.265625 9.992188 -11.484375 9.453125 -11.671875 C 8.910156 -11.867188 8.378906 -11.96875 7.859375 -11.96875 Z M 7.859375 -11.96875 "/></g></g></g><g fill="#000000" fill-opacity="1"><g transform="translate(543.597091, 442.827656)"><g><path d="M 13.5 0 L 10.484375 0 L 10.484375 -6.15625 L 4.828125 -6.15625 L 4.828125 0 L 1.796875 0 L 1.796875 -14.28125 L 4.828125 -14.28125 L 4.828125 -8.6875 L 10.484375 -8.6875 L 10.484375 -14.28125 L 13.5 -14.28125 Z M 13.5 0 "/></g></g></g><g fill="#000000" fill-opacity="1"><g transform="translate(558.893847, 442.827656)"><g><path d="M 10.53125 0 L 9.5 -3.40625 L 4.296875 -3.40625 L 3.265625 0 L 0 0 L 5.046875 -14.34375 L 8.734375 -14.34375 L 13.796875 0 Z M 8.78125 -5.9375 C 7.820312 -9.019531 7.28125 -10.757812 7.15625 -11.15625 C 7.039062 -11.5625 6.957031 -11.882812 6.90625 -12.125 C 6.6875 -11.289062 6.070312 -9.226562 5.0625 -5.9375 Z M 8.78125 -5.9375 "/></g></g></g><g fill="#000000" fill-opacity="1"><g transform="translate(572.687285, 442.827656)"><g/></g></g><g fill="#000000" fill-opacity="1"><g transform="translate(577.880568, 442.827656)"><g><path d="M 13.640625 -7.28125 C 13.640625 -4.925781 12.96875 -3.125 11.625 -1.875 C 10.289062 -0.625 8.363281 0 5.84375 0 L 1.796875 0 L 1.796875 -14.28125 L 6.28125 -14.28125 C 8.613281 -14.28125 10.421875 -13.664062 11.703125 -12.4375 C 12.992188 -11.207031 13.640625 -9.488281 13.640625 -7.28125 Z M 10.5 -7.203125 C 10.5 -10.265625 9.144531 -11.796875 6.4375 -11.796875 L 4.828125 -11.796875 L 4.828125 -2.5 L 6.125 -2.5 C 9.039062 -2.5 10.5 -4.066406 10.5 -7.203125 Z M 10.5 -7.203125 "/></g></g></g><g clip-path="url(#1a0a31eabe)"><g clip-path="url(#442cd763e9)"><path fill="#d9d9d9" d="M 320.152344 -1114.640625 L 320.152344 306.496094 L 214.910156 306.496094 L 214.910156 -1114.640625 Z M 320.152344 -1114.640625 " fill-opacity="1" fill-rule="nonzero"/></g></g><g clip-path="url(#4ec31a6e82)"><g clip-path="url(#5d8fe79e99)"><path fill="#ff3131" d="M 1287.808594 28.300781 L 1287.808594 269.164062 L 1215.351562 269.164062 L 1215.351562 28.300781 Z M 1287.808594 28.300781 " fill-opacity="1" fill-rule="nonzero"/></g></g><g fill="#ffffff" fill-opacity="1"><g transform="translate(1244.309588, 116.169185)"><g><path d="M 0 4.546875 L 0 1.5625 L 15.203125 1.5625 L 15.203125 4.546875 Z M 0 4.546875 "/></g></g></g><g fill="#ffffff" fill-opacity="1"><g transform="translate(1244.309588, 122.270316)"><g><path d="M 9 6.078125 C 9 5.453125 8.796875 4.957031 8.390625 4.59375 C 7.992188 4.238281 7.429688 4.035156 6.703125 3.984375 L 6.703125 8.171875 C 7.429688 8.148438 7.992188 7.953125 8.390625 7.578125 C 8.796875 7.210938 9 6.710938 9 6.078125 Z M -0.203125 6.5 C -0.203125 4.75 0.28125 3.378906 1.25 2.390625 C 2.226562 1.398438 3.601562 0.90625 5.375 0.90625 C 7.207031 0.90625 8.625 1.359375 9.625 2.265625 C 10.625 3.179688 11.125 4.445312 11.125 6.0625 C 11.125 7.601562 10.679688 8.800781 9.796875 9.65625 C 8.921875 10.519531 7.707031 10.953125 6.15625 10.953125 L 4.71875 10.953125 L 4.71875 3.921875 C 3.875 3.953125 3.210938 4.203125 2.734375 4.671875 C 2.253906 5.140625 2.015625 5.796875 2.015625 6.640625 C 2.015625 7.296875 2.082031 7.914062 2.21875 8.5 C 2.363281 9.09375 2.582031 9.707031 2.875 10.34375 L 0.578125 10.34375 C 0.316406 9.820312 0.125 9.265625 0 8.671875 C -0.132812 8.078125 -0.203125 7.351562 -0.203125 6.5 Z M -0.203125 6.5 "/></g></g></g><g fill="#ffffff" fill-opacity="1"><g transform="translate(1244.309588, 134.082106)"><g><path d="M 5.484375 3.9375 C 4.398438 3.9375 3.582031 4.113281 3.03125 4.46875 C 2.476562 4.820312 2.203125 5.398438 2.203125 6.203125 C 2.203125 6.992188 2.472656 7.5625 3.015625 7.90625 C 3.566406 8.257812 4.390625 8.4375 5.484375 8.4375 C 6.554688 8.4375 7.363281 8.257812 7.90625 7.90625 C 8.445312 7.5625 8.71875 6.988281 8.71875 6.1875 C 8.71875 5.382812 8.445312 4.804688 7.90625 4.453125 C 7.375 4.109375 6.566406 3.9375 5.484375 3.9375 Z M 5.484375 11.484375 C 3.703125 11.484375 2.304688 11.015625 1.296875 10.078125 C 0.296875 9.140625 -0.203125 7.832031 -0.203125 6.15625 C -0.203125 5.113281 0.0234375 4.191406 0.484375 3.390625 C 0.953125 2.585938 1.613281 1.972656 2.46875 1.546875 C 3.332031 1.117188 4.335938 0.90625 5.484375 0.90625 C 7.265625 0.90625 8.648438 1.367188 9.640625 2.296875 C 10.628906 3.222656 11.125 4.53125 11.125 6.21875 C 11.125 7.269531 10.894531 8.195312 10.4375 9 C 9.976562 9.800781 9.320312 10.414062 8.46875 10.84375 C 7.625 11.269531 6.628906 11.484375 5.484375 11.484375 Z M 5.484375 11.484375 "/></g></g></g><g fill="#ffffff" fill-opacity="1"><g transform="translate(1244.309588, 146.460081)"><g><path d="M 0 11.640625 L 0 8.65625 L 6.375 8.65625 C 7.164062 8.65625 7.753906 8.515625 8.140625 8.234375 C 8.535156 7.960938 8.734375 7.519531 8.734375 6.90625 C 8.734375 6.070312 8.457031 5.46875 7.90625 5.09375 C 7.351562 4.726562 6.429688 4.546875 5.140625 4.546875 L 0 4.546875 L 0 1.5625 L 10.921875 1.5625 L 10.921875 3.84375 L 9.515625 4.234375 L 9.515625 4.40625 C 10.046875 4.738281 10.445312 5.195312 10.71875 5.78125 C 10.988281 6.363281 11.125 7.023438 11.125 7.765625 C 11.125 9.035156 10.78125 10 10.09375 10.65625 C 9.40625 11.3125 8.414062 11.640625 7.125 11.640625 Z M 0 11.640625 "/></g></g></g><g fill="#ffffff" fill-opacity="1"><g transform="translate(1244.309588, 159.599478)"><g><path d="M 9 6.078125 C 9 5.453125 8.796875 4.957031 8.390625 4.59375 C 7.992188 4.238281 7.429688 4.035156 6.703125 3.984375 L 6.703125 8.171875 C 7.429688 8.148438 7.992188 7.953125 8.390625 7.578125 C 8.796875 7.210938 9 6.710938 9 6.078125 Z M -0.203125 6.5 C -0.203125 4.75 0.28125 3.378906 1.25 2.390625 C 2.226562 1.398438 3.601562 0.90625 5.375 0.90625 C 7.207031 0.90625 8.625 1.359375 9.625 2.265625 C 10.625 3.179688 11.125 4.445312 11.125 6.0625 C 11.125 7.601562 10.679688 8.800781 9.796875 9.65625 C 8.921875 10.519531 7.707031 10.953125 6.15625 10.953125 L 4.71875 10.953125 L 4.71875 3.921875 C 3.875 3.953125 3.210938 4.203125 2.734375 4.671875 C 2.253906 5.140625 2.015625 5.796875 2.015625 6.640625 C 2.015625 7.296875 2.082031 7.914062 2.21875 8.5 C 2.363281 9.09375 2.582031 9.707031 2.875 10.34375 L 0.578125 10.34375 C 0.316406 9.820312 0.125 9.265625 0 8.671875 C -0.132812 8.078125 -0.203125 7.351562 -0.203125 6.5 Z M -0.203125 6.5 "/></g></g></g><g fill="#ffffff" fill-opacity="1"><g transform="translate(1244.309588, 171.411268)"><g><path d="M 3.25 9.1875 C 2.125 9.1875 1.265625 8.796875 0.671875 8.015625 C 0.0859375 7.234375 -0.203125 6.066406 -0.203125 4.515625 C -0.203125 3.722656 -0.144531 3.046875 -0.03125 2.484375 C 0.0703125 1.929688 0.226562 1.410156 0.4375 0.921875 L 2.90625 0.921875 C 2.644531 1.472656 2.425781 2.09375 2.25 2.78125 C 2.070312 3.476562 1.984375 4.09375 1.984375 4.625 C 1.984375 5.695312 2.296875 6.234375 2.921875 6.234375 C 3.148438 6.234375 3.335938 6.160156 3.484375 6.015625 C 3.640625 5.878906 3.804688 5.632812 3.984375 5.28125 C 4.171875 4.925781 4.390625 4.457031 4.640625 3.875 C 4.992188 3.039062 5.316406 2.425781 5.609375 2.03125 C 5.910156 1.632812 6.253906 1.347656 6.640625 1.171875 C 7.035156 0.992188 7.515625 0.90625 8.078125 0.90625 C 9.046875 0.90625 9.796875 1.28125 10.328125 2.03125 C 10.859375 2.78125 11.125 3.84375 11.125 5.21875 C 11.125 6.539062 10.835938 7.820312 10.265625 9.0625 L 8.109375 8.171875 C 8.347656 7.617188 8.539062 7.101562 8.6875 6.625 C 8.84375 6.15625 8.921875 5.671875 8.921875 5.171875 C 8.921875 4.296875 8.679688 3.859375 8.203125 3.859375 C 7.929688 3.859375 7.695312 4 7.5 4.28125 C 7.3125 4.5625 7.023438 5.179688 6.640625 6.140625 C 6.296875 6.992188 5.972656 7.617188 5.671875 8.015625 C 5.367188 8.410156 5.019531 8.703125 4.625 8.890625 C 4.238281 9.085938 3.78125 9.1875 3.25 9.1875 Z M 3.25 9.1875 "/></g></g></g><g clip-path="url(#7c5c514a2c)"><g clip-path="url(#fd7553da2a)"><path fill="#d9d9d9" d="M 883.574219 318.328125 L 1235.859375 318.328125 L 1235.859375 552.574219 L 883.574219 552.574219 Z M 883.574219 318.328125 " fill-opacity="1" fill-rule="nonzero"/></g></g></svg>