<svg xmlns="http://www.w3.org/2000/svg" xmlns:xlink="http://www.w3.org/1999/xlink" width="2000" zoomAndPan="magnify" viewBox="0 0 1500 599.999999" height="800" preserveAspectRatio="xMidYMid meet" version="1.0"><defs><g/><clipPath id="88faaf0947"><path d="M 357.5625 0 L 1174.3125 0 L 1174.3125 9 L 357.5625 9 Z M 357.5625 0 " clip-rule="nonzero"/></clipPath><clipPath id="f36c07038f"><path d="M 357.5625 8 L 1174.3125 8 L 1174.3125 26 L 357.5625 26 Z M 357.5625 8 " clip-rule="nonzero"/></clipPath><clipPath id="30c5f290a4"><path d="M 357.5625 25 L 1174.3125 25 L 1174.3125 42 L 357.5625 42 Z M 357.5625 25 " clip-rule="nonzero"/></clipPath><clipPath id="cc9f1d22b9"><path d="M 357.5625 41 L 1174.3125 41 L 1174.3125 59 L 357.5625 59 Z M 357.5625 41 " clip-rule="nonzero"/></clipPath><clipPath id="b09544f63a"><path d="M 357.5625 58 L 1174.3125 58 L 1174.3125 76 L 357.5625 76 Z M 357.5625 58 " clip-rule="nonzero"/></clipPath><clipPath id="960397b4b6"><path d="M 357.5625 75 L 1174.3125 75 L 1174.3125 92 L 357.5625 92 Z M 357.5625 75 " clip-rule="nonzero"/></clipPath><clipPath id="40077c238c"><path d="M 357.5625 91 L 1174.3125 91 L 1174.3125 109 L 357.5625 109 Z M 357.5625 91 " clip-rule="nonzero"/></clipPath><clipPath id="f58ef5cb4d"><path d="M 357.5625 108 L 1174.3125 108 L 1174.3125 126 L 357.5625 126 Z M 357.5625 108 " clip-rule="nonzero"/></clipPath><clipPath id="691c6825d3"><path d="M 357.5625 125 L 1174.3125 125 L 1174.3125 142 L 357.5625 142 Z M 357.5625 125 " clip-rule="nonzero"/></clipPath><clipPath id="9a24779b8d"><path d="M 357.5625 141 L 1174.3125 141 L 1174.3125 159 L 357.5625 159 Z M 357.5625 141 " clip-rule="nonzero"/></clipPath><clipPath id="ce1303fc74"><path d="M 357.5625 158 L 1174.3125 158 L 1174.3125 176 L 357.5625 176 Z M 357.5625 158 " clip-rule="nonzero"/></clipPath><clipPath id="25b579c517"><path d="M 357.5625 175 L 1174.3125 175 L 1174.3125 192 L 357.5625 192 Z M 357.5625 175 " clip-rule="nonzero"/></clipPath><clipPath id="52b3867dc2"><path d="M 357.5625 191 L 1174.3125 191 L 1174.3125 208.851562 L 357.5625 208.851562 Z M 357.5625 191 " clip-rule="nonzero"/></clipPath><clipPath id="c30d79dec9"><path d="M 357.5625 0 L 1174.3125 0 L 1174.3125 9 L 357.5625 9 Z M 357.5625 0 " clip-rule="nonzero"/></clipPath><clipPath id="deb0bc9c73"><path d="M 357.5625 8 L 1174.3125 8 L 1174.3125 26 L 357.5625 26 Z M 357.5625 8 " clip-rule="nonzero"/></clipPath><clipPath id="45700c347d"><path d="M 357.5625 25 L 1174.3125 25 L 1174.3125 42 L 357.5625 42 Z M 357.5625 25 " clip-rule="nonzero"/></clipPath><clipPath id="9d557364b9"><path d="M 357.5625 41 L 1174.3125 41 L 1174.3125 59 L 357.5625 59 Z M 357.5625 41 " clip-rule="nonzero"/></clipPath><clipPath id="6c6d92de54"><path d="M 357.5625 58 L 1174.3125 58 L 1174.3125 76 L 357.5625 76 Z M 357.5625 58 " clip-rule="nonzero"/></clipPath><clipPath id="736510cb56"><path d="M 357.5625 75 L 1174.3125 75 L 1174.3125 92 L 357.5625 92 Z M 357.5625 75 " clip-rule="nonzero"/></clipPath><clipPath id="3b1cb28269"><path d="M 357.5625 91 L 1174.3125 91 L 1174.3125 109 L 357.5625 109 Z M 357.5625 91 " clip-rule="nonzero"/></clipPath><clipPath id="e3a3e2c0e3"><path d="M 357.5625 108 L 1174.3125 108 L 1174.3125 126 L 357.5625 126 Z M 357.5625 108 " clip-rule="nonzero"/></clipPath><clipPath id="7e93131599"><path d="M 357.5625 125 L 1174.3125 125 L 1174.3125 142 L 357.5625 142 Z M 357.5625 125 " clip-rule="nonzero"/></clipPath><clipPath id="0228b74474"><path d="M 357.5625 141 L 1174.3125 141 L 1174.3125 159 L 357.5625 159 Z M 357.5625 141 " clip-rule="nonzero"/></clipPath><clipPath id="e5daa1af26"><path d="M 357.5625 158 L 1174.3125 158 L 1174.3125 176 L 357.5625 176 Z M 357.5625 158 " clip-rule="nonzero"/></clipPath><clipPath id="e65ffca868"><path d="M 357.5625 175 L 1174.3125 175 L 1174.3125 192 L 357.5625 192 Z M 357.5625 175 " clip-rule="nonzero"/></clipPath><clipPath id="f94feb1eeb"><path d="M 357.5625 191 L 1174.3125 191 L 1174.3125 208.851562 L 357.5625 208.851562 Z M 357.5625 191 " clip-rule="nonzero"/></clipPath><clipPath id="a2b31f73f5"><path d="M 447.320312 257.75 L 1070.945312 257.75 L 1070.945312 335.667969 L 447.320312 335.667969 Z M 447.320312 257.75 " clip-rule="nonzero"/></clipPath><clipPath id="ea5ba0ff97"><path d="M 453.320312 257.75 L 1064.914062 257.75 C 1068.226562 257.75 1070.914062 260.4375 1070.914062 263.75 L 1070.914062 329.667969 C 1070.914062 332.980469 1068.226562 335.667969 1064.914062 335.667969 L 453.320312 335.667969 C 450.007812 335.667969 447.320312 332.980469 447.320312 329.667969 L 447.320312 263.75 C 447.320312 260.4375 450.007812 257.75 453.320312 257.75 Z M 453.320312 257.75 " clip-rule="nonzero"/></clipPath><clipPath id="ca7e687b3d"><path d="M 518.976562 383.394531 L 999.460938 383.394531 L 999.460938 578.949219 L 518.976562 578.949219 Z M 518.976562 383.394531 " clip-rule="nonzero"/></clipPath><clipPath id="03ff9ed547"><path d="M 524.976562 383.394531 L 993.257812 383.394531 C 996.570312 383.394531 999.257812 386.082031 999.257812 389.394531 L 999.257812 572.949219 C 999.257812 576.261719 996.570312 578.949219 993.257812 578.949219 L 524.976562 578.949219 C 521.664062 578.949219 518.976562 576.261719 518.976562 572.949219 L 518.976562 389.394531 C 518.976562 386.082031 521.664062 383.394531 524.976562 383.394531 Z M 524.976562 383.394531 " clip-rule="nonzero"/></clipPath><clipPath id="68fd233688"><path d="M 1120.683594 383.394531 L 1389.492188 383.394531 L 1389.492188 554.578125 L 1120.683594 554.578125 Z M 1120.683594 383.394531 " clip-rule="nonzero"/></clipPath><clipPath id="1a104bc1f3"><path d="M 1126.683594 383.394531 L 1383.246094 383.394531 C 1386.558594 383.394531 1389.246094 386.082031 1389.246094 389.394531 L 1389.246094 548.578125 C 1389.246094 551.890625 1386.558594 554.578125 1383.246094 554.578125 L 1126.683594 554.578125 C 1123.371094 554.578125 1120.683594 551.890625 1120.683594 548.578125 L 1120.683594 389.394531 C 1120.683594 386.082031 1123.371094 383.394531 1126.683594 383.394531 Z M 1126.683594 383.394531 " clip-rule="nonzero"/></clipPath><clipPath id="d72c2bb53a"><path d="M 110.753906 383.394531 L 364.851562 383.394531 L 364.851562 554.578125 L 110.753906 554.578125 Z M 110.753906 383.394531 " clip-rule="nonzero"/></clipPath><clipPath id="fc0d67f505"><path d="M 116.753906 383.394531 L 358.519531 383.394531 C 361.832031 383.394531 364.519531 386.082031 364.519531 389.394531 L 364.519531 548.578125 C 364.519531 551.890625 361.832031 554.578125 358.519531 554.578125 L 116.753906 554.578125 C 113.441406 554.578125 110.753906 551.890625 110.753906 548.578125 L 110.753906 389.394531 C 110.753906 386.082031 113.441406 383.394531 116.753906 383.394531 Z M 116.753906 383.394531 " clip-rule="nonzero"/></clipPath><clipPath id="9a44af0361"><path d="M 1111.414062 257.394531 L 1389.246094 257.394531 L 1389.246094 333.871094 L 1111.414062 333.871094 Z M 1111.414062 257.394531 " clip-rule="nonzero"/></clipPath><clipPath id="75375ccedb"><path d="M 1117.414062 257.394531 L 1383.246094 257.394531 C 1386.558594 257.394531 1389.246094 260.078125 1389.246094 263.394531 L 1389.246094 327.871094 C 1389.246094 331.1875 1386.558594 333.871094 1383.246094 333.871094 L 1117.414062 333.871094 C 1114.101562 333.871094 1111.414062 331.1875 1111.414062 327.871094 L 1111.414062 263.394531 C 1111.414062 260.078125 1114.101562 257.394531 1117.414062 257.394531 Z M 1117.414062 257.394531 " clip-rule="nonzero"/></clipPath><clipPath id="897dc08d73"><path d="M 110.753906 257.394531 L 406.894531 257.394531 L 406.894531 335.308594 L 110.753906 335.308594 Z M 110.753906 257.394531 " clip-rule="nonzero"/></clipPath><clipPath id="52dd72cac8"><path d="M 116.753906 257.394531 L 400.6875 257.394531 C 404.003906 257.394531 406.6875 260.078125 406.6875 263.394531 L 406.6875 329.308594 C 406.6875 332.621094 404.003906 335.308594 400.6875 335.308594 L 116.753906 335.308594 C 113.441406 335.308594 110.753906 332.621094 110.753906 329.308594 L 110.753906 263.394531 C 110.753906 260.078125 113.441406 257.394531 116.753906 257.394531 Z M 116.753906 257.394531 " clip-rule="nonzero"/></clipPath><clipPath id="a91cdb9356"><path d="M 130.59375 6.511719 L 306.457031 6.511719 L 306.457031 177.691406 L 130.59375 177.691406 Z M 130.59375 6.511719 " clip-rule="nonzero"/></clipPath><clipPath id="48454ec364"><path d="M 136.59375 6.511719 L 300.355469 6.511719 C 303.667969 6.511719 306.355469 9.195312 306.355469 12.511719 L 306.355469 171.691406 C 306.355469 175.003906 303.667969 177.691406 300.355469 177.691406 L 136.59375 177.691406 C 133.28125 177.691406 130.59375 175.003906 130.59375 171.691406 L 130.59375 12.511719 C 130.59375 9.195312 133.28125 6.511719 136.59375 6.511719 Z M 136.59375 6.511719 " clip-rule="nonzero"/></clipPath><clipPath id="e52ed8bd4c"><path d="M 1213.484375 6.511719 L 1389.246094 6.511719 L 1389.246094 210 L 1213.484375 210 Z M 1213.484375 6.511719 " clip-rule="nonzero"/></clipPath><clipPath id="efe6b2b4f6"><path d="M 1219.484375 6.511719 L 1383.246094 6.511719 C 1386.558594 6.511719 1389.246094 9.195312 1389.246094 12.511719 L 1389.246094 203.949219 C 1389.246094 207.265625 1386.558594 209.949219 1383.246094 209.949219 L 1219.484375 209.949219 C 1216.171875 209.949219 1213.484375 207.265625 1213.484375 203.949219 L 1213.484375 12.511719 C 1213.484375 9.195312 1216.171875 6.511719 1219.484375 6.511719 Z M 1219.484375 6.511719 " clip-rule="nonzero"/></clipPath><clipPath id="a0fcda6ee3"><path d="M 347.734375 177.691406 L 1164.746094 177.691406 L 1164.746094 230.789062 L 347.734375 230.789062 Z M 347.734375 177.691406 " clip-rule="nonzero"/></clipPath><clipPath id="51c951a286"><path d="M 353.734375 177.691406 L 1158.582031 177.691406 C 1161.894531 177.691406 1164.582031 180.378906 1164.582031 183.691406 L 1164.582031 224.789062 C 1164.582031 228.105469 1161.894531 230.789062 1158.582031 230.789062 L 353.734375 230.789062 C 350.421875 230.789062 347.734375 228.105469 347.734375 224.789062 L 347.734375 183.691406 C 347.734375 180.378906 350.421875 177.691406 353.734375 177.691406 Z M 353.734375 177.691406 " clip-rule="nonzero"/></clipPath></defs><path fill="#d39d48" d="M 732.105469 125.15625 L 1076.308594 125.15625 L 1076.308594 108.472656 L 732.105469 108.472656 Z M 732.105469 125.15625 " fill-opacity="1" fill-rule="nonzero"/><g clip-path="url(#88faaf0947)"><path fill="#d39d48" d="M 357.554688 8.34375 L 1174.320312 8.34375 L 1174.320312 -8.339844 L 357.554688 -8.339844 Z M 357.554688 8.34375 " fill-opacity="1" fill-rule="nonzero"/></g><g clip-path="url(#f36c07038f)"><path fill="#dea55a" d="M 357.554688 25.03125 L 1174.320312 25.03125 L 1174.320312 8.34375 L 357.554688 8.34375 Z M 357.554688 25.03125 " fill-opacity="1" fill-rule="nonzero"/></g><g clip-path="url(#30c5f290a4)"><path fill="#d39d49" d="M 357.554688 41.726562 L 1174.320312 41.726562 L 1174.320312 25.03125 L 357.554688 25.03125 Z M 357.554688 41.726562 " fill-opacity="1" fill-rule="nonzero"/></g><g clip-path="url(#cc9f1d22b9)"><path fill="#dea55a" d="M 357.554688 58.414062 L 1174.320312 58.414062 L 1174.320312 41.726562 L 357.554688 41.726562 Z M 357.554688 58.414062 " fill-opacity="1" fill-rule="nonzero"/></g><g clip-path="url(#b09544f63a)"><path fill="#dea55a" d="M 357.554688 75.097656 L 1174.320312 75.097656 L 1174.320312 58.414062 L 357.554688 58.414062 Z M 357.554688 75.097656 " fill-opacity="1" fill-rule="nonzero"/></g><g clip-path="url(#960397b4b6)"><path fill="#dea55a" d="M 357.554688 91.785156 L 1174.320312 91.785156 L 1174.320312 75.097656 L 357.554688 75.097656 Z M 357.554688 91.785156 " fill-opacity="1" fill-rule="nonzero"/></g><g clip-path="url(#40077c238c)"><path fill="#dea55a" d="M 357.554688 108.472656 L 1174.320312 108.472656 L 1174.320312 91.785156 L 357.554688 91.785156 Z M 357.554688 108.472656 " fill-opacity="1" fill-rule="nonzero"/></g><g clip-path="url(#f58ef5cb4d)"><path fill="#dea55a" d="M 357.554688 125.15625 L 1174.320312 125.15625 L 1174.320312 108.472656 L 357.554688 108.472656 Z M 357.554688 125.15625 " fill-opacity="1" fill-rule="nonzero"/></g><g clip-path="url(#691c6825d3)"><path fill="#dea55a" d="M 357.554688 141.84375 L 1174.320312 141.84375 L 1174.320312 125.15625 L 357.554688 125.15625 Z M 357.554688 141.84375 " fill-opacity="1" fill-rule="nonzero"/></g><g clip-path="url(#9a24779b8d)"><path fill="#dea55a" d="M 357.554688 158.53125 L 1174.320312 158.53125 L 1174.320312 141.84375 L 357.554688 141.84375 Z M 357.554688 158.53125 " fill-opacity="1" fill-rule="nonzero"/></g><g clip-path="url(#ce1303fc74)"><path fill="#d39d49" d="M 357.554688 175.214844 L 1174.320312 175.214844 L 1174.320312 158.53125 L 357.554688 158.53125 Z M 357.554688 175.214844 " fill-opacity="1" fill-rule="nonzero"/></g><g clip-path="url(#25b579c517)"><path fill="#dea55a" d="M 357.554688 191.902344 L 1174.320312 191.902344 L 1174.320312 175.214844 L 357.554688 175.214844 Z M 357.554688 191.902344 " fill-opacity="1" fill-rule="nonzero"/></g><g clip-path="url(#52b3867dc2)"><path fill="#d39d48" d="M 357.554688 208.589844 L 1174.320312 208.589844 L 1174.320312 191.902344 L 357.554688 191.902344 Z M 357.554688 208.589844 " fill-opacity="1" fill-rule="nonzero"/></g><path fill="#c79146" d="M 900.171875 141.84375 L 1059.035156 141.84375 L 1059.035156 125.15625 L 900.171875 125.15625 Z M 900.171875 141.84375 " fill-opacity="1" fill-rule="nonzero"/><path fill="#c28e3f" d="M 474.105469 175.214844 L 591.238281 175.214844 L 591.238281 166.871094 L 474.105469 166.871094 Z M 474.105469 175.214844 " fill-opacity="1" fill-rule="nonzero"/><path fill="#c79146" d="M 474.105469 183.558594 L 591.238281 183.558594 L 591.238281 175.214844 L 474.105469 175.214844 Z M 474.105469 183.558594 " fill-opacity="1" fill-rule="nonzero"/><path fill="#c79146" d="M 388.578125 125.15625 L 505.691406 125.15625 L 505.691406 108.472656 L 388.578125 108.472656 Z M 388.578125 125.15625 " fill-opacity="1" fill-rule="nonzero"/><path fill="#c28e3f" d="M 523.648438 41.726562 L 633.925781 41.726562 L 633.925781 25.03125 L 523.648438 25.03125 Z M 523.648438 41.726562 " fill-opacity="1" fill-rule="nonzero"/><path fill="#c79146" d="M 1033.714844 108.472656 L 1144.011719 108.472656 L 1144.011719 91.785156 L 1033.714844 91.785156 Z M 1033.714844 108.472656 " fill-opacity="1" fill-rule="nonzero"/><g clip-path="url(#c30d79dec9)"><path fill="#a86c36" d="M 1174.320312 8.34375 L 1148.304688 8.34375 L 1148.304688 -8.339844 L 1174.320312 -8.339844 L 1174.320312 8.34375 M 383.382812 8.34375 L 357.554688 8.34375 L 357.554688 -8.339844 L 383.382812 -8.339844 L 383.382812 8.34375 " fill-opacity="1" fill-rule="nonzero"/></g><g clip-path="url(#deb0bc9c73)"><path fill="#ae703f" d="M 1174.320312 25.03125 L 1148.304688 25.03125 L 1148.304688 8.34375 L 1174.320312 8.34375 L 1174.320312 25.03125 M 383.382812 25.03125 L 357.554688 25.03125 L 357.554688 8.34375 L 383.382812 8.34375 L 383.382812 25.03125 " fill-opacity="1" fill-rule="nonzero"/></g><g clip-path="url(#45700c347d)"><path fill="#a86c37" d="M 1174.320312 41.726562 L 1148.304688 41.726562 L 1148.304688 25.03125 L 1174.320312 25.03125 L 1174.320312 41.726562 M 383.382812 41.726562 L 357.554688 41.726562 L 357.554688 25.03125 L 383.382812 25.03125 L 383.382812 41.726562 " fill-opacity="1" fill-rule="nonzero"/></g><g clip-path="url(#9d557364b9)"><path fill="#ae703f" d="M 1174.320312 58.414062 L 1148.304688 58.414062 L 1148.304688 41.726562 L 1174.320312 41.726562 L 1174.320312 58.414062 M 383.382812 58.414062 L 357.554688 58.414062 L 357.554688 41.726562 L 383.382812 41.726562 L 383.382812 58.414062 " fill-opacity="1" fill-rule="nonzero"/></g><g clip-path="url(#6c6d92de54)"><path fill="#ae703f" d="M 1174.320312 75.097656 L 1148.304688 75.097656 L 1148.304688 58.414062 L 1174.320312 58.414062 L 1174.320312 75.097656 M 383.382812 75.097656 L 357.554688 75.097656 L 357.554688 58.414062 L 383.382812 58.414062 L 383.382812 75.097656 " fill-opacity="1" fill-rule="nonzero"/></g><g clip-path="url(#736510cb56)"><path fill="#ae703f" d="M 1174.320312 91.785156 L 1148.304688 91.785156 L 1148.304688 75.097656 L 1174.320312 75.097656 L 1174.320312 91.785156 M 383.382812 91.785156 L 357.554688 91.785156 L 357.554688 75.097656 L 383.382812 75.097656 L 383.382812 91.785156 " fill-opacity="1" fill-rule="nonzero"/></g><g clip-path="url(#3b1cb28269)"><path fill="#ae703f" d="M 1174.320312 108.472656 L 1148.304688 108.472656 L 1148.304688 91.785156 L 1174.320312 91.785156 L 1174.320312 108.472656 M 383.382812 108.472656 L 357.554688 108.472656 L 357.554688 91.785156 L 383.382812 91.785156 L 383.382812 108.472656 " fill-opacity="1" fill-rule="nonzero"/></g><g clip-path="url(#e3a3e2c0e3)"><path fill="#ae703f" d="M 1174.320312 125.15625 L 1148.304688 125.15625 L 1148.304688 108.472656 L 1174.320312 108.472656 L 1174.320312 125.15625 M 383.382812 125.15625 L 357.554688 125.15625 L 357.554688 108.472656 L 383.382812 108.472656 L 383.382812 125.15625 " fill-opacity="1" fill-rule="nonzero"/></g><g clip-path="url(#7e93131599)"><path fill="#ae703f" d="M 1174.320312 141.84375 L 1148.304688 141.84375 L 1148.304688 125.15625 L 1174.320312 125.15625 L 1174.320312 141.84375 M 383.382812 141.84375 L 357.554688 141.84375 L 357.554688 125.15625 L 383.382812 125.15625 L 383.382812 141.84375 " fill-opacity="1" fill-rule="nonzero"/></g><g clip-path="url(#0228b74474)"><path fill="#ae703f" d="M 1174.320312 158.53125 L 1148.304688 158.53125 L 1148.304688 141.84375 L 1174.320312 141.84375 L 1174.320312 158.53125 M 383.382812 158.53125 L 357.554688 158.53125 L 357.554688 141.84375 L 383.382812 141.84375 L 383.382812 158.53125 " fill-opacity="1" fill-rule="nonzero"/></g><g clip-path="url(#e5daa1af26)"><path fill="#a86c37" d="M 1174.320312 175.214844 L 1148.304688 175.214844 L 1148.304688 158.53125 L 1174.320312 158.53125 L 1174.320312 175.214844 M 383.382812 175.214844 L 357.554688 175.214844 L 357.554688 158.53125 L 383.382812 158.53125 L 383.382812 175.214844 " fill-opacity="1" fill-rule="nonzero"/></g><g clip-path="url(#e65ffca868)"><path fill="#ae703f" d="M 1174.320312 191.902344 L 357.554688 191.902344 L 357.554688 175.214844 L 383.382812 175.214844 L 383.382812 191.179688 L 1148.304688 191.179688 L 1148.304688 175.214844 L 1174.320312 175.214844 L 1174.320312 191.902344 " fill-opacity="1" fill-rule="nonzero"/></g><g clip-path="url(#f94feb1eeb)"><path fill="#a86c36" d="M 357.554688 208.589844 L 1174.320312 208.589844 L 1174.320312 191.902344 L 357.554688 191.902344 Z M 357.554688 208.589844 " fill-opacity="1" fill-rule="nonzero"/></g><path fill="#ffffff" d="M 385.933594 134.335938 C 436.414062 133.425781 483.726562 113.355469 519.53125 77.5625 C 556.183594 40.9375 576.355469 -7.769531 576.355469 -59.570312 L 576.355469 -60.574219 C 576.355469 -60.914062 576.34375 -61.257812 576.34375 -61.605469 C 575.257812 -166.410156 490.582031 -251.566406 385.933594 -253.476562 L 385.933594 -300.808594 L 762.367188 -300.808594 L 762.367188 -161.777344 C 706.964844 -159.875 662.484375 -114.261719 662.484375 -58.429688 C 662.484375 -2.605469 706.964844 43.019531 762.367188 44.921875 L 762.367188 183.953125 L 385.933594 183.953125 Z M 519.550781 -120.851562 L 519.550781 -120.953125 L 385.933594 -120.953125 L 385.933594 -246.289062 C 475.390625 -244.582031 549.644531 -179.738281 565.859375 -94.546875 C 555.601562 -109.554688 538.765625 -119.707031 519.550781 -120.851562 Z M 509.957031 -0.503906 C 511.945312 -0.316406 513.941406 -0.1875 515.949219 -0.1875 C 537.023438 -0.1875 555.601562 -11.03125 566.414062 -27.425781 C 559.914062 10.230469 542.019531 44.90625 514.441406 72.472656 C 480.003906 106.894531 434.480469 126.214844 385.933594 127.125 L 385.933594 -0.503906 Z M 487.421875 -113.765625 C 485.394531 -112.675781 483.40625 -111.503906 481.542969 -110.210938 C 480.527344 -109.507812 479.984375 -108.382812 479.984375 -107.25 C 479.984375 -106.546875 480.199219 -105.824219 480.632812 -105.207031 C 481.765625 -103.566406 484.007812 -103.171875 485.648438 -104.296875 C 487.945312 -105.890625 490.402344 -107.316406 492.917969 -108.535156 C 494.71875 -109.394531 495.46875 -111.550781 494.613281 -113.332031 L 494.351562 -113.765625 L 496.398438 -113.765625 C 497.054688 -112 498.957031 -111.015625 500.785156 -111.5625 C 503.457031 -112.359375 506.226562 -112.949219 509.019531 -113.304688 C 509.496094 -113.371094 509.9375 -113.53125 510.339844 -113.765625 L 512.347656 -113.765625 L 512.347656 -7.714844 L 510.332031 -7.714844 C 509.394531 -7.808594 508.464844 -7.902344 507.546875 -8.050781 C 506.789062 -8.152344 506.046875 -8.03125 505.398438 -7.714844 L 501.648438 -7.714844 C 501.300781 -8.773438 500.484375 -9.644531 499.359375 -10.027344 C 496.695312 -10.902344 494.082031 -11.988281 491.585938 -13.273438 C 489.832031 -14.179688 487.648438 -13.488281 486.726562 -11.726562 C 486.464844 -11.199219 486.332031 -10.628906 486.332031 -10.074219 C 486.332031 -9.195312 486.671875 -8.378906 487.253906 -7.714844 L 385.933594 -7.714844 L 385.933594 -113.765625 Z M 569.140625 -60.226562 C 568.964844 -32.265625 547.09375 -9.371094 519.550781 -7.515625 L 519.550781 -113.625 C 546.878906 -111.785156 568.597656 -89.230469 569.125 -61.605469 C 569.132812 -61.136719 569.140625 -60.6875 569.140625 -60.226562 Z M 769.570312 -33.492188 C 781.789062 -35.246094 791.195312 -45.726562 791.195312 -58.429688 C 791.195312 -71.128906 781.789062 -81.601562 769.570312 -83.363281 L 769.570312 -154.578125 C 821 -152.667969 862.253906 -110.285156 862.253906 -58.429688 C 862.253906 -6.570312 821 35.820312 769.570312 37.714844 Z M 762.367188 -83.363281 C 750.140625 -81.601562 740.742188 -71.128906 740.742188 -58.429688 C 740.742188 -45.726562 750.140625 -35.246094 762.367188 -33.492188 L 762.367188 37.714844 C 710.9375 35.820312 669.683594 -6.570312 669.683594 -58.429688 C 669.683594 -110.285156 710.9375 -152.667969 762.367188 -154.578125 Z M 1146.007812 -253.476562 C 1040.671875 -251.554688 955.585938 -165.3125 955.585938 -59.570312 C 955.585938 -59.355469 955.59375 -59.132812 955.59375 -58.914062 L 955.585938 -58.578125 C 955.585938 -58.242188 955.605469 -57.914062 955.605469 -57.574219 C 956.671875 47.257812 1041.339844 132.414062 1146.007812 134.335938 L 1146.007812 183.953125 L 769.570312 183.953125 L 769.570312 44.921875 C 824.96875 43.019531 869.457031 -2.605469 869.457031 -58.429688 C 869.457031 -114.261719 824.96875 -159.875 769.570312 -161.777344 L 769.570312 -300.808594 L 1146.007812 -300.808594 Z M 1012.390625 1.6875 L 1012.390625 1.800781 L 1146.007812 1.800781 L 1146.007812 127.125 C 1056.550781 125.417969 982.292969 60.578125 966.089844 -24.585938 C 976.339844 -9.597656 993.164062 0.546875 1012.390625 1.6875 Z M 1021.53125 -118.628906 C 1021.289062 -118.703125 1021.035156 -118.761719 1020.773438 -118.78125 C 1019.199219 -118.902344 1017.59375 -118.96875 1016 -118.96875 C 994.945312 -118.96875 976.40625 -108.148438 965.582031 -91.789062 C 980.699219 -178.324219 1055.585938 -244.5625 1146.007812 -246.289062 L 1146.007812 -118.628906 Z M 1041.359375 -5.386719 C 1041.515625 -6.089844 1041.453125 -6.832031 1041.160156 -7.535156 C 1040.402344 -9.371094 1038.300781 -10.226562 1036.445312 -9.464844 C 1033.894531 -8.40625 1031.230469 -7.535156 1028.539062 -6.878906 C 1027.617188 -6.664062 1026.886719 -6.109375 1026.410156 -5.386719 L 1021.597656 -5.386719 C 1021.15625 -5.527344 1020.699219 -5.605469 1020.210938 -5.558594 L 1019.601562 -5.527344 L 1019.601562 -111.429688 L 1026.597656 -111.429688 C 1027.066406 -110.886719 1027.703125 -110.484375 1028.453125 -110.296875 C 1031.15625 -109.640625 1033.828125 -108.785156 1036.386719 -107.71875 C 1038.214844 -106.957031 1040.335938 -107.820312 1041.09375 -109.660156 C 1041.339844 -110.238281 1041.394531 -110.847656 1041.339844 -111.429688 L 1146.007812 -111.429688 L 1146.007812 -5.386719 Z M 962.796875 -58.90625 C 962.957031 -86.878906 984.835938 -109.78125 1012.390625 -111.636719 L 1012.390625 -5.527344 C 985.050781 -7.367188 963.324219 -29.921875 962.808594 -57.585938 C 962.808594 -58.035156 962.796875 -58.464844 962.796875 -58.90625 Z M 1153.21875 -308.007812 L 378.730469 -308.007812 L 378.730469 191.152344 L 1153.21875 191.152344 L 1153.21875 -308.007812 " fill-opacity="1" fill-rule="nonzero"/><g clip-path="url(#a2b31f73f5)"><g clip-path="url(#ea5ba0ff97)"><path fill="#d9d9d9" d="M 447.320312 257.75 L 1070.945312 257.75 L 1070.945312 335.667969 L 447.320312 335.667969 Z M 447.320312 257.75 " fill-opacity="1" fill-rule="nonzero"/></g></g><g clip-path="url(#ca7e687b3d)"><g clip-path="url(#03ff9ed547)"><path fill="#d9d9d9" d="M 518.976562 383.394531 L 999.460938 383.394531 L 999.460938 578.949219 L 518.976562 578.949219 Z M 518.976562 383.394531 " fill-opacity="1" fill-rule="nonzero"/></g></g><g clip-path="url(#68fd233688)"><g clip-path="url(#1a104bc1f3)"><path fill="#d9d9d9" d="M 1120.683594 383.394531 L 1389.492188 383.394531 L 1389.492188 554.578125 L 1120.683594 554.578125 Z M 1120.683594 383.394531 " fill-opacity="1" fill-rule="nonzero"/></g></g><g clip-path="url(#d72c2bb53a)"><g clip-path="url(#fc0d67f505)"><path fill="#d9d9d9" d="M 110.753906 383.394531 L 364.851562 383.394531 L 364.851562 554.578125 L 110.753906 554.578125 Z M 110.753906 383.394531 " fill-opacity="1" fill-rule="nonzero"/></g></g><g clip-path="url(#9a44af0361)"><g clip-path="url(#75375ccedb)"><path fill="#d9d9d9" d="M 1111.414062 257.394531 L 1389.246094 257.394531 L 1389.246094 333.871094 L 1111.414062 333.871094 Z M 1111.414062 257.394531 " fill-opacity="1" fill-rule="nonzero"/></g></g><g clip-path="url(#897dc08d73)"><g clip-path="url(#52dd72cac8)"><path fill="#004aad" d="M 110.753906 257.394531 L 406.589844 257.394531 L 406.589844 335.308594 L 110.753906 335.308594 Z M 110.753906 257.394531 " fill-opacity="1" fill-rule="nonzero"/></g></g><g fill="#ffffff" fill-opacity="1"><g transform="translate(153.305371, 303.143561)"><g/></g></g><g fill="#ffffff" fill-opacity="1"><g transform="translate(158.508495, 303.143561)"><g><path d="M 1.796875 -14.28125 L 6.234375 -14.28125 C 8.265625 -14.28125 9.734375 -13.988281 10.640625 -13.40625 C 11.554688 -12.832031 12.015625 -11.921875 12.015625 -10.671875 C 12.015625 -9.816406 11.816406 -9.113281 11.421875 -8.5625 C 11.023438 -8.019531 10.492188 -7.691406 9.828125 -7.578125 L 9.828125 -7.484375 C 10.734375 -7.273438 11.382812 -6.894531 11.78125 -6.34375 C 12.1875 -5.789062 12.390625 -5.054688 12.390625 -4.140625 C 12.390625 -2.835938 11.914062 -1.820312 10.96875 -1.09375 C 10.03125 -0.363281 8.753906 0 7.140625 0 L 1.796875 0 Z M 4.828125 -8.625 L 6.578125 -8.625 C 7.398438 -8.625 7.992188 -8.75 8.359375 -9 C 8.734375 -9.257812 8.921875 -9.679688 8.921875 -10.265625 C 8.921875 -10.804688 8.71875 -11.195312 8.3125 -11.4375 C 7.914062 -11.675781 7.285156 -11.796875 6.421875 -11.796875 L 4.828125 -11.796875 Z M 4.828125 -6.21875 L 4.828125 -2.5 L 6.796875 -2.5 C 7.628906 -2.5 8.242188 -2.65625 8.640625 -2.96875 C 9.035156 -3.289062 9.234375 -3.78125 9.234375 -4.4375 C 9.234375 -5.625 8.390625 -6.21875 6.703125 -6.21875 Z M 4.828125 -6.21875 "/></g></g></g><g fill="#ffffff" fill-opacity="1"><g transform="translate(171.940746, 303.143561)"><g><path d="M 13.421875 -14.28125 L 13.421875 -5.046875 C 13.421875 -3.984375 13.179688 -3.054688 12.703125 -2.265625 C 12.234375 -1.472656 11.550781 -0.863281 10.65625 -0.4375 C 9.769531 -0.0078125 8.71875 0.203125 7.5 0.203125 C 5.664062 0.203125 4.238281 -0.265625 3.21875 -1.203125 C 2.207031 -2.148438 1.703125 -3.441406 1.703125 -5.078125 L 1.703125 -14.28125 L 4.71875 -14.28125 L 4.71875 -5.53125 C 4.71875 -4.4375 4.9375 -3.628906 5.375 -3.109375 C 5.820312 -2.597656 6.554688 -2.34375 7.578125 -2.34375 C 8.566406 -2.34375 9.285156 -2.597656 9.734375 -3.109375 C 10.179688 -3.628906 10.40625 -4.445312 10.40625 -5.5625 L 10.40625 -14.28125 Z M 13.421875 -14.28125 "/></g></g></g><g fill="#ffffff" fill-opacity="1"><g transform="translate(187.052027, 303.143561)"><g><path d="M 7.3125 0 L 4.28125 0 L 4.28125 -11.765625 L 0.40625 -11.765625 L 0.40625 -14.28125 L 11.1875 -14.28125 L 11.1875 -11.765625 L 7.3125 -11.765625 Z M 7.3125 0 "/></g></g></g><g fill="#ffffff" fill-opacity="1"><g transform="translate(198.629534, 303.143561)"><g><path d="M 10.53125 0 L 9.5 -3.40625 L 4.296875 -3.40625 L 3.265625 0 L 0 0 L 5.046875 -14.34375 L 8.734375 -14.34375 L 13.796875 0 Z M 8.78125 -5.9375 C 7.820312 -9.019531 7.28125 -10.757812 7.15625 -11.15625 C 7.039062 -11.5625 6.957031 -11.882812 6.90625 -12.125 C 6.6875 -11.289062 6.070312 -9.226562 5.0625 -5.9375 Z M 8.78125 -5.9375 "/></g></g></g><g fill="#ffffff" fill-opacity="1"><g transform="translate(212.422971, 303.143561)"><g><path d="M 7.859375 -11.96875 C 6.722656 -11.96875 5.84375 -11.535156 5.21875 -10.671875 C 4.59375 -9.816406 4.28125 -8.625 4.28125 -7.09375 C 4.28125 -3.914062 5.472656 -2.328125 7.859375 -2.328125 C 8.859375 -2.328125 10.070312 -2.578125 11.5 -3.078125 L 11.5 -0.53125 C 10.332031 -0.0390625 9.023438 0.203125 7.578125 0.203125 C 5.503906 0.203125 3.914062 -0.425781 2.8125 -1.6875 C 1.707031 -2.945312 1.15625 -4.757812 1.15625 -7.125 C 1.15625 -8.601562 1.425781 -9.898438 1.96875 -11.015625 C 2.507812 -12.140625 3.285156 -13 4.296875 -13.59375 C 5.316406 -14.1875 6.503906 -14.484375 7.859375 -14.484375 C 9.242188 -14.484375 10.640625 -14.148438 12.046875 -13.484375 L 11.0625 -11.015625 C 10.53125 -11.265625 9.992188 -11.484375 9.453125 -11.671875 C 8.910156 -11.867188 8.378906 -11.96875 7.859375 -11.96875 Z M 7.859375 -11.96875 "/></g></g></g><g fill="#ffffff" fill-opacity="1"><g transform="translate(225.162133, 303.143561)"><g><path d="M 10.53125 0 L 9.5 -3.40625 L 4.296875 -3.40625 L 3.265625 0 L 0 0 L 5.046875 -14.34375 L 8.734375 -14.34375 L 13.796875 0 Z M 8.78125 -5.9375 C 7.820312 -9.019531 7.28125 -10.757812 7.15625 -11.15625 C 7.039062 -11.5625 6.957031 -11.882812 6.90625 -12.125 C 6.6875 -11.289062 6.070312 -9.226562 5.0625 -5.9375 Z M 8.78125 -5.9375 "/></g></g></g><g fill="#ffffff" fill-opacity="1"><g transform="translate(238.955571, 303.143561)"><g><path d="M 10.21875 -3.96875 C 10.21875 -2.675781 9.753906 -1.65625 8.828125 -0.90625 C 7.898438 -0.164062 6.613281 0.203125 4.96875 0.203125 C 3.4375 0.203125 2.085938 -0.0859375 0.921875 -0.671875 L 0.921875 -3.484375 C 1.878906 -3.046875 2.691406 -2.738281 3.359375 -2.5625 C 4.023438 -2.394531 4.640625 -2.3125 5.203125 -2.3125 C 5.859375 -2.3125 6.363281 -2.4375 6.71875 -2.6875 C 7.070312 -2.9375 7.25 -3.3125 7.25 -3.8125 C 7.25 -4.09375 7.171875 -4.34375 7.015625 -4.5625 C 6.859375 -4.78125 6.628906 -4.988281 6.328125 -5.1875 C 6.023438 -5.394531 5.410156 -5.71875 4.484375 -6.15625 C 3.609375 -6.570312 2.953125 -6.96875 2.515625 -7.34375 C 2.078125 -7.71875 1.726562 -8.15625 1.46875 -8.65625 C 1.207031 -9.164062 1.078125 -9.753906 1.078125 -10.421875 C 1.078125 -11.679688 1.503906 -12.671875 2.359375 -13.390625 C 3.222656 -14.117188 4.410156 -14.484375 5.921875 -14.484375 C 6.660156 -14.484375 7.363281 -14.394531 8.03125 -14.21875 C 8.707031 -14.039062 9.414062 -13.796875 10.15625 -13.484375 L 9.1875 -11.125 C 8.414062 -11.4375 7.78125 -11.65625 7.28125 -11.78125 C 6.789062 -11.90625 6.304688 -11.96875 5.828125 -11.96875 C 5.253906 -11.96875 4.8125 -11.832031 4.5 -11.5625 C 4.195312 -11.289062 4.046875 -10.941406 4.046875 -10.515625 C 4.046875 -10.253906 4.109375 -10.019531 4.234375 -9.8125 C 4.359375 -9.613281 4.550781 -9.421875 4.8125 -9.234375 C 5.082031 -9.054688 5.722656 -8.726562 6.734375 -8.25 C 8.066406 -7.601562 8.976562 -6.957031 9.46875 -6.3125 C 9.96875 -5.675781 10.21875 -4.894531 10.21875 -3.96875 Z M 10.21875 -3.96875 "/></g></g></g><g fill="#ffffff" fill-opacity="1"><g transform="translate(249.966893, 303.143561)"><g/></g></g><g fill="#ffffff" fill-opacity="1"><g transform="translate(255.160175, 303.143561)"><g><path d="M 7.3125 0 L 4.28125 0 L 4.28125 -11.765625 L 0.40625 -11.765625 L 0.40625 -14.28125 L 11.1875 -14.28125 L 11.1875 -11.765625 L 7.3125 -11.765625 Z M 7.3125 0 "/></g></g></g><g fill="#ffffff" fill-opacity="1"><g transform="translate(266.737682, 303.143561)"><g><path d="M 4.828125 -7.9375 L 5.796875 -7.9375 C 6.753906 -7.9375 7.460938 -8.09375 7.921875 -8.40625 C 8.378906 -8.726562 8.609375 -9.234375 8.609375 -9.921875 C 8.609375 -10.597656 8.375 -11.078125 7.90625 -11.359375 C 7.4375 -11.648438 6.71875 -11.796875 5.75 -11.796875 L 4.828125 -11.796875 Z M 4.828125 -5.484375 L 4.828125 0 L 1.796875 0 L 1.796875 -14.28125 L 5.953125 -14.28125 C 7.898438 -14.28125 9.335938 -13.925781 10.265625 -13.21875 C 11.191406 -12.507812 11.65625 -11.4375 11.65625 -10 C 11.65625 -9.15625 11.425781 -8.40625 10.96875 -7.75 C 10.507812 -7.101562 9.851562 -6.59375 9 -6.21875 C 11.15625 -3.007812 12.554688 -0.9375 13.203125 0 L 9.84375 0 L 6.4375 -5.484375 Z M 4.828125 -5.484375 "/></g></g></g><g fill="#ffffff" fill-opacity="1"><g transform="translate(279.935649, 303.143561)"><g><path d="M 1.796875 0 L 1.796875 -14.28125 L 4.828125 -14.28125 L 4.828125 0 Z M 1.796875 0 "/></g></g></g><g fill="#ffffff" fill-opacity="1"><g transform="translate(286.554156, 303.143561)"><g><path d="M 1.796875 -14.28125 L 6.234375 -14.28125 C 8.265625 -14.28125 9.734375 -13.988281 10.640625 -13.40625 C 11.554688 -12.832031 12.015625 -11.921875 12.015625 -10.671875 C 12.015625 -9.816406 11.816406 -9.113281 11.421875 -8.5625 C 11.023438 -8.019531 10.492188 -7.691406 9.828125 -7.578125 L 9.828125 -7.484375 C 10.734375 -7.273438 11.382812 -6.894531 11.78125 -6.34375 C 12.1875 -5.789062 12.390625 -5.054688 12.390625 -4.140625 C 12.390625 -2.835938 11.914062 -1.820312 10.96875 -1.09375 C 10.03125 -0.363281 8.753906 0 7.140625 0 L 1.796875 0 Z M 4.828125 -8.625 L 6.578125 -8.625 C 7.398438 -8.625 7.992188 -8.75 8.359375 -9 C 8.734375 -9.257812 8.921875 -9.679688 8.921875 -10.265625 C 8.921875 -10.804688 8.71875 -11.195312 8.3125 -11.4375 C 7.914062 -11.675781 7.285156 -11.796875 6.421875 -11.796875 L 4.828125 -11.796875 Z M 4.828125 -6.21875 L 4.828125 -2.5 L 6.796875 -2.5 C 7.628906 -2.5 8.242188 -2.65625 8.640625 -2.96875 C 9.035156 -3.289062 9.234375 -3.78125 9.234375 -4.4375 C 9.234375 -5.625 8.390625 -6.21875 6.703125 -6.21875 Z M 4.828125 -6.21875 "/></g></g></g><g fill="#ffffff" fill-opacity="1"><g transform="translate(299.986406, 303.143561)"><g><path d="M 13.421875 -14.28125 L 13.421875 -5.046875 C 13.421875 -3.984375 13.179688 -3.054688 12.703125 -2.265625 C 12.234375 -1.472656 11.550781 -0.863281 10.65625 -0.4375 C 9.769531 -0.0078125 8.71875 0.203125 7.5 0.203125 C 5.664062 0.203125 4.238281 -0.265625 3.21875 -1.203125 C 2.207031 -2.148438 1.703125 -3.441406 1.703125 -5.078125 L 1.703125 -14.28125 L 4.71875 -14.28125 L 4.71875 -5.53125 C 4.71875 -4.4375 4.9375 -3.628906 5.375 -3.109375 C 5.820312 -2.597656 6.554688 -2.34375 7.578125 -2.34375 C 8.566406 -2.34375 9.285156 -2.597656 9.734375 -3.109375 C 10.179688 -3.628906 10.40625 -4.445312 10.40625 -5.5625 L 10.40625 -14.28125 Z M 13.421875 -14.28125 "/></g></g></g><g fill="#ffffff" fill-opacity="1"><g transform="translate(315.097688, 303.143561)"><g><path d="M 14.46875 0 L 10.609375 0 L 4.40625 -10.796875 L 4.3125 -10.796875 C 4.4375 -8.890625 4.5 -7.53125 4.5 -6.71875 L 4.5 0 L 1.796875 0 L 1.796875 -14.28125 L 5.609375 -14.28125 L 11.8125 -3.578125 L 11.890625 -3.578125 C 11.785156 -5.441406 11.734375 -6.753906 11.734375 -7.515625 L 11.734375 -14.28125 L 14.46875 -14.28125 Z M 14.46875 0 "/></g></g></g><g fill="#ffffff" fill-opacity="1"><g transform="translate(331.351101, 303.143561)"><g><path d="M 10.53125 0 L 9.5 -3.40625 L 4.296875 -3.40625 L 3.265625 0 L 0 0 L 5.046875 -14.34375 L 8.734375 -14.34375 L 13.796875 0 Z M 8.78125 -5.9375 C 7.820312 -9.019531 7.28125 -10.757812 7.15625 -11.15625 C 7.039062 -11.5625 6.957031 -11.882812 6.90625 -12.125 C 6.6875 -11.289062 6.070312 -9.226562 5.0625 -5.9375 Z M 8.78125 -5.9375 "/></g></g></g><g fill="#ffffff" fill-opacity="1"><g transform="translate(345.144539, 303.143561)"><g/></g></g><g fill="#ffffff" fill-opacity="1"><g transform="translate(350.337822, 303.143561)"><g><path d="M 10.53125 0 L 9.5 -3.40625 L 4.296875 -3.40625 L 3.265625 0 L 0 0 L 5.046875 -14.34375 L 8.734375 -14.34375 L 13.796875 0 Z M 8.78125 -5.9375 C 7.820312 -9.019531 7.28125 -10.757812 7.15625 -11.15625 C 7.039062 -11.5625 6.957031 -11.882812 6.90625 -12.125 C 6.6875 -11.289062 6.070312 -9.226562 5.0625 -5.9375 Z M 8.78125 -5.9375 "/></g></g></g><g clip-path="url(#a91cdb9356)"><g clip-path="url(#48454ec364)"><path fill="#d9d9d9" d="M 130.59375 6.511719 L 306.457031 6.511719 L 306.457031 177.691406 L 130.59375 177.691406 Z M 130.59375 6.511719 " fill-opacity="1" fill-rule="nonzero"/></g></g><g clip-path="url(#e52ed8bd4c)"><g clip-path="url(#efe6b2b4f6)"><path fill="#d9d9d9" d="M 1213.484375 6.511719 L 1389.246094 6.511719 L 1389.246094 209.734375 L 1213.484375 209.734375 Z M 1213.484375 6.511719 " fill-opacity="1" fill-rule="nonzero"/></g></g><g clip-path="url(#a0fcda6ee3)"><g clip-path="url(#51c951a286)"><path fill="#d9d9d9" d="M 347.734375 177.691406 L 1164.539062 177.691406 L 1164.539062 230.789062 L 347.734375 230.789062 Z M 347.734375 177.691406 " fill-opacity="1" fill-rule="nonzero"/></g></g></svg>