<svg xmlns="http://www.w3.org/2000/svg" xmlns:xlink="http://www.w3.org/1999/xlink" width="2000" zoomAndPan="magnify" viewBox="0 0 1500 599.999999" height="800" preserveAspectRatio="xMidYMid meet" version="1.0"><defs><g/><clipPath id="3c5193e014"><path d="M 336.773438 0 L 1143.023438 0 L 1143.023438 3 L 336.773438 3 Z M 336.773438 0 " clip-rule="nonzero"/></clipPath><clipPath id="b9dd7167c1"><path d="M 336.773438 2 L 1143.023438 2 L 1143.023438 19 L 336.773438 19 Z M 336.773438 2 " clip-rule="nonzero"/></clipPath><clipPath id="9ab35887d7"><path d="M 336.773438 18 L 1143.023438 18 L 1143.023438 36 L 336.773438 36 Z M 336.773438 18 " clip-rule="nonzero"/></clipPath><clipPath id="9c5820aae0"><path d="M 336.773438 35 L 1143.023438 35 L 1143.023438 52 L 336.773438 52 Z M 336.773438 35 " clip-rule="nonzero"/></clipPath><clipPath id="b8c2578c71"><path d="M 336.773438 51 L 1143.023438 51 L 1143.023438 69 L 336.773438 69 Z M 336.773438 51 " clip-rule="nonzero"/></clipPath><clipPath id="90eff73386"><path d="M 336.773438 68 L 1143.023438 68 L 1143.023438 85 L 336.773438 85 Z M 336.773438 68 " clip-rule="nonzero"/></clipPath><clipPath id="8a572b60f8"><path d="M 336.773438 84 L 1143.023438 84 L 1143.023438 102 L 336.773438 102 Z M 336.773438 84 " clip-rule="nonzero"/></clipPath><clipPath id="fe6dcb3b50"><path d="M 336.773438 101 L 1143.023438 101 L 1143.023438 118 L 336.773438 118 Z M 336.773438 101 " clip-rule="nonzero"/></clipPath><clipPath id="4685092c86"><path d="M 336.773438 117 L 1143.023438 117 L 1143.023438 135 L 336.773438 135 Z M 336.773438 117 " clip-rule="nonzero"/></clipPath><clipPath id="2a8572930f"><path d="M 336.773438 134 L 1143.023438 134 L 1143.023438 151 L 336.773438 151 Z M 336.773438 134 " clip-rule="nonzero"/></clipPath><clipPath id="05ee1d5bb3"><path d="M 336.773438 150 L 1143.023438 150 L 1143.023438 168 L 336.773438 168 Z M 336.773438 150 " clip-rule="nonzero"/></clipPath><clipPath id="ff1380d406"><path d="M 336.773438 167 L 1143.023438 167 L 1143.023438 183.738281 L 336.773438 183.738281 Z M 336.773438 167 " clip-rule="nonzero"/></clipPath><clipPath id="40736a127f"><path d="M 336.773438 0 L 1143.023438 0 L 1143.023438 3 L 336.773438 3 Z M 336.773438 0 " clip-rule="nonzero"/></clipPath><clipPath id="4b3fff181a"><path d="M 336.773438 2 L 1143.023438 2 L 1143.023438 19 L 336.773438 19 Z M 336.773438 2 " clip-rule="nonzero"/></clipPath><clipPath id="42ee042bdb"><path d="M 336.773438 18 L 1143.023438 18 L 1143.023438 36 L 336.773438 36 Z M 336.773438 18 " clip-rule="nonzero"/></clipPath><clipPath id="a7a290c46e"><path d="M 336.773438 35 L 1143.023438 35 L 1143.023438 52 L 336.773438 52 Z M 336.773438 35 " clip-rule="nonzero"/></clipPath><clipPath id="77efb693b4"><path d="M 336.773438 51 L 1143.023438 51 L 1143.023438 69 L 336.773438 69 Z M 336.773438 51 " clip-rule="nonzero"/></clipPath><clipPath id="6187b682fa"><path d="M 336.773438 68 L 1143.023438 68 L 1143.023438 85 L 336.773438 85 Z M 336.773438 68 " clip-rule="nonzero"/></clipPath><clipPath id="7480cd9cb6"><path d="M 336.773438 84 L 1143.023438 84 L 1143.023438 102 L 336.773438 102 Z M 336.773438 84 " clip-rule="nonzero"/></clipPath><clipPath id="bc2bbdcf24"><path d="M 336.773438 101 L 1143.023438 101 L 1143.023438 118 L 336.773438 118 Z M 336.773438 101 " clip-rule="nonzero"/></clipPath><clipPath id="036d50bcb0"><path d="M 336.773438 117 L 1143.023438 117 L 1143.023438 135 L 336.773438 135 Z M 336.773438 117 " clip-rule="nonzero"/></clipPath><clipPath id="9936667416"><path d="M 336.773438 134 L 1143.023438 134 L 1143.023438 151 L 336.773438 151 Z M 336.773438 134 " clip-rule="nonzero"/></clipPath><clipPath id="a27e77589a"><path d="M 336.773438 150 L 1143.023438 150 L 1143.023438 168 L 336.773438 168 Z M 336.773438 150 " clip-rule="nonzero"/></clipPath><clipPath id="1816ff694d"><path d="M 336.773438 167 L 1143.023438 167 L 1143.023438 183.738281 L 336.773438 183.738281 Z M 336.773438 167 " clip-rule="nonzero"/></clipPath><clipPath id="4cb741f7f2"><path d="M 439.945312 254.210938 L 1049.625 254.210938 L 1049.625 331.097656 L 439.945312 331.097656 Z M 439.945312 254.210938 " clip-rule="nonzero"/></clipPath><clipPath id="fbd1cbf421"><path d="M 448.195312 254.210938 L 1041.210938 254.210938 C 1045.765625 254.210938 1049.460938 257.90625 1049.460938 262.460938 L 1049.460938 322.847656 C 1049.460938 327.40625 1045.765625 331.097656 1041.210938 331.097656 L 448.195312 331.097656 C 443.640625 331.097656 439.945312 327.40625 439.945312 322.847656 L 439.945312 262.460938 C 439.945312 257.90625 443.640625 254.210938 448.195312 254.210938 Z M 448.195312 254.210938 " clip-rule="nonzero"/></clipPath><clipPath id="34eff6f86e"><path d="M 512.253906 378.195312 L 986.390625 378.195312 L 986.390625 571.167969 L 512.253906 571.167969 Z M 512.253906 378.195312 " clip-rule="nonzero"/></clipPath><clipPath id="61c947e5d3"><path d="M 520.503906 378.195312 L 977.9375 378.195312 C 982.496094 378.195312 986.1875 381.890625 986.1875 386.445312 L 986.1875 562.917969 C 986.1875 567.472656 982.496094 571.167969 977.9375 571.167969 L 520.503906 571.167969 C 515.949219 571.167969 512.253906 567.472656 512.253906 562.917969 L 512.253906 386.445312 C 512.253906 381.890625 515.949219 378.195312 520.503906 378.195312 Z M 520.503906 378.195312 " clip-rule="nonzero"/></clipPath><clipPath id="1a7d826714"><path d="M 1104.414062 378.195312 L 1355 378.195312 L 1355 547.117188 L 1104.414062 547.117188 Z M 1104.414062 378.195312 " clip-rule="nonzero"/></clipPath><clipPath id="dd9d185697"><path d="M 1112.664062 378.195312 L 1346.574219 378.195312 C 1351.132812 378.195312 1354.824219 381.890625 1354.824219 386.445312 L 1354.824219 538.867188 C 1354.824219 543.421875 1351.132812 547.117188 1346.574219 547.117188 L 1112.664062 547.117188 C 1108.105469 547.117188 1104.414062 543.421875 1104.414062 538.867188 L 1104.414062 386.445312 C 1104.414062 381.890625 1108.105469 378.195312 1112.664062 378.195312 Z M 1112.664062 378.195312 " clip-rule="nonzero"/></clipPath><clipPath id="becb267ff0"><path d="M 1077.628906 254.210938 L 1355 254.210938 L 1355 329.679688 L 1077.628906 329.679688 Z M 1077.628906 254.210938 " clip-rule="nonzero"/></clipPath><clipPath id="8d8e89c43c"><path d="M 1085.878906 254.210938 L 1346.574219 254.210938 C 1351.132812 254.210938 1354.824219 257.90625 1354.824219 262.460938 L 1354.824219 321.429688 C 1354.824219 325.988281 1351.132812 329.679688 1346.574219 329.679688 L 1085.878906 329.679688 C 1081.324219 329.679688 1077.628906 325.988281 1077.628906 321.429688 L 1077.628906 262.460938 C 1077.628906 257.90625 1081.324219 254.210938 1085.878906 254.210938 Z M 1085.878906 254.210938 " clip-rule="nonzero"/></clipPath><clipPath id="30ca488f55"><path d="M 107.828125 378.195312 L 358.566406 378.195312 L 358.566406 547.117188 L 107.828125 547.117188 Z M 107.828125 378.195312 " clip-rule="nonzero"/></clipPath><clipPath id="7d0e24585a"><path d="M 116.078125 378.195312 L 349.988281 378.195312 C 354.542969 378.195312 358.238281 381.890625 358.238281 386.445312 L 358.238281 538.867188 C 358.238281 543.421875 354.542969 547.117188 349.988281 547.117188 L 116.078125 547.117188 C 111.519531 547.117188 107.828125 543.421875 107.828125 538.867188 L 107.828125 386.445312 C 107.828125 381.890625 111.519531 378.195312 116.078125 378.195312 Z M 116.078125 378.195312 " clip-rule="nonzero"/></clipPath><clipPath id="8430858c54"><path d="M 107.828125 254.210938 L 412 254.210938 L 412 329.679688 L 107.828125 329.679688 Z M 107.828125 254.210938 " clip-rule="nonzero"/></clipPath><clipPath id="3bf0ce3fe9"><path d="M 116.078125 254.210938 L 403.523438 254.210938 C 408.082031 254.210938 411.773438 257.90625 411.773438 262.460938 L 411.773438 321.429688 C 411.773438 325.988281 408.082031 329.679688 403.523438 329.679688 L 116.078125 329.679688 C 111.519531 329.679688 107.828125 325.988281 107.828125 321.429688 L 107.828125 262.460938 C 107.828125 257.90625 111.519531 254.210938 116.078125 254.210938 Z M 116.078125 254.210938 " clip-rule="nonzero"/></clipPath><clipPath id="e44f230492"><path d="M 98.8125 598.328125 L 1367.691406 598.328125 L 1367.691406 600 L 98.8125 600 Z M 98.8125 598.328125 " clip-rule="nonzero"/></clipPath><clipPath id="ff7f36e464"><path d="M 107.0625 598.328125 L 1359.023438 598.328125 C 1363.582031 598.328125 1367.273438 602.019531 1367.273438 606.578125 L 1367.273438 758.996094 C 1367.273438 763.554688 1363.582031 767.246094 1359.023438 767.246094 L 107.0625 767.246094 C 102.503906 767.246094 98.8125 763.554688 98.8125 758.996094 L 98.8125 606.578125 C 98.8125 602.019531 102.503906 598.328125 107.0625 598.328125 Z M 107.0625 598.328125 " clip-rule="nonzero"/></clipPath><clipPath id="c46b5be585"><path d="M 1178.371094 6.289062 L 1351.910156 6.289062 L 1351.910156 175.210938 L 1178.371094 175.210938 Z M 1178.371094 6.289062 " clip-rule="nonzero"/></clipPath><clipPath id="ea16916a31"><path d="M 1186.621094 6.289062 L 1343.558594 6.289062 C 1348.117188 6.289062 1351.808594 9.984375 1351.808594 14.539062 L 1351.808594 166.960938 C 1351.808594 171.515625 1348.117188 175.210938 1343.558594 175.210938 L 1186.621094 175.210938 C 1182.0625 175.210938 1178.371094 171.515625 1178.371094 166.960938 L 1178.371094 14.539062 C 1178.371094 9.984375 1182.0625 6.289062 1186.621094 6.289062 Z M 1186.621094 6.289062 " clip-rule="nonzero"/></clipPath><clipPath id="dd75b86be7"><path d="M 127.402344 6.289062 L 300.941406 6.289062 L 300.941406 175.210938 L 127.402344 175.210938 Z M 127.402344 6.289062 " clip-rule="nonzero"/></clipPath><clipPath id="4428479d13"><path d="M 135.652344 6.289062 L 292.59375 6.289062 C 297.148438 6.289062 300.84375 9.984375 300.84375 14.539062 L 300.84375 166.960938 C 300.84375 171.515625 297.148438 175.210938 292.59375 175.210938 L 135.652344 175.210938 C 131.097656 175.210938 127.402344 171.515625 127.402344 166.960938 L 127.402344 14.539062 C 127.402344 9.984375 131.097656 6.289062 135.652344 6.289062 Z M 135.652344 6.289062 " clip-rule="nonzero"/></clipPath><clipPath id="807b5a26f5"><path d="M 341.675781 175.210938 L 1147.890625 175.210938 L 1147.890625 227.605469 L 341.675781 227.605469 Z M 341.675781 175.210938 " clip-rule="nonzero"/></clipPath><clipPath id="95786db8ba"><path d="M 349.925781 175.210938 L 1139.480469 175.210938 C 1144.035156 175.210938 1147.730469 178.902344 1147.730469 183.460938 L 1147.730469 219.355469 C 1147.730469 223.914062 1144.035156 227.605469 1139.480469 227.605469 L 349.925781 227.605469 C 345.367188 227.605469 341.675781 223.914062 341.675781 219.355469 L 341.675781 183.460938 C 341.675781 178.902344 345.367188 175.210938 349.925781 175.210938 Z M 349.925781 175.210938 " clip-rule="nonzero"/></clipPath></defs><path fill="#d39d48" d="M 706.5 101.125 L 1046.28125 101.125 L 1046.28125 84.648438 L 706.5 84.648438 Z M 706.5 101.125 " fill-opacity="1" fill-rule="nonzero"/><g clip-path="url(#3c5193e014)"><path fill="#dea55a" d="M 336.765625 2.261719 L 1143.03125 2.261719 L 1143.03125 -14.214844 L 336.765625 -14.214844 Z M 336.765625 2.261719 " fill-opacity="1" fill-rule="nonzero"/></g><g clip-path="url(#b9dd7167c1)"><path fill="#d39d49" d="M 336.765625 18.746094 L 1143.03125 18.746094 L 1143.03125 2.261719 L 336.765625 2.261719 Z M 336.765625 18.746094 " fill-opacity="1" fill-rule="nonzero"/></g><g clip-path="url(#9ab35887d7)"><path fill="#dea55a" d="M 336.765625 35.222656 L 1143.03125 35.222656 L 1143.03125 18.746094 L 336.765625 18.746094 Z M 336.765625 35.222656 " fill-opacity="1" fill-rule="nonzero"/></g><g clip-path="url(#9c5820aae0)"><path fill="#dea55a" d="M 336.765625 51.699219 L 1143.03125 51.699219 L 1143.03125 35.222656 L 336.765625 35.222656 Z M 336.765625 51.699219 " fill-opacity="1" fill-rule="nonzero"/></g><g clip-path="url(#b8c2578c71)"><path fill="#dea55a" d="M 336.765625 68.171875 L 1143.03125 68.171875 L 1143.03125 51.699219 L 336.765625 51.699219 Z M 336.765625 68.171875 " fill-opacity="1" fill-rule="nonzero"/></g><g clip-path="url(#90eff73386)"><path fill="#dea55a" d="M 336.765625 84.648438 L 1143.03125 84.648438 L 1143.03125 68.171875 L 336.765625 68.171875 Z M 336.765625 84.648438 " fill-opacity="1" fill-rule="nonzero"/></g><g clip-path="url(#8a572b60f8)"><path fill="#dea55a" d="M 336.765625 101.125 L 1143.03125 101.125 L 1143.03125 84.648438 L 336.765625 84.648438 Z M 336.765625 101.125 " fill-opacity="1" fill-rule="nonzero"/></g><g clip-path="url(#fe6dcb3b50)"><path fill="#dea55a" d="M 336.765625 117.601562 L 1143.03125 117.601562 L 1143.03125 101.125 L 336.765625 101.125 Z M 336.765625 117.601562 " fill-opacity="1" fill-rule="nonzero"/></g><g clip-path="url(#4685092c86)"><path fill="#dea55a" d="M 336.765625 134.074219 L 1143.03125 134.074219 L 1143.03125 117.601562 L 336.765625 117.601562 Z M 336.765625 134.074219 " fill-opacity="1" fill-rule="nonzero"/></g><g clip-path="url(#2a8572930f)"><path fill="#d39d49" d="M 336.765625 150.550781 L 1143.03125 150.550781 L 1143.03125 134.074219 L 336.765625 134.074219 Z M 336.765625 150.550781 " fill-opacity="1" fill-rule="nonzero"/></g><g clip-path="url(#05ee1d5bb3)"><path fill="#dea55a" d="M 336.765625 167.027344 L 1143.03125 167.027344 L 1143.03125 150.550781 L 336.765625 150.550781 Z M 336.765625 167.027344 " fill-opacity="1" fill-rule="nonzero"/></g><g clip-path="url(#ff1380d406)"><path fill="#d39d48" d="M 336.765625 183.5 L 1143.03125 183.5 L 1143.03125 167.027344 L 336.765625 167.027344 Z M 336.765625 183.5 " fill-opacity="1" fill-rule="nonzero"/></g><path fill="#c79146" d="M 872.40625 117.601562 L 1029.226562 117.601562 L 1029.226562 101.125 L 872.40625 101.125 Z M 872.40625 117.601562 " fill-opacity="1" fill-rule="nonzero"/><path fill="#c28e3f" d="M 451.816406 150.550781 L 567.441406 150.550781 L 567.441406 142.3125 L 451.816406 142.3125 Z M 451.816406 150.550781 " fill-opacity="1" fill-rule="nonzero"/><path fill="#c79146" d="M 451.816406 158.789062 L 567.441406 158.789062 L 567.441406 150.550781 L 451.816406 150.550781 Z M 451.816406 158.789062 " fill-opacity="1" fill-rule="nonzero"/><path fill="#c79146" d="M 367.386719 101.125 L 482.996094 101.125 L 482.996094 84.648438 L 367.386719 84.648438 Z M 367.386719 101.125 " fill-opacity="1" fill-rule="nonzero"/><path fill="#c28e3f" d="M 500.722656 18.746094 L 609.582031 18.746094 L 609.582031 2.261719 L 500.722656 2.261719 Z M 500.722656 18.746094 " fill-opacity="1" fill-rule="nonzero"/><path fill="#c79146" d="M 1004.230469 84.648438 L 1113.109375 84.648438 L 1113.109375 68.171875 L 1004.230469 68.171875 Z M 1004.230469 84.648438 " fill-opacity="1" fill-rule="nonzero"/><g clip-path="url(#40736a127f)"><path fill="#ae703f" d="M 1143.03125 2.261719 L 1117.351562 2.261719 L 1117.351562 -14.214844 L 1143.03125 -14.214844 L 1143.03125 2.261719 M 362.257812 2.261719 L 336.765625 2.261719 L 336.765625 -14.214844 L 362.257812 -14.214844 L 362.257812 2.261719 " fill-opacity="1" fill-rule="nonzero"/></g><g clip-path="url(#4b3fff181a)"><path fill="#a86c37" d="M 1143.03125 18.746094 L 1117.351562 18.746094 L 1117.351562 2.261719 L 1143.03125 2.261719 L 1143.03125 18.746094 M 362.257812 18.746094 L 336.765625 18.746094 L 336.765625 2.261719 L 362.257812 2.261719 L 362.257812 18.746094 " fill-opacity="1" fill-rule="nonzero"/></g><g clip-path="url(#42ee042bdb)"><path fill="#ae703f" d="M 1143.03125 35.222656 L 1117.351562 35.222656 L 1117.351562 18.746094 L 1143.03125 18.746094 L 1143.03125 35.222656 M 362.257812 35.222656 L 336.765625 35.222656 L 336.765625 18.746094 L 362.257812 18.746094 L 362.257812 35.222656 " fill-opacity="1" fill-rule="nonzero"/></g><g clip-path="url(#a7a290c46e)"><path fill="#ae703f" d="M 1143.03125 51.699219 L 1117.351562 51.699219 L 1117.351562 35.222656 L 1143.03125 35.222656 L 1143.03125 51.699219 M 362.257812 51.699219 L 336.765625 51.699219 L 336.765625 35.222656 L 362.257812 35.222656 L 362.257812 51.699219 " fill-opacity="1" fill-rule="nonzero"/></g><g clip-path="url(#77efb693b4)"><path fill="#ae703f" d="M 1143.03125 68.171875 L 1117.351562 68.171875 L 1117.351562 51.699219 L 1143.03125 51.699219 L 1143.03125 68.171875 M 362.257812 68.171875 L 336.765625 68.171875 L 336.765625 51.699219 L 362.257812 51.699219 L 362.257812 68.171875 " fill-opacity="1" fill-rule="nonzero"/></g><g clip-path="url(#6187b682fa)"><path fill="#ae703f" d="M 1143.03125 84.648438 L 1117.351562 84.648438 L 1117.351562 68.171875 L 1143.03125 68.171875 L 1143.03125 84.648438 M 362.257812 84.648438 L 336.765625 84.648438 L 336.765625 68.171875 L 362.257812 68.171875 L 362.257812 84.648438 " fill-opacity="1" fill-rule="nonzero"/></g><g clip-path="url(#7480cd9cb6)"><path fill="#ae703f" d="M 1143.03125 101.125 L 1117.351562 101.125 L 1117.351562 84.648438 L 1143.03125 84.648438 L 1143.03125 101.125 M 362.257812 101.125 L 336.765625 101.125 L 336.765625 84.648438 L 362.257812 84.648438 L 362.257812 101.125 " fill-opacity="1" fill-rule="nonzero"/></g><g clip-path="url(#bc2bbdcf24)"><path fill="#ae703f" d="M 1143.03125 117.601562 L 1117.351562 117.601562 L 1117.351562 101.125 L 1143.03125 101.125 L 1143.03125 117.601562 M 362.257812 117.601562 L 336.765625 117.601562 L 336.765625 101.125 L 362.257812 101.125 L 362.257812 117.601562 " fill-opacity="1" fill-rule="nonzero"/></g><g clip-path="url(#036d50bcb0)"><path fill="#ae703f" d="M 1143.03125 134.074219 L 1117.351562 134.074219 L 1117.351562 117.601562 L 1143.03125 117.601562 L 1143.03125 134.074219 M 362.257812 134.074219 L 336.765625 134.074219 L 336.765625 117.601562 L 362.257812 117.601562 L 362.257812 134.074219 " fill-opacity="1" fill-rule="nonzero"/></g><g clip-path="url(#9936667416)"><path fill="#a86c37" d="M 1143.03125 150.550781 L 1117.351562 150.550781 L 1117.351562 134.074219 L 1143.03125 134.074219 L 1143.03125 150.550781 M 362.257812 150.550781 L 336.765625 150.550781 L 336.765625 134.074219 L 362.257812 134.074219 L 362.257812 150.550781 " fill-opacity="1" fill-rule="nonzero"/></g><g clip-path="url(#a27e77589a)"><path fill="#ae703f" d="M 1143.03125 167.027344 L 336.765625 167.027344 L 336.765625 150.550781 L 362.257812 150.550781 L 362.257812 166.3125 L 1117.351562 166.3125 L 1117.351562 150.550781 L 1143.03125 150.550781 L 1143.03125 167.027344 " fill-opacity="1" fill-rule="nonzero"/></g><g clip-path="url(#1816ff694d)"><path fill="#a86c36" d="M 336.765625 183.5 L 1143.03125 183.5 L 1143.03125 167.027344 L 336.765625 167.027344 Z M 336.765625 183.5 " fill-opacity="1" fill-rule="nonzero"/></g><path fill="#ffffff" d="M 364.777344 110.1875 C 414.609375 109.289062 461.316406 89.472656 496.660156 54.132812 C 532.839844 17.96875 552.75 -30.125 552.75 -81.273438 L 552.75 -82.261719 C 552.75 -82.59375 552.742188 -82.9375 552.742188 -83.28125 C 551.667969 -186.761719 468.082031 -270.839844 364.777344 -272.730469 L 364.777344 -319.460938 L 736.375 -319.460938 L 736.375 -182.1875 C 681.679688 -180.308594 637.773438 -135.269531 637.773438 -80.140625 C 637.773438 -25.023438 681.679688 20.023438 736.375 21.902344 L 736.375 159.175781 L 364.777344 159.175781 Z M 496.679688 -141.777344 L 496.679688 -141.878906 L 364.777344 -141.878906 L 364.777344 -265.628906 C 453.085938 -263.945312 526.386719 -199.921875 542.390625 -115.804688 C 532.265625 -130.625 515.648438 -140.648438 496.679688 -141.777344 Z M 487.207031 -22.949219 C 489.171875 -22.765625 491.144531 -22.636719 493.125 -22.636719 C 513.925781 -22.636719 532.265625 -33.34375 542.9375 -49.535156 C 536.523438 -12.351562 518.859375 21.886719 491.632812 49.105469 C 457.640625 83.09375 412.703125 102.171875 364.777344 103.066406 L 364.777344 -22.949219 Z M 464.960938 -134.78125 C 462.960938 -133.707031 461 -132.550781 459.15625 -131.273438 C 458.15625 -130.578125 457.621094 -129.46875 457.621094 -128.347656 C 457.621094 -127.652344 457.832031 -126.941406 458.261719 -126.328125 C 459.378906 -124.710938 461.59375 -124.320312 463.210938 -125.429688 C 465.480469 -127.003906 467.90625 -128.410156 470.386719 -129.613281 C 472.164062 -130.464844 472.90625 -132.59375 472.0625 -134.355469 L 471.804688 -134.78125 L 473.820312 -134.78125 C 474.46875 -133.039062 476.347656 -132.066406 478.152344 -132.605469 C 480.792969 -133.390625 483.523438 -133.976562 486.28125 -134.328125 C 486.753906 -134.390625 487.191406 -134.546875 487.585938 -134.78125 L 489.570312 -134.78125 L 489.570312 -30.066406 L 487.578125 -30.066406 C 486.652344 -30.160156 485.734375 -30.253906 484.828125 -30.402344 C 484.078125 -30.503906 483.347656 -30.382812 482.707031 -30.066406 L 479.007812 -30.066406 C 478.664062 -31.113281 477.859375 -31.976562 476.746094 -32.355469 C 474.117188 -33.214844 471.535156 -34.289062 469.074219 -35.558594 C 467.339844 -36.453125 465.183594 -35.769531 464.277344 -34.03125 C 464.019531 -33.511719 463.886719 -32.945312 463.886719 -32.402344 C 463.886719 -31.53125 464.222656 -30.726562 464.796875 -30.066406 L 364.777344 -30.066406 L 364.777344 -134.78125 Z M 545.632812 -81.917969 C 545.457031 -54.308594 523.867188 -31.707031 496.679688 -29.875 L 496.679688 -134.640625 C 523.65625 -132.828125 545.09375 -110.558594 545.613281 -83.28125 C 545.625 -82.816406 545.632812 -82.375 545.632812 -81.917969 Z M 743.484375 -55.523438 C 755.546875 -57.253906 764.832031 -67.601562 764.832031 -80.140625 C 764.832031 -92.683594 755.546875 -103.023438 743.484375 -104.761719 L 743.484375 -175.078125 C 794.253906 -173.191406 834.976562 -131.347656 834.976562 -80.140625 C 834.976562 -28.9375 794.253906 12.914062 743.484375 14.785156 Z M 736.375 -104.761719 C 724.304688 -103.023438 715.027344 -92.683594 715.027344 -80.140625 C 715.027344 -67.601562 724.304688 -57.253906 736.375 -55.523438 L 736.375 14.785156 C 685.605469 12.914062 644.882812 -28.9375 644.882812 -80.140625 C 644.882812 -131.347656 685.605469 -173.191406 736.375 -175.078125 Z M 1115.082031 -272.730469 C 1011.101562 -270.832031 927.109375 -185.679688 927.109375 -81.273438 C 927.109375 -81.058594 927.117188 -80.835938 927.117188 -80.625 L 927.109375 -80.289062 C 927.109375 -79.957031 927.125 -79.632812 927.125 -79.300781 C 928.179688 24.207031 1011.757812 108.289062 1115.082031 110.1875 L 1115.082031 159.175781 L 743.484375 159.175781 L 743.484375 21.902344 C 798.167969 20.023438 842.085938 -25.023438 842.085938 -80.140625 C 842.085938 -135.269531 798.167969 -180.308594 743.484375 -182.1875 L 743.484375 -319.460938 L 1115.082031 -319.460938 Z M 983.179688 -20.785156 L 983.179688 -20.671875 L 1115.082031 -20.671875 L 1115.082031 103.066406 C 1026.773438 101.382812 953.472656 37.359375 937.476562 -46.730469 C 947.59375 -31.929688 964.203125 -21.914062 983.179688 -20.785156 Z M 992.207031 -139.582031 C 991.964844 -139.65625 991.714844 -139.714844 991.457031 -139.730469 C 989.902344 -139.851562 988.320312 -139.917969 986.746094 -139.917969 C 965.960938 -139.917969 947.660156 -129.234375 936.976562 -113.085938 C 951.898438 -198.523438 1025.820312 -263.925781 1115.082031 -265.628906 L 1115.082031 -139.582031 Z M 1011.777344 -27.773438 C 1011.933594 -28.46875 1011.871094 -29.199219 1011.582031 -29.890625 C 1010.832031 -31.707031 1008.757812 -32.550781 1006.925781 -31.800781 C 1004.40625 -30.753906 1001.777344 -29.890625 999.121094 -29.246094 C 998.214844 -29.03125 997.492188 -28.484375 997.019531 -27.773438 L 992.273438 -27.773438 C 991.835938 -27.910156 991.382812 -27.984375 990.902344 -27.941406 L 990.300781 -27.910156 L 990.300781 -132.476562 L 997.207031 -132.476562 C 997.667969 -131.9375 998.296875 -131.539062 999.039062 -131.355469 C 1001.703125 -130.707031 1004.34375 -129.863281 1006.871094 -128.808594 C 1008.675781 -128.058594 1010.769531 -128.910156 1011.519531 -130.726562 C 1011.757812 -131.300781 1011.8125 -131.902344 1011.757812 -132.476562 L 1115.082031 -132.476562 L 1115.082031 -27.773438 Z M 934.226562 -80.613281 C 934.382812 -108.234375 955.980469 -130.847656 983.179688 -132.679688 L 983.179688 -27.910156 C 956.195312 -29.726562 934.746094 -51.996094 934.234375 -79.308594 C 934.234375 -79.753906 934.226562 -80.179688 934.226562 -80.613281 Z M 1122.199219 -326.570312 L 357.667969 -326.570312 L 357.667969 166.285156 L 1122.199219 166.285156 L 1122.199219 -326.570312 " fill-opacity="1" fill-rule="nonzero"/><g clip-path="url(#4cb741f7f2)"><g clip-path="url(#fbd1cbf421)"><path fill="#d9d9d9" d="M 439.945312 254.210938 L 1049.324219 254.210938 L 1049.324219 331.097656 L 439.945312 331.097656 Z M 439.945312 254.210938 " fill-opacity="1" fill-rule="nonzero"/></g></g><g clip-path="url(#34eff6f86e)"><g clip-path="url(#61c947e5d3)"><path fill="#004aad" d="M 512.253906 378.195312 L 986.390625 378.195312 L 986.390625 571.167969 L 512.253906 571.167969 Z M 512.253906 378.195312 " fill-opacity="1" fill-rule="nonzero"/></g></g><g fill="#ffffff" fill-opacity="1"><g transform="translate(641.395278, 483.196171)"><g><path d="M 12.296875 -4.765625 C 12.296875 -3.210938 11.738281 -1.988281 10.625 -1.09375 C 9.507812 -0.207031 7.957031 0.234375 5.96875 0.234375 C 4.132812 0.234375 2.515625 -0.109375 1.109375 -0.796875 L 1.109375 -4.1875 C 2.265625 -3.664062 3.242188 -3.296875 4.046875 -3.078125 C 4.847656 -2.867188 5.582031 -2.765625 6.25 -2.765625 C 7.050781 -2.765625 7.664062 -2.914062 8.09375 -3.21875 C 8.519531 -3.53125 8.734375 -3.988281 8.734375 -4.59375 C 8.734375 -4.925781 8.640625 -5.222656 8.453125 -5.484375 C 8.265625 -5.753906 7.988281 -6.007812 7.625 -6.25 C 7.257812 -6.488281 6.515625 -6.875 5.390625 -7.40625 C 4.335938 -7.90625 3.550781 -8.378906 3.03125 -8.828125 C 2.507812 -9.285156 2.085938 -9.816406 1.765625 -10.421875 C 1.453125 -11.023438 1.296875 -11.726562 1.296875 -12.53125 C 1.296875 -14.050781 1.8125 -15.242188 2.84375 -16.109375 C 3.875 -16.984375 5.300781 -17.421875 7.125 -17.421875 C 8.007812 -17.421875 8.859375 -17.316406 9.671875 -17.109375 C 10.484375 -16.898438 11.332031 -16.601562 12.21875 -16.21875 L 11.046875 -13.375 C 10.128906 -13.757812 9.367188 -14.023438 8.765625 -14.171875 C 8.171875 -14.316406 7.582031 -14.390625 7 -14.390625 C 6.3125 -14.390625 5.78125 -14.226562 5.40625 -13.90625 C 5.039062 -13.582031 4.859375 -13.164062 4.859375 -12.65625 C 4.859375 -12.332031 4.929688 -12.050781 5.078125 -11.8125 C 5.234375 -11.570312 5.472656 -11.335938 5.796875 -11.109375 C 6.117188 -10.890625 6.890625 -10.492188 8.109375 -9.921875 C 9.710938 -9.148438 10.8125 -8.378906 11.40625 -7.609375 C 12 -6.835938 12.296875 -5.890625 12.296875 -4.765625 Z M 12.296875 -4.765625 "/></g></g></g><g fill="#ffffff" fill-opacity="1"><g transform="translate(654.6463, 483.196171)"><g><path d="M 2.15625 0 L 2.15625 -17.171875 L 5.796875 -17.171875 L 5.796875 0 Z M 2.15625 0 "/></g></g></g><g fill="#ffffff" fill-opacity="1"><g transform="translate(662.61101, 483.196171)"><g><path d="M 2.15625 0 L 2.15625 -17.171875 L 5.796875 -17.171875 L 5.796875 -3.015625 L 12.765625 -3.015625 L 12.765625 0 Z M 2.15625 0 "/></g></g></g><g fill="#ffffff" fill-opacity="1"><g transform="translate(676.202711, 483.196171)"><g><path d="M 2.15625 0 L 2.15625 -17.171875 L 5.796875 -17.171875 L 5.796875 -3.015625 L 12.765625 -3.015625 L 12.765625 0 Z M 2.15625 0 "/></g></g></g><g fill="#ffffff" fill-opacity="1"><g transform="translate(689.794413, 483.196171)"><g><path d="M 12.671875 0 L 11.4375 -4.09375 L 5.171875 -4.09375 L 3.921875 0 L 0 0 L 6.0625 -17.25 L 10.515625 -17.25 L 16.609375 0 Z M 10.5625 -7.140625 C 9.40625 -10.847656 8.753906 -12.941406 8.609375 -13.421875 C 8.472656 -13.910156 8.375 -14.296875 8.3125 -14.578125 C 8.050781 -13.578125 7.3125 -11.097656 6.09375 -7.140625 Z M 10.5625 -7.140625 "/></g></g></g><g fill="#ffffff" fill-opacity="1"><g transform="translate(706.393437, 483.196171)"><g><path d="M 12.296875 -4.765625 C 12.296875 -3.210938 11.738281 -1.988281 10.625 -1.09375 C 9.507812 -0.207031 7.957031 0.234375 5.96875 0.234375 C 4.132812 0.234375 2.515625 -0.109375 1.109375 -0.796875 L 1.109375 -4.1875 C 2.265625 -3.664062 3.242188 -3.296875 4.046875 -3.078125 C 4.847656 -2.867188 5.582031 -2.765625 6.25 -2.765625 C 7.050781 -2.765625 7.664062 -2.914062 8.09375 -3.21875 C 8.519531 -3.53125 8.734375 -3.988281 8.734375 -4.59375 C 8.734375 -4.925781 8.640625 -5.222656 8.453125 -5.484375 C 8.265625 -5.753906 7.988281 -6.007812 7.625 -6.25 C 7.257812 -6.488281 6.515625 -6.875 5.390625 -7.40625 C 4.335938 -7.90625 3.550781 -8.378906 3.03125 -8.828125 C 2.507812 -9.285156 2.085938 -9.816406 1.765625 -10.421875 C 1.453125 -11.023438 1.296875 -11.726562 1.296875 -12.53125 C 1.296875 -14.050781 1.8125 -15.242188 2.84375 -16.109375 C 3.875 -16.984375 5.300781 -17.421875 7.125 -17.421875 C 8.007812 -17.421875 8.859375 -17.316406 9.671875 -17.109375 C 10.484375 -16.898438 11.332031 -16.601562 12.21875 -16.21875 L 11.046875 -13.375 C 10.128906 -13.757812 9.367188 -14.023438 8.765625 -14.171875 C 8.171875 -14.316406 7.582031 -14.390625 7 -14.390625 C 6.3125 -14.390625 5.78125 -14.226562 5.40625 -13.90625 C 5.039062 -13.582031 4.859375 -13.164062 4.859375 -12.65625 C 4.859375 -12.332031 4.929688 -12.050781 5.078125 -11.8125 C 5.234375 -11.570312 5.472656 -11.335938 5.796875 -11.109375 C 6.117188 -10.890625 6.890625 -10.492188 8.109375 -9.921875 C 9.710938 -9.148438 10.8125 -8.378906 11.40625 -7.609375 C 12 -6.835938 12.296875 -5.890625 12.296875 -4.765625 Z M 12.296875 -4.765625 "/></g></g></g><g fill="#ffffff" fill-opacity="1"><g transform="translate(719.644459, 483.196171)"><g/></g></g><g fill="#ffffff" fill-opacity="1"><g transform="translate(725.894055, 483.196171)"><g><path d="M 8.78125 0 L 5.140625 0 L 5.140625 -14.140625 L 0.484375 -14.140625 L 0.484375 -17.171875 L 13.453125 -17.171875 L 13.453125 -14.140625 L 8.78125 -14.140625 Z M 8.78125 0 "/></g></g></g><g fill="#ffffff" fill-opacity="1"><g transform="translate(739.826423, 483.196171)"><g><path d="M 5.796875 -9.546875 L 6.984375 -9.546875 C 8.128906 -9.546875 8.972656 -9.738281 9.515625 -10.125 C 10.066406 -10.507812 10.34375 -11.113281 10.34375 -11.9375 C 10.34375 -12.75 10.0625 -13.328125 9.5 -13.671875 C 8.945312 -14.015625 8.082031 -14.1875 6.90625 -14.1875 L 5.796875 -14.1875 Z M 5.796875 -6.59375 L 5.796875 0 L 2.15625 0 L 2.15625 -17.171875 L 7.171875 -17.171875 C 9.503906 -17.171875 11.226562 -16.742188 12.34375 -15.890625 C 13.46875 -15.046875 14.03125 -13.757812 14.03125 -12.03125 C 14.03125 -11.019531 13.75 -10.117188 13.1875 -9.328125 C 12.632812 -8.546875 11.847656 -7.929688 10.828125 -7.484375 C 13.410156 -3.617188 15.097656 -1.125 15.890625 0 L 11.84375 0 L 7.75 -6.59375 Z M 5.796875 -6.59375 "/></g></g></g><g fill="#ffffff" fill-opacity="1"><g transform="translate(755.708854, 483.196171)"><g><path d="M 2.15625 0 L 2.15625 -17.171875 L 5.796875 -17.171875 L 5.796875 0 Z M 2.15625 0 "/></g></g></g><g fill="#ffffff" fill-opacity="1"><g transform="translate(763.673563, 483.196171)"><g><path d="M 2.15625 -17.171875 L 7.5 -17.171875 C 9.9375 -17.171875 11.707031 -16.820312 12.8125 -16.125 C 13.914062 -15.4375 14.46875 -14.335938 14.46875 -12.828125 C 14.46875 -11.804688 14.222656 -10.960938 13.734375 -10.296875 C 13.253906 -9.640625 12.613281 -9.25 11.8125 -9.125 L 11.8125 -9 C 12.90625 -8.757812 13.691406 -8.304688 14.171875 -7.640625 C 14.648438 -6.972656 14.890625 -6.085938 14.890625 -4.984375 C 14.890625 -3.410156 14.320312 -2.1875 13.1875 -1.3125 C 12.0625 -0.4375 10.53125 0 8.59375 0 L 2.15625 0 Z M 5.796875 -10.375 L 7.921875 -10.375 C 8.910156 -10.375 9.625 -10.523438 10.0625 -10.828125 C 10.507812 -11.140625 10.734375 -11.644531 10.734375 -12.34375 C 10.734375 -13 10.488281 -13.46875 10 -13.75 C 9.519531 -14.039062 8.757812 -14.1875 7.71875 -14.1875 L 5.796875 -14.1875 Z M 5.796875 -7.484375 L 5.796875 -3.015625 L 8.171875 -3.015625 C 9.179688 -3.015625 9.921875 -3.203125 10.390625 -3.578125 C 10.867188 -3.960938 11.109375 -4.550781 11.109375 -5.34375 C 11.109375 -6.769531 10.09375 -7.484375 8.0625 -7.484375 Z M 5.796875 -7.484375 "/></g></g></g><g fill="#ffffff" fill-opacity="1"><g transform="translate(779.83793, 483.196171)"><g><path d="M 16.140625 -17.171875 L 16.140625 -6.0625 C 16.140625 -4.789062 15.851562 -3.675781 15.28125 -2.71875 C 14.71875 -1.769531 13.898438 -1.039062 12.828125 -0.53125 C 11.753906 -0.0195312 10.488281 0.234375 9.03125 0.234375 C 6.8125 0.234375 5.09375 -0.328125 3.875 -1.453125 C 2.65625 -2.585938 2.046875 -4.140625 2.046875 -6.109375 L 2.046875 -17.171875 L 5.671875 -17.171875 L 5.671875 -6.65625 C 5.671875 -5.332031 5.9375 -4.359375 6.46875 -3.734375 C 7 -3.117188 7.882812 -2.8125 9.125 -2.8125 C 10.3125 -2.8125 11.171875 -3.125 11.703125 -3.75 C 12.242188 -4.375 12.515625 -5.351562 12.515625 -6.6875 L 12.515625 -17.171875 Z M 16.140625 -17.171875 "/></g></g></g><g fill="#ffffff" fill-opacity="1"><g transform="translate(798.022844, 483.196171)"><g><path d="M 17.40625 0 L 12.765625 0 L 5.296875 -13 L 5.1875 -13 C 5.34375 -10.695312 5.421875 -9.054688 5.421875 -8.078125 L 5.421875 0 L 2.15625 0 L 2.15625 -17.171875 L 6.75 -17.171875 L 14.21875 -4.3125 L 14.296875 -4.3125 C 14.179688 -6.539062 14.125 -8.117188 14.125 -9.046875 L 14.125 -17.171875 L 17.40625 -17.171875 Z M 17.40625 0 "/></g></g></g><g fill="#ffffff" fill-opacity="1"><g transform="translate(817.582203, 483.196171)"><g><path d="M 12.671875 0 L 11.4375 -4.09375 L 5.171875 -4.09375 L 3.921875 0 L 0 0 L 6.0625 -17.25 L 10.515625 -17.25 L 16.609375 0 Z M 10.5625 -7.140625 C 9.40625 -10.847656 8.753906 -12.941406 8.609375 -13.421875 C 8.472656 -13.910156 8.375 -14.296875 8.3125 -14.578125 C 8.050781 -13.578125 7.3125 -11.097656 6.09375 -7.140625 Z M 10.5625 -7.140625 "/></g></g></g><g fill="#ffffff" fill-opacity="1"><g transform="translate(834.181228, 483.196171)"><g/></g></g><g fill="#ffffff" fill-opacity="1"><g transform="translate(840.430823, 483.196171)"><g><path d="M 12.671875 0 L 11.4375 -4.09375 L 5.171875 -4.09375 L 3.921875 0 L 0 0 L 6.0625 -17.25 L 10.515625 -17.25 L 16.609375 0 Z M 10.5625 -7.140625 C 9.40625 -10.847656 8.753906 -12.941406 8.609375 -13.421875 C 8.472656 -13.910156 8.375 -14.296875 8.3125 -14.578125 C 8.050781 -13.578125 7.3125 -11.097656 6.09375 -7.140625 Z M 10.5625 -7.140625 "/></g></g></g><g clip-path="url(#1a7d826714)"><g clip-path="url(#dd9d185697)"><path fill="#d9d9d9" d="M 1104.414062 378.195312 L 1355.152344 378.195312 L 1355.152344 547.117188 L 1104.414062 547.117188 Z M 1104.414062 378.195312 " fill-opacity="1" fill-rule="nonzero"/></g></g><g clip-path="url(#becb267ff0)"><g clip-path="url(#8d8e89c43c)"><path fill="#d9d9d9" d="M 1077.628906 254.210938 L 1354.738281 254.210938 L 1354.738281 329.679688 L 1077.628906 329.679688 Z M 1077.628906 254.210938 " fill-opacity="1" fill-rule="nonzero"/></g></g><g clip-path="url(#30ca488f55)"><g clip-path="url(#7d0e24585a)"><path fill="#d9d9d9" d="M 107.828125 378.195312 L 358.566406 378.195312 L 358.566406 547.117188 L 107.828125 547.117188 Z M 107.828125 378.195312 " fill-opacity="1" fill-rule="nonzero"/></g></g><g clip-path="url(#8430858c54)"><g clip-path="url(#3bf0ce3fe9)"><path fill="#d9d9d9" d="M 107.828125 254.210938 L 411.761719 254.210938 L 411.761719 329.679688 L 107.828125 329.679688 Z M 107.828125 254.210938 " fill-opacity="1" fill-rule="nonzero"/></g></g><g clip-path="url(#e44f230492)"><g clip-path="url(#ff7f36e464)"><path fill="#d9d9d9" d="M 98.8125 598.328125 L 1367.035156 598.328125 L 1367.035156 767.246094 L 98.8125 767.246094 Z M 98.8125 598.328125 " fill-opacity="1" fill-rule="nonzero"/></g></g><g clip-path="url(#c46b5be585)"><g clip-path="url(#ea16916a31)"><path fill="#d9d9d9" d="M 1178.371094 6.289062 L 1351.910156 6.289062 L 1351.910156 175.210938 L 1178.371094 175.210938 Z M 1178.371094 6.289062 " fill-opacity="1" fill-rule="nonzero"/></g></g><g clip-path="url(#dd75b86be7)"><g clip-path="url(#4428479d13)"><path fill="#d9d9d9" d="M 127.402344 6.289062 L 300.941406 6.289062 L 300.941406 175.210938 L 127.402344 175.210938 Z M 127.402344 6.289062 " fill-opacity="1" fill-rule="nonzero"/></g></g><g clip-path="url(#807b5a26f5)"><g clip-path="url(#95786db8ba)"><path fill="#d9d9d9" d="M 341.675781 175.210938 L 1147.6875 175.210938 L 1147.6875 227.605469 L 341.675781 227.605469 Z M 341.675781 175.210938 " fill-opacity="1" fill-rule="nonzero"/></g></g></svg>