<svg xmlns="http://www.w3.org/2000/svg" xmlns:xlink="http://www.w3.org/1999/xlink" width="2000" zoomAndPan="magnify" viewBox="0 0 1500 599.999999" height="800" preserveAspectRatio="xMidYMid meet" version="1.0"><defs><g/><clipPath id="709be1375a"><path d="M 371.960938 0 L 1217.960938 0 L 1217.960938 4 L 371.960938 4 Z M 371.960938 0 " clip-rule="nonzero"/></clipPath><clipPath id="af2d497ba2"><path d="M 371.960938 3 L 1217.960938 3 L 1217.960938 22 L 371.960938 22 Z M 371.960938 3 " clip-rule="nonzero"/></clipPath><clipPath id="d8f44c14bd"><path d="M 371.960938 21 L 1217.960938 21 L 1217.960938 39 L 371.960938 39 Z M 371.960938 21 " clip-rule="nonzero"/></clipPath><clipPath id="e1e462b5a3"><path d="M 371.960938 38 L 1217.960938 38 L 1217.960938 56 L 371.960938 56 Z M 371.960938 38 " clip-rule="nonzero"/></clipPath><clipPath id="e0cc48eda7"><path d="M 371.960938 55 L 1217.960938 55 L 1217.960938 73 L 371.960938 73 Z M 371.960938 55 " clip-rule="nonzero"/></clipPath><clipPath id="43ef0f6108"><path d="M 371.960938 72 L 1217.960938 72 L 1217.960938 91 L 371.960938 91 Z M 371.960938 72 " clip-rule="nonzero"/></clipPath><clipPath id="7bc900fd56"><path d="M 371.960938 90 L 1217.960938 90 L 1217.960938 108 L 371.960938 108 Z M 371.960938 90 " clip-rule="nonzero"/></clipPath><clipPath id="6785dc8b77"><path d="M 371.960938 107 L 1217.960938 107 L 1217.960938 125 L 371.960938 125 Z M 371.960938 107 " clip-rule="nonzero"/></clipPath><clipPath id="a88b1b6b9c"><path d="M 371.960938 124 L 1217.960938 124 L 1217.960938 143 L 371.960938 143 Z M 371.960938 124 " clip-rule="nonzero"/></clipPath><clipPath id="936f19630b"><path d="M 371.960938 142 L 1217.960938 142 L 1217.960938 160 L 371.960938 160 Z M 371.960938 142 " clip-rule="nonzero"/></clipPath><clipPath id="8fd845b655"><path d="M 371.960938 159 L 1217.960938 159 L 1217.960938 177 L 371.960938 177 Z M 371.960938 159 " clip-rule="nonzero"/></clipPath><clipPath id="5728f17658"><path d="M 371.960938 176 L 1217.960938 176 L 1217.960938 194 L 371.960938 194 Z M 371.960938 176 " clip-rule="nonzero"/></clipPath><clipPath id="912c2f3abe"><path d="M 371.960938 193 L 1217.960938 193 L 1217.960938 211.328125 L 371.960938 211.328125 Z M 371.960938 193 " clip-rule="nonzero"/></clipPath><clipPath id="fc9d87f2c0"><path d="M 371.960938 0 L 1217.960938 0 L 1217.960938 4 L 371.960938 4 Z M 371.960938 0 " clip-rule="nonzero"/></clipPath><clipPath id="c24a872993"><path d="M 371.960938 3 L 1217.960938 3 L 1217.960938 22 L 371.960938 22 Z M 371.960938 3 " clip-rule="nonzero"/></clipPath><clipPath id="9290af7378"><path d="M 371.960938 21 L 1217.960938 21 L 1217.960938 39 L 371.960938 39 Z M 371.960938 21 " clip-rule="nonzero"/></clipPath><clipPath id="37b087791e"><path d="M 371.960938 38 L 1217.960938 38 L 1217.960938 56 L 371.960938 56 Z M 371.960938 38 " clip-rule="nonzero"/></clipPath><clipPath id="49f98ccd47"><path d="M 371.960938 55 L 1217.960938 55 L 1217.960938 73 L 371.960938 73 Z M 371.960938 55 " clip-rule="nonzero"/></clipPath><clipPath id="1999bb8196"><path d="M 371.960938 72 L 1217.960938 72 L 1217.960938 91 L 371.960938 91 Z M 371.960938 72 " clip-rule="nonzero"/></clipPath><clipPath id="ec6719454a"><path d="M 371.960938 90 L 1217.960938 90 L 1217.960938 108 L 371.960938 108 Z M 371.960938 90 " clip-rule="nonzero"/></clipPath><clipPath id="934fc4b978"><path d="M 371.960938 107 L 1217.960938 107 L 1217.960938 125 L 371.960938 125 Z M 371.960938 107 " clip-rule="nonzero"/></clipPath><clipPath id="0195434905"><path d="M 371.960938 124 L 1217.960938 124 L 1217.960938 143 L 371.960938 143 Z M 371.960938 124 " clip-rule="nonzero"/></clipPath><clipPath id="a574333010"><path d="M 371.960938 142 L 1217.960938 142 L 1217.960938 160 L 371.960938 160 Z M 371.960938 142 " clip-rule="nonzero"/></clipPath><clipPath id="cd995a4458"><path d="M 371.960938 159 L 1217.960938 159 L 1217.960938 177 L 371.960938 177 Z M 371.960938 159 " clip-rule="nonzero"/></clipPath><clipPath id="a92ac8e3a9"><path d="M 371.960938 176 L 1217.960938 176 L 1217.960938 194 L 371.960938 194 Z M 371.960938 176 " clip-rule="nonzero"/></clipPath><clipPath id="fc411509af"><path d="M 371.960938 193 L 1217.960938 193 L 1217.960938 211.328125 L 371.960938 211.328125 Z M 371.960938 193 " clip-rule="nonzero"/></clipPath><clipPath id="ca86f718fd"><path d="M 465.125 257.335938 L 1104.742188 257.335938 L 1104.742188 337.996094 L 465.125 337.996094 Z M 465.125 257.335938 " clip-rule="nonzero"/></clipPath><clipPath id="b19c009866"><path d="M 471.125 257.335938 L 1098.566406 257.335938 C 1101.878906 257.335938 1104.566406 260.019531 1104.566406 263.335938 L 1104.566406 331.996094 C 1104.566406 335.308594 1101.878906 337.996094 1098.566406 337.996094 L 471.125 337.996094 C 467.8125 337.996094 465.125 335.308594 465.125 331.996094 L 465.125 263.335938 C 465.125 260.019531 467.8125 257.335938 471.125 257.335938 Z M 471.125 257.335938 " clip-rule="nonzero"/></clipPath><clipPath id="2434819757"><path d="M 536.242188 374.789062 L 1033.660156 374.789062 L 1033.660156 577.238281 L 536.242188 577.238281 Z M 536.242188 374.789062 " clip-rule="nonzero"/></clipPath><clipPath id="14b2a6646e"><path d="M 542.242188 374.789062 L 1027.449219 374.789062 C 1030.761719 374.789062 1033.449219 377.476562 1033.449219 380.789062 L 1033.449219 571.238281 C 1033.449219 574.550781 1030.761719 577.238281 1027.449219 577.238281 L 542.242188 577.238281 C 538.929688 577.238281 536.242188 574.550781 536.242188 571.238281 L 536.242188 380.789062 C 536.242188 377.476562 538.929688 374.789062 542.242188 374.789062 Z M 542.242188 374.789062 " clip-rule="nonzero"/></clipPath><clipPath id="f1a25103ca"><path d="M 116.699219 383.007812 L 379.75 383.007812 L 379.75 560.222656 L 116.699219 560.222656 Z M 116.699219 383.007812 " clip-rule="nonzero"/></clipPath><clipPath id="5cd8918e08"><path d="M 122.699219 383.007812 L 373.40625 383.007812 C 376.71875 383.007812 379.40625 385.695312 379.40625 389.007812 L 379.40625 554.222656 C 379.40625 557.539062 376.71875 560.222656 373.40625 560.222656 L 122.699219 560.222656 C 119.382812 560.222656 116.699219 557.539062 116.699219 554.222656 L 116.699219 389.007812 C 116.699219 385.695312 119.382812 383.007812 122.699219 383.007812 Z M 122.699219 383.007812 " clip-rule="nonzero"/></clipPath><clipPath id="f2f5b9da5a"><path d="M 1134.121094 257.335938 L 1425 257.335938 L 1425 336.507812 L 1134.121094 336.507812 Z M 1134.121094 257.335938 " clip-rule="nonzero"/></clipPath><clipPath id="da492d7c5d"><path d="M 1140.121094 257.335938 L 1418.925781 257.335938 C 1422.238281 257.335938 1424.925781 260.019531 1424.925781 263.335938 L 1424.925781 330.507812 C 1424.925781 333.824219 1422.238281 336.507812 1418.925781 336.507812 L 1140.121094 336.507812 C 1136.804688 336.507812 1134.121094 333.824219 1134.121094 330.507812 L 1134.121094 263.335938 C 1134.121094 260.019531 1136.804688 257.335938 1140.121094 257.335938 Z M 1140.121094 257.335938 " clip-rule="nonzero"/></clipPath><clipPath id="9c14883d53"><path d="M 116.699219 257.335938 L 435.867188 257.335938 L 435.867188 336.507812 L 116.699219 336.507812 Z M 116.699219 257.335938 " clip-rule="nonzero"/></clipPath><clipPath id="4e5308d901"><path d="M 122.699219 257.335938 L 429.570312 257.335938 C 432.886719 257.335938 435.570312 260.019531 435.570312 263.335938 L 435.570312 330.507812 C 435.570312 333.824219 432.886719 336.507812 429.570312 336.507812 L 122.699219 336.507812 C 119.382812 336.507812 116.699219 333.824219 116.699219 330.507812 L 116.699219 263.335938 C 116.699219 260.019531 119.382812 257.335938 122.699219 257.335938 Z M 122.699219 257.335938 " clip-rule="nonzero"/></clipPath><clipPath id="6025b87f0e"><path d="M 1162.21875 387.40625 L 1425 387.40625 L 1425 564.621094 L 1162.21875 564.621094 Z M 1162.21875 387.40625 " clip-rule="nonzero"/></clipPath><clipPath id="ad7bf860eb"><path d="M 1168.21875 387.40625 L 1418.925781 387.40625 C 1422.242188 387.40625 1424.925781 390.09375 1424.925781 393.40625 L 1424.925781 558.621094 C 1424.925781 561.933594 1422.242188 564.621094 1418.925781 564.621094 L 1168.21875 564.621094 C 1164.90625 564.621094 1162.21875 561.933594 1162.21875 558.621094 L 1162.21875 393.40625 C 1162.21875 390.09375 1164.90625 387.40625 1168.21875 387.40625 Z M 1168.21875 387.40625 " clip-rule="nonzero"/></clipPath><clipPath id="2c85f51e90"><path d="M 137.234375 0 L 319.296875 0 L 319.296875 174.453125 L 137.234375 174.453125 Z M 137.234375 0 " clip-rule="nonzero"/></clipPath><clipPath id="cd1269779b"><path d="M 143.234375 -2.761719 L 313.191406 -2.761719 C 316.503906 -2.761719 319.191406 -0.0742188 319.191406 3.238281 L 319.191406 168.453125 C 319.191406 171.765625 316.503906 174.453125 313.191406 174.453125 L 143.234375 174.453125 C 139.921875 174.453125 137.234375 171.765625 137.234375 168.453125 L 137.234375 3.238281 C 137.234375 -0.0742188 139.921875 -2.761719 143.234375 -2.761719 Z M 143.234375 -2.761719 " clip-rule="nonzero"/></clipPath><clipPath id="98fa8435ed"><path d="M 1236.902344 0 L 1418.859375 0 L 1418.859375 174.851562 L 1236.902344 174.851562 Z M 1236.902344 0 " clip-rule="nonzero"/></clipPath><clipPath id="cc4ca0eab4"><path d="M 1242.902344 -28.425781 L 1412.859375 -28.425781 C 1416.171875 -28.425781 1418.859375 -25.738281 1418.859375 -22.425781 L 1418.859375 168.453125 C 1418.859375 171.765625 1416.171875 174.453125 1412.859375 174.453125 L 1242.902344 174.453125 C 1239.589844 174.453125 1236.902344 171.765625 1236.902344 168.453125 L 1236.902344 -22.425781 C 1236.902344 -25.738281 1239.589844 -28.425781 1242.902344 -28.425781 Z M 1242.902344 -28.425781 " clip-rule="nonzero"/></clipPath><clipPath id="ed6f13c7b6"><path d="M 362.027344 174.453125 L 1207.832031 174.453125 L 1207.832031 229.421875 L 362.027344 229.421875 Z M 362.027344 174.453125 " clip-rule="nonzero"/></clipPath><clipPath id="67ce6a0598"><path d="M 368.027344 174.453125 L 1201.664062 174.453125 C 1204.976562 174.453125 1207.664062 177.140625 1207.664062 180.453125 L 1207.664062 223.421875 C 1207.664062 226.738281 1204.976562 229.421875 1201.664062 229.421875 L 368.027344 229.421875 C 364.714844 229.421875 362.027344 226.738281 362.027344 223.421875 L 362.027344 180.453125 C 362.027344 177.140625 364.714844 174.453125 368.027344 174.453125 Z M 368.027344 174.453125 " clip-rule="nonzero"/></clipPath></defs><path fill="#d39d48" d="M 759.914062 124.804688 L 1116.445312 124.804688 L 1116.445312 107.507812 L 759.914062 107.507812 Z M 759.914062 124.804688 " fill-opacity="1" fill-rule="nonzero"/><g clip-path="url(#709be1375a)"><path fill="#d39d48" d="M 371.949219 3.734375 L 1217.96875 3.734375 L 1217.96875 -13.5625 L 371.949219 -13.5625 Z M 371.949219 3.734375 " fill-opacity="1" fill-rule="nonzero"/></g><g clip-path="url(#af2d497ba2)"><path fill="#dea55a" d="M 371.949219 21.027344 L 1217.96875 21.027344 L 1217.96875 3.734375 L 371.949219 3.734375 Z M 371.949219 21.027344 " fill-opacity="1" fill-rule="nonzero"/></g><g clip-path="url(#d8f44c14bd)"><path fill="#d39d49" d="M 371.949219 38.332031 L 1217.96875 38.332031 L 1217.96875 21.027344 L 371.949219 21.027344 Z M 371.949219 38.332031 " fill-opacity="1" fill-rule="nonzero"/></g><g clip-path="url(#e1e462b5a3)"><path fill="#dea55a" d="M 371.949219 55.625 L 1217.96875 55.625 L 1217.96875 38.332031 L 371.949219 38.332031 Z M 371.949219 55.625 " fill-opacity="1" fill-rule="nonzero"/></g><g clip-path="url(#e0cc48eda7)"><path fill="#dea55a" d="M 371.949219 72.921875 L 1217.96875 72.921875 L 1217.96875 55.625 L 371.949219 55.625 Z M 371.949219 72.921875 " fill-opacity="1" fill-rule="nonzero"/></g><g clip-path="url(#43ef0f6108)"><path fill="#dea55a" d="M 371.949219 90.214844 L 1217.96875 90.214844 L 1217.96875 72.921875 L 371.949219 72.921875 Z M 371.949219 90.214844 " fill-opacity="1" fill-rule="nonzero"/></g><g clip-path="url(#7bc900fd56)"><path fill="#dea55a" d="M 371.949219 107.507812 L 1217.96875 107.507812 L 1217.96875 90.214844 L 371.949219 90.214844 Z M 371.949219 107.507812 " fill-opacity="1" fill-rule="nonzero"/></g><g clip-path="url(#6785dc8b77)"><path fill="#dea55a" d="M 371.949219 124.804688 L 1217.96875 124.804688 L 1217.96875 107.507812 L 371.949219 107.507812 Z M 371.949219 124.804688 " fill-opacity="1" fill-rule="nonzero"/></g><g clip-path="url(#a88b1b6b9c)"><path fill="#dea55a" d="M 371.949219 142.097656 L 1217.96875 142.097656 L 1217.96875 124.804688 L 371.949219 124.804688 Z M 371.949219 142.097656 " fill-opacity="1" fill-rule="nonzero"/></g><g clip-path="url(#936f19630b)"><path fill="#dea55a" d="M 371.949219 159.394531 L 1217.96875 159.394531 L 1217.96875 142.097656 L 371.949219 142.097656 Z M 371.949219 159.394531 " fill-opacity="1" fill-rule="nonzero"/></g><g clip-path="url(#8fd845b655)"><path fill="#d39d49" d="M 371.949219 176.6875 L 1217.96875 176.6875 L 1217.96875 159.394531 L 371.949219 159.394531 Z M 371.949219 176.6875 " fill-opacity="1" fill-rule="nonzero"/></g><g clip-path="url(#5728f17658)"><path fill="#dea55a" d="M 371.949219 193.980469 L 1217.96875 193.980469 L 1217.96875 176.6875 L 371.949219 176.6875 Z M 371.949219 193.980469 " fill-opacity="1" fill-rule="nonzero"/></g><g clip-path="url(#912c2f3abe)"><path fill="#d39d48" d="M 371.949219 211.277344 L 1217.96875 211.277344 L 1217.96875 193.980469 L 371.949219 193.980469 Z M 371.949219 211.277344 " fill-opacity="1" fill-rule="nonzero"/></g><path fill="#c79146" d="M 934 142.097656 L 1098.554688 142.097656 L 1098.554688 124.804688 L 934 124.804688 Z M 934 142.097656 " fill-opacity="1" fill-rule="nonzero"/><path fill="#c28e3f" d="M 492.675781 176.6875 L 614.003906 176.6875 L 614.003906 168.039062 L 492.675781 168.039062 Z M 492.675781 176.6875 " fill-opacity="1" fill-rule="nonzero"/><path fill="#c79146" d="M 492.675781 185.335938 L 614.003906 185.335938 L 614.003906 176.6875 L 492.675781 176.6875 Z M 492.675781 185.335938 " fill-opacity="1" fill-rule="nonzero"/><path fill="#c79146" d="M 404.082031 124.804688 L 525.390625 124.804688 L 525.390625 107.507812 L 404.082031 107.507812 Z M 404.082031 124.804688 " fill-opacity="1" fill-rule="nonzero"/><path fill="#c28e3f" d="M 543.992188 38.332031 L 658.21875 38.332031 L 658.21875 21.027344 L 543.992188 21.027344 Z M 543.992188 38.332031 " fill-opacity="1" fill-rule="nonzero"/><path fill="#c79146" d="M 1072.324219 107.507812 L 1186.570312 107.507812 L 1186.570312 90.214844 L 1072.324219 90.214844 Z M 1072.324219 107.507812 " fill-opacity="1" fill-rule="nonzero"/><g clip-path="url(#fc9d87f2c0)"><path fill="#a86c36" d="M 1217.96875 3.734375 L 1191.019531 3.734375 L 1191.019531 -13.5625 L 1217.96875 -13.5625 L 1217.96875 3.734375 M 398.703125 3.734375 L 371.949219 3.734375 L 371.949219 -13.5625 L 398.703125 -13.5625 L 398.703125 3.734375 " fill-opacity="1" fill-rule="nonzero"/></g><g clip-path="url(#c24a872993)"><path fill="#ae703f" d="M 1217.96875 21.027344 L 1191.019531 21.027344 L 1191.019531 3.734375 L 1217.96875 3.734375 L 1217.96875 21.027344 M 398.703125 21.027344 L 371.949219 21.027344 L 371.949219 3.734375 L 398.703125 3.734375 L 398.703125 21.027344 " fill-opacity="1" fill-rule="nonzero"/></g><g clip-path="url(#9290af7378)"><path fill="#a86c37" d="M 1217.96875 38.332031 L 1191.019531 38.332031 L 1191.019531 21.027344 L 1217.96875 21.027344 L 1217.96875 38.332031 M 398.703125 38.332031 L 371.949219 38.332031 L 371.949219 21.027344 L 398.703125 21.027344 L 398.703125 38.332031 " fill-opacity="1" fill-rule="nonzero"/></g><g clip-path="url(#37b087791e)"><path fill="#ae703f" d="M 1217.96875 55.625 L 1191.019531 55.625 L 1191.019531 38.332031 L 1217.96875 38.332031 L 1217.96875 55.625 M 398.703125 55.625 L 371.949219 55.625 L 371.949219 38.332031 L 398.703125 38.332031 L 398.703125 55.625 " fill-opacity="1" fill-rule="nonzero"/></g><g clip-path="url(#49f98ccd47)"><path fill="#ae703f" d="M 1217.96875 72.921875 L 1191.019531 72.921875 L 1191.019531 55.625 L 1217.96875 55.625 L 1217.96875 72.921875 M 398.703125 72.921875 L 371.949219 72.921875 L 371.949219 55.625 L 398.703125 55.625 L 398.703125 72.921875 " fill-opacity="1" fill-rule="nonzero"/></g><g clip-path="url(#1999bb8196)"><path fill="#ae703f" d="M 1217.96875 90.214844 L 1191.019531 90.214844 L 1191.019531 72.921875 L 1217.96875 72.921875 L 1217.96875 90.214844 M 398.703125 90.214844 L 371.949219 90.214844 L 371.949219 72.921875 L 398.703125 72.921875 L 398.703125 90.214844 " fill-opacity="1" fill-rule="nonzero"/></g><g clip-path="url(#ec6719454a)"><path fill="#ae703f" d="M 1217.96875 107.507812 L 1191.019531 107.507812 L 1191.019531 90.214844 L 1217.96875 90.214844 L 1217.96875 107.507812 M 398.703125 107.507812 L 371.949219 107.507812 L 371.949219 90.214844 L 398.703125 90.214844 L 398.703125 107.507812 " fill-opacity="1" fill-rule="nonzero"/></g><g clip-path="url(#934fc4b978)"><path fill="#ae703f" d="M 1217.96875 124.804688 L 1191.019531 124.804688 L 1191.019531 107.507812 L 1217.96875 107.507812 L 1217.96875 124.804688 M 398.703125 124.804688 L 371.949219 124.804688 L 371.949219 107.507812 L 398.703125 107.507812 L 398.703125 124.804688 " fill-opacity="1" fill-rule="nonzero"/></g><g clip-path="url(#0195434905)"><path fill="#ae703f" d="M 1217.96875 142.097656 L 1191.019531 142.097656 L 1191.019531 124.804688 L 1217.96875 124.804688 L 1217.96875 142.097656 M 398.703125 142.097656 L 371.949219 142.097656 L 371.949219 124.804688 L 398.703125 124.804688 L 398.703125 142.097656 " fill-opacity="1" fill-rule="nonzero"/></g><g clip-path="url(#a574333010)"><path fill="#ae703f" d="M 1217.96875 159.394531 L 1191.019531 159.394531 L 1191.019531 142.097656 L 1217.96875 142.097656 L 1217.96875 159.394531 M 398.703125 159.394531 L 371.949219 159.394531 L 371.949219 142.097656 L 398.703125 142.097656 L 398.703125 159.394531 " fill-opacity="1" fill-rule="nonzero"/></g><g clip-path="url(#cd995a4458)"><path fill="#a86c37" d="M 1217.96875 176.6875 L 1191.019531 176.6875 L 1191.019531 159.394531 L 1217.96875 159.394531 L 1217.96875 176.6875 M 398.703125 176.6875 L 371.949219 176.6875 L 371.949219 159.394531 L 398.703125 159.394531 L 398.703125 176.6875 " fill-opacity="1" fill-rule="nonzero"/></g><g clip-path="url(#a92ac8e3a9)"><path fill="#ae703f" d="M 1217.96875 193.980469 L 371.949219 193.980469 L 371.949219 176.6875 L 398.703125 176.6875 L 398.703125 193.234375 L 1191.019531 193.234375 L 1191.019531 176.6875 L 1217.96875 176.6875 L 1217.96875 193.980469 " fill-opacity="1" fill-rule="nonzero"/></g><g clip-path="url(#fc411509af)"><path fill="#a86c36" d="M 371.949219 211.277344 L 1217.96875 211.277344 L 1217.96875 193.980469 L 371.949219 193.980469 Z M 371.949219 211.277344 " fill-opacity="1" fill-rule="nonzero"/></g><path fill="#ffffff" d="M 401.34375 134.316406 C 453.632812 133.375 502.640625 112.570312 539.730469 75.476562 C 577.691406 37.515625 598.585938 -12.96875 598.585938 -66.660156 L 598.585938 -67.699219 C 598.585938 -68.050781 598.578125 -68.410156 598.578125 -68.769531 C 597.449219 -177.394531 509.742188 -265.652344 401.34375 -267.636719 L 401.34375 -316.691406 L 791.261719 -316.691406 L 791.261719 -172.59375 C 733.871094 -170.621094 687.800781 -123.34375 687.800781 -65.472656 C 687.800781 -7.617188 733.871094 39.671875 791.261719 41.644531 L 791.261719 185.742188 L 401.34375 185.742188 Z M 539.75 -130.171875 L 539.75 -130.28125 L 401.34375 -130.28125 L 401.34375 -260.183594 C 494.003906 -258.414062 570.921875 -191.210938 587.714844 -102.910156 C 577.089844 -118.464844 559.652344 -128.988281 539.75 -130.171875 Z M 529.8125 -5.4375 C 531.871094 -5.246094 533.941406 -5.109375 536.019531 -5.109375 C 557.847656 -5.109375 577.089844 -16.351562 588.289062 -33.34375 C 581.558594 5.683594 563.023438 41.625 534.453125 70.199219 C 498.785156 105.878906 451.632812 125.902344 401.34375 126.84375 L 401.34375 -5.4375 Z M 506.46875 -122.828125 C 504.371094 -121.699219 502.3125 -120.488281 500.378906 -119.144531 C 499.328125 -118.417969 498.765625 -117.25 498.765625 -116.074219 C 498.765625 -115.347656 498.988281 -114.597656 499.4375 -113.957031 C 500.609375 -112.257812 502.933594 -111.847656 504.632812 -113.015625 C 507.011719 -114.667969 509.558594 -116.144531 512.160156 -117.40625 C 514.027344 -118.300781 514.804688 -120.535156 513.917969 -122.382812 L 513.648438 -122.828125 L 515.765625 -122.828125 C 516.445312 -121 518.417969 -119.980469 520.3125 -120.546875 C 523.078125 -121.371094 525.945312 -121.984375 528.839844 -122.351562 C 529.335938 -122.421875 529.792969 -122.585938 530.210938 -122.828125 L 532.289062 -122.828125 L 532.289062 -12.910156 L 530.199219 -12.910156 C 529.226562 -13.007812 528.265625 -13.105469 527.316406 -13.261719 C 526.527344 -13.367188 525.761719 -13.242188 525.089844 -12.910156 L 521.203125 -12.910156 C 520.84375 -14.007812 520 -14.914062 518.835938 -15.3125 C 516.074219 -16.214844 513.367188 -17.339844 510.78125 -18.671875 C 508.964844 -19.613281 506.703125 -18.894531 505.75 -17.070312 C 505.476562 -16.523438 505.34375 -15.933594 505.34375 -15.359375 C 505.34375 -14.445312 505.691406 -13.601562 506.292969 -12.910156 L 401.34375 -12.910156 L 401.34375 -122.828125 Z M 591.117188 -67.339844 C 590.929688 -38.355469 568.277344 -14.628906 539.75 -12.707031 L 539.75 -122.683594 C 568.054688 -120.777344 590.550781 -97.402344 591.097656 -68.769531 C 591.105469 -68.28125 591.117188 -67.816406 591.117188 -67.339844 Z M 798.722656 -39.628906 C 811.378906 -41.445312 821.125 -52.308594 821.125 -65.472656 C 821.125 -78.640625 811.378906 -89.492188 798.722656 -91.320312 L 798.722656 -165.132812 C 851.992188 -163.148438 894.726562 -119.222656 894.726562 -65.472656 C 894.726562 -11.726562 851.992188 32.210938 798.722656 34.171875 Z M 791.261719 -91.320312 C 778.59375 -89.492188 768.863281 -78.640625 768.863281 -65.472656 C 768.863281 -52.308594 778.59375 -41.445312 791.261719 -39.628906 L 791.261719 34.171875 C 737.992188 32.210938 695.257812 -11.726562 695.257812 -65.472656 C 695.257812 -119.222656 737.992188 -163.148438 791.261719 -165.132812 Z M 1188.640625 -267.636719 C 1079.535156 -265.644531 991.398438 -176.257812 991.398438 -66.660156 C 991.398438 -66.4375 991.410156 -66.203125 991.410156 -65.980469 L 991.398438 -65.628906 C 991.398438 -65.28125 991.417969 -64.941406 991.417969 -64.589844 C 992.527344 44.0625 1080.222656 132.324219 1188.640625 134.316406 L 1188.640625 185.742188 L 798.722656 185.742188 L 798.722656 41.644531 C 856.101562 39.671875 902.1875 -7.617188 902.1875 -65.472656 C 902.1875 -123.34375 856.101562 -170.621094 798.722656 -172.59375 L 798.722656 -316.691406 L 1188.640625 -316.691406 Z M 1050.238281 -3.164062 L 1050.238281 -3.050781 L 1188.640625 -3.050781 L 1188.640625 126.84375 C 1095.980469 125.074219 1019.0625 57.871094 1002.277344 -30.398438 C 1012.894531 -14.863281 1030.324219 -4.351562 1050.238281 -3.164062 Z M 1059.707031 -127.871094 C 1059.453125 -127.949219 1059.191406 -128.007812 1058.921875 -128.027344 C 1057.289062 -128.152344 1055.628906 -128.21875 1053.976562 -128.21875 C 1032.167969 -128.21875 1012.964844 -117.007812 1001.753906 -100.054688 C 1017.414062 -189.742188 1094.980469 -258.394531 1188.640625 -260.183594 L 1188.640625 -127.871094 Z M 1080.242188 -10.5 C 1080.40625 -11.230469 1080.339844 -11.996094 1080.039062 -12.726562 C 1079.253906 -14.628906 1077.074219 -15.515625 1075.152344 -14.726562 C 1072.511719 -13.628906 1069.75 -12.726562 1066.964844 -12.046875 C 1066.011719 -11.824219 1065.253906 -11.25 1064.757812 -10.5 L 1059.777344 -10.5 C 1059.320312 -10.648438 1058.84375 -10.726562 1058.335938 -10.675781 L 1057.707031 -10.648438 L 1057.707031 -120.410156 L 1064.953125 -120.410156 C 1065.4375 -119.84375 1066.097656 -119.425781 1066.875 -119.234375 C 1069.675781 -118.554688 1072.441406 -117.667969 1075.09375 -116.5625 C 1076.988281 -115.773438 1079.183594 -116.667969 1079.972656 -118.574219 C 1080.222656 -119.175781 1080.28125 -119.804688 1080.222656 -120.410156 L 1188.640625 -120.410156 L 1188.640625 -10.5 Z M 998.867188 -65.96875 C 999.035156 -94.960938 1021.695312 -118.699219 1050.238281 -120.621094 L 1050.238281 -10.648438 C 1021.921875 -12.550781 999.414062 -35.929688 998.878906 -64.601562 C 998.878906 -65.066406 998.867188 -65.511719 998.867188 -65.96875 Z M 1196.109375 -324.152344 L 393.882812 -324.152344 L 393.882812 193.203125 L 1196.109375 193.203125 L 1196.109375 -324.152344 " fill-opacity="1" fill-rule="nonzero"/><g clip-path="url(#ca86f718fd)"><g clip-path="url(#b19c009866)"><path fill="#d9d9d9" d="M 465.125 257.335938 L 1104.425781 257.335938 L 1104.425781 337.996094 L 465.125 337.996094 Z M 465.125 257.335938 " fill-opacity="1" fill-rule="nonzero"/></g></g><g clip-path="url(#2434819757)"><g clip-path="url(#14b2a6646e)"><path fill="#d9d9d9" d="M 536.242188 374.789062 L 1033.660156 374.789062 L 1033.660156 577.238281 L 536.242188 577.238281 Z M 536.242188 374.789062 " fill-opacity="1" fill-rule="nonzero"/></g></g><g clip-path="url(#f1a25103ca)"><g clip-path="url(#5cd8918e08)"><path fill="#d9d9d9" d="M 116.699219 383.007812 L 379.75 383.007812 L 379.75 560.222656 L 116.699219 560.222656 Z M 116.699219 383.007812 " fill-opacity="1" fill-rule="nonzero"/></g></g><g clip-path="url(#f2f5b9da5a)"><g clip-path="url(#da492d7c5d)"><path fill="#d9d9d9" d="M 1134.121094 257.335938 L 1424.835938 257.335938 L 1424.835938 336.507812 L 1134.121094 336.507812 Z M 1134.121094 257.335938 " fill-opacity="1" fill-rule="nonzero"/></g></g><g clip-path="url(#9c14883d53)"><g clip-path="url(#4e5308d901)"><path fill="#d9d9d9" d="M 116.699219 257.335938 L 435.558594 257.335938 L 435.558594 336.507812 L 116.699219 336.507812 Z M 116.699219 257.335938 " fill-opacity="1" fill-rule="nonzero"/></g></g><g clip-path="url(#6025b87f0e)"><g clip-path="url(#ad7bf860eb)"><path fill="#38b6ff" d="M 1162.21875 387.40625 L 1425.273438 387.40625 L 1425.273438 564.621094 L 1162.21875 564.621094 Z M 1162.21875 387.40625 " fill-opacity="1" fill-rule="nonzero"/></g></g><g fill="#000000" fill-opacity="1"><g transform="translate(1195.945496, 483.406523)"><g><path d="M 7.21875 -8.015625 L 12.875 -8.015625 L 12.875 -0.609375 C 11.957031 -0.316406 11.09375 -0.109375 10.28125 0.015625 C 9.476562 0.140625 8.648438 0.203125 7.796875 0.203125 C 5.648438 0.203125 4.003906 -0.429688 2.859375 -1.703125 C 1.722656 -2.972656 1.15625 -4.789062 1.15625 -7.15625 C 1.15625 -9.457031 1.816406 -11.253906 3.140625 -12.546875 C 4.460938 -13.835938 6.289062 -14.484375 8.625 -14.484375 C 10.09375 -14.484375 11.503906 -14.191406 12.859375 -13.609375 L 11.859375 -11.1875 C 10.816406 -11.707031 9.734375 -11.96875 8.609375 -11.96875 C 7.296875 -11.96875 6.242188 -11.523438 5.453125 -10.640625 C 4.671875 -9.765625 4.28125 -8.582031 4.28125 -7.09375 C 4.28125 -5.550781 4.597656 -4.367188 5.234375 -3.546875 C 5.867188 -2.734375 6.789062 -2.328125 8 -2.328125 C 8.632812 -2.328125 9.273438 -2.390625 9.921875 -2.515625 L 9.921875 -5.5 L 7.21875 -5.5 Z M 7.21875 -8.015625 "/></g></g></g><g fill="#000000" fill-opacity="1"><g transform="translate(1210.42226, 483.406523)"><g><path d="M 4.828125 -7.9375 L 5.796875 -7.9375 C 6.753906 -7.9375 7.460938 -8.09375 7.921875 -8.40625 C 8.378906 -8.726562 8.609375 -9.234375 8.609375 -9.921875 C 8.609375 -10.597656 8.375 -11.078125 7.90625 -11.359375 C 7.4375 -11.648438 6.71875 -11.796875 5.75 -11.796875 L 4.828125 -11.796875 Z M 4.828125 -5.484375 L 4.828125 0 L 1.796875 0 L 1.796875 -14.28125 L 5.953125 -14.28125 C 7.898438 -14.28125 9.335938 -13.925781 10.265625 -13.21875 C 11.191406 -12.507812 11.65625 -11.4375 11.65625 -10 C 11.65625 -9.15625 11.425781 -8.40625 10.96875 -7.75 C 10.507812 -7.101562 9.851562 -6.59375 9 -6.21875 C 11.15625 -3.007812 12.554688 -0.9375 13.203125 0 L 9.84375 0 L 6.4375 -5.484375 Z M 4.828125 -5.484375 "/></g></g></g><g fill="#000000" fill-opacity="1"><g transform="translate(1223.620227, 483.406523)"><g><path d="M 10.53125 0 L 9.5 -3.40625 L 4.296875 -3.40625 L 3.265625 0 L 0 0 L 5.046875 -14.34375 L 8.734375 -14.34375 L 13.796875 0 Z M 8.78125 -5.9375 C 7.820312 -9.019531 7.28125 -10.757812 7.15625 -11.15625 C 7.039062 -11.5625 6.957031 -11.882812 6.90625 -12.125 C 6.6875 -11.289062 6.070312 -9.226562 5.0625 -5.9375 Z M 8.78125 -5.9375 "/></g></g></g><g fill="#000000" fill-opacity="1"><g transform="translate(1237.413665, 483.406523)"><g><path d="M 13.640625 -7.28125 C 13.640625 -4.925781 12.96875 -3.125 11.625 -1.875 C 10.289062 -0.625 8.363281 0 5.84375 0 L 1.796875 0 L 1.796875 -14.28125 L 6.28125 -14.28125 C 8.613281 -14.28125 10.421875 -13.664062 11.703125 -12.4375 C 12.992188 -11.207031 13.640625 -9.488281 13.640625 -7.28125 Z M 10.5 -7.203125 C 10.5 -10.265625 9.144531 -11.796875 6.4375 -11.796875 L 4.828125 -11.796875 L 4.828125 -2.5 L 6.125 -2.5 C 9.039062 -2.5 10.5 -4.066406 10.5 -7.203125 Z M 10.5 -7.203125 "/></g></g></g><g fill="#000000" fill-opacity="1"><g transform="translate(1252.212569, 483.406523)"><g><path d="M 10.53125 0 L 9.5 -3.40625 L 4.296875 -3.40625 L 3.265625 0 L 0 0 L 5.046875 -14.34375 L 8.734375 -14.34375 L 13.796875 0 Z M 8.78125 -5.9375 C 7.820312 -9.019531 7.28125 -10.757812 7.15625 -11.15625 C 7.039062 -11.5625 6.957031 -11.882812 6.90625 -12.125 C 6.6875 -11.289062 6.070312 -9.226562 5.0625 -5.9375 Z M 8.78125 -5.9375 "/></g></g></g><g fill="#000000" fill-opacity="1"><g transform="translate(1266.006007, 483.406523)"><g><path d="M 10.21875 -3.96875 C 10.21875 -2.675781 9.753906 -1.65625 8.828125 -0.90625 C 7.898438 -0.164062 6.613281 0.203125 4.96875 0.203125 C 3.4375 0.203125 2.085938 -0.0859375 0.921875 -0.671875 L 0.921875 -3.484375 C 1.878906 -3.046875 2.691406 -2.738281 3.359375 -2.5625 C 4.023438 -2.394531 4.640625 -2.3125 5.203125 -2.3125 C 5.859375 -2.3125 6.363281 -2.4375 6.71875 -2.6875 C 7.070312 -2.9375 7.25 -3.3125 7.25 -3.8125 C 7.25 -4.09375 7.171875 -4.34375 7.015625 -4.5625 C 6.859375 -4.78125 6.628906 -4.988281 6.328125 -5.1875 C 6.023438 -5.394531 5.410156 -5.71875 4.484375 -6.15625 C 3.609375 -6.570312 2.953125 -6.96875 2.515625 -7.34375 C 2.078125 -7.71875 1.726562 -8.15625 1.46875 -8.65625 C 1.207031 -9.164062 1.078125 -9.753906 1.078125 -10.421875 C 1.078125 -11.679688 1.503906 -12.671875 2.359375 -13.390625 C 3.222656 -14.117188 4.410156 -14.484375 5.921875 -14.484375 C 6.660156 -14.484375 7.363281 -14.394531 8.03125 -14.21875 C 8.707031 -14.039062 9.414062 -13.796875 10.15625 -13.484375 L 9.1875 -11.125 C 8.414062 -11.4375 7.78125 -11.65625 7.28125 -11.78125 C 6.789062 -11.90625 6.304688 -11.96875 5.828125 -11.96875 C 5.253906 -11.96875 4.8125 -11.832031 4.5 -11.5625 C 4.195312 -11.289062 4.046875 -10.941406 4.046875 -10.515625 C 4.046875 -10.253906 4.109375 -10.019531 4.234375 -9.8125 C 4.359375 -9.613281 4.550781 -9.421875 4.8125 -9.234375 C 5.082031 -9.054688 5.722656 -8.726562 6.734375 -8.25 C 8.066406 -7.601562 8.976562 -6.957031 9.46875 -6.3125 C 9.96875 -5.675781 10.21875 -4.894531 10.21875 -3.96875 Z M 10.21875 -3.96875 "/></g></g></g><g fill="#000000" fill-opacity="1"><g transform="translate(1277.017328, 483.406523)"><g/></g></g><g fill="#000000" fill-opacity="1"><g transform="translate(1282.210611, 483.406523)"><g><path d="M 7.3125 0 L 4.28125 0 L 4.28125 -11.765625 L 0.40625 -11.765625 L 0.40625 -14.28125 L 11.1875 -14.28125 L 11.1875 -11.765625 L 7.3125 -11.765625 Z M 7.3125 0 "/></g></g></g><g fill="#000000" fill-opacity="1"><g transform="translate(1293.788118, 483.406523)"><g><path d="M 4.828125 -7.9375 L 5.796875 -7.9375 C 6.753906 -7.9375 7.460938 -8.09375 7.921875 -8.40625 C 8.378906 -8.726562 8.609375 -9.234375 8.609375 -9.921875 C 8.609375 -10.597656 8.375 -11.078125 7.90625 -11.359375 C 7.4375 -11.648438 6.71875 -11.796875 5.75 -11.796875 L 4.828125 -11.796875 Z M 4.828125 -5.484375 L 4.828125 0 L 1.796875 0 L 1.796875 -14.28125 L 5.953125 -14.28125 C 7.898438 -14.28125 9.335938 -13.925781 10.265625 -13.21875 C 11.191406 -12.507812 11.65625 -11.4375 11.65625 -10 C 11.65625 -9.15625 11.425781 -8.40625 10.96875 -7.75 C 10.507812 -7.101562 9.851562 -6.59375 9 -6.21875 C 11.15625 -3.007812 12.554688 -0.9375 13.203125 0 L 9.84375 0 L 6.4375 -5.484375 Z M 4.828125 -5.484375 "/></g></g></g><g fill="#000000" fill-opacity="1"><g transform="translate(1306.986085, 483.406523)"><g><path d="M 1.796875 0 L 1.796875 -14.28125 L 4.828125 -14.28125 L 4.828125 0 Z M 1.796875 0 "/></g></g></g><g fill="#000000" fill-opacity="1"><g transform="translate(1313.604592, 483.406523)"><g><path d="M 1.796875 -14.28125 L 6.234375 -14.28125 C 8.265625 -14.28125 9.734375 -13.988281 10.640625 -13.40625 C 11.554688 -12.832031 12.015625 -11.921875 12.015625 -10.671875 C 12.015625 -9.816406 11.816406 -9.113281 11.421875 -8.5625 C 11.023438 -8.019531 10.492188 -7.691406 9.828125 -7.578125 L 9.828125 -7.484375 C 10.734375 -7.273438 11.382812 -6.894531 11.78125 -6.34375 C 12.1875 -5.789062 12.390625 -5.054688 12.390625 -4.140625 C 12.390625 -2.835938 11.914062 -1.820312 10.96875 -1.09375 C 10.03125 -0.363281 8.753906 0 7.140625 0 L 1.796875 0 Z M 4.828125 -8.625 L 6.578125 -8.625 C 7.398438 -8.625 7.992188 -8.75 8.359375 -9 C 8.734375 -9.257812 8.921875 -9.679688 8.921875 -10.265625 C 8.921875 -10.804688 8.71875 -11.195312 8.3125 -11.4375 C 7.914062 -11.675781 7.285156 -11.796875 6.421875 -11.796875 L 4.828125 -11.796875 Z M 4.828125 -6.21875 L 4.828125 -2.5 L 6.796875 -2.5 C 7.628906 -2.5 8.242188 -2.65625 8.640625 -2.96875 C 9.035156 -3.289062 9.234375 -3.78125 9.234375 -4.4375 C 9.234375 -5.625 8.390625 -6.21875 6.703125 -6.21875 Z M 4.828125 -6.21875 "/></g></g></g><g fill="#000000" fill-opacity="1"><g transform="translate(1327.036842, 483.406523)"><g><path d="M 13.421875 -14.28125 L 13.421875 -5.046875 C 13.421875 -3.984375 13.179688 -3.054688 12.703125 -2.265625 C 12.234375 -1.472656 11.550781 -0.863281 10.65625 -0.4375 C 9.769531 -0.0078125 8.71875 0.203125 7.5 0.203125 C 5.664062 0.203125 4.238281 -0.265625 3.21875 -1.203125 C 2.207031 -2.148438 1.703125 -3.441406 1.703125 -5.078125 L 1.703125 -14.28125 L 4.71875 -14.28125 L 4.71875 -5.53125 C 4.71875 -4.4375 4.9375 -3.628906 5.375 -3.109375 C 5.820312 -2.597656 6.554688 -2.34375 7.578125 -2.34375 C 8.566406 -2.34375 9.285156 -2.597656 9.734375 -3.109375 C 10.179688 -3.628906 10.40625 -4.445312 10.40625 -5.5625 L 10.40625 -14.28125 Z M 13.421875 -14.28125 "/></g></g></g><g fill="#000000" fill-opacity="1"><g transform="translate(1342.148123, 483.406523)"><g><path d="M 14.46875 0 L 10.609375 0 L 4.40625 -10.796875 L 4.3125 -10.796875 C 4.4375 -8.890625 4.5 -7.53125 4.5 -6.71875 L 4.5 0 L 1.796875 0 L 1.796875 -14.28125 L 5.609375 -14.28125 L 11.8125 -3.578125 L 11.890625 -3.578125 C 11.785156 -5.441406 11.734375 -6.753906 11.734375 -7.515625 L 11.734375 -14.28125 L 14.46875 -14.28125 Z M 14.46875 0 "/></g></g></g><g fill="#000000" fill-opacity="1"><g transform="translate(1358.401537, 483.406523)"><g><path d="M 10.53125 0 L 9.5 -3.40625 L 4.296875 -3.40625 L 3.265625 0 L 0 0 L 5.046875 -14.34375 L 8.734375 -14.34375 L 13.796875 0 Z M 8.78125 -5.9375 C 7.820312 -9.019531 7.28125 -10.757812 7.15625 -11.15625 C 7.039062 -11.5625 6.957031 -11.882812 6.90625 -12.125 C 6.6875 -11.289062 6.070312 -9.226562 5.0625 -5.9375 Z M 8.78125 -5.9375 "/></g></g></g><g fill="#000000" fill-opacity="1"><g transform="translate(1372.194975, 483.406523)"><g/></g></g><g fill="#000000" fill-opacity="1"><g transform="translate(1377.388257, 483.406523)"><g><path d="M 10.53125 0 L 9.5 -3.40625 L 4.296875 -3.40625 L 3.265625 0 L 0 0 L 5.046875 -14.34375 L 8.734375 -14.34375 L 13.796875 0 Z M 8.78125 -5.9375 C 7.820312 -9.019531 7.28125 -10.757812 7.15625 -11.15625 C 7.039062 -11.5625 6.957031 -11.882812 6.90625 -12.125 C 6.6875 -11.289062 6.070312 -9.226562 5.0625 -5.9375 Z M 8.78125 -5.9375 "/></g></g></g><g clip-path="url(#2c85f51e90)"><g clip-path="url(#cd1269779b)"><path fill="#d9d9d9" d="M 137.234375 -2.761719 L 319.296875 -2.761719 L 319.296875 174.453125 L 137.234375 174.453125 Z M 137.234375 -2.761719 " fill-opacity="1" fill-rule="nonzero"/></g></g><g clip-path="url(#98fa8435ed)"><g clip-path="url(#cc4ca0eab4)"><path fill="#d9d9d9" d="M 1236.902344 -28.425781 L 1418.859375 -28.425781 L 1418.859375 174.140625 L 1236.902344 174.140625 Z M 1236.902344 -28.425781 " fill-opacity="1" fill-rule="nonzero"/></g></g><g clip-path="url(#ed6f13c7b6)"><g clip-path="url(#67ce6a0598)"><path fill="#d9d9d9" d="M 362.027344 174.453125 L 1207.617188 174.453125 L 1207.617188 229.421875 L 362.027344 229.421875 Z M 362.027344 174.453125 " fill-opacity="1" fill-rule="nonzero"/></g></g></svg>