<svg xmlns="http://www.w3.org/2000/svg" xmlns:xlink="http://www.w3.org/1999/xlink" width="2000" zoomAndPan="magnify" viewBox="0 0 1500 599.999999" height="800" preserveAspectRatio="xMidYMid meet" version="1.0"><defs><g/><clipPath id="5ead8fc1f0"><path d="M 327.585938 0 L 1163.085938 0 L 1163.085938 8 L 327.585938 8 Z M 327.585938 0 " clip-rule="nonzero"/></clipPath><clipPath id="40ecdcd0a3"><path d="M 327.585938 7 L 1163.085938 7 L 1163.085938 25 L 327.585938 25 Z M 327.585938 7 " clip-rule="nonzero"/></clipPath><clipPath id="cbabab21ac"><path d="M 327.585938 24 L 1163.085938 24 L 1163.085938 42 L 327.585938 42 Z M 327.585938 24 " clip-rule="nonzero"/></clipPath><clipPath id="0d5ce98922"><path d="M 327.585938 41 L 1163.085938 41 L 1163.085938 59 L 327.585938 59 Z M 327.585938 41 " clip-rule="nonzero"/></clipPath><clipPath id="443f1dce2c"><path d="M 327.585938 58 L 1163.085938 58 L 1163.085938 76 L 327.585938 76 Z M 327.585938 58 " clip-rule="nonzero"/></clipPath><clipPath id="181e28a2b1"><path d="M 327.585938 75 L 1163.085938 75 L 1163.085938 93 L 327.585938 93 Z M 327.585938 75 " clip-rule="nonzero"/></clipPath><clipPath id="db2986e8d8"><path d="M 327.585938 92 L 1163.085938 92 L 1163.085938 110 L 327.585938 110 Z M 327.585938 92 " clip-rule="nonzero"/></clipPath><clipPath id="073b911671"><path d="M 327.585938 109 L 1163.085938 109 L 1163.085938 127 L 327.585938 127 Z M 327.585938 109 " clip-rule="nonzero"/></clipPath><clipPath id="d0bcda1089"><path d="M 327.585938 126 L 1163.085938 126 L 1163.085938 144 L 327.585938 144 Z M 327.585938 126 " clip-rule="nonzero"/></clipPath><clipPath id="e0d2ccfc5d"><path d="M 327.585938 143 L 1163.085938 143 L 1163.085938 162 L 327.585938 162 Z M 327.585938 143 " clip-rule="nonzero"/></clipPath><clipPath id="a3fafa8dbb"><path d="M 327.585938 161 L 1163.085938 161 L 1163.085938 178.355469 L 327.585938 178.355469 Z M 327.585938 161 " clip-rule="nonzero"/></clipPath><clipPath id="9336babe3c"><path d="M 327.585938 0 L 1163.085938 0 L 1163.085938 8 L 327.585938 8 Z M 327.585938 0 " clip-rule="nonzero"/></clipPath><clipPath id="5cb5c2d831"><path d="M 327.585938 7 L 1163.085938 7 L 1163.085938 25 L 327.585938 25 Z M 327.585938 7 " clip-rule="nonzero"/></clipPath><clipPath id="348ce9695d"><path d="M 327.585938 24 L 1163.085938 24 L 1163.085938 42 L 327.585938 42 Z M 327.585938 24 " clip-rule="nonzero"/></clipPath><clipPath id="6f50dd1334"><path d="M 327.585938 41 L 1163.085938 41 L 1163.085938 59 L 327.585938 59 Z M 327.585938 41 " clip-rule="nonzero"/></clipPath><clipPath id="3283127874"><path d="M 327.585938 58 L 1163.085938 58 L 1163.085938 76 L 327.585938 76 Z M 327.585938 58 " clip-rule="nonzero"/></clipPath><clipPath id="c85557ff0e"><path d="M 327.585938 75 L 1163.085938 75 L 1163.085938 93 L 327.585938 93 Z M 327.585938 75 " clip-rule="nonzero"/></clipPath><clipPath id="4a44c82a13"><path d="M 327.585938 92 L 1163.085938 92 L 1163.085938 110 L 327.585938 110 Z M 327.585938 92 " clip-rule="nonzero"/></clipPath><clipPath id="7e52e5c4be"><path d="M 327.585938 109 L 1163.085938 109 L 1163.085938 127 L 327.585938 127 Z M 327.585938 109 " clip-rule="nonzero"/></clipPath><clipPath id="6f90a7a65b"><path d="M 327.585938 126 L 1163.085938 126 L 1163.085938 144 L 327.585938 144 Z M 327.585938 126 " clip-rule="nonzero"/></clipPath><clipPath id="794f9a14f0"><path d="M 327.585938 143 L 1163.085938 143 L 1163.085938 162 L 327.585938 162 Z M 327.585938 143 " clip-rule="nonzero"/></clipPath><clipPath id="75c6d45fb8"><path d="M 327.585938 161 L 1163.085938 161 L 1163.085938 178.355469 L 327.585938 178.355469 Z M 327.585938 161 " clip-rule="nonzero"/></clipPath><clipPath id="ce14241271"><path d="M 434.566406 251.402344 L 1066.734375 251.402344 L 1066.734375 331.125 L 434.566406 331.125 Z M 434.566406 251.402344 " clip-rule="nonzero"/></clipPath><clipPath id="1565eea7d5"><path d="M 440.675781 251.402344 L 1060.449219 251.402344 C 1063.824219 251.402344 1066.5625 254.140625 1066.5625 257.515625 L 1066.5625 325.015625 C 1066.5625 328.390625 1063.824219 331.125 1060.449219 331.125 L 440.675781 331.125 C 437.300781 331.125 434.566406 328.390625 434.566406 325.015625 L 434.566406 257.515625 C 434.566406 254.140625 437.300781 251.402344 440.675781 251.402344 Z M 440.675781 251.402344 " clip-rule="nonzero"/></clipPath><clipPath id="cdcf98c77a"><path d="M 499.773438 379.960938 L 991.394531 379.960938 L 991.394531 580.046875 L 499.773438 580.046875 Z M 499.773438 379.960938 " clip-rule="nonzero"/></clipPath><clipPath id="1291562710"><path d="M 505.882812 379.960938 L 985.078125 379.960938 C 988.453125 379.960938 991.1875 382.695312 991.1875 386.070312 L 991.1875 573.9375 C 991.1875 577.3125 988.453125 580.046875 985.078125 580.046875 L 505.882812 580.046875 C 502.507812 580.046875 499.773438 577.3125 499.773438 573.9375 L 499.773438 386.070312 C 499.773438 382.695312 502.507812 379.960938 505.882812 379.960938 Z M 505.882812 379.960938 " clip-rule="nonzero"/></clipPath><clipPath id="6f9497167c"><path d="M 1123.542969 379.960938 L 1383.53125 379.960938 L 1383.53125 555.109375 L 1123.542969 555.109375 Z M 1123.542969 379.960938 " clip-rule="nonzero"/></clipPath><clipPath id="4317832b1f"><path d="M 1129.652344 379.960938 L 1377.078125 379.960938 C 1380.453125 379.960938 1383.191406 382.695312 1383.191406 386.070312 L 1383.191406 549 C 1383.191406 552.375 1380.453125 555.109375 1377.078125 555.109375 L 1129.652344 555.109375 C 1126.277344 555.109375 1123.542969 552.375 1123.542969 549 L 1123.542969 386.070312 C 1123.542969 382.695312 1126.277344 379.960938 1129.652344 379.960938 Z M 1129.652344 379.960938 " clip-rule="nonzero"/></clipPath><clipPath id="ba003dfb56"><path d="M 1095.769531 251.402344 L 1383.40625 251.402344 L 1383.40625 329.65625 L 1095.769531 329.65625 Z M 1095.769531 251.402344 " clip-rule="nonzero"/></clipPath><clipPath id="0596092180"><path d="M 1101.882812 251.402344 L 1377.078125 251.402344 C 1380.453125 251.402344 1383.191406 254.140625 1383.191406 257.515625 L 1383.191406 323.542969 C 1383.191406 326.917969 1380.453125 329.65625 1377.078125 329.65625 L 1101.882812 329.65625 C 1098.507812 329.65625 1095.769531 326.917969 1095.769531 323.542969 L 1095.769531 257.515625 C 1095.769531 254.140625 1098.507812 251.402344 1101.882812 251.402344 Z M 1101.882812 251.402344 " clip-rule="nonzero"/></clipPath><clipPath id="f78ae89378"><path d="M 90.195312 379.960938 L 350 379.960938 L 350 555.109375 L 90.195312 555.109375 Z M 90.195312 379.960938 " clip-rule="nonzero"/></clipPath><clipPath id="62ac631a3e"><path d="M 96.304688 379.960938 L 343.734375 379.960938 C 347.109375 379.960938 349.84375 382.695312 349.84375 386.070312 L 349.84375 549 C 349.84375 552.375 347.109375 555.109375 343.734375 555.109375 L 96.304688 555.109375 C 92.929688 555.109375 90.195312 552.375 90.195312 549 L 90.195312 386.070312 C 90.195312 382.695312 92.929688 379.960938 96.304688 379.960938 Z M 96.304688 379.960938 " clip-rule="nonzero"/></clipPath><clipPath id="7581de17c1"><path d="M 90.195312 251.402344 L 405.648438 251.402344 L 405.648438 329.65625 L 90.195312 329.65625 Z M 90.195312 251.402344 " clip-rule="nonzero"/></clipPath><clipPath id="665e0792ed"><path d="M 96.304688 251.402344 L 399.246094 251.402344 C 402.621094 251.402344 405.355469 254.140625 405.355469 257.515625 L 405.355469 323.542969 C 405.355469 326.917969 402.621094 329.65625 399.246094 329.65625 L 96.304688 329.65625 C 92.929688 329.65625 90.195312 326.917969 90.195312 323.542969 L 90.195312 257.515625 C 90.195312 254.140625 92.929688 251.402344 96.304688 251.402344 Z M 96.304688 251.402344 " clip-rule="nonzero"/></clipPath><clipPath id="0d7f20ccf5"><path d="M 468.449219 598.304688 L 1048.6875 598.304688 L 1048.6875 600 L 468.449219 600 Z M 468.449219 598.304688 " clip-rule="nonzero"/></clipPath><clipPath id="4ad094c808"><path d="M 474.558594 598.304688 L 1042.386719 598.304688 C 1045.761719 598.304688 1048.496094 601.039062 1048.496094 604.414062 L 1048.496094 669.4375 C 1048.496094 672.8125 1045.761719 675.546875 1042.386719 675.546875 L 474.558594 675.546875 C 471.183594 675.546875 468.449219 672.8125 468.449219 669.4375 L 468.449219 604.414062 C 468.449219 601.039062 471.183594 598.304688 474.558594 598.304688 Z M 474.558594 598.304688 " clip-rule="nonzero"/></clipPath><clipPath id="af2b86322e"><path d="M 332.671875 169.488281 L 1168.625 169.488281 L 1168.625 223.816406 L 332.671875 223.816406 Z M 332.671875 169.488281 " clip-rule="nonzero"/></clipPath><clipPath id="0fefadb8b7"><path d="M 338.78125 169.488281 L 1162.34375 169.488281 C 1165.71875 169.488281 1168.457031 172.222656 1168.457031 175.597656 L 1168.457031 217.707031 C 1168.457031 221.082031 1165.71875 223.816406 1162.34375 223.816406 L 338.78125 223.816406 C 335.40625 223.816406 332.671875 221.082031 332.671875 217.707031 L 332.671875 175.597656 C 332.671875 172.222656 335.40625 169.488281 338.78125 169.488281 Z M 338.78125 169.488281 " clip-rule="nonzero"/></clipPath><clipPath id="8a6727c6e5"><path d="M 1193.996094 1.558594 L 1377.839844 1.558594 L 1377.839844 164.972656 L 1193.996094 164.972656 Z M 1193.996094 1.558594 " clip-rule="nonzero"/></clipPath><clipPath id="101a44eea2"><path d="M 1202.246094 1.558594 L 1369.230469 1.558594 C 1373.785156 1.558594 1377.480469 5.25 1377.480469 9.808594 L 1377.480469 156.722656 C 1377.480469 161.277344 1373.785156 164.972656 1369.230469 164.972656 L 1202.246094 164.972656 C 1197.691406 164.972656 1193.996094 161.277344 1193.996094 156.722656 L 1193.996094 9.808594 C 1193.996094 5.25 1197.691406 1.558594 1202.246094 1.558594 Z M 1202.246094 1.558594 " clip-rule="nonzero"/></clipPath><clipPath id="1066487745"><path d="M 128.277344 0 L 312 0 L 312 163.414062 L 128.277344 163.414062 Z M 128.277344 0 " clip-rule="nonzero"/></clipPath><clipPath id="de4bc94f54"><path d="M 136.527344 0 L 303.511719 0 C 308.066406 0 311.761719 3.695312 311.761719 8.25 L 311.761719 155.164062 C 311.761719 159.722656 308.066406 163.414062 303.511719 163.414062 L 136.527344 163.414062 C 131.972656 163.414062 128.277344 159.722656 128.277344 155.164062 L 128.277344 8.25 C 128.277344 3.695312 131.972656 0 136.527344 0 Z M 136.527344 0 " clip-rule="nonzero"/></clipPath></defs><path fill="#d39d48" d="M 710.726562 92.714844 L 1062.835938 92.714844 L 1062.835938 75.632812 L 710.726562 75.632812 Z M 710.726562 92.714844 " fill-opacity="1" fill-rule="nonzero"/><g clip-path="url(#5ead8fc1f0)"><path fill="#d39d49" d="M 327.578125 7.292969 L 1163.09375 7.292969 L 1163.09375 -9.800781 L 327.578125 -9.800781 Z M 327.578125 7.292969 " fill-opacity="1" fill-rule="nonzero"/></g><g clip-path="url(#40ecdcd0a3)"><path fill="#dea55a" d="M 327.578125 24.378906 L 1163.09375 24.378906 L 1163.09375 7.292969 L 327.578125 7.292969 Z M 327.578125 24.378906 " fill-opacity="1" fill-rule="nonzero"/></g><g clip-path="url(#cbabab21ac)"><path fill="#dea55a" d="M 327.578125 41.464844 L 1163.09375 41.464844 L 1163.09375 24.378906 L 327.578125 24.378906 Z M 327.578125 41.464844 " fill-opacity="1" fill-rule="nonzero"/></g><g clip-path="url(#0d5ce98922)"><path fill="#dea55a" d="M 327.578125 58.546875 L 1163.09375 58.546875 L 1163.09375 41.464844 L 327.578125 41.464844 Z M 327.578125 58.546875 " fill-opacity="1" fill-rule="nonzero"/></g><g clip-path="url(#443f1dce2c)"><path fill="#dea55a" d="M 327.578125 75.632812 L 1163.09375 75.632812 L 1163.09375 58.546875 L 327.578125 58.546875 Z M 327.578125 75.632812 " fill-opacity="1" fill-rule="nonzero"/></g><g clip-path="url(#181e28a2b1)"><path fill="#dea55a" d="M 327.578125 92.714844 L 1163.09375 92.714844 L 1163.09375 75.632812 L 327.578125 75.632812 Z M 327.578125 92.714844 " fill-opacity="1" fill-rule="nonzero"/></g><g clip-path="url(#db2986e8d8)"><path fill="#dea55a" d="M 327.578125 109.800781 L 1163.09375 109.800781 L 1163.09375 92.714844 L 327.578125 92.714844 Z M 327.578125 109.800781 " fill-opacity="1" fill-rule="nonzero"/></g><g clip-path="url(#073b911671)"><path fill="#dea55a" d="M 327.578125 126.882812 L 1163.09375 126.882812 L 1163.09375 109.800781 L 327.578125 109.800781 Z M 327.578125 126.882812 " fill-opacity="1" fill-rule="nonzero"/></g><g clip-path="url(#d0bcda1089)"><path fill="#d39d49" d="M 327.578125 143.96875 L 1163.09375 143.96875 L 1163.09375 126.882812 L 327.578125 126.882812 Z M 327.578125 143.96875 " fill-opacity="1" fill-rule="nonzero"/></g><g clip-path="url(#e0d2ccfc5d)"><path fill="#dea55a" d="M 327.578125 161.050781 L 1163.09375 161.050781 L 1163.09375 143.96875 L 327.578125 143.96875 Z M 327.578125 161.050781 " fill-opacity="1" fill-rule="nonzero"/></g><g clip-path="url(#a3fafa8dbb)"><path fill="#d39d48" d="M 327.578125 178.136719 L 1163.09375 178.136719 L 1163.09375 161.050781 L 327.578125 161.050781 Z M 327.578125 178.136719 " fill-opacity="1" fill-rule="nonzero"/></g><path fill="#c79146" d="M 882.652344 109.800781 L 1045.164062 109.800781 L 1045.164062 92.714844 L 882.652344 92.714844 Z M 882.652344 109.800781 " fill-opacity="1" fill-rule="nonzero"/><path fill="#c28e3f" d="M 446.804688 143.96875 L 566.625 143.96875 L 566.625 135.425781 L 446.804688 135.425781 Z M 446.804688 143.96875 " fill-opacity="1" fill-rule="nonzero"/><path fill="#c79146" d="M 446.804688 152.511719 L 566.625 152.511719 L 566.625 143.96875 L 446.804688 143.96875 Z M 446.804688 152.511719 " fill-opacity="1" fill-rule="nonzero"/><path fill="#c79146" d="M 359.3125 92.714844 L 479.113281 92.714844 L 479.113281 75.632812 L 359.3125 75.632812 Z M 359.3125 92.714844 " fill-opacity="1" fill-rule="nonzero"/><path fill="#c28e3f" d="M 497.484375 7.292969 L 610.292969 7.292969 L 610.292969 -9.800781 L 497.484375 -9.800781 Z M 497.484375 7.292969 " fill-opacity="1" fill-rule="nonzero"/><path fill="#c79146" d="M 1019.261719 75.632812 L 1132.089844 75.632812 L 1132.089844 58.546875 L 1019.261719 58.546875 Z M 1019.261719 75.632812 " fill-opacity="1" fill-rule="nonzero"/><g clip-path="url(#9336babe3c)"><path fill="#a86c37" d="M 1163.09375 7.292969 L 1136.484375 7.292969 L 1136.484375 -9.800781 L 1163.09375 -9.800781 L 1163.09375 7.292969 M 353.996094 7.292969 L 327.578125 7.292969 L 327.578125 -9.800781 L 353.996094 -9.800781 L 353.996094 7.292969 " fill-opacity="1" fill-rule="nonzero"/></g><g clip-path="url(#5cb5c2d831)"><path fill="#ae703f" d="M 1163.09375 24.378906 L 1136.484375 24.378906 L 1136.484375 7.292969 L 1163.09375 7.292969 L 1163.09375 24.378906 M 353.996094 24.378906 L 327.578125 24.378906 L 327.578125 7.292969 L 353.996094 7.292969 L 353.996094 24.378906 " fill-opacity="1" fill-rule="nonzero"/></g><g clip-path="url(#348ce9695d)"><path fill="#ae703f" d="M 1163.09375 41.464844 L 1136.484375 41.464844 L 1136.484375 24.378906 L 1163.09375 24.378906 L 1163.09375 41.464844 M 353.996094 41.464844 L 327.578125 41.464844 L 327.578125 24.378906 L 353.996094 24.378906 L 353.996094 41.464844 " fill-opacity="1" fill-rule="nonzero"/></g><g clip-path="url(#6f50dd1334)"><path fill="#ae703f" d="M 1163.09375 58.546875 L 1136.484375 58.546875 L 1136.484375 41.464844 L 1163.09375 41.464844 L 1163.09375 58.546875 M 353.996094 58.546875 L 327.578125 58.546875 L 327.578125 41.464844 L 353.996094 41.464844 L 353.996094 58.546875 " fill-opacity="1" fill-rule="nonzero"/></g><g clip-path="url(#3283127874)"><path fill="#ae703f" d="M 1163.09375 75.632812 L 1136.484375 75.632812 L 1136.484375 58.546875 L 1163.09375 58.546875 L 1163.09375 75.632812 M 353.996094 75.632812 L 327.578125 75.632812 L 327.578125 58.546875 L 353.996094 58.546875 L 353.996094 75.632812 " fill-opacity="1" fill-rule="nonzero"/></g><g clip-path="url(#c85557ff0e)"><path fill="#ae703f" d="M 1163.09375 92.714844 L 1136.484375 92.714844 L 1136.484375 75.632812 L 1163.09375 75.632812 L 1163.09375 92.714844 M 353.996094 92.714844 L 327.578125 92.714844 L 327.578125 75.632812 L 353.996094 75.632812 L 353.996094 92.714844 " fill-opacity="1" fill-rule="nonzero"/></g><g clip-path="url(#4a44c82a13)"><path fill="#ae703f" d="M 1163.09375 109.800781 L 1136.484375 109.800781 L 1136.484375 92.714844 L 1163.09375 92.714844 L 1163.09375 109.800781 M 353.996094 109.800781 L 327.578125 109.800781 L 327.578125 92.714844 L 353.996094 92.714844 L 353.996094 109.800781 " fill-opacity="1" fill-rule="nonzero"/></g><g clip-path="url(#7e52e5c4be)"><path fill="#ae703f" d="M 1163.09375 126.882812 L 1136.484375 126.882812 L 1136.484375 109.800781 L 1163.09375 109.800781 L 1163.09375 126.882812 M 353.996094 126.882812 L 327.578125 126.882812 L 327.578125 109.800781 L 353.996094 109.800781 L 353.996094 126.882812 " fill-opacity="1" fill-rule="nonzero"/></g><g clip-path="url(#6f90a7a65b)"><path fill="#a86c37" d="M 1163.09375 143.96875 L 1136.484375 143.96875 L 1136.484375 126.882812 L 1163.09375 126.882812 L 1163.09375 143.96875 M 353.996094 143.96875 L 327.578125 143.96875 L 327.578125 126.882812 L 353.996094 126.882812 L 353.996094 143.96875 " fill-opacity="1" fill-rule="nonzero"/></g><g clip-path="url(#794f9a14f0)"><path fill="#ae703f" d="M 1163.09375 161.050781 L 327.578125 161.050781 L 327.578125 143.96875 L 353.996094 143.96875 L 353.996094 160.3125 L 1136.484375 160.3125 L 1136.484375 143.96875 L 1163.09375 143.96875 L 1163.09375 161.050781 " fill-opacity="1" fill-rule="nonzero"/></g><g clip-path="url(#75c6d45fb8)"><path fill="#a86c36" d="M 327.578125 178.136719 L 1163.09375 178.136719 L 1163.09375 161.050781 L 327.578125 161.050781 Z M 327.578125 178.136719 " fill-opacity="1" fill-rule="nonzero"/></g><path fill="#ffffff" d="M 356.605469 102.113281 C 408.25 101.179688 456.648438 80.632812 493.273438 43.988281 C 530.765625 6.488281 551.402344 -43.382812 551.402344 -96.417969 L 551.402344 -97.445312 C 551.402344 -97.792969 551.390625 -98.148438 551.390625 -98.503906 C 550.277344 -205.804688 463.660156 -292.992188 356.605469 -294.949219 L 356.605469 -343.410156 L 741.6875 -343.410156 L 741.6875 -201.066406 C 685.007812 -199.117188 639.507812 -152.414062 639.507812 -95.25 C 639.507812 -38.09375 685.007812 8.621094 741.6875 10.566406 L 741.6875 152.914062 L 356.605469 152.914062 Z M 493.292969 -159.160156 L 493.292969 -159.265625 L 356.605469 -159.265625 L 356.605469 -287.589844 C 448.117188 -285.84375 524.078125 -219.453125 540.664062 -132.230469 C 530.171875 -147.59375 512.949219 -157.988281 493.292969 -159.160156 Z M 483.480469 -35.945312 C 485.511719 -35.75 487.558594 -35.617188 489.609375 -35.617188 C 511.167969 -35.617188 530.171875 -46.722656 541.230469 -63.507812 C 534.582031 -24.953125 516.28125 10.546875 488.066406 38.777344 C 452.839844 74.019531 406.273438 93.800781 356.605469 94.730469 L 356.605469 -35.945312 Z M 460.425781 -151.90625 C 458.355469 -150.792969 456.320312 -149.589844 454.410156 -148.265625 C 453.375 -147.546875 452.820312 -146.394531 452.820312 -145.234375 C 452.820312 -144.515625 453.039062 -143.773438 453.480469 -143.140625 C 454.640625 -141.460938 456.933594 -141.058594 458.613281 -142.210938 C 460.964844 -143.84375 463.476562 -145.300781 466.046875 -146.550781 C 467.890625 -147.433594 468.65625 -149.640625 467.785156 -151.464844 L 467.515625 -151.90625 L 469.609375 -151.90625 C 470.277344 -150.101562 472.226562 -149.09375 474.097656 -149.648438 C 476.832031 -150.464844 479.660156 -151.070312 482.519531 -151.433594 C 483.007812 -151.5 483.460938 -151.664062 483.875 -151.90625 L 485.925781 -151.90625 L 485.925781 -43.324219 L 483.863281 -43.324219 C 482.902344 -43.421875 481.953125 -43.515625 481.015625 -43.667969 C 480.238281 -43.773438 479.480469 -43.652344 478.816406 -43.324219 L 474.980469 -43.324219 C 474.625 -44.410156 473.789062 -45.300781 472.640625 -45.695312 C 469.914062 -46.585938 467.238281 -47.699219 464.6875 -49.015625 C 462.890625 -49.945312 460.65625 -49.238281 459.71875 -47.433594 C 459.449219 -46.894531 459.3125 -46.308594 459.3125 -45.742188 C 459.3125 -44.839844 459.660156 -44.003906 460.253906 -43.324219 L 356.605469 -43.324219 L 356.605469 -151.90625 Z M 544.023438 -97.089844 C 543.839844 -68.460938 521.46875 -45.023438 493.292969 -43.121094 L 493.292969 -151.761719 C 521.25 -149.878906 543.46875 -126.789062 544.003906 -98.503906 C 544.015625 -98.023438 544.023438 -97.5625 544.023438 -97.089844 Z M 749.054688 -69.71875 C 761.554688 -71.511719 771.175781 -82.242188 771.175781 -95.25 C 771.175781 -108.253906 761.554688 -118.972656 749.054688 -120.777344 L 749.054688 -193.695312 C 801.664062 -191.734375 843.863281 -148.34375 843.863281 -95.25 C 843.863281 -42.152344 801.664062 1.25 749.054688 3.1875 Z M 741.6875 -120.777344 C 729.175781 -118.972656 719.5625 -108.253906 719.5625 -95.25 C 719.5625 -82.242188 729.175781 -71.511719 741.6875 -69.71875 L 741.6875 3.1875 C 689.074219 1.25 646.875 -42.152344 646.875 -95.25 C 646.875 -148.34375 689.074219 -191.734375 741.6875 -193.695312 Z M 1134.132812 -294.949219 C 1026.378906 -292.984375 939.339844 -204.683594 939.339844 -96.417969 C 939.339844 -96.199219 939.347656 -95.96875 939.347656 -95.746094 L 939.339844 -95.402344 C 939.339844 -95.058594 939.359375 -94.722656 939.359375 -94.375 C 940.453125 12.957031 1027.058594 100.144531 1134.132812 102.113281 L 1134.132812 152.914062 L 749.054688 152.914062 L 749.054688 10.566406 C 805.722656 8.621094 851.234375 -38.09375 851.234375 -95.25 C 851.234375 -152.414062 805.722656 -199.117188 749.054688 -201.066406 L 749.054688 -343.410156 L 1134.132812 -343.410156 Z M 997.445312 -33.699219 L 997.445312 -33.582031 L 1134.132812 -33.582031 L 1134.132812 94.730469 C 1042.621094 92.984375 966.660156 26.597656 950.082031 -60.601562 C 960.570312 -45.253906 977.777344 -34.867188 997.445312 -33.699219 Z M 1006.800781 -156.886719 C 1006.550781 -156.960938 1006.289062 -157.019531 1006.023438 -157.039062 C 1004.410156 -157.164062 1002.769531 -157.230469 1001.140625 -157.230469 C 979.601562 -157.230469 960.636719 -146.15625 949.566406 -129.40625 C 965.03125 -218.003906 1041.632812 -285.824219 1134.132812 -287.589844 L 1134.132812 -156.886719 Z M 1027.078125 -40.945312 C 1027.242188 -41.664062 1027.175781 -42.421875 1026.878906 -43.140625 C 1026.101562 -45.023438 1023.953125 -45.894531 1022.054688 -45.117188 C 1019.441406 -44.035156 1016.71875 -43.140625 1013.964844 -42.46875 C 1013.023438 -42.25 1012.277344 -41.683594 1011.789062 -40.945312 L 1006.867188 -40.945312 C 1006.414062 -41.089844 1005.945312 -41.164062 1005.445312 -41.117188 L 1004.824219 -41.089844 L 1004.824219 -149.515625 L 1011.980469 -149.515625 C 1012.460938 -148.957031 1013.113281 -148.546875 1013.878906 -148.355469 C 1016.640625 -147.683594 1019.375 -146.808594 1021.996094 -145.714844 C 1023.867188 -144.9375 1026.035156 -145.820312 1026.8125 -147.699219 C 1027.058594 -148.296875 1027.117188 -148.917969 1027.058594 -149.515625 L 1134.132812 -149.515625 L 1134.132812 -40.945312 Z M 946.714844 -95.738281 C 946.878906 -124.378906 969.261719 -147.824219 997.445312 -149.726562 L 997.445312 -41.089844 C 969.480469 -42.96875 947.253906 -66.0625 946.726562 -94.386719 C 946.726562 -94.84375 946.714844 -95.285156 946.714844 -95.738281 Z M 1141.507812 -350.78125 L 349.238281 -350.78125 L 349.238281 160.285156 L 1141.507812 160.285156 L 1141.507812 -350.78125 " fill-opacity="1" fill-rule="nonzero"/><g clip-path="url(#ce14241271)"><g clip-path="url(#1565eea7d5)"><path fill="#004aad" d="M 434.566406 251.402344 L 1066.421875 251.402344 L 1066.421875 331.125 L 434.566406 331.125 Z M 434.566406 251.402344 " fill-opacity="1" fill-rule="nonzero"/></g></g><g fill="#ffffff" fill-opacity="1"><g transform="translate(647.20172, 299.403348)"><g><path d="M 11.796875 -4.578125 C 11.796875 -3.085938 11.257812 -1.914062 10.1875 -1.0625 C 9.113281 -0.207031 7.625 0.21875 5.71875 0.21875 C 3.957031 0.21875 2.40625 -0.109375 1.0625 -0.765625 L 1.0625 -4.015625 C 2.164062 -3.515625 3.101562 -3.160156 3.875 -2.953125 C 4.644531 -2.753906 5.347656 -2.65625 5.984375 -2.65625 C 6.753906 -2.65625 7.34375 -2.800781 7.75 -3.09375 C 8.15625 -3.382812 8.359375 -3.820312 8.359375 -4.40625 C 8.359375 -4.726562 8.269531 -5.015625 8.09375 -5.265625 C 7.914062 -5.515625 7.648438 -5.753906 7.296875 -5.984375 C 6.953125 -6.222656 6.242188 -6.597656 5.171875 -7.109375 C 4.160156 -7.578125 3.40625 -8.03125 2.90625 -8.46875 C 2.40625 -8.90625 2.003906 -9.410156 1.703125 -9.984375 C 1.398438 -10.566406 1.25 -11.242188 1.25 -12.015625 C 1.25 -13.472656 1.742188 -14.617188 2.734375 -15.453125 C 3.722656 -16.285156 5.085938 -16.703125 6.828125 -16.703125 C 7.679688 -16.703125 8.492188 -16.597656 9.265625 -16.390625 C 10.046875 -16.191406 10.863281 -15.910156 11.71875 -15.546875 L 10.578125 -12.828125 C 9.703125 -13.179688 8.976562 -13.429688 8.40625 -13.578125 C 7.832031 -13.722656 7.269531 -13.796875 6.71875 -13.796875 C 6.050781 -13.796875 5.539062 -13.640625 5.1875 -13.328125 C 4.832031 -13.023438 4.65625 -12.625 4.65625 -12.125 C 4.65625 -11.820312 4.726562 -11.554688 4.875 -11.328125 C 5.019531 -11.097656 5.25 -10.875 5.5625 -10.65625 C 5.875 -10.445312 6.609375 -10.0625 7.765625 -9.5 C 9.304688 -8.769531 10.363281 -8.035156 10.9375 -7.296875 C 11.507812 -6.554688 11.796875 -5.648438 11.796875 -4.578125 Z M 11.796875 -4.578125 "/></g></g></g><g fill="#ffffff" fill-opacity="1"><g transform="translate(659.904111, 299.403348)"><g><path d="M 2.078125 0 L 2.078125 -16.46875 L 5.5625 -16.46875 L 5.5625 0 Z M 2.078125 0 "/></g></g></g><g fill="#ffffff" fill-opacity="1"><g transform="translate(667.53906, 299.403348)"><g><path d="M 2.078125 0 L 2.078125 -16.46875 L 5.5625 -16.46875 L 5.5625 -2.890625 L 12.234375 -2.890625 L 12.234375 0 Z M 2.078125 0 "/></g></g></g><g fill="#ffffff" fill-opacity="1"><g transform="translate(680.56802, 299.403348)"><g><path d="M 2.078125 0 L 2.078125 -16.46875 L 5.5625 -16.46875 L 5.5625 -2.890625 L 12.234375 -2.890625 L 12.234375 0 Z M 2.078125 0 "/></g></g></g><g fill="#ffffff" fill-opacity="1"><g transform="translate(693.596981, 299.403348)"><g><path d="M 12.15625 0 L 10.953125 -3.921875 L 4.953125 -3.921875 L 3.765625 0 L 0 0 L 5.8125 -16.53125 L 10.078125 -16.53125 L 15.90625 0 Z M 10.125 -6.84375 C 9.019531 -10.394531 8.394531 -12.398438 8.25 -12.859375 C 8.113281 -13.328125 8.019531 -13.695312 7.96875 -13.96875 C 7.71875 -13.007812 7.003906 -10.632812 5.828125 -6.84375 Z M 10.125 -6.84375 "/></g></g></g><g fill="#ffffff" fill-opacity="1"><g transform="translate(709.508753, 299.403348)"><g><path d="M 11.796875 -4.578125 C 11.796875 -3.085938 11.257812 -1.914062 10.1875 -1.0625 C 9.113281 -0.207031 7.625 0.21875 5.71875 0.21875 C 3.957031 0.21875 2.40625 -0.109375 1.0625 -0.765625 L 1.0625 -4.015625 C 2.164062 -3.515625 3.101562 -3.160156 3.875 -2.953125 C 4.644531 -2.753906 5.347656 -2.65625 5.984375 -2.65625 C 6.753906 -2.65625 7.34375 -2.800781 7.75 -3.09375 C 8.15625 -3.382812 8.359375 -3.820312 8.359375 -4.40625 C 8.359375 -4.726562 8.269531 -5.015625 8.09375 -5.265625 C 7.914062 -5.515625 7.648438 -5.753906 7.296875 -5.984375 C 6.953125 -6.222656 6.242188 -6.597656 5.171875 -7.109375 C 4.160156 -7.578125 3.40625 -8.03125 2.90625 -8.46875 C 2.40625 -8.90625 2.003906 -9.410156 1.703125 -9.984375 C 1.398438 -10.566406 1.25 -11.242188 1.25 -12.015625 C 1.25 -13.472656 1.742188 -14.617188 2.734375 -15.453125 C 3.722656 -16.285156 5.085938 -16.703125 6.828125 -16.703125 C 7.679688 -16.703125 8.492188 -16.597656 9.265625 -16.390625 C 10.046875 -16.191406 10.863281 -15.910156 11.71875 -15.546875 L 10.578125 -12.828125 C 9.703125 -13.179688 8.976562 -13.429688 8.40625 -13.578125 C 7.832031 -13.722656 7.269531 -13.796875 6.71875 -13.796875 C 6.050781 -13.796875 5.539062 -13.640625 5.1875 -13.328125 C 4.832031 -13.023438 4.65625 -12.625 4.65625 -12.125 C 4.65625 -11.820312 4.726562 -11.554688 4.875 -11.328125 C 5.019531 -11.097656 5.25 -10.875 5.5625 -10.65625 C 5.875 -10.445312 6.609375 -10.0625 7.765625 -9.5 C 9.304688 -8.769531 10.363281 -8.035156 10.9375 -7.296875 C 11.507812 -6.554688 11.796875 -5.648438 11.796875 -4.578125 Z M 11.796875 -4.578125 "/></g></g></g><g fill="#ffffff" fill-opacity="1"><g transform="translate(722.211145, 299.403348)"><g/></g></g><g fill="#ffffff" fill-opacity="1"><g transform="translate(728.20199, 299.403348)"><g><path d="M 8.421875 0 L 4.9375 0 L 4.9375 -13.5625 L 0.46875 -13.5625 L 0.46875 -16.46875 L 12.890625 -16.46875 L 12.890625 -13.5625 L 8.421875 -13.5625 Z M 8.421875 0 "/></g></g></g><g fill="#ffffff" fill-opacity="1"><g transform="translate(741.557519, 299.403348)"><g><path d="M 5.5625 -9.15625 L 6.6875 -9.15625 C 7.789062 -9.15625 8.601562 -9.335938 9.125 -9.703125 C 9.65625 -10.078125 9.921875 -10.65625 9.921875 -11.4375 C 9.921875 -12.21875 9.648438 -12.773438 9.109375 -13.109375 C 8.578125 -13.441406 7.75 -13.609375 6.625 -13.609375 L 5.5625 -13.609375 Z M 5.5625 -6.3125 L 5.5625 0 L 2.078125 0 L 2.078125 -16.46875 L 6.875 -16.46875 C 9.101562 -16.46875 10.753906 -16.054688 11.828125 -15.234375 C 12.910156 -14.421875 13.453125 -13.1875 13.453125 -11.53125 C 13.453125 -10.5625 13.179688 -9.695312 12.640625 -8.9375 C 12.109375 -8.1875 11.351562 -7.597656 10.375 -7.171875 C 12.851562 -3.472656 14.46875 -1.082031 15.21875 0 L 11.34375 0 L 7.421875 -6.3125 Z M 5.5625 -6.3125 "/></g></g></g><g fill="#ffffff" fill-opacity="1"><g transform="translate(756.782372, 299.403348)"><g><path d="M 2.078125 0 L 2.078125 -16.46875 L 5.5625 -16.46875 L 5.5625 0 Z M 2.078125 0 "/></g></g></g><g fill="#ffffff" fill-opacity="1"><g transform="translate(764.41732, 299.403348)"><g><path d="M 2.078125 -16.46875 L 7.203125 -16.46875 C 9.535156 -16.46875 11.226562 -16.132812 12.28125 -15.46875 C 13.332031 -14.800781 13.859375 -13.742188 13.859375 -12.296875 C 13.859375 -11.316406 13.628906 -10.507812 13.171875 -9.875 C 12.710938 -9.25 12.097656 -8.867188 11.328125 -8.734375 L 11.328125 -8.625 C 12.367188 -8.394531 13.117188 -7.957031 13.578125 -7.3125 C 14.046875 -6.675781 14.28125 -5.832031 14.28125 -4.78125 C 14.28125 -3.269531 13.738281 -2.09375 12.65625 -1.25 C 11.570312 -0.414062 10.097656 0 8.234375 0 L 2.078125 0 Z M 5.5625 -9.9375 L 7.59375 -9.9375 C 8.539062 -9.9375 9.222656 -10.082031 9.640625 -10.375 C 10.066406 -10.675781 10.28125 -11.160156 10.28125 -11.828125 C 10.28125 -12.460938 10.046875 -12.914062 9.578125 -13.1875 C 9.117188 -13.46875 8.394531 -13.609375 7.40625 -13.609375 L 5.5625 -13.609375 Z M 5.5625 -7.171875 L 5.5625 -2.890625 L 7.84375 -2.890625 C 8.800781 -2.890625 9.507812 -3.070312 9.96875 -3.4375 C 10.425781 -3.800781 10.65625 -4.363281 10.65625 -5.125 C 10.65625 -6.488281 9.675781 -7.171875 7.71875 -7.171875 Z M 5.5625 -7.171875 "/></g></g></g><g fill="#ffffff" fill-opacity="1"><g transform="translate(779.912437, 299.403348)"><g><path d="M 15.46875 -16.46875 L 15.46875 -5.8125 C 15.46875 -4.59375 15.195312 -3.523438 14.65625 -2.609375 C 14.113281 -1.691406 13.328125 -0.988281 12.296875 -0.5 C 11.265625 -0.0195312 10.050781 0.21875 8.65625 0.21875 C 6.53125 0.21875 4.878906 -0.320312 3.703125 -1.40625 C 2.535156 -2.488281 1.953125 -3.972656 1.953125 -5.859375 L 1.953125 -16.46875 L 5.4375 -16.46875 L 5.4375 -6.390625 C 5.4375 -5.117188 5.691406 -4.1875 6.203125 -3.59375 C 6.710938 -3 7.554688 -2.703125 8.734375 -2.703125 C 9.878906 -2.703125 10.707031 -3 11.21875 -3.59375 C 11.738281 -4.195312 12 -5.132812 12 -6.40625 L 12 -16.46875 Z M 15.46875 -16.46875 "/></g></g></g><g fill="#ffffff" fill-opacity="1"><g transform="translate(797.344443, 299.403348)"><g><path d="M 16.671875 0 L 12.234375 0 L 5.078125 -12.453125 L 4.984375 -12.453125 C 5.117188 -10.253906 5.1875 -8.6875 5.1875 -7.75 L 5.1875 0 L 2.078125 0 L 2.078125 -16.46875 L 6.46875 -16.46875 L 13.625 -4.125 L 13.703125 -4.125 C 13.585938 -6.269531 13.53125 -7.785156 13.53125 -8.671875 L 13.53125 -16.46875 L 16.671875 -16.46875 Z M 16.671875 0 "/></g></g></g><g fill="#ffffff" fill-opacity="1"><g transform="translate(816.093985, 299.403348)"><g><path d="M 12.15625 0 L 10.953125 -3.921875 L 4.953125 -3.921875 L 3.765625 0 L 0 0 L 5.8125 -16.53125 L 10.078125 -16.53125 L 15.90625 0 Z M 10.125 -6.84375 C 9.019531 -10.394531 8.394531 -12.398438 8.25 -12.859375 C 8.113281 -13.328125 8.019531 -13.695312 7.96875 -13.96875 C 7.71875 -13.007812 7.003906 -10.632812 5.828125 -6.84375 Z M 10.125 -6.84375 "/></g></g></g><g fill="#ffffff" fill-opacity="1"><g transform="translate(832.005757, 299.403348)"><g/></g></g><g fill="#ffffff" fill-opacity="1"><g transform="translate(837.996602, 299.403348)"><g><path d="M 12.15625 0 L 10.953125 -3.921875 L 4.953125 -3.921875 L 3.765625 0 L 0 0 L 5.8125 -16.53125 L 10.078125 -16.53125 L 15.90625 0 Z M 10.125 -6.84375 C 9.019531 -10.394531 8.394531 -12.398438 8.25 -12.859375 C 8.113281 -13.328125 8.019531 -13.695312 7.96875 -13.96875 C 7.71875 -13.007812 7.003906 -10.632812 5.828125 -6.84375 Z M 10.125 -6.84375 "/></g></g></g><g clip-path="url(#cdcf98c77a)"><g clip-path="url(#1291562710)"><path fill="#d9d9d9" d="M 499.773438 379.960938 L 991.394531 379.960938 L 991.394531 580.046875 L 499.773438 580.046875 Z M 499.773438 379.960938 " fill-opacity="1" fill-rule="nonzero"/></g></g><g clip-path="url(#6f9497167c)"><g clip-path="url(#4317832b1f)"><path fill="#d9d9d9" d="M 1123.542969 379.960938 L 1383.53125 379.960938 L 1383.53125 555.109375 L 1123.542969 555.109375 Z M 1123.542969 379.960938 " fill-opacity="1" fill-rule="nonzero"/></g></g><g clip-path="url(#ba003dfb56)"><g clip-path="url(#0596092180)"><path fill="#d9d9d9" d="M 1095.769531 251.402344 L 1383.101562 251.402344 L 1383.101562 329.65625 L 1095.769531 329.65625 Z M 1095.769531 251.402344 " fill-opacity="1" fill-rule="nonzero"/></g></g><g clip-path="url(#f78ae89378)"><g clip-path="url(#62ac631a3e)"><path fill="#d9d9d9" d="M 90.195312 379.960938 L 350.183594 379.960938 L 350.183594 555.109375 L 90.195312 555.109375 Z M 90.195312 379.960938 " fill-opacity="1" fill-rule="nonzero"/></g></g><g clip-path="url(#7581de17c1)"><g clip-path="url(#665e0792ed)"><path fill="#d9d9d9" d="M 90.195312 251.402344 L 405.34375 251.402344 L 405.34375 329.65625 L 90.195312 329.65625 Z M 90.195312 251.402344 " fill-opacity="1" fill-rule="nonzero"/></g></g><g clip-path="url(#0d7f20ccf5)"><g clip-path="url(#4ad094c808)"><path fill="#d9d9d9" d="M 468.449219 598.304688 L 1048.386719 598.304688 L 1048.386719 675.546875 L 468.449219 675.546875 Z M 468.449219 598.304688 " fill-opacity="1" fill-rule="nonzero"/></g></g><g clip-path="url(#af2b86322e)"><g clip-path="url(#0fefadb8b7)"><path fill="#d9d9d9" d="M 332.671875 169.488281 L 1168.410156 169.488281 L 1168.410156 223.816406 L 332.671875 223.816406 Z M 332.671875 169.488281 " fill-opacity="1" fill-rule="nonzero"/></g></g><g clip-path="url(#8a6727c6e5)"><g clip-path="url(#101a44eea2)"><path fill="#d9d9d9" d="M 1193.996094 1.558594 L 1377.199219 1.558594 L 1377.199219 164.972656 L 1193.996094 164.972656 Z M 1193.996094 1.558594 " fill-opacity="1" fill-rule="nonzero"/></g></g><g clip-path="url(#1066487745)"><g clip-path="url(#de4bc94f54)"><path fill="#d9d9d9" d="M 128.277344 0 L 311.480469 0 L 311.480469 163.414062 L 128.277344 163.414062 Z M 128.277344 0 " fill-opacity="1" fill-rule="nonzero"/></g></g></svg>