<svg xmlns="http://www.w3.org/2000/svg" xmlns:xlink="http://www.w3.org/1999/xlink" width="2000" zoomAndPan="magnify" viewBox="0 0 1500 599.999999" height="800" preserveAspectRatio="xMidYMid meet" version="1.0"><defs><g/><clipPath id="53b6de939b"><path d="M 1121.722656 258.519531 L 1440 258.519531 L 1440 337.601562 L 1121.722656 337.601562 Z M 1121.722656 258.519531 " clip-rule="nonzero"/></clipPath><clipPath id="1f3ec314b4"><path d="M 1127.921875 258.519531 L 1433.796875 258.519531 C 1437.222656 258.519531 1440 261.296875 1440 264.722656 L 1440 331.402344 C 1440 334.828125 1437.222656 337.601562 1433.796875 337.601562 L 1127.921875 337.601562 C 1124.496094 337.601562 1121.722656 334.828125 1121.722656 331.402344 L 1121.722656 264.722656 C 1121.722656 261.296875 1124.496094 258.519531 1127.921875 258.519531 Z M 1127.921875 258.519531 " clip-rule="nonzero"/></clipPath><clipPath id="22d5fccf24"><path d="M 343.113281 189 L 1187.613281 189 L 1187.613281 207.667969 L 343.113281 207.667969 Z M 343.113281 189 " clip-rule="nonzero"/></clipPath><clipPath id="80955dbb4d"><path d="M 343.113281 172 L 1187.613281 172 L 1187.613281 190 L 343.113281 190 Z M 343.113281 172 " clip-rule="nonzero"/></clipPath><clipPath id="a4668ddb4c"><path d="M 343.113281 155 L 1187.613281 155 L 1187.613281 173 L 343.113281 173 Z M 343.113281 155 " clip-rule="nonzero"/></clipPath><clipPath id="4e3ca7c1af"><path d="M 343.113281 138 L 1187.613281 138 L 1187.613281 156 L 343.113281 156 Z M 343.113281 138 " clip-rule="nonzero"/></clipPath><clipPath id="3c13392227"><path d="M 343.113281 120 L 1187.613281 120 L 1187.613281 139 L 343.113281 139 Z M 343.113281 120 " clip-rule="nonzero"/></clipPath><clipPath id="8c1a587000"><path d="M 343.113281 103 L 1187.613281 103 L 1187.613281 121 L 343.113281 121 Z M 343.113281 103 " clip-rule="nonzero"/></clipPath><clipPath id="13909772a5"><path d="M 343.113281 86 L 1187.613281 86 L 1187.613281 104 L 343.113281 104 Z M 343.113281 86 " clip-rule="nonzero"/></clipPath><clipPath id="ddfd5cc6c4"><path d="M 343.113281 68 L 1187.613281 68 L 1187.613281 87 L 343.113281 87 Z M 343.113281 68 " clip-rule="nonzero"/></clipPath><clipPath id="2f38741cb1"><path d="M 343.113281 51 L 1187.613281 51 L 1187.613281 69 L 343.113281 69 Z M 343.113281 51 " clip-rule="nonzero"/></clipPath><clipPath id="116a0b8775"><path d="M 343.113281 34 L 1187.613281 34 L 1187.613281 52 L 343.113281 52 Z M 343.113281 34 " clip-rule="nonzero"/></clipPath><clipPath id="5c476494a4"><path d="M 343.113281 17 L 1187.613281 17 L 1187.613281 35 L 343.113281 35 Z M 343.113281 17 " clip-rule="nonzero"/></clipPath><clipPath id="e64159e7ea"><path d="M 343.113281 0 L 1187.613281 0 L 1187.613281 18 L 343.113281 18 Z M 343.113281 0 " clip-rule="nonzero"/></clipPath><clipPath id="accc0dfed8"><path d="M 343.113281 189 L 1187.613281 189 L 1187.613281 207.667969 L 343.113281 207.667969 Z M 343.113281 189 " clip-rule="nonzero"/></clipPath><clipPath id="33ca0451a9"><path d="M 343.113281 172 L 1187.613281 172 L 1187.613281 190 L 343.113281 190 Z M 343.113281 172 " clip-rule="nonzero"/></clipPath><clipPath id="02bc2b4e20"><path d="M 343.113281 155 L 1187.613281 155 L 1187.613281 173 L 343.113281 173 Z M 343.113281 155 " clip-rule="nonzero"/></clipPath><clipPath id="669560d737"><path d="M 343.113281 138 L 1187.613281 138 L 1187.613281 156 L 343.113281 156 Z M 343.113281 138 " clip-rule="nonzero"/></clipPath><clipPath id="ce07f33478"><path d="M 343.113281 120 L 1187.613281 120 L 1187.613281 139 L 343.113281 139 Z M 343.113281 120 " clip-rule="nonzero"/></clipPath><clipPath id="00923910ea"><path d="M 343.113281 103 L 1187.613281 103 L 1187.613281 121 L 343.113281 121 Z M 343.113281 103 " clip-rule="nonzero"/></clipPath><clipPath id="54f232df14"><path d="M 343.113281 86 L 1187.613281 86 L 1187.613281 104 L 343.113281 104 Z M 343.113281 86 " clip-rule="nonzero"/></clipPath><clipPath id="a32e86d7d6"><path d="M 343.113281 68 L 1187.613281 68 L 1187.613281 87 L 343.113281 87 Z M 343.113281 68 " clip-rule="nonzero"/></clipPath><clipPath id="f5bea48704"><path d="M 343.113281 51 L 1187.613281 51 L 1187.613281 69 L 343.113281 69 Z M 343.113281 51 " clip-rule="nonzero"/></clipPath><clipPath id="f9540899c0"><path d="M 343.113281 34 L 1187.613281 34 L 1187.613281 52 L 343.113281 52 Z M 343.113281 34 " clip-rule="nonzero"/></clipPath><clipPath id="c3c22bf46d"><path d="M 343.113281 17 L 1187.613281 17 L 1187.613281 35 L 343.113281 35 Z M 343.113281 17 " clip-rule="nonzero"/></clipPath><clipPath id="fe4dae4686"><path d="M 343.113281 0 L 1187.613281 0 L 1187.613281 18 L 343.113281 18 Z M 343.113281 0 " clip-rule="nonzero"/></clipPath><clipPath id="2be8e015d9"><path d="M 440.664062 258.515625 L 1079.507812 258.515625 L 1079.507812 337.597656 L 440.664062 337.597656 Z M 440.664062 258.515625 " clip-rule="nonzero"/></clipPath><clipPath id="07f28638a9"><path d="M 1073.507812 337.597656 L 446.800781 337.597656 C 445.207031 337.597656 443.683594 336.964844 442.558594 335.839844 C 441.433594 334.714844 440.800781 333.191406 440.800781 331.597656 L 440.800781 264.515625 C 440.800781 262.921875 441.433594 261.398438 442.558594 260.273438 C 443.683594 259.148438 445.207031 258.515625 446.800781 258.515625 L 1073.507812 258.515625 C 1075.101562 258.515625 1076.625 259.148438 1077.75 260.273438 C 1078.875 261.398438 1079.507812 262.921875 1079.507812 264.515625 L 1079.507812 331.597656 C 1079.507812 333.191406 1078.875 334.714844 1077.75 335.839844 C 1076.625 336.964844 1075.101562 337.597656 1073.507812 337.597656 Z M 1073.507812 337.597656 " clip-rule="nonzero"/></clipPath><clipPath id="27e4e57bb1"><path d="M 516.757812 388.4375 L 1014 388.4375 L 1014 591 L 516.757812 591 Z M 516.757812 388.4375 " clip-rule="nonzero"/></clipPath><clipPath id="9529b2ee1c"><path d="M 1007.605469 590.648438 L 522.96875 590.648438 C 521.378906 590.648438 519.851562 590.015625 518.726562 588.890625 C 517.601562 587.765625 516.96875 586.242188 516.96875 584.648438 L 516.96875 394.4375 C 516.96875 392.84375 517.601562 391.320312 518.726562 390.191406 C 519.851562 389.066406 521.378906 388.4375 522.96875 388.4375 L 1007.605469 388.4375 C 1009.195312 388.4375 1010.722656 389.066406 1011.847656 390.191406 C 1012.972656 391.320312 1013.605469 392.84375 1013.605469 394.4375 L 1013.605469 584.648438 C 1013.605469 586.242188 1012.972656 587.765625 1011.847656 588.890625 C 1010.722656 590.015625 1009.195312 590.648438 1007.605469 590.648438 Z M 1007.605469 590.648438 " clip-rule="nonzero"/></clipPath><clipPath id="a9e222c265"><path d="M 120.578125 258.515625 L 411.269531 258.515625 L 411.269531 337.597656 L 120.578125 337.597656 Z M 120.578125 258.515625 " clip-rule="nonzero"/></clipPath><clipPath id="655d0ef592"><path d="M 405.269531 337.597656 L 126.796875 337.597656 C 125.207031 337.597656 123.679688 336.964844 122.554688 335.839844 C 121.429688 334.714844 120.796875 333.191406 120.796875 331.597656 L 120.796875 264.515625 C 120.796875 262.921875 121.429688 261.398438 122.554688 260.273438 C 123.679688 259.148438 125.207031 258.515625 126.796875 258.515625 L 405.269531 258.515625 C 406.863281 258.515625 408.386719 259.148438 409.511719 260.273438 C 410.636719 261.398438 411.269531 262.921875 411.269531 264.515625 L 411.269531 331.597656 C 411.269531 333.191406 410.636719 334.714844 409.511719 335.839844 C 408.386719 336.964844 406.863281 337.597656 405.269531 337.597656 Z M 405.269531 337.597656 " clip-rule="nonzero"/></clipPath><clipPath id="1968dca456"><path d="M 1165 397.59375 L 1428 397.59375 L 1428 575 L 1165 575 Z M 1165 397.59375 " clip-rule="nonzero"/></clipPath><clipPath id="4508c7ed79"><path d="M 1421.523438 574.601562 L 1171.117188 574.601562 C 1169.527344 574.601562 1168 573.972656 1166.875 572.847656 C 1165.75 571.722656 1165.117188 570.195312 1165.117188 568.601562 L 1165.117188 403.59375 C 1165.117188 402 1165.75 400.476562 1166.875 399.347656 C 1168 398.222656 1169.527344 397.59375 1171.117188 397.59375 L 1421.523438 397.59375 C 1423.117188 397.59375 1424.640625 398.222656 1425.769531 399.347656 C 1426.894531 400.476562 1427.523438 402 1427.523438 403.59375 L 1427.523438 568.601562 C 1427.523438 570.195312 1426.894531 571.722656 1425.769531 572.847656 C 1424.640625 573.972656 1423.117188 574.601562 1421.523438 574.601562 Z M 1421.523438 574.601562 " clip-rule="nonzero"/></clipPath><clipPath id="3aec264440"><path d="M 1225.171875 21.132812 L 1407.714844 21.132812 L 1407.714844 198.835938 L 1225.171875 198.835938 Z M 1225.171875 21.132812 " clip-rule="nonzero"/></clipPath><clipPath id="8f279a9b1c"><path d="M 1401.023438 198.144531 L 1231.273438 198.144531 C 1229.683594 198.144531 1228.15625 197.511719 1227.03125 196.386719 C 1225.90625 195.261719 1225.273438 193.734375 1225.273438 192.144531 L 1225.273438 27.132812 C 1225.273438 25.539062 1225.90625 24.015625 1227.03125 22.890625 C 1228.15625 21.765625 1229.683594 21.132812 1231.273438 21.132812 L 1401.023438 21.132812 C 1402.613281 21.132812 1404.140625 21.765625 1405.265625 22.890625 C 1406.390625 24.015625 1407.023438 25.539062 1407.023438 27.132812 L 1407.023438 192.144531 C 1407.023438 193.734375 1406.390625 195.261719 1405.265625 196.386719 C 1404.140625 197.511719 1402.613281 198.144531 1401.023438 198.144531 Z M 1401.023438 198.144531 " clip-rule="nonzero"/></clipPath><clipPath id="82baadabb9"><path d="M 120.703125 21.132812 L 303 21.132812 L 303 198.835938 L 120.703125 198.835938 Z M 120.703125 21.132812 " clip-rule="nonzero"/></clipPath><clipPath id="ff0ca10813"><path d="M 296.554688 198.144531 L 126.808594 198.144531 C 125.21875 198.144531 123.691406 197.511719 122.566406 196.386719 C 121.441406 195.261719 120.808594 193.734375 120.808594 192.144531 L 120.808594 27.132812 C 120.808594 25.539062 121.441406 24.015625 122.566406 22.890625 C 123.691406 21.765625 125.21875 21.132812 126.808594 21.132812 L 296.554688 21.132812 C 298.148438 21.132812 299.671875 21.765625 300.796875 22.890625 C 301.921875 24.015625 302.554688 25.539062 302.554688 27.132812 L 302.554688 192.144531 C 302.554688 193.734375 301.921875 195.261719 300.796875 196.386719 C 299.671875 197.511719 298.148438 198.144531 296.554688 198.144531 Z M 296.554688 198.144531 " clip-rule="nonzero"/></clipPath><clipPath id="14481ffa0a"><path d="M 985.933594 184.945312 L 1175.296875 184.945312 L 1175.296875 230.417969 L 985.933594 230.417969 Z M 985.933594 184.945312 " clip-rule="nonzero"/></clipPath><clipPath id="c50274bc94"><path d="M 991.933594 184.945312 L 1169.222656 184.945312 C 1172.539062 184.945312 1175.222656 187.628906 1175.222656 190.945312 L 1175.222656 224.417969 C 1175.222656 227.730469 1172.539062 230.417969 1169.222656 230.417969 L 991.933594 230.417969 C 988.621094 230.417969 985.933594 227.730469 985.933594 224.417969 L 985.933594 190.945312 C 985.933594 187.628906 988.621094 184.945312 991.933594 184.945312 Z M 991.933594 184.945312 " clip-rule="nonzero"/></clipPath><clipPath id="ebc4bfa6d0"><path d="M 665.839844 187.773438 L 855.25 187.773438 L 855.25 230.417969 L 665.839844 230.417969 Z M 665.839844 187.773438 " clip-rule="nonzero"/></clipPath><clipPath id="7006740c84"><path d="M 671.839844 187.773438 L 849.128906 187.773438 C 852.441406 187.773438 855.128906 190.457031 855.128906 193.773438 L 855.128906 224.417969 C 855.128906 227.730469 852.441406 230.417969 849.128906 230.417969 L 671.839844 230.417969 C 668.527344 230.417969 665.839844 227.730469 665.839844 224.417969 L 665.839844 193.773438 C 665.839844 190.457031 668.527344 187.773438 671.839844 187.773438 Z M 671.839844 187.773438 " clip-rule="nonzero"/></clipPath><clipPath id="960f09fa04"><path d="M 324.777344 184.945312 L 513.246094 184.945312 L 513.246094 230.417969 L 324.777344 230.417969 Z M 324.777344 184.945312 " clip-rule="nonzero"/></clipPath><clipPath id="65968394d5"><path d="M 330.777344 184.945312 L 507.203125 184.945312 C 510.515625 184.945312 513.203125 187.628906 513.203125 190.945312 L 513.203125 224.417969 C 513.203125 227.730469 510.515625 230.417969 507.203125 230.417969 L 330.777344 230.417969 C 327.460938 230.417969 324.777344 227.730469 324.777344 224.417969 L 324.777344 190.945312 C 324.777344 187.628906 327.460938 184.945312 330.777344 184.945312 Z M 330.777344 184.945312 " clip-rule="nonzero"/></clipPath><clipPath id="64ea9ccb1d"><path d="M 120.453125 388.429688 L 383.894531 388.429688 L 383.894531 566 L 120.453125 566 Z M 120.453125 388.429688 " clip-rule="nonzero"/></clipPath><clipPath id="a805a2af67"><path d="M 377.203125 565.441406 L 126.796875 565.441406 C 125.207031 565.441406 123.679688 564.808594 122.554688 563.683594 C 121.429688 562.558594 120.796875 561.035156 120.796875 559.441406 L 120.796875 394.429688 C 120.796875 392.839844 121.429688 391.3125 122.554688 390.1875 C 123.679688 389.0625 125.207031 388.429688 126.796875 388.429688 L 377.203125 388.429688 C 378.796875 388.429688 380.320312 389.0625 381.445312 390.1875 C 382.570312 391.3125 383.203125 392.839844 383.203125 394.429688 L 383.203125 559.441406 C 383.203125 561.035156 382.570312 562.558594 381.445312 563.683594 C 380.320312 564.808594 378.796875 565.441406 377.203125 565.441406 Z M 377.203125 565.441406 " clip-rule="nonzero"/></clipPath></defs><g clip-path="url(#53b6de939b)"><g clip-path="url(#1f3ec314b4)"><path fill="#004aad" d="M 1121.722656 258.519531 L 1439.90625 258.519531 L 1439.90625 337.601562 L 1121.722656 337.601562 Z M 1121.722656 258.519531 " fill-opacity="1" fill-rule="nonzero"/></g></g><g fill="#ffffff" fill-opacity="1"><g transform="translate(1178.21714, 305.020085)"><g><path d="M 1.796875 -14.28125 L 6.234375 -14.28125 C 8.265625 -14.28125 9.734375 -13.988281 10.640625 -13.40625 C 11.554688 -12.832031 12.015625 -11.921875 12.015625 -10.671875 C 12.015625 -9.816406 11.816406 -9.113281 11.421875 -8.5625 C 11.023438 -8.019531 10.492188 -7.691406 9.828125 -7.578125 L 9.828125 -7.484375 C 10.734375 -7.273438 11.382812 -6.894531 11.78125 -6.34375 C 12.1875 -5.789062 12.390625 -5.054688 12.390625 -4.140625 C 12.390625 -2.835938 11.914062 -1.820312 10.96875 -1.09375 C 10.03125 -0.363281 8.753906 0 7.140625 0 L 1.796875 0 Z M 4.828125 -8.625 L 6.578125 -8.625 C 7.398438 -8.625 7.992188 -8.75 8.359375 -9 C 8.734375 -9.257812 8.921875 -9.679688 8.921875 -10.265625 C 8.921875 -10.804688 8.71875 -11.195312 8.3125 -11.4375 C 7.914062 -11.675781 7.285156 -11.796875 6.421875 -11.796875 L 4.828125 -11.796875 Z M 4.828125 -6.21875 L 4.828125 -2.5 L 6.796875 -2.5 C 7.628906 -2.5 8.242188 -2.65625 8.640625 -2.96875 C 9.035156 -3.289062 9.234375 -3.78125 9.234375 -4.4375 C 9.234375 -5.625 8.390625 -6.21875 6.703125 -6.21875 Z M 4.828125 -6.21875 "/></g></g></g><g fill="#ffffff" fill-opacity="1"><g transform="translate(1191.649391, 305.020085)"><g><path d="M 13.421875 -14.28125 L 13.421875 -5.046875 C 13.421875 -3.984375 13.179688 -3.054688 12.703125 -2.265625 C 12.234375 -1.472656 11.550781 -0.863281 10.65625 -0.4375 C 9.769531 -0.0078125 8.71875 0.203125 7.5 0.203125 C 5.664062 0.203125 4.238281 -0.265625 3.21875 -1.203125 C 2.207031 -2.148438 1.703125 -3.441406 1.703125 -5.078125 L 1.703125 -14.28125 L 4.71875 -14.28125 L 4.71875 -5.53125 C 4.71875 -4.4375 4.9375 -3.628906 5.375 -3.109375 C 5.820312 -2.597656 6.554688 -2.34375 7.578125 -2.34375 C 8.566406 -2.34375 9.285156 -2.597656 9.734375 -3.109375 C 10.179688 -3.628906 10.40625 -4.445312 10.40625 -5.5625 L 10.40625 -14.28125 Z M 13.421875 -14.28125 "/></g></g></g><g fill="#ffffff" fill-opacity="1"><g transform="translate(1206.760672, 305.020085)"><g><path d="M 7.3125 0 L 4.28125 0 L 4.28125 -11.765625 L 0.40625 -11.765625 L 0.40625 -14.28125 L 11.1875 -14.28125 L 11.1875 -11.765625 L 7.3125 -11.765625 Z M 7.3125 0 "/></g></g></g><g fill="#ffffff" fill-opacity="1"><g transform="translate(1218.338179, 305.020085)"><g><path d="M 10.53125 0 L 9.5 -3.40625 L 4.296875 -3.40625 L 3.265625 0 L 0 0 L 5.046875 -14.34375 L 8.734375 -14.34375 L 13.796875 0 Z M 8.78125 -5.9375 C 7.820312 -9.019531 7.28125 -10.757812 7.15625 -11.15625 C 7.039062 -11.5625 6.957031 -11.882812 6.90625 -12.125 C 6.6875 -11.289062 6.070312 -9.226562 5.0625 -5.9375 Z M 8.78125 -5.9375 "/></g></g></g><g fill="#ffffff" fill-opacity="1"><g transform="translate(1232.131616, 305.020085)"><g><path d="M 7.859375 -11.96875 C 6.722656 -11.96875 5.84375 -11.535156 5.21875 -10.671875 C 4.59375 -9.816406 4.28125 -8.625 4.28125 -7.09375 C 4.28125 -3.914062 5.472656 -2.328125 7.859375 -2.328125 C 8.859375 -2.328125 10.070312 -2.578125 11.5 -3.078125 L 11.5 -0.53125 C 10.332031 -0.0390625 9.023438 0.203125 7.578125 0.203125 C 5.503906 0.203125 3.914062 -0.425781 2.8125 -1.6875 C 1.707031 -2.945312 1.15625 -4.757812 1.15625 -7.125 C 1.15625 -8.601562 1.425781 -9.898438 1.96875 -11.015625 C 2.507812 -12.140625 3.285156 -13 4.296875 -13.59375 C 5.316406 -14.1875 6.503906 -14.484375 7.859375 -14.484375 C 9.242188 -14.484375 10.640625 -14.148438 12.046875 -13.484375 L 11.0625 -11.015625 C 10.53125 -11.265625 9.992188 -11.484375 9.453125 -11.671875 C 8.910156 -11.867188 8.378906 -11.96875 7.859375 -11.96875 Z M 7.859375 -11.96875 "/></g></g></g><g fill="#ffffff" fill-opacity="1"><g transform="translate(1244.870778, 305.020085)"><g><path d="M 10.53125 0 L 9.5 -3.40625 L 4.296875 -3.40625 L 3.265625 0 L 0 0 L 5.046875 -14.34375 L 8.734375 -14.34375 L 13.796875 0 Z M 8.78125 -5.9375 C 7.820312 -9.019531 7.28125 -10.757812 7.15625 -11.15625 C 7.039062 -11.5625 6.957031 -11.882812 6.90625 -12.125 C 6.6875 -11.289062 6.070312 -9.226562 5.0625 -5.9375 Z M 8.78125 -5.9375 "/></g></g></g><g fill="#ffffff" fill-opacity="1"><g transform="translate(1258.664216, 305.020085)"><g><path d="M 10.21875 -3.96875 C 10.21875 -2.675781 9.753906 -1.65625 8.828125 -0.90625 C 7.898438 -0.164062 6.613281 0.203125 4.96875 0.203125 C 3.4375 0.203125 2.085938 -0.0859375 0.921875 -0.671875 L 0.921875 -3.484375 C 1.878906 -3.046875 2.691406 -2.738281 3.359375 -2.5625 C 4.023438 -2.394531 4.640625 -2.3125 5.203125 -2.3125 C 5.859375 -2.3125 6.363281 -2.4375 6.71875 -2.6875 C 7.070312 -2.9375 7.25 -3.3125 7.25 -3.8125 C 7.25 -4.09375 7.171875 -4.34375 7.015625 -4.5625 C 6.859375 -4.78125 6.628906 -4.988281 6.328125 -5.1875 C 6.023438 -5.394531 5.410156 -5.71875 4.484375 -6.15625 C 3.609375 -6.570312 2.953125 -6.96875 2.515625 -7.34375 C 2.078125 -7.71875 1.726562 -8.15625 1.46875 -8.65625 C 1.207031 -9.164062 1.078125 -9.753906 1.078125 -10.421875 C 1.078125 -11.679688 1.503906 -12.671875 2.359375 -13.390625 C 3.222656 -14.117188 4.410156 -14.484375 5.921875 -14.484375 C 6.660156 -14.484375 7.363281 -14.394531 8.03125 -14.21875 C 8.707031 -14.039062 9.414062 -13.796875 10.15625 -13.484375 L 9.1875 -11.125 C 8.414062 -11.4375 7.78125 -11.65625 7.28125 -11.78125 C 6.789062 -11.90625 6.304688 -11.96875 5.828125 -11.96875 C 5.253906 -11.96875 4.8125 -11.832031 4.5 -11.5625 C 4.195312 -11.289062 4.046875 -10.941406 4.046875 -10.515625 C 4.046875 -10.253906 4.109375 -10.019531 4.234375 -9.8125 C 4.359375 -9.613281 4.550781 -9.421875 4.8125 -9.234375 C 5.082031 -9.054688 5.722656 -8.726562 6.734375 -8.25 C 8.066406 -7.601562 8.976562 -6.957031 9.46875 -6.3125 C 9.96875 -5.675781 10.21875 -4.894531 10.21875 -3.96875 Z M 10.21875 -3.96875 "/></g></g></g><g fill="#ffffff" fill-opacity="1"><g transform="translate(1269.675537, 305.020085)"><g/></g></g><g fill="#ffffff" fill-opacity="1"><g transform="translate(1274.86882, 305.020085)"><g><path d="M 7.3125 0 L 4.28125 0 L 4.28125 -11.765625 L 0.40625 -11.765625 L 0.40625 -14.28125 L 11.1875 -14.28125 L 11.1875 -11.765625 L 7.3125 -11.765625 Z M 7.3125 0 "/></g></g></g><g fill="#ffffff" fill-opacity="1"><g transform="translate(1286.446327, 305.020085)"><g><path d="M 4.828125 -7.9375 L 5.796875 -7.9375 C 6.753906 -7.9375 7.460938 -8.09375 7.921875 -8.40625 C 8.378906 -8.726562 8.609375 -9.234375 8.609375 -9.921875 C 8.609375 -10.597656 8.375 -11.078125 7.90625 -11.359375 C 7.4375 -11.648438 6.71875 -11.796875 5.75 -11.796875 L 4.828125 -11.796875 Z M 4.828125 -5.484375 L 4.828125 0 L 1.796875 0 L 1.796875 -14.28125 L 5.953125 -14.28125 C 7.898438 -14.28125 9.335938 -13.925781 10.265625 -13.21875 C 11.191406 -12.507812 11.65625 -11.4375 11.65625 -10 C 11.65625 -9.15625 11.425781 -8.40625 10.96875 -7.75 C 10.507812 -7.101562 9.851562 -6.59375 9 -6.21875 C 11.15625 -3.007812 12.554688 -0.9375 13.203125 0 L 9.84375 0 L 6.4375 -5.484375 Z M 4.828125 -5.484375 "/></g></g></g><g fill="#ffffff" fill-opacity="1"><g transform="translate(1299.644294, 305.020085)"><g><path d="M 1.796875 0 L 1.796875 -14.28125 L 4.828125 -14.28125 L 4.828125 0 Z M 1.796875 0 "/></g></g></g><g fill="#ffffff" fill-opacity="1"><g transform="translate(1306.262801, 305.020085)"><g><path d="M 1.796875 -14.28125 L 6.234375 -14.28125 C 8.265625 -14.28125 9.734375 -13.988281 10.640625 -13.40625 C 11.554688 -12.832031 12.015625 -11.921875 12.015625 -10.671875 C 12.015625 -9.816406 11.816406 -9.113281 11.421875 -8.5625 C 11.023438 -8.019531 10.492188 -7.691406 9.828125 -7.578125 L 9.828125 -7.484375 C 10.734375 -7.273438 11.382812 -6.894531 11.78125 -6.34375 C 12.1875 -5.789062 12.390625 -5.054688 12.390625 -4.140625 C 12.390625 -2.835938 11.914062 -1.820312 10.96875 -1.09375 C 10.03125 -0.363281 8.753906 0 7.140625 0 L 1.796875 0 Z M 4.828125 -8.625 L 6.578125 -8.625 C 7.398438 -8.625 7.992188 -8.75 8.359375 -9 C 8.734375 -9.257812 8.921875 -9.679688 8.921875 -10.265625 C 8.921875 -10.804688 8.71875 -11.195312 8.3125 -11.4375 C 7.914062 -11.675781 7.285156 -11.796875 6.421875 -11.796875 L 4.828125 -11.796875 Z M 4.828125 -6.21875 L 4.828125 -2.5 L 6.796875 -2.5 C 7.628906 -2.5 8.242188 -2.65625 8.640625 -2.96875 C 9.035156 -3.289062 9.234375 -3.78125 9.234375 -4.4375 C 9.234375 -5.625 8.390625 -6.21875 6.703125 -6.21875 Z M 4.828125 -6.21875 "/></g></g></g><g fill="#ffffff" fill-opacity="1"><g transform="translate(1319.695051, 305.020085)"><g><path d="M 13.421875 -14.28125 L 13.421875 -5.046875 C 13.421875 -3.984375 13.179688 -3.054688 12.703125 -2.265625 C 12.234375 -1.472656 11.550781 -0.863281 10.65625 -0.4375 C 9.769531 -0.0078125 8.71875 0.203125 7.5 0.203125 C 5.664062 0.203125 4.238281 -0.265625 3.21875 -1.203125 C 2.207031 -2.148438 1.703125 -3.441406 1.703125 -5.078125 L 1.703125 -14.28125 L 4.71875 -14.28125 L 4.71875 -5.53125 C 4.71875 -4.4375 4.9375 -3.628906 5.375 -3.109375 C 5.820312 -2.597656 6.554688 -2.34375 7.578125 -2.34375 C 8.566406 -2.34375 9.285156 -2.597656 9.734375 -3.109375 C 10.179688 -3.628906 10.40625 -4.445312 10.40625 -5.5625 L 10.40625 -14.28125 Z M 13.421875 -14.28125 "/></g></g></g><g fill="#ffffff" fill-opacity="1"><g transform="translate(1334.806332, 305.020085)"><g><path d="M 14.46875 0 L 10.609375 0 L 4.40625 -10.796875 L 4.3125 -10.796875 C 4.4375 -8.890625 4.5 -7.53125 4.5 -6.71875 L 4.5 0 L 1.796875 0 L 1.796875 -14.28125 L 5.609375 -14.28125 L 11.8125 -3.578125 L 11.890625 -3.578125 C 11.785156 -5.441406 11.734375 -6.753906 11.734375 -7.515625 L 11.734375 -14.28125 L 14.46875 -14.28125 Z M 14.46875 0 "/></g></g></g><g fill="#ffffff" fill-opacity="1"><g transform="translate(1351.059746, 305.020085)"><g><path d="M 10.53125 0 L 9.5 -3.40625 L 4.296875 -3.40625 L 3.265625 0 L 0 0 L 5.046875 -14.34375 L 8.734375 -14.34375 L 13.796875 0 Z M 8.78125 -5.9375 C 7.820312 -9.019531 7.28125 -10.757812 7.15625 -11.15625 C 7.039062 -11.5625 6.957031 -11.882812 6.90625 -12.125 C 6.6875 -11.289062 6.070312 -9.226562 5.0625 -5.9375 Z M 8.78125 -5.9375 "/></g></g></g><g fill="#ffffff" fill-opacity="1"><g transform="translate(1364.853184, 305.020085)"><g/></g></g><g fill="#ffffff" fill-opacity="1"><g transform="translate(1370.046467, 305.020085)"><g><path d="M 1.796875 -14.28125 L 6.234375 -14.28125 C 8.265625 -14.28125 9.734375 -13.988281 10.640625 -13.40625 C 11.554688 -12.832031 12.015625 -11.921875 12.015625 -10.671875 C 12.015625 -9.816406 11.816406 -9.113281 11.421875 -8.5625 C 11.023438 -8.019531 10.492188 -7.691406 9.828125 -7.578125 L 9.828125 -7.484375 C 10.734375 -7.273438 11.382812 -6.894531 11.78125 -6.34375 C 12.1875 -5.789062 12.390625 -5.054688 12.390625 -4.140625 C 12.390625 -2.835938 11.914062 -1.820312 10.96875 -1.09375 C 10.03125 -0.363281 8.753906 0 7.140625 0 L 1.796875 0 Z M 4.828125 -8.625 L 6.578125 -8.625 C 7.398438 -8.625 7.992188 -8.75 8.359375 -9 C 8.734375 -9.257812 8.921875 -9.679688 8.921875 -10.265625 C 8.921875 -10.804688 8.71875 -11.195312 8.3125 -11.4375 C 7.914062 -11.675781 7.285156 -11.796875 6.421875 -11.796875 L 4.828125 -11.796875 Z M 4.828125 -6.21875 L 4.828125 -2.5 L 6.796875 -2.5 C 7.628906 -2.5 8.242188 -2.65625 8.640625 -2.96875 C 9.035156 -3.289062 9.234375 -3.78125 9.234375 -4.4375 C 9.234375 -5.625 8.390625 -6.21875 6.703125 -6.21875 Z M 4.828125 -6.21875 "/></g></g></g><g clip-path="url(#22d5fccf24)"><path fill="#dea55a" d="M 1187.625 189.859375 L 343.105469 189.859375 L 343.105469 207.140625 L 1187.625 207.140625 Z M 1187.625 189.859375 " fill-opacity="1" fill-rule="nonzero"/></g><g clip-path="url(#80955dbb4d)"><path fill="#d39d49" d="M 1187.625 172.597656 L 343.105469 172.597656 L 343.105469 189.859375 L 1187.625 189.859375 Z M 1187.625 172.597656 " fill-opacity="1" fill-rule="nonzero"/></g><g clip-path="url(#a4668ddb4c)"><path fill="#dea55a" d="M 1187.625 155.320312 L 343.105469 155.320312 L 343.105469 172.597656 L 1187.625 172.597656 Z M 1187.625 155.320312 " fill-opacity="1" fill-rule="nonzero"/></g><g clip-path="url(#4e3ca7c1af)"><path fill="#dea55a" d="M 1187.625 138.058594 L 343.105469 138.058594 L 343.105469 155.320312 L 1187.625 155.320312 Z M 1187.625 138.058594 " fill-opacity="1" fill-rule="nonzero"/></g><g clip-path="url(#3c13392227)"><path fill="#dea55a" d="M 1187.625 120.785156 L 343.105469 120.785156 L 343.105469 138.058594 L 1187.625 138.058594 Z M 1187.625 120.785156 " fill-opacity="1" fill-rule="nonzero"/></g><g clip-path="url(#8c1a587000)"><path fill="#dea55a" d="M 1187.625 103.515625 L 343.105469 103.515625 L 343.105469 120.785156 L 1187.625 120.785156 Z M 1187.625 103.515625 " fill-opacity="1" fill-rule="nonzero"/></g><g clip-path="url(#13909772a5)"><path fill="#dea55a" d="M 1187.625 86.234375 L 343.105469 86.234375 L 343.105469 103.515625 L 1187.625 103.515625 Z M 1187.625 86.234375 " fill-opacity="1" fill-rule="nonzero"/></g><g clip-path="url(#ddfd5cc6c4)"><path fill="#d39d48" d="M 1187.625 68.972656 L 343.105469 68.972656 L 343.105469 86.234375 L 1187.625 86.234375 Z M 1187.625 68.972656 " fill-opacity="1" fill-rule="nonzero"/></g><g clip-path="url(#2f38741cb1)"><path fill="#dea55a" d="M 1187.625 51.691406 L 343.105469 51.691406 L 343.105469 68.972656 L 1187.625 68.972656 Z M 1187.625 51.691406 " fill-opacity="1" fill-rule="nonzero"/></g><g clip-path="url(#116a0b8775)"><path fill="#d39d49" d="M 1187.625 34.417969 L 343.105469 34.417969 L 343.105469 51.691406 L 1187.625 51.691406 Z M 1187.625 34.417969 " fill-opacity="1" fill-rule="nonzero"/></g><g clip-path="url(#5c476494a4)"><path fill="#dea55a" d="M 1187.625 17.148438 L 343.105469 17.148438 L 343.105469 34.417969 L 1187.625 34.417969 Z M 1187.625 17.148438 " fill-opacity="1" fill-rule="nonzero"/></g><g clip-path="url(#e64159e7ea)"><path fill="#d39d48" d="M 1187.625 -0.125 L 343.105469 -0.125 L 343.105469 17.148438 L 1187.625 17.148438 Z M 1187.625 -0.125 " fill-opacity="1" fill-rule="nonzero"/></g><path fill="#d39d48" d="M 800.34375 138.058594 L 444.445312 138.058594 L 444.445312 155.320312 L 800.34375 155.320312 Z M 800.34375 138.058594 " fill-opacity="1" fill-rule="nonzero"/><path fill="#c79146" d="M 626.570312 120.785156 L 462.308594 120.785156 L 462.308594 138.058594 L 626.570312 138.058594 Z M 626.570312 120.785156 " fill-opacity="1" fill-rule="nonzero"/><path fill="#c28e3f" d="M 689.066406 34.417969 L 524.804688 34.417969 L 524.804688 51.691406 L 689.066406 51.691406 Z M 689.066406 34.417969 " fill-opacity="1" fill-rule="nonzero"/><path fill="#c79146" d="M 1067.113281 86.234375 L 946 86.234375 L 946 94.878906 L 1067.113281 94.878906 Z M 1067.113281 86.234375 " fill-opacity="1" fill-rule="nonzero"/><path fill="#c28e3f" d="M 1067.113281 77.605469 L 946 77.605469 L 946 86.234375 L 1067.113281 86.234375 Z M 1067.113281 77.605469 " fill-opacity="1" fill-rule="nonzero"/><path fill="#c79146" d="M 1155.546875 138.058594 L 1034.453125 138.058594 L 1034.453125 155.320312 L 1155.546875 155.320312 Z M 1155.546875 138.058594 " fill-opacity="1" fill-rule="nonzero"/><g clip-path="url(#accc0dfed8)"><path fill="#ae703f" d="M 1187.625 189.859375 L 343.105469 189.859375 L 343.105469 207.140625 L 1187.625 207.140625 Z M 1187.625 189.859375 " fill-opacity="1" fill-rule="nonzero"/></g><g clip-path="url(#33ca0451a9)"><path fill="#a86c37" d="M 343.105469 172.597656 L 370.003906 172.597656 L 370.003906 189.132812 L 1160.917969 189.132812 L 1160.917969 172.597656 L 1187.625 172.597656 L 1187.625 189.859375 L 343.105469 189.859375 L 343.105469 172.597656 " fill-opacity="1" fill-rule="nonzero"/></g><g clip-path="url(#02bc2b4e20)"><path fill="#ae703f" d="M 343.105469 155.320312 L 370.003906 155.320312 L 370.003906 172.597656 L 343.105469 172.597656 L 343.105469 155.320312 M 1160.917969 155.320312 L 1187.625 155.320312 L 1187.625 172.597656 L 1160.917969 172.597656 L 1160.917969 155.320312 " fill-opacity="1" fill-rule="nonzero"/></g><g clip-path="url(#669560d737)"><path fill="#ae703f" d="M 343.105469 138.058594 L 370.003906 138.058594 L 370.003906 155.320312 L 343.105469 155.320312 L 343.105469 138.058594 M 1160.917969 138.058594 L 1187.625 138.058594 L 1187.625 155.320312 L 1160.917969 155.320312 L 1160.917969 138.058594 " fill-opacity="1" fill-rule="nonzero"/></g><g clip-path="url(#ce07f33478)"><path fill="#ae703f" d="M 343.105469 120.785156 L 370.003906 120.785156 L 370.003906 138.058594 L 343.105469 138.058594 L 343.105469 120.785156 M 1160.917969 120.785156 L 1187.625 120.785156 L 1187.625 138.058594 L 1160.917969 138.058594 L 1160.917969 120.785156 " fill-opacity="1" fill-rule="nonzero"/></g><g clip-path="url(#00923910ea)"><path fill="#ae703f" d="M 343.105469 103.515625 L 370.003906 103.515625 L 370.003906 120.785156 L 343.105469 120.785156 L 343.105469 103.515625 M 1160.917969 103.515625 L 1187.625 103.515625 L 1187.625 120.785156 L 1160.917969 120.785156 L 1160.917969 103.515625 " fill-opacity="1" fill-rule="nonzero"/></g><g clip-path="url(#54f232df14)"><path fill="#ae703f" d="M 343.105469 86.234375 L 370.003906 86.234375 L 370.003906 103.515625 L 343.105469 103.515625 L 343.105469 86.234375 M 1160.917969 86.234375 L 1187.625 86.234375 L 1187.625 103.515625 L 1160.917969 103.515625 L 1160.917969 86.234375 " fill-opacity="1" fill-rule="nonzero"/></g><g clip-path="url(#a32e86d7d6)"><path fill="#a86c36" d="M 343.105469 68.972656 L 370.003906 68.972656 L 370.003906 86.234375 L 343.105469 86.234375 L 343.105469 68.972656 M 1160.917969 68.972656 L 1187.625 68.972656 L 1187.625 86.234375 L 1160.917969 86.234375 L 1160.917969 68.972656 " fill-opacity="1" fill-rule="nonzero"/></g><g clip-path="url(#f5bea48704)"><path fill="#ae703f" d="M 343.105469 51.691406 L 370.003906 51.691406 L 370.003906 68.972656 L 343.105469 68.972656 L 343.105469 51.691406 M 1160.917969 51.691406 L 1187.625 51.691406 L 1187.625 68.972656 L 1160.917969 68.972656 L 1160.917969 51.691406 " fill-opacity="1" fill-rule="nonzero"/></g><g clip-path="url(#f9540899c0)"><path fill="#a86c37" d="M 343.105469 34.417969 L 370.003906 34.417969 L 370.003906 51.691406 L 343.105469 51.691406 L 343.105469 34.417969 M 1160.917969 34.417969 L 1187.625 34.417969 L 1187.625 51.691406 L 1160.917969 51.691406 L 1160.917969 34.417969 " fill-opacity="1" fill-rule="nonzero"/></g><g clip-path="url(#c3c22bf46d)"><path fill="#ae703f" d="M 343.105469 17.148438 L 370.003906 17.148438 L 370.003906 34.417969 L 343.105469 34.417969 L 343.105469 17.148438 M 1160.917969 17.148438 L 1187.625 17.148438 L 1187.625 34.417969 L 1160.917969 34.417969 L 1160.917969 17.148438 " fill-opacity="1" fill-rule="nonzero"/></g><g clip-path="url(#fe4dae4686)"><path fill="#a86c36" d="M 343.105469 -0.125 L 370.003906 -0.125 L 370.003906 17.148438 L 343.105469 17.148438 L 343.105469 -0.125 M 1160.917969 -0.125 L 1187.625 -0.125 L 1187.625 17.148438 L 1160.917969 17.148438 L 1160.917969 -0.125 " fill-opacity="1" fill-rule="nonzero"/></g><path fill="#ffffff" d="M 1158.28125 -268.703125 C 1106.082031 -267.761719 1057.164062 -246.988281 1020.140625 -209.941406 C 982.246094 -172.03125 961.390625 -121.613281 961.390625 -67.996094 L 961.390625 -66.957031 C 961.390625 -66.609375 961.398438 -66.25 961.398438 -65.890625 C 962.523438 42.589844 1050.074219 130.730469 1158.28125 132.710938 L 1158.28125 181.699219 L 769.054688 181.699219 L 769.054688 37.796875 C 826.34375 35.824219 872.332031 -11.390625 872.332031 -69.179688 C 872.332031 -126.960938 826.34375 -174.1875 769.054688 -176.15625 L 769.054688 -320.0625 L 1158.28125 -320.0625 Z M 1020.121094 -4.566406 L 1020.121094 -4.460938 L 1158.28125 -4.460938 L 1158.28125 125.269531 C 1065.785156 123.503906 989.003906 56.386719 972.238281 -31.792969 C 982.847656 -16.257812 1000.253906 -5.75 1020.121094 -4.566406 Z M 1030.042969 -129.132812 C 1027.984375 -129.328125 1025.921875 -129.464844 1023.84375 -129.464844 C 1002.058594 -129.464844 982.847656 -118.238281 971.667969 -101.269531 C 978.386719 -140.246094 996.886719 -176.136719 1025.40625 -204.671875 C 1061.011719 -240.300781 1108.082031 -260.300781 1158.28125 -261.242188 L 1158.28125 -129.132812 Z M 1053.34375 -11.902344 C 1055.4375 -13.027344 1057.492188 -14.242188 1059.421875 -15.582031 C 1060.46875 -16.308594 1061.03125 -17.472656 1061.03125 -18.648438 C 1061.03125 -19.375 1060.808594 -20.121094 1060.363281 -20.761719 C 1059.191406 -22.460938 1056.871094 -22.867188 1055.175781 -21.703125 C 1052.800781 -20.054688 1050.257812 -18.578125 1047.660156 -17.316406 C 1045.796875 -16.425781 1045.023438 -14.191406 1045.90625 -12.347656 L 1046.175781 -11.902344 L 1044.0625 -11.902344 C 1043.382812 -13.726562 1041.414062 -14.746094 1039.523438 -14.183594 C 1036.761719 -13.359375 1033.902344 -12.746094 1031.011719 -12.378906 C 1030.515625 -12.308594 1030.0625 -12.144531 1029.644531 -11.902344 L 1027.570312 -11.902344 L 1027.570312 -121.671875 L 1029.652344 -121.671875 C 1030.625 -121.574219 1031.582031 -121.480469 1032.535156 -121.324219 C 1033.320312 -121.21875 1034.085938 -121.34375 1034.753906 -121.671875 L 1038.632812 -121.671875 C 1038.992188 -120.578125 1039.835938 -119.675781 1041 -119.277344 C 1043.753906 -118.375 1046.457031 -117.25 1049.039062 -115.917969 C 1050.851562 -114.976562 1053.109375 -115.695312 1054.058594 -117.519531 C 1054.332031 -118.0625 1054.46875 -118.65625 1054.46875 -119.226562 C 1054.46875 -120.140625 1054.117188 -120.984375 1053.515625 -121.671875 L 1158.28125 -121.671875 L 1158.28125 -11.902344 Z M 968.84375 -67.316406 C 969.03125 -96.261719 991.640625 -119.957031 1020.121094 -121.875 L 1020.121094 -12.046875 C 991.867188 -13.949219 969.40625 -37.296875 968.863281 -65.890625 C 968.855469 -66.375 968.84375 -66.839844 968.84375 -67.316406 Z M 761.605469 -94.988281 C 748.972656 -93.175781 739.246094 -82.328125 739.246094 -69.179688 C 739.246094 -56.03125 748.972656 -45.195312 761.605469 -43.371094 L 761.605469 30.34375 C 708.429688 28.363281 665.773438 -15.503906 665.773438 -69.179688 C 665.773438 -122.855469 708.429688 -166.734375 761.605469 -168.695312 Z M 769.054688 -43.371094 C 781.699219 -45.195312 791.414062 -56.03125 791.414062 -69.179688 C 791.414062 -82.328125 781.699219 -93.175781 769.054688 -94.988281 L 769.054688 -168.695312 C 822.230469 -166.734375 864.886719 -122.855469 864.886719 -69.179688 C 864.886719 -15.503906 822.230469 28.363281 769.054688 30.34375 Z M 372.378906 132.710938 C 481.292969 130.722656 569.273438 41.453125 569.273438 -67.996094 C 569.273438 -68.21875 569.261719 -68.453125 569.261719 -68.675781 L 569.273438 -69.023438 C 569.273438 -69.375 569.253906 -69.714844 569.253906 -70.0625 C 568.148438 -178.570312 480.605469 -266.714844 372.378906 -268.703125 L 372.378906 -320.0625 L 761.605469 -320.0625 L 761.605469 -176.15625 C 704.328125 -174.1875 658.328125 -126.960938 658.328125 -69.179688 C 658.328125 -11.390625 704.328125 35.824219 761.605469 37.796875 L 761.605469 181.699219 L 372.378906 181.699219 Z M 510.539062 -131.40625 L 510.539062 -131.523438 L 372.378906 -131.523438 L 372.378906 -261.242188 C 464.878906 -259.476562 541.65625 -192.359375 558.410156 -104.207031 C 547.8125 -119.722656 530.417969 -130.222656 510.539062 -131.40625 Z M 501.085938 -6.867188 C 501.335938 -6.789062 501.597656 -6.730469 501.871094 -6.710938 C 503.5 -6.585938 505.15625 -6.519531 506.804688 -6.519531 C 528.574219 -6.519531 547.746094 -17.714844 558.9375 -34.648438 C 543.304688 54.921875 465.875 123.484375 372.378906 125.269531 L 372.378906 -6.867188 Z M 480.585938 -124.078125 C 480.421875 -123.351562 480.488281 -122.585938 480.789062 -121.855469 C 481.574219 -119.957031 483.746094 -119.074219 485.667969 -119.859375 C 488.304688 -120.953125 491.058594 -121.855469 493.839844 -122.535156 C 494.792969 -122.761719 495.546875 -123.332031 496.042969 -124.078125 L 501.015625 -124.078125 C 501.472656 -123.933594 501.949219 -123.855469 502.453125 -123.90625 L 503.082031 -123.933594 L 503.082031 -14.320312 L 495.847656 -14.320312 C 495.363281 -14.882812 494.703125 -15.300781 493.929688 -15.492188 C 491.136719 -16.171875 488.371094 -17.054688 485.726562 -18.160156 C 483.835938 -18.949219 481.644531 -18.054688 480.859375 -16.152344 C 480.605469 -15.550781 480.546875 -14.921875 480.605469 -14.320312 L 372.378906 -14.320312 L 372.378906 -124.078125 Z M 561.816406 -68.683594 C 561.652344 -39.730469 539.027344 -16.027344 510.539062 -14.105469 L 510.539062 -123.933594 C 538.804688 -122.03125 561.273438 -98.6875 561.804688 -70.054688 C 561.804688 -69.585938 561.816406 -69.140625 561.816406 -68.683594 Z M 364.921875 189.152344 L 1165.726562 189.152344 L 1165.726562 -327.511719 L 364.921875 -327.511719 L 364.921875 189.152344 " fill-opacity="1" fill-rule="nonzero"/><g clip-path="url(#2be8e015d9)"><g clip-path="url(#07f28638a9)"><path fill="#d9d9d9" d="M 1079.507812 337.597656 L 440.664062 337.597656 L 440.664062 258.515625 L 1079.507812 258.515625 Z M 1079.507812 337.597656 " fill-opacity="1" fill-rule="nonzero"/></g></g><g clip-path="url(#27e4e57bb1)"><g clip-path="url(#9529b2ee1c)"><path fill="#d9d9d9" d="M 1013.605469 590.648438 L 516.757812 590.648438 L 516.757812 388.4375 L 1013.605469 388.4375 Z M 1013.605469 590.648438 " fill-opacity="1" fill-rule="nonzero"/></g></g><g clip-path="url(#a9e222c265)"><g clip-path="url(#655d0ef592)"><path fill="#d9d9d9" d="M 411.269531 337.597656 L 120.886719 337.597656 L 120.886719 258.515625 L 411.269531 258.515625 Z M 411.269531 337.597656 " fill-opacity="1" fill-rule="nonzero"/></g></g><g clip-path="url(#1968dca456)"><g clip-path="url(#4508c7ed79)"><path fill="#d9d9d9" d="M 1427.523438 574.601562 L 1164.773438 574.601562 L 1164.773438 397.59375 L 1427.523438 397.59375 Z M 1427.523438 574.601562 " fill-opacity="1" fill-rule="nonzero"/></g></g><g clip-path="url(#3aec264440)"><g clip-path="url(#8f279a9b1c)"><path fill="#d9d9d9" d="M 1407.023438 198.144531 L 1225.171875 198.144531 L 1225.171875 21.132812 L 1407.023438 21.132812 Z M 1407.023438 198.144531 " fill-opacity="1" fill-rule="nonzero"/></g></g><g clip-path="url(#82baadabb9)"><g clip-path="url(#ff0ca10813)"><path fill="#d9d9d9" d="M 302.554688 198.144531 L 120.703125 198.144531 L 120.703125 21.132812 L 302.554688 21.132812 Z M 302.554688 198.144531 " fill-opacity="1" fill-rule="nonzero"/></g></g><g clip-path="url(#14481ffa0a)"><g clip-path="url(#c50274bc94)"><path fill="#ff66c4" d="M 985.933594 184.945312 L 1175.296875 184.945312 L 1175.296875 230.417969 L 985.933594 230.417969 Z M 985.933594 184.945312 " fill-opacity="1" fill-rule="nonzero"/></g></g><g fill="#000000" fill-opacity="1"><g transform="translate(1042.43141, 212.693449)"><g><path d="M 3.25 0 L 0 -8.515625 L 2.421875 -8.515625 L 4.078125 -3.65625 C 4.253906 -3.039062 4.367188 -2.460938 4.421875 -1.921875 L 4.46875 -1.921875 C 4.488281 -2.410156 4.597656 -2.988281 4.796875 -3.65625 L 6.4375 -8.515625 L 8.875 -8.515625 L 5.625 0 Z M 3.25 0 "/></g></g></g><g fill="#000000" fill-opacity="1"><g transform="translate(1051.297434, 212.693449)"><g><path d="M 1.125 -10.71875 C 1.125 -11.46875 1.546875 -11.84375 2.390625 -11.84375 C 3.222656 -11.84375 3.640625 -11.46875 3.640625 -10.71875 C 3.640625 -10.351562 3.535156 -10.070312 3.328125 -9.875 C 3.117188 -9.675781 2.804688 -9.578125 2.390625 -9.578125 C 1.546875 -9.578125 1.125 -9.957031 1.125 -10.71875 Z M 3.546875 0 L 1.21875 0 L 1.21875 -8.515625 L 3.546875 -8.515625 Z M 3.546875 0 "/></g></g></g><g fill="#000000" fill-opacity="1"><g transform="translate(1056.053884, 212.693449)"><g><path d="M 7.15625 -2.53125 C 7.15625 -1.65625 6.851562 -0.988281 6.25 -0.53125 C 5.644531 -0.0703125 4.738281 0.15625 3.53125 0.15625 C 2.90625 0.15625 2.375 0.113281 1.9375 0.03125 C 1.5 -0.0507812 1.09375 -0.175781 0.71875 -0.34375 L 0.71875 -2.265625 C 1.144531 -2.054688 1.628906 -1.882812 2.171875 -1.75 C 2.710938 -1.613281 3.1875 -1.546875 3.59375 -1.546875 C 4.4375 -1.546875 4.859375 -1.789062 4.859375 -2.28125 C 4.859375 -2.457031 4.800781 -2.601562 4.6875 -2.71875 C 4.582031 -2.832031 4.390625 -2.960938 4.109375 -3.109375 C 3.835938 -3.253906 3.472656 -3.421875 3.015625 -3.609375 C 2.367188 -3.890625 1.890625 -4.144531 1.578125 -4.375 C 1.273438 -4.613281 1.050781 -4.882812 0.90625 -5.1875 C 0.769531 -5.488281 0.703125 -5.859375 0.703125 -6.296875 C 0.703125 -7.054688 0.992188 -7.640625 1.578125 -8.046875 C 2.160156 -8.460938 2.992188 -8.671875 4.078125 -8.671875 C 5.097656 -8.671875 6.09375 -8.445312 7.0625 -8 L 6.359375 -6.328125 C 5.929688 -6.503906 5.53125 -6.648438 5.15625 -6.765625 C 4.789062 -6.890625 4.414062 -6.953125 4.03125 -6.953125 C 3.34375 -6.953125 3 -6.765625 3 -6.390625 C 3 -6.179688 3.109375 -6 3.328125 -5.84375 C 3.554688 -5.695312 4.046875 -5.472656 4.796875 -5.171875 C 5.453125 -4.910156 5.9375 -4.660156 6.25 -4.421875 C 6.5625 -4.191406 6.789062 -3.921875 6.9375 -3.609375 C 7.082031 -3.304688 7.15625 -2.945312 7.15625 -2.53125 Z M 7.15625 -2.53125 "/></g></g></g><g fill="#000000" fill-opacity="1"><g transform="translate(1063.801191, 212.693449)"><g><path d="M 1.125 -10.71875 C 1.125 -11.46875 1.546875 -11.84375 2.390625 -11.84375 C 3.222656 -11.84375 3.640625 -11.46875 3.640625 -10.71875 C 3.640625 -10.351562 3.535156 -10.070312 3.328125 -9.875 C 3.117188 -9.675781 2.804688 -9.578125 2.390625 -9.578125 C 1.546875 -9.578125 1.125 -9.957031 1.125 -10.71875 Z M 3.546875 0 L 1.21875 0 L 1.21875 -8.515625 L 3.546875 -8.515625 Z M 3.546875 0 "/></g></g></g><g fill="#000000" fill-opacity="1"><g transform="translate(1068.557641, 212.693449)"><g><path d="M 4.796875 -1.703125 C 5.203125 -1.703125 5.691406 -1.789062 6.265625 -1.96875 L 6.265625 -0.234375 C 5.679688 0.0234375 4.972656 0.15625 4.140625 0.15625 C 3.203125 0.15625 2.519531 -0.078125 2.09375 -0.546875 C 1.675781 -1.015625 1.46875 -1.722656 1.46875 -2.671875 L 1.46875 -6.765625 L 0.359375 -6.765625 L 0.359375 -7.75 L 1.640625 -8.53125 L 2.3125 -10.328125 L 3.796875 -10.328125 L 3.796875 -8.515625 L 6.171875 -8.515625 L 6.171875 -6.765625 L 3.796875 -6.765625 L 3.796875 -2.671875 C 3.796875 -2.335938 3.882812 -2.09375 4.0625 -1.9375 C 4.25 -1.78125 4.492188 -1.703125 4.796875 -1.703125 Z M 4.796875 -1.703125 "/></g></g></g><g fill="#000000" fill-opacity="1"><g transform="translate(1075.323216, 212.693449)"><g><path d="M 6.625 0 L 6.171875 -1.15625 L 6.109375 -1.15625 C 5.722656 -0.664062 5.320312 -0.320312 4.90625 -0.125 C 4.488281 0.0625 3.953125 0.15625 3.296875 0.15625 C 2.472656 0.15625 1.828125 -0.078125 1.359375 -0.546875 C 0.890625 -1.015625 0.65625 -1.679688 0.65625 -2.546875 C 0.65625 -3.453125 0.96875 -4.117188 1.59375 -4.546875 C 2.226562 -4.972656 3.1875 -5.207031 4.46875 -5.25 L 5.9375 -5.296875 L 5.9375 -5.671875 C 5.9375 -6.535156 5.492188 -6.96875 4.609375 -6.96875 C 3.929688 -6.96875 3.132812 -6.757812 2.21875 -6.34375 L 1.453125 -7.921875 C 2.429688 -8.429688 3.515625 -8.6875 4.703125 -8.6875 C 5.847656 -8.6875 6.722656 -8.4375 7.328125 -7.9375 C 7.941406 -7.445312 8.25 -6.691406 8.25 -5.671875 L 8.25 0 Z M 5.9375 -3.9375 L 5.046875 -3.90625 C 4.367188 -3.894531 3.863281 -3.773438 3.53125 -3.546875 C 3.195312 -3.328125 3.03125 -2.988281 3.03125 -2.53125 C 3.03125 -1.875 3.410156 -1.546875 4.171875 -1.546875 C 4.703125 -1.546875 5.128906 -1.695312 5.453125 -2 C 5.773438 -2.3125 5.9375 -2.726562 5.9375 -3.25 Z M 5.9375 -3.9375 "/></g></g></g><g fill="#000000" fill-opacity="1"><g transform="translate(1084.737183, 212.693449)"><g><path d="M 9.078125 0 L 6.75 0 L 6.75 -4.96875 C 6.75 -5.582031 6.640625 -6.039062 6.421875 -6.34375 C 6.203125 -6.65625 5.859375 -6.8125 5.390625 -6.8125 C 4.734375 -6.8125 4.257812 -6.59375 3.96875 -6.15625 C 3.6875 -5.726562 3.546875 -5.007812 3.546875 -4 L 3.546875 0 L 1.21875 0 L 1.21875 -8.515625 L 3 -8.515625 L 3.296875 -7.421875 L 3.4375 -7.421875 C 3.695312 -7.835938 4.050781 -8.148438 4.5 -8.359375 C 4.957031 -8.566406 5.472656 -8.671875 6.046875 -8.671875 C 7.035156 -8.671875 7.785156 -8.398438 8.296875 -7.859375 C 8.816406 -7.328125 9.078125 -6.554688 9.078125 -5.546875 Z M 9.078125 0 "/></g></g></g><g fill="#000000" fill-opacity="1"><g transform="translate(1094.980675, 212.693449)"><g><path d="M 4.796875 -1.703125 C 5.203125 -1.703125 5.691406 -1.789062 6.265625 -1.96875 L 6.265625 -0.234375 C 5.679688 0.0234375 4.972656 0.15625 4.140625 0.15625 C 3.203125 0.15625 2.519531 -0.078125 2.09375 -0.546875 C 1.675781 -1.015625 1.46875 -1.722656 1.46875 -2.671875 L 1.46875 -6.765625 L 0.359375 -6.765625 L 0.359375 -7.75 L 1.640625 -8.53125 L 2.3125 -10.328125 L 3.796875 -10.328125 L 3.796875 -8.515625 L 6.171875 -8.515625 L 6.171875 -6.765625 L 3.796875 -6.765625 L 3.796875 -2.671875 C 3.796875 -2.335938 3.882812 -2.09375 4.0625 -1.9375 C 4.25 -1.78125 4.492188 -1.703125 4.796875 -1.703125 Z M 4.796875 -1.703125 "/></g></g></g><g fill="#000000" fill-opacity="1"><g transform="translate(1101.74625, 212.693449)"><g><path d="M 4.75 -7.015625 C 4.25 -7.015625 3.859375 -6.859375 3.578125 -6.546875 C 3.304688 -6.234375 3.148438 -5.789062 3.109375 -5.21875 L 6.359375 -5.21875 C 6.347656 -5.789062 6.195312 -6.234375 5.90625 -6.546875 C 5.625 -6.859375 5.238281 -7.015625 4.75 -7.015625 Z M 5.078125 0.15625 C 3.703125 0.15625 2.628906 -0.21875 1.859375 -0.96875 C 1.085938 -1.726562 0.703125 -2.804688 0.703125 -4.203125 C 0.703125 -5.617188 1.054688 -6.71875 1.765625 -7.5 C 2.484375 -8.28125 3.472656 -8.671875 4.734375 -8.671875 C 5.929688 -8.671875 6.863281 -8.328125 7.53125 -7.640625 C 8.207031 -6.953125 8.546875 -6.003906 8.546875 -4.796875 L 8.546875 -3.671875 L 3.046875 -3.671875 C 3.078125 -3.015625 3.273438 -2.5 3.640625 -2.125 C 4.003906 -1.757812 4.515625 -1.578125 5.171875 -1.578125 C 5.691406 -1.578125 6.175781 -1.628906 6.625 -1.734375 C 7.082031 -1.835938 7.5625 -2.007812 8.0625 -2.25 L 8.0625 -0.453125 C 7.65625 -0.242188 7.21875 -0.09375 6.75 0 C 6.289062 0.101562 5.734375 0.15625 5.078125 0.15625 Z M 5.078125 0.15625 "/></g></g></g><g fill="#000000" fill-opacity="1"><g transform="translate(1110.954738, 212.693449)"><g><path d="M 7.15625 -2.53125 C 7.15625 -1.65625 6.851562 -0.988281 6.25 -0.53125 C 5.644531 -0.0703125 4.738281 0.15625 3.53125 0.15625 C 2.90625 0.15625 2.375 0.113281 1.9375 0.03125 C 1.5 -0.0507812 1.09375 -0.175781 0.71875 -0.34375 L 0.71875 -2.265625 C 1.144531 -2.054688 1.628906 -1.882812 2.171875 -1.75 C 2.710938 -1.613281 3.1875 -1.546875 3.59375 -1.546875 C 4.4375 -1.546875 4.859375 -1.789062 4.859375 -2.28125 C 4.859375 -2.457031 4.800781 -2.601562 4.6875 -2.71875 C 4.582031 -2.832031 4.390625 -2.960938 4.109375 -3.109375 C 3.835938 -3.253906 3.472656 -3.421875 3.015625 -3.609375 C 2.367188 -3.890625 1.890625 -4.144531 1.578125 -4.375 C 1.273438 -4.613281 1.050781 -4.882812 0.90625 -5.1875 C 0.769531 -5.488281 0.703125 -5.859375 0.703125 -6.296875 C 0.703125 -7.054688 0.992188 -7.640625 1.578125 -8.046875 C 2.160156 -8.460938 2.992188 -8.671875 4.078125 -8.671875 C 5.097656 -8.671875 6.09375 -8.445312 7.0625 -8 L 6.359375 -6.328125 C 5.929688 -6.503906 5.53125 -6.648438 5.15625 -6.765625 C 4.789062 -6.890625 4.414062 -6.953125 4.03125 -6.953125 C 3.34375 -6.953125 3 -6.765625 3 -6.390625 C 3 -6.179688 3.109375 -6 3.328125 -5.84375 C 3.554688 -5.695312 4.046875 -5.472656 4.796875 -5.171875 C 5.453125 -4.910156 5.9375 -4.660156 6.25 -4.421875 C 6.5625 -4.191406 6.789062 -3.921875 6.9375 -3.609375 C 7.082031 -3.304688 7.15625 -2.945312 7.15625 -2.53125 Z M 7.15625 -2.53125 "/></g></g></g><g clip-path="url(#ebc4bfa6d0)"><g clip-path="url(#7006740c84)"><path fill="#ffbd59" d="M 665.839844 187.773438 L 855.085938 187.773438 L 855.085938 230.417969 L 665.839844 230.417969 Z M 665.839844 187.773438 " fill-opacity="1" fill-rule="nonzero"/></g></g><g fill="#000000" fill-opacity="1"><g transform="translate(736.961871, 215.521885)"><g><path d="M 9.96875 0 L 7.359375 0 L 7.359375 -5.609375 C 7.359375 -6.304688 7.238281 -6.828125 7 -7.171875 C 6.769531 -7.515625 6.40625 -7.6875 5.90625 -7.6875 C 5.238281 -7.6875 4.753906 -7.441406 4.453125 -6.953125 C 4.148438 -6.460938 4 -5.648438 4 -4.515625 L 4 0 L 1.375 0 L 1.375 -9.609375 L 3.375 -9.609375 L 3.734375 -8.375 L 3.875 -8.375 C 4.132812 -8.8125 4.503906 -9.15625 4.984375 -9.40625 C 5.472656 -9.65625 6.035156 -9.78125 6.671875 -9.78125 C 8.109375 -9.78125 9.082031 -9.3125 9.59375 -8.375 L 9.8125 -8.375 C 10.070312 -8.820312 10.453125 -9.164062 10.953125 -9.40625 C 11.453125 -9.65625 12.019531 -9.78125 12.65625 -9.78125 C 13.738281 -9.78125 14.5625 -9.5 15.125 -8.9375 C 15.6875 -8.382812 15.96875 -7.492188 15.96875 -6.265625 L 15.96875 0 L 13.328125 0 L 13.328125 -5.609375 C 13.328125 -6.304688 13.210938 -6.828125 12.984375 -7.171875 C 12.753906 -7.515625 12.390625 -7.6875 11.890625 -7.6875 C 11.242188 -7.6875 10.757812 -7.457031 10.4375 -7 C 10.125 -6.539062 9.96875 -5.8125 9.96875 -4.8125 Z M 9.96875 0 "/></g></g></g><g fill="#000000" fill-opacity="1"><g transform="translate(754.233935, 215.521885)"><g><path d="M 5.359375 -7.921875 C 4.796875 -7.921875 4.359375 -7.742188 4.046875 -7.390625 C 3.734375 -7.035156 3.550781 -6.535156 3.5 -5.890625 L 7.1875 -5.890625 C 7.175781 -6.535156 7.003906 -7.035156 6.671875 -7.390625 C 6.347656 -7.742188 5.910156 -7.921875 5.359375 -7.921875 Z M 5.71875 0.171875 C 4.175781 0.171875 2.96875 -0.253906 2.09375 -1.109375 C 1.226562 -1.960938 0.796875 -3.171875 0.796875 -4.734375 C 0.796875 -6.335938 1.195312 -7.578125 2 -8.453125 C 2.800781 -9.335938 3.910156 -9.78125 5.328125 -9.78125 C 6.691406 -9.78125 7.75 -9.394531 8.5 -8.625 C 9.257812 -7.851562 9.640625 -6.785156 9.640625 -5.421875 L 9.640625 -4.15625 L 3.4375 -4.15625 C 3.46875 -3.40625 3.6875 -2.820312 4.09375 -2.40625 C 4.507812 -1.988281 5.09375 -1.78125 5.84375 -1.78125 C 6.414062 -1.78125 6.957031 -1.835938 7.46875 -1.953125 C 7.988281 -2.078125 8.53125 -2.269531 9.09375 -2.53125 L 9.09375 -0.5 C 8.632812 -0.269531 8.144531 -0.101562 7.625 0 C 7.101562 0.113281 6.46875 0.171875 5.71875 0.171875 Z M 5.71875 0.171875 "/></g></g></g><g fill="#000000" fill-opacity="1"><g transform="translate(764.626371, 215.521885)"><g><path d="M 8.078125 -2.859375 C 8.078125 -1.867188 7.734375 -1.113281 7.046875 -0.59375 C 6.359375 -0.0820312 5.335938 0.171875 3.984375 0.171875 C 3.273438 0.171875 2.675781 0.125 2.1875 0.03125 C 1.695312 -0.0625 1.238281 -0.203125 0.8125 -0.390625 L 0.8125 -2.546875 C 1.289062 -2.316406 1.835938 -2.125 2.453125 -1.96875 C 3.066406 -1.820312 3.601562 -1.75 4.0625 -1.75 C 5.007812 -1.75 5.484375 -2.019531 5.484375 -2.5625 C 5.484375 -2.769531 5.421875 -2.9375 5.296875 -3.0625 C 5.171875 -3.195312 4.953125 -3.34375 4.640625 -3.5 C 4.335938 -3.664062 3.925781 -3.859375 3.40625 -4.078125 C 2.664062 -4.390625 2.125 -4.675781 1.78125 -4.9375 C 1.4375 -5.195312 1.1875 -5.5 1.03125 -5.84375 C 0.875 -6.1875 0.796875 -6.609375 0.796875 -7.109375 C 0.796875 -7.960938 1.125 -8.617188 1.78125 -9.078125 C 2.445312 -9.546875 3.382812 -9.78125 4.59375 -9.78125 C 5.75 -9.78125 6.875 -9.53125 7.96875 -9.03125 L 7.1875 -7.140625 C 6.695312 -7.347656 6.242188 -7.515625 5.828125 -7.640625 C 5.410156 -7.773438 4.984375 -7.84375 4.546875 -7.84375 C 3.773438 -7.84375 3.390625 -7.632812 3.390625 -7.21875 C 3.390625 -6.976562 3.515625 -6.769531 3.765625 -6.59375 C 4.015625 -6.425781 4.5625 -6.175781 5.40625 -5.84375 C 6.15625 -5.539062 6.703125 -5.253906 7.046875 -4.984375 C 7.398438 -4.722656 7.660156 -4.421875 7.828125 -4.078125 C 7.992188 -3.734375 8.078125 -3.328125 8.078125 -2.859375 Z M 8.078125 -2.859375 "/></g></g></g><g fill="#000000" fill-opacity="1"><g transform="translate(773.36976, 215.521885)"><g><path d="M 7.46875 0 L 6.96875 -1.3125 L 6.890625 -1.3125 C 6.453125 -0.75 6 -0.359375 5.53125 -0.140625 C 5.070312 0.0664062 4.46875 0.171875 3.71875 0.171875 C 2.789062 0.171875 2.0625 -0.0859375 1.53125 -0.609375 C 1 -1.140625 0.734375 -1.894531 0.734375 -2.875 C 0.734375 -3.894531 1.085938 -4.644531 1.796875 -5.125 C 2.515625 -5.601562 3.59375 -5.867188 5.03125 -5.921875 L 6.703125 -5.984375 L 6.703125 -6.40625 C 6.703125 -7.375 6.203125 -7.859375 5.203125 -7.859375 C 4.441406 -7.859375 3.539062 -7.628906 2.5 -7.171875 L 1.625 -8.9375 C 2.738281 -9.507812 3.96875 -9.796875 5.3125 -9.796875 C 6.59375 -9.796875 7.578125 -9.515625 8.265625 -8.953125 C 8.953125 -8.398438 9.296875 -7.550781 9.296875 -6.40625 L 9.296875 0 Z M 6.703125 -4.453125 L 5.6875 -4.421875 C 4.925781 -4.390625 4.359375 -4.25 3.984375 -4 C 3.609375 -3.75 3.421875 -3.367188 3.421875 -2.859375 C 3.421875 -2.117188 3.847656 -1.75 4.703125 -1.75 C 5.304688 -1.75 5.789062 -1.921875 6.15625 -2.265625 C 6.519531 -2.617188 6.703125 -3.082031 6.703125 -3.65625 Z M 6.703125 -4.453125 "/></g></g></g><g clip-path="url(#960f09fa04)"><g clip-path="url(#65968394d5)"><path fill="#ff3131" d="M 324.777344 184.945312 L 513.246094 184.945312 L 513.246094 230.417969 L 324.777344 230.417969 Z M 324.777344 184.945312 " fill-opacity="1" fill-rule="nonzero"/></g></g><g fill="#ffffff" fill-opacity="1"><g transform="translate(386.393334, 214.943449)"><g><path d="M 4.546875 0 L 1.5625 0 L 1.5625 -15.203125 L 4.546875 -15.203125 Z M 4.546875 0 "/></g></g></g><g fill="#ffffff" fill-opacity="1"><g transform="translate(392.494465, 214.943449)"><g><path d="M 6.078125 -9 C 5.453125 -9 4.957031 -8.796875 4.59375 -8.390625 C 4.238281 -7.992188 4.035156 -7.429688 3.984375 -6.703125 L 8.171875 -6.703125 C 8.148438 -7.429688 7.953125 -7.992188 7.578125 -8.390625 C 7.210938 -8.796875 6.710938 -9 6.078125 -9 Z M 6.5 0.203125 C 4.75 0.203125 3.378906 -0.28125 2.390625 -1.25 C 1.398438 -2.226562 0.90625 -3.601562 0.90625 -5.375 C 0.90625 -7.207031 1.359375 -8.625 2.265625 -9.625 C 3.179688 -10.625 4.445312 -11.125 6.0625 -11.125 C 7.601562 -11.125 8.800781 -10.679688 9.65625 -9.796875 C 10.519531 -8.921875 10.953125 -7.707031 10.953125 -6.15625 L 10.953125 -4.71875 L 3.921875 -4.71875 C 3.953125 -3.875 4.203125 -3.210938 4.671875 -2.734375 C 5.140625 -2.253906 5.796875 -2.015625 6.640625 -2.015625 C 7.296875 -2.015625 7.914062 -2.082031 8.5 -2.21875 C 9.09375 -2.363281 9.707031 -2.582031 10.34375 -2.875 L 10.34375 -0.578125 C 9.820312 -0.316406 9.265625 -0.125 8.671875 0 C 8.078125 0.132812 7.351562 0.203125 6.5 0.203125 Z M 6.5 0.203125 "/></g></g></g><g fill="#ffffff" fill-opacity="1"><g transform="translate(404.306255, 214.943449)"><g><path d="M 3.9375 -5.484375 C 3.9375 -4.398438 4.113281 -3.582031 4.46875 -3.03125 C 4.820312 -2.476562 5.398438 -2.203125 6.203125 -2.203125 C 6.992188 -2.203125 7.5625 -2.472656 7.90625 -3.015625 C 8.257812 -3.566406 8.4375 -4.390625 8.4375 -5.484375 C 8.4375 -6.554688 8.257812 -7.363281 7.90625 -7.90625 C 7.5625 -8.445312 6.988281 -8.71875 6.1875 -8.71875 C 5.382812 -8.71875 4.804688 -8.445312 4.453125 -7.90625 C 4.109375 -7.375 3.9375 -6.566406 3.9375 -5.484375 Z M 11.484375 -5.484375 C 11.484375 -3.703125 11.015625 -2.304688 10.078125 -1.296875 C 9.140625 -0.296875 7.832031 0.203125 6.15625 0.203125 C 5.113281 0.203125 4.191406 -0.0234375 3.390625 -0.484375 C 2.585938 -0.953125 1.972656 -1.613281 1.546875 -2.46875 C 1.117188 -3.332031 0.90625 -4.335938 0.90625 -5.484375 C 0.90625 -7.265625 1.367188 -8.648438 2.296875 -9.640625 C 3.222656 -10.628906 4.53125 -11.125 6.21875 -11.125 C 7.269531 -11.125 8.195312 -10.894531 9 -10.4375 C 9.800781 -9.976562 10.414062 -9.320312 10.84375 -8.46875 C 11.269531 -7.625 11.484375 -6.628906 11.484375 -5.484375 Z M 11.484375 -5.484375 "/></g></g></g><g fill="#ffffff" fill-opacity="1"><g transform="translate(416.68423, 214.943449)"><g><path d="M 11.640625 0 L 8.65625 0 L 8.65625 -6.375 C 8.65625 -7.164062 8.515625 -7.753906 8.234375 -8.140625 C 7.960938 -8.535156 7.519531 -8.734375 6.90625 -8.734375 C 6.070312 -8.734375 5.46875 -8.457031 5.09375 -7.90625 C 4.726562 -7.351562 4.546875 -6.429688 4.546875 -5.140625 L 4.546875 0 L 1.5625 0 L 1.5625 -10.921875 L 3.84375 -10.921875 L 4.234375 -9.515625 L 4.40625 -9.515625 C 4.738281 -10.046875 5.195312 -10.445312 5.78125 -10.71875 C 6.363281 -10.988281 7.023438 -11.125 7.765625 -11.125 C 9.035156 -11.125 10 -10.78125 10.65625 -10.09375 C 11.3125 -9.40625 11.640625 -8.414062 11.640625 -7.125 Z M 11.640625 0 "/></g></g></g><g fill="#ffffff" fill-opacity="1"><g transform="translate(429.823627, 214.943449)"><g><path d="M 6.078125 -9 C 5.453125 -9 4.957031 -8.796875 4.59375 -8.390625 C 4.238281 -7.992188 4.035156 -7.429688 3.984375 -6.703125 L 8.171875 -6.703125 C 8.148438 -7.429688 7.953125 -7.992188 7.578125 -8.390625 C 7.210938 -8.796875 6.710938 -9 6.078125 -9 Z M 6.5 0.203125 C 4.75 0.203125 3.378906 -0.28125 2.390625 -1.25 C 1.398438 -2.226562 0.90625 -3.601562 0.90625 -5.375 C 0.90625 -7.207031 1.359375 -8.625 2.265625 -9.625 C 3.179688 -10.625 4.445312 -11.125 6.0625 -11.125 C 7.601562 -11.125 8.800781 -10.679688 9.65625 -9.796875 C 10.519531 -8.921875 10.953125 -7.707031 10.953125 -6.15625 L 10.953125 -4.71875 L 3.921875 -4.71875 C 3.953125 -3.875 4.203125 -3.210938 4.671875 -2.734375 C 5.140625 -2.253906 5.796875 -2.015625 6.640625 -2.015625 C 7.296875 -2.015625 7.914062 -2.082031 8.5 -2.21875 C 9.09375 -2.363281 9.707031 -2.582031 10.34375 -2.875 L 10.34375 -0.578125 C 9.820312 -0.316406 9.265625 -0.125 8.671875 0 C 8.078125 0.132812 7.351562 0.203125 6.5 0.203125 Z M 6.5 0.203125 "/></g></g></g><g fill="#ffffff" fill-opacity="1"><g transform="translate(441.635417, 214.943449)"><g><path d="M 9.1875 -3.25 C 9.1875 -2.125 8.796875 -1.265625 8.015625 -0.671875 C 7.234375 -0.0859375 6.066406 0.203125 4.515625 0.203125 C 3.722656 0.203125 3.046875 0.144531 2.484375 0.03125 C 1.929688 -0.0703125 1.410156 -0.226562 0.921875 -0.4375 L 0.921875 -2.90625 C 1.472656 -2.644531 2.09375 -2.425781 2.78125 -2.25 C 3.476562 -2.070312 4.09375 -1.984375 4.625 -1.984375 C 5.695312 -1.984375 6.234375 -2.296875 6.234375 -2.921875 C 6.234375 -3.148438 6.160156 -3.335938 6.015625 -3.484375 C 5.878906 -3.640625 5.632812 -3.804688 5.28125 -3.984375 C 4.925781 -4.171875 4.457031 -4.390625 3.875 -4.640625 C 3.039062 -4.992188 2.425781 -5.316406 2.03125 -5.609375 C 1.632812 -5.910156 1.347656 -6.253906 1.171875 -6.640625 C 0.992188 -7.035156 0.90625 -7.515625 0.90625 -8.078125 C 0.90625 -9.046875 1.28125 -9.796875 2.03125 -10.328125 C 2.78125 -10.859375 3.84375 -11.125 5.21875 -11.125 C 6.539062 -11.125 7.820312 -10.835938 9.0625 -10.265625 L 8.171875 -8.109375 C 7.617188 -8.347656 7.101562 -8.539062 6.625 -8.6875 C 6.15625 -8.84375 5.671875 -8.921875 5.171875 -8.921875 C 4.296875 -8.921875 3.859375 -8.679688 3.859375 -8.203125 C 3.859375 -7.929688 4 -7.695312 4.28125 -7.5 C 4.5625 -7.3125 5.179688 -7.023438 6.140625 -6.640625 C 6.992188 -6.296875 7.617188 -5.972656 8.015625 -5.671875 C 8.410156 -5.367188 8.703125 -5.019531 8.890625 -4.625 C 9.085938 -4.238281 9.1875 -3.78125 9.1875 -3.25 Z M 9.1875 -3.25 "/></g></g></g><g clip-path="url(#64ea9ccb1d)"><g clip-path="url(#a805a2af67)"><path fill="#d9d9d9" d="M 383.203125 565.441406 L 120.453125 565.441406 L 120.453125 388.429688 L 383.203125 388.429688 Z M 383.203125 565.441406 " fill-opacity="1" fill-rule="nonzero"/></g></g></svg>