<svg xmlns="http://www.w3.org/2000/svg" xmlns:xlink="http://www.w3.org/1999/xlink" width="2000" zoomAndPan="magnify" viewBox="0 0 1500 599.999999" height="800" preserveAspectRatio="xMidYMid meet" version="1.0"><defs><g/><clipPath id="40d086448e"><path d="M 303.078125 173 L 1155.078125 173 L 1155.078125 191.621094 L 303.078125 191.621094 Z M 303.078125 173 " clip-rule="nonzero"/></clipPath><clipPath id="0afd5a93fe"><path d="M 303.078125 156 L 1155.078125 156 L 1155.078125 174 L 303.078125 174 Z M 303.078125 156 " clip-rule="nonzero"/></clipPath><clipPath id="a21fb882c7"><path d="M 303.078125 138 L 1155.078125 138 L 1155.078125 157 L 303.078125 157 Z M 303.078125 138 " clip-rule="nonzero"/></clipPath><clipPath id="e3e55eb49e"><path d="M 303.078125 121 L 1155.078125 121 L 1155.078125 139 L 303.078125 139 Z M 303.078125 121 " clip-rule="nonzero"/></clipPath><clipPath id="74f735ebbe"><path d="M 303.078125 104 L 1155.078125 104 L 1155.078125 122 L 303.078125 122 Z M 303.078125 104 " clip-rule="nonzero"/></clipPath><clipPath id="b5e938a693"><path d="M 303.078125 86 L 1155.078125 86 L 1155.078125 105 L 303.078125 105 Z M 303.078125 86 " clip-rule="nonzero"/></clipPath><clipPath id="6c1118d89e"><path d="M 303.078125 69 L 1155.078125 69 L 1155.078125 87 L 303.078125 87 Z M 303.078125 69 " clip-rule="nonzero"/></clipPath><clipPath id="edc2a2cacd"><path d="M 303.078125 51 L 1155.078125 51 L 1155.078125 70 L 303.078125 70 Z M 303.078125 51 " clip-rule="nonzero"/></clipPath><clipPath id="40b3db9e68"><path d="M 303.078125 34 L 1155.078125 34 L 1155.078125 52 L 303.078125 52 Z M 303.078125 34 " clip-rule="nonzero"/></clipPath><clipPath id="b5b08b6f6b"><path d="M 303.078125 16 L 1155.078125 16 L 1155.078125 35 L 303.078125 35 Z M 303.078125 16 " clip-rule="nonzero"/></clipPath><clipPath id="eb36b7c560"><path d="M 303.078125 0 L 1155.078125 0 L 1155.078125 17 L 303.078125 17 Z M 303.078125 0 " clip-rule="nonzero"/></clipPath><clipPath id="d7d86a84ab"><path d="M 303.078125 173 L 1155.078125 173 L 1155.078125 191.621094 L 303.078125 191.621094 Z M 303.078125 173 " clip-rule="nonzero"/></clipPath><clipPath id="3b63f0f75d"><path d="M 303.078125 156 L 1155.078125 156 L 1155.078125 174 L 303.078125 174 Z M 303.078125 156 " clip-rule="nonzero"/></clipPath><clipPath id="2ad711ea3d"><path d="M 303.078125 138 L 1155.078125 138 L 1155.078125 157 L 303.078125 157 Z M 303.078125 138 " clip-rule="nonzero"/></clipPath><clipPath id="5c4b149d32"><path d="M 303.078125 121 L 1155.078125 121 L 1155.078125 139 L 303.078125 139 Z M 303.078125 121 " clip-rule="nonzero"/></clipPath><clipPath id="a343e3c1fa"><path d="M 303.078125 104 L 1155.078125 104 L 1155.078125 122 L 303.078125 122 Z M 303.078125 104 " clip-rule="nonzero"/></clipPath><clipPath id="8492a18532"><path d="M 303.078125 86 L 1155.078125 86 L 1155.078125 105 L 303.078125 105 Z M 303.078125 86 " clip-rule="nonzero"/></clipPath><clipPath id="eacc46778b"><path d="M 303.078125 69 L 1155.078125 69 L 1155.078125 87 L 303.078125 87 Z M 303.078125 69 " clip-rule="nonzero"/></clipPath><clipPath id="4a0f4684bc"><path d="M 303.078125 51 L 1155.078125 51 L 1155.078125 70 L 303.078125 70 Z M 303.078125 51 " clip-rule="nonzero"/></clipPath><clipPath id="b434c0078c"><path d="M 303.078125 34 L 1155.078125 34 L 1155.078125 52 L 303.078125 52 Z M 303.078125 34 " clip-rule="nonzero"/></clipPath><clipPath id="b8f86fe3b0"><path d="M 303.078125 16 L 1155.078125 16 L 1155.078125 35 L 303.078125 35 Z M 303.078125 16 " clip-rule="nonzero"/></clipPath><clipPath id="0dce003b25"><path d="M 303.078125 0 L 1155.078125 0 L 1155.078125 17 L 303.078125 17 Z M 303.078125 0 " clip-rule="nonzero"/></clipPath><clipPath id="713e963efb"><path d="M 401.847656 242.894531 L 1046.0625 242.894531 L 1046.0625 322.644531 L 401.847656 322.644531 Z M 401.847656 242.894531 " clip-rule="nonzero"/></clipPath><clipPath id="1b561f43dc"><path d="M 1039.816406 322.644531 L 408.226562 322.644531 C 406.570312 322.644531 404.984375 321.984375 403.8125 320.8125 C 402.640625 319.644531 401.984375 318.054688 401.984375 316.398438 L 401.984375 249.140625 C 401.984375 247.484375 402.640625 245.894531 403.8125 244.722656 C 404.984375 243.554688 406.570312 242.894531 408.226562 242.894531 L 1039.816406 242.894531 C 1041.472656 242.894531 1043.0625 243.554688 1044.230469 244.722656 C 1045.402344 245.894531 1046.0625 247.484375 1046.0625 249.140625 L 1046.0625 316.398438 C 1046.0625 318.054688 1045.402344 319.644531 1044.230469 320.8125 C 1043.0625 321.984375 1041.472656 322.644531 1039.816406 322.644531 Z M 1039.816406 322.644531 " clip-rule="nonzero"/></clipPath><clipPath id="ced1b6a2ab"><path d="M 478.800781 373.910156 L 979.824219 373.910156 L 979.824219 577.824219 L 478.800781 577.824219 Z M 478.800781 373.910156 " clip-rule="nonzero"/></clipPath><clipPath id="82d4fdcfec"><path d="M 485.046875 373.910156 L 973.367188 373.910156 C 975.023438 373.910156 976.609375 374.570312 977.78125 375.742188 C 978.953125 376.910156 979.609375 378.5 979.609375 380.15625 L 979.609375 571.582031 C 979.609375 573.238281 978.953125 574.824219 977.78125 575.996094 C 976.609375 577.167969 975.023438 577.824219 973.367188 577.824219 L 485.046875 577.824219 C 483.390625 577.824219 481.800781 577.167969 480.628906 575.996094 C 479.457031 574.824219 478.800781 573.238281 478.800781 571.582031 L 478.800781 380.15625 C 478.800781 378.5 479.457031 376.910156 480.628906 375.742188 C 481.800781 374.570312 483.390625 373.910156 485.046875 373.910156 Z M 485.046875 373.910156 " clip-rule="nonzero"/></clipPath><clipPath id="ba258e8187"><path d="M 1132.054688 373.902344 L 1397.015625 373.902344 L 1397.015625 552.398438 L 1132.054688 552.398438 Z M 1132.054688 373.902344 " clip-rule="nonzero"/></clipPath><clipPath id="dc42e864f8"><path d="M 1390.769531 552.398438 L 1138.648438 552.398438 C 1136.992188 552.398438 1135.402344 551.742188 1134.230469 550.570312 C 1133.0625 549.398438 1132.402344 547.8125 1132.402344 546.15625 L 1132.402344 380.144531 C 1132.402344 378.488281 1133.0625 376.902344 1134.230469 375.730469 C 1135.402344 374.558594 1136.992188 373.902344 1138.648438 373.902344 L 1390.769531 373.902344 C 1392.425781 373.902344 1394.015625 374.558594 1395.1875 375.730469 C 1396.355469 376.902344 1397.015625 378.488281 1397.015625 380.144531 L 1397.015625 546.15625 C 1397.015625 547.8125 1396.355469 549.398438 1395.1875 550.570312 C 1394.015625 551.742188 1392.425781 552.398438 1390.769531 552.398438 Z M 1390.769531 552.398438 " clip-rule="nonzero"/></clipPath><clipPath id="747cdba45d"><path d="M 1075.523438 242.894531 L 1397.007812 242.894531 L 1397.007812 322.644531 L 1075.523438 322.644531 Z M 1075.523438 242.894531 " clip-rule="nonzero"/></clipPath><clipPath id="514cfadedf"><path d="M 1390.765625 322.644531 L 1082.066406 322.644531 C 1080.410156 322.644531 1078.824219 321.984375 1077.652344 320.8125 C 1076.480469 319.644531 1075.824219 318.054688 1075.824219 316.398438 L 1075.824219 249.140625 C 1075.824219 247.484375 1076.480469 245.894531 1077.652344 244.722656 C 1078.824219 243.554688 1080.410156 242.894531 1082.066406 242.894531 L 1390.765625 242.894531 C 1392.421875 242.894531 1394.007812 243.554688 1395.179688 244.722656 C 1396.351562 245.894531 1397.007812 247.484375 1397.007812 249.140625 L 1397.007812 316.398438 C 1397.007812 318.054688 1396.351562 319.644531 1395.179688 320.8125 C 1394.007812 321.984375 1392.421875 322.644531 1390.765625 322.644531 Z M 1390.765625 322.644531 " clip-rule="nonzero"/></clipPath><clipPath id="b7c76b02ba"><path d="M 79.078125 242.894531 L 372.214844 242.894531 L 372.214844 322.644531 L 79.078125 322.644531 Z M 79.078125 242.894531 " clip-rule="nonzero"/></clipPath><clipPath id="7b20d21931"><path d="M 365.96875 322.644531 L 85.542969 322.644531 C 83.886719 322.644531 82.300781 321.984375 81.128906 320.8125 C 79.957031 319.644531 79.300781 318.054688 79.300781 316.398438 L 79.300781 249.140625 C 79.300781 247.484375 79.957031 245.894531 81.128906 244.722656 C 82.300781 243.554688 83.886719 242.894531 85.542969 242.894531 L 365.96875 242.894531 C 367.625 242.894531 369.214844 243.554688 370.386719 244.722656 C 371.554688 245.894531 372.214844 247.484375 372.214844 249.140625 L 372.214844 316.398438 C 372.214844 318.054688 371.554688 319.644531 370.386719 320.8125 C 369.214844 321.984375 367.625 322.644531 365.96875 322.644531 Z M 365.96875 322.644531 " clip-rule="nonzero"/></clipPath><clipPath id="acc10fbc67"><path d="M 79 373.902344 L 343.914062 373.902344 L 343.914062 552.398438 L 79 552.398438 Z M 79 373.902344 " clip-rule="nonzero"/></clipPath><clipPath id="bb4f01fc91"><path d="M 337.667969 552.398438 L 85.546875 552.398438 C 83.890625 552.398438 82.300781 551.742188 81.128906 550.570312 C 79.960938 549.398438 79.300781 547.8125 79.300781 546.15625 L 79.300781 380.144531 C 79.300781 378.488281 79.960938 376.902344 81.128906 375.730469 C 82.300781 374.558594 83.890625 373.902344 85.546875 373.902344 L 337.667969 373.902344 C 339.324219 373.902344 340.914062 374.558594 342.085938 375.730469 C 343.253906 376.902344 343.914062 378.488281 343.914062 380.144531 L 343.914062 546.15625 C 343.914062 547.8125 343.253906 549.398438 342.085938 550.570312 C 340.914062 551.742188 339.324219 552.398438 337.667969 552.398438 Z M 337.667969 552.398438 " clip-rule="nonzero"/></clipPath><clipPath id="b2820f608a"><path d="M 1193 3.515625 L 1376.324219 3.515625 L 1376.324219 182.011719 L 1193 182.011719 Z M 1193 3.515625 " clip-rule="nonzero"/></clipPath><clipPath id="d9587aec2b"><path d="M 1370.082031 182.011719 L 1199.296875 182.011719 C 1197.640625 182.011719 1196.050781 181.355469 1194.878906 180.183594 C 1193.707031 179.011719 1193.050781 177.425781 1193.050781 175.769531 L 1193.050781 9.757812 C 1193.050781 8.101562 1193.707031 6.511719 1194.878906 5.34375 C 1196.050781 4.171875 1197.640625 3.515625 1199.296875 3.515625 L 1370.082031 3.515625 C 1371.738281 3.515625 1373.324219 4.171875 1374.496094 5.34375 C 1375.667969 6.511719 1376.324219 8.101562 1376.324219 9.757812 L 1376.324219 175.769531 C 1376.324219 177.425781 1375.667969 179.011719 1374.496094 180.183594 C 1373.324219 181.355469 1371.738281 182.011719 1370.082031 182.011719 Z M 1370.082031 182.011719 " clip-rule="nonzero"/></clipPath><clipPath id="74af819421"><path d="M 79.195312 3.515625 L 262.574219 3.515625 L 262.574219 182.011719 L 79.195312 182.011719 Z M 79.195312 3.515625 " clip-rule="nonzero"/></clipPath><clipPath id="10e7ce5d8e"><path d="M 256.328125 182.011719 L 85.542969 182.011719 C 83.886719 182.011719 82.300781 181.355469 81.128906 180.183594 C 79.957031 179.011719 79.300781 177.425781 79.300781 175.769531 L 79.300781 9.757812 C 79.300781 8.101562 79.957031 6.511719 81.128906 5.34375 C 82.300781 4.171875 83.886719 3.515625 85.542969 3.515625 L 256.328125 3.515625 C 257.984375 3.515625 259.574219 4.171875 260.746094 5.34375 C 261.914062 6.511719 262.574219 8.101562 262.574219 9.757812 L 262.574219 175.769531 C 262.574219 177.425781 261.914062 179.011719 260.746094 180.183594 C 259.574219 181.355469 257.984375 182.011719 256.328125 182.011719 Z M 256.328125 182.011719 " clip-rule="nonzero"/></clipPath><clipPath id="2fbcdf09d3"><path d="M 946.972656 179.203125 L 1132.558594 179.203125 L 1132.558594 224.578125 L 946.972656 224.578125 Z M 946.972656 179.203125 " clip-rule="nonzero"/></clipPath><clipPath id="bff297a167"><path d="M 953.21875 179.203125 L 1126.160156 179.203125 C 1127.816406 179.203125 1129.40625 179.859375 1130.578125 181.03125 C 1131.746094 182.203125 1132.40625 183.789062 1132.40625 185.445312 L 1132.40625 218.335938 C 1132.40625 219.992188 1131.746094 221.578125 1130.578125 222.75 C 1129.40625 223.921875 1127.816406 224.578125 1126.160156 224.578125 L 953.21875 224.578125 C 951.5625 224.578125 949.972656 223.921875 948.800781 222.75 C 947.632812 221.578125 946.972656 219.992188 946.972656 218.335938 L 946.972656 185.445312 C 946.972656 183.789062 947.632812 182.203125 948.800781 181.03125 C 949.972656 179.859375 951.5625 179.203125 953.21875 179.203125 Z M 953.21875 179.203125 " clip-rule="nonzero"/></clipPath><clipPath id="9bec98cd14"><path d="M 643.628906 182.023438 L 829.140625 182.023438 L 829.140625 224.578125 L 643.628906 224.578125 Z M 643.628906 182.023438 " clip-rule="nonzero"/></clipPath><clipPath id="e0f7071d43"><path d="M 649.875 182.023438 L 822.816406 182.023438 C 824.472656 182.023438 826.0625 182.683594 827.234375 183.851562 C 828.40625 185.023438 829.0625 186.613281 829.0625 188.269531 L 829.0625 218.335938 C 829.0625 219.992188 828.40625 221.578125 827.234375 222.75 C 826.0625 223.921875 824.472656 224.578125 822.816406 224.578125 L 649.875 224.578125 C 648.21875 224.578125 646.628906 223.921875 645.457031 222.75 C 644.289062 221.578125 643.628906 219.992188 643.628906 218.335938 L 643.628906 188.269531 C 643.628906 186.613281 644.289062 185.023438 645.457031 183.851562 C 646.628906 182.683594 648.21875 182.023438 649.875 182.023438 Z M 649.875 182.023438 " clip-rule="nonzero"/></clipPath><clipPath id="cf0e2b4dd8"><path d="M 310.117188 182.023438 L 494.8125 182.023438 L 494.8125 227.402344 L 310.117188 227.402344 Z M 310.117188 182.023438 " clip-rule="nonzero"/></clipPath><clipPath id="0d96658caa"><path d="M 316.359375 182.023438 L 488.457031 182.023438 C 490.113281 182.023438 491.703125 182.683594 492.875 183.851562 C 494.046875 185.023438 494.703125 186.613281 494.703125 188.269531 L 494.703125 221.15625 C 494.703125 222.8125 494.046875 224.402344 492.875 225.574219 C 491.703125 226.742188 490.113281 227.402344 488.457031 227.402344 L 316.359375 227.402344 C 314.703125 227.402344 313.117188 226.742188 311.945312 225.574219 C 310.773438 224.402344 310.117188 222.8125 310.117188 221.15625 L 310.117188 188.269531 C 310.117188 186.613281 310.773438 185.023438 311.945312 183.851562 C 313.117188 182.683594 314.703125 182.023438 316.359375 182.023438 Z M 316.359375 182.023438 " clip-rule="nonzero"/></clipPath></defs><g clip-path="url(#40d086448e)"><path fill="#dea55a" d="M 1155.085938 173.667969 L 303.070312 173.667969 L 303.070312 191.089844 L 1155.085938 191.089844 Z M 1155.085938 173.667969 " fill-opacity="1" fill-rule="nonzero"/></g><g clip-path="url(#0afd5a93fe)"><path fill="#d39d49" d="M 1155.085938 156.265625 L 303.070312 156.265625 L 303.070312 173.667969 L 1155.085938 173.667969 Z M 1155.085938 156.265625 " fill-opacity="1" fill-rule="nonzero"/></g><g clip-path="url(#a21fb882c7)"><path fill="#dea55a" d="M 1155.085938 138.84375 L 303.070312 138.84375 L 303.070312 156.265625 L 1155.085938 156.265625 Z M 1155.085938 138.84375 " fill-opacity="1" fill-rule="nonzero"/></g><g clip-path="url(#e3e55eb49e)"><path fill="#dea55a" d="M 1155.085938 121.441406 L 303.070312 121.441406 L 303.070312 138.84375 L 1155.085938 138.84375 Z M 1155.085938 121.441406 " fill-opacity="1" fill-rule="nonzero"/></g><g clip-path="url(#74f735ebbe)"><path fill="#dea55a" d="M 1155.085938 104.03125 L 303.070312 104.03125 L 303.070312 121.441406 L 1155.085938 121.441406 Z M 1155.085938 104.03125 " fill-opacity="1" fill-rule="nonzero"/></g><g clip-path="url(#b5e938a693)"><path fill="#dea55a" d="M 1155.085938 86.617188 L 303.070312 86.617188 L 303.070312 104.03125 L 1155.085938 104.03125 Z M 1155.085938 86.617188 " fill-opacity="1" fill-rule="nonzero"/></g><g clip-path="url(#6c1118d89e)"><path fill="#dea55a" d="M 1155.085938 69.195312 L 303.070312 69.195312 L 303.070312 86.617188 L 1155.085938 86.617188 Z M 1155.085938 69.195312 " fill-opacity="1" fill-rule="nonzero"/></g><g clip-path="url(#edc2a2cacd)"><path fill="#d39d48" d="M 1155.085938 51.792969 L 303.070312 51.792969 L 303.070312 69.195312 L 1155.085938 69.195312 Z M 1155.085938 51.792969 " fill-opacity="1" fill-rule="nonzero"/></g><g clip-path="url(#40b3db9e68)"><path fill="#dea55a" d="M 1155.085938 34.371094 L 303.070312 34.371094 L 303.070312 51.792969 L 1155.085938 51.792969 Z M 1155.085938 34.371094 " fill-opacity="1" fill-rule="nonzero"/></g><g clip-path="url(#b5b08b6f6b)"><path fill="#d39d49" d="M 1155.085938 16.960938 L 303.070312 16.960938 L 303.070312 34.371094 L 1155.085938 34.371094 Z M 1155.085938 16.960938 " fill-opacity="1" fill-rule="nonzero"/></g><g clip-path="url(#eb36b7c560)"><path fill="#dea55a" d="M 1155.085938 -0.449219 L 303.070312 -0.449219 L 303.070312 16.960938 L 1155.085938 16.960938 Z M 1155.085938 -0.449219 " fill-opacity="1" fill-rule="nonzero"/></g><path fill="#d39d48" d="M 764.371094 121.441406 L 405.3125 121.441406 L 405.3125 138.84375 L 764.371094 138.84375 Z M 764.371094 121.441406 " fill-opacity="1" fill-rule="nonzero"/><path fill="#c79146" d="M 589.050781 104.03125 L 423.332031 104.03125 L 423.332031 121.441406 L 589.050781 121.441406 Z M 589.050781 104.03125 " fill-opacity="1" fill-rule="nonzero"/><path fill="#c28e3f" d="M 652.101562 16.960938 L 486.382812 16.960938 L 486.382812 34.371094 L 652.101562 34.371094 Z M 652.101562 16.960938 " fill-opacity="1" fill-rule="nonzero"/><path fill="#c79146" d="M 1033.507812 69.195312 L 911.320312 69.195312 L 911.320312 77.910156 L 1033.507812 77.910156 Z M 1033.507812 69.195312 " fill-opacity="1" fill-rule="nonzero"/><path fill="#c28e3f" d="M 1033.507812 60.5 L 911.320312 60.5 L 911.320312 69.195312 L 1033.507812 69.195312 Z M 1033.507812 60.5 " fill-opacity="1" fill-rule="nonzero"/><path fill="#c79146" d="M 1122.726562 121.441406 L 1000.558594 121.441406 L 1000.558594 138.84375 L 1122.726562 138.84375 Z M 1122.726562 121.441406 " fill-opacity="1" fill-rule="nonzero"/><g clip-path="url(#d7d86a84ab)"><path fill="#ae703f" d="M 1155.085938 173.667969 L 303.070312 173.667969 L 303.070312 191.089844 L 1155.085938 191.089844 Z M 1155.085938 173.667969 " fill-opacity="1" fill-rule="nonzero"/></g><g clip-path="url(#3b63f0f75d)"><path fill="#a86c37" d="M 303.070312 156.265625 L 330.207031 156.265625 L 330.207031 172.933594 L 1128.144531 172.933594 L 1128.144531 156.265625 L 1155.085938 156.265625 L 1155.085938 173.667969 L 303.070312 173.667969 L 303.070312 156.265625 " fill-opacity="1" fill-rule="nonzero"/></g><g clip-path="url(#2ad711ea3d)"><path fill="#ae703f" d="M 303.070312 138.84375 L 330.207031 138.84375 L 330.207031 156.265625 L 303.070312 156.265625 L 303.070312 138.84375 M 1128.144531 138.84375 L 1155.085938 138.84375 L 1155.085938 156.265625 L 1128.144531 156.265625 L 1128.144531 138.84375 " fill-opacity="1" fill-rule="nonzero"/></g><g clip-path="url(#5c4b149d32)"><path fill="#ae703f" d="M 303.070312 121.441406 L 330.207031 121.441406 L 330.207031 138.84375 L 303.070312 138.84375 L 303.070312 121.441406 M 1128.144531 121.441406 L 1155.085938 121.441406 L 1155.085938 138.84375 L 1128.144531 138.84375 L 1128.144531 121.441406 " fill-opacity="1" fill-rule="nonzero"/></g><g clip-path="url(#a343e3c1fa)"><path fill="#ae703f" d="M 303.070312 104.03125 L 330.207031 104.03125 L 330.207031 121.441406 L 303.070312 121.441406 L 303.070312 104.03125 M 1128.144531 104.03125 L 1155.085938 104.03125 L 1155.085938 121.441406 L 1128.144531 121.441406 L 1128.144531 104.03125 " fill-opacity="1" fill-rule="nonzero"/></g><g clip-path="url(#8492a18532)"><path fill="#ae703f" d="M 303.070312 86.617188 L 330.207031 86.617188 L 330.207031 104.03125 L 303.070312 104.03125 L 303.070312 86.617188 M 1128.144531 86.617188 L 1155.085938 86.617188 L 1155.085938 104.03125 L 1128.144531 104.03125 L 1128.144531 86.617188 " fill-opacity="1" fill-rule="nonzero"/></g><g clip-path="url(#eacc46778b)"><path fill="#ae703f" d="M 303.070312 69.195312 L 330.207031 69.195312 L 330.207031 86.617188 L 303.070312 86.617188 L 303.070312 69.195312 M 1128.144531 69.195312 L 1155.085938 69.195312 L 1155.085938 86.617188 L 1128.144531 86.617188 L 1128.144531 69.195312 " fill-opacity="1" fill-rule="nonzero"/></g><g clip-path="url(#4a0f4684bc)"><path fill="#a86c36" d="M 303.070312 51.792969 L 330.207031 51.792969 L 330.207031 69.195312 L 303.070312 69.195312 L 303.070312 51.792969 M 1128.144531 51.792969 L 1155.085938 51.792969 L 1155.085938 69.195312 L 1128.144531 69.195312 L 1128.144531 51.792969 " fill-opacity="1" fill-rule="nonzero"/></g><g clip-path="url(#b434c0078c)"><path fill="#ae703f" d="M 303.070312 34.371094 L 330.207031 34.371094 L 330.207031 51.792969 L 303.070312 51.792969 L 303.070312 34.371094 M 1128.144531 34.371094 L 1155.085938 34.371094 L 1155.085938 51.792969 L 1128.144531 51.792969 L 1128.144531 34.371094 " fill-opacity="1" fill-rule="nonzero"/></g><g clip-path="url(#b8f86fe3b0)"><path fill="#a86c37" d="M 303.070312 16.960938 L 330.207031 16.960938 L 330.207031 34.371094 L 303.070312 34.371094 L 303.070312 16.960938 M 1128.144531 16.960938 L 1155.085938 16.960938 L 1155.085938 34.371094 L 1128.144531 34.371094 L 1128.144531 16.960938 " fill-opacity="1" fill-rule="nonzero"/></g><g clip-path="url(#0dce003b25)"><path fill="#ae703f" d="M 303.070312 -0.449219 L 330.207031 -0.449219 L 330.207031 16.960938 L 303.070312 16.960938 L 303.070312 -0.449219 M 1128.144531 -0.449219 L 1155.085938 -0.449219 L 1155.085938 16.960938 L 1128.144531 16.960938 L 1128.144531 -0.449219 " fill-opacity="1" fill-rule="nonzero"/></g><path fill="#ffffff" d="M 1125.484375 -288.625 C 1072.824219 -287.675781 1023.46875 -266.734375 986.117188 -229.386719 C 947.886719 -191.167969 926.84375 -140.339844 926.84375 -86.285156 L 926.84375 -85.238281 C 926.84375 -84.886719 926.855469 -84.527344 926.855469 -84.164062 C 927.988281 25.199219 1016.316406 114.054688 1125.484375 116.050781 L 1125.484375 165.441406 L 732.800781 165.441406 L 732.800781 20.363281 C 790.597656 18.378906 837 -29.21875 837 -87.480469 C 837 -145.730469 790.597656 -193.339844 732.800781 -195.324219 L 732.800781 -340.398438 L 1125.484375 -340.398438 Z M 986.097656 -22.34375 L 986.097656 -22.234375 L 1125.484375 -22.234375 L 1125.484375 108.546875 C 1032.167969 106.769531 954.707031 39.105469 937.792969 -49.789062 C 948.492188 -34.128906 966.054688 -23.535156 986.097656 -22.34375 Z M 996.105469 -147.921875 C 994.03125 -148.117188 991.949219 -148.253906 989.855469 -148.253906 C 967.875 -148.253906 948.492188 -136.9375 937.214844 -119.828125 C 943.992188 -159.121094 962.660156 -195.304688 991.429688 -224.074219 C 1027.351562 -259.992188 1074.839844 -280.152344 1125.484375 -281.101562 L 1125.484375 -147.921875 Z M 1019.613281 -29.738281 C 1021.726562 -30.871094 1023.800781 -32.09375 1025.75 -33.445312 C 1026.804688 -34.179688 1027.371094 -35.351562 1027.371094 -36.535156 C 1027.371094 -37.269531 1027.148438 -38.023438 1026.699219 -38.667969 C 1025.515625 -40.378906 1023.175781 -40.792969 1021.464844 -39.617188 C 1019.066406 -37.953125 1016.503906 -36.46875 1013.882812 -35.195312 C 1012.003906 -34.296875 1011.222656 -32.046875 1012.113281 -30.1875 L 1012.386719 -29.738281 L 1010.253906 -29.738281 C 1009.566406 -31.578125 1007.582031 -32.605469 1005.675781 -32.035156 C 1002.886719 -31.203125 1000 -30.589844 997.085938 -30.21875 C 996.585938 -30.148438 996.125 -29.980469 995.707031 -29.738281 L 993.613281 -29.738281 L 993.613281 -140.398438 L 995.714844 -140.398438 C 996.695312 -140.300781 997.664062 -140.203125 998.621094 -140.046875 C 999.414062 -139.941406 1000.1875 -140.066406 1000.859375 -140.398438 L 1004.773438 -140.398438 C 1005.136719 -139.292969 1005.988281 -138.386719 1007.160156 -137.984375 C 1009.941406 -137.074219 1012.667969 -135.9375 1015.269531 -134.597656 C 1017.101562 -133.652344 1019.378906 -134.375 1020.339844 -136.214844 C 1020.613281 -136.761719 1020.75 -137.359375 1020.75 -137.933594 C 1020.75 -138.855469 1020.398438 -139.707031 1019.789062 -140.398438 L 1125.484375 -140.398438 L 1125.484375 -29.738281 Z M 934.367188 -85.601562 C 934.554688 -114.78125 957.367188 -138.667969 986.097656 -140.605469 L 986.097656 -29.882812 C 957.589844 -31.800781 934.933594 -55.335938 934.386719 -84.164062 C 934.375 -84.652344 934.367188 -85.121094 934.367188 -85.601562 Z M 725.289062 -113.5 C 712.542969 -111.671875 702.730469 -100.734375 702.730469 -87.480469 C 702.730469 -74.226562 712.542969 -63.300781 725.289062 -61.460938 L 725.289062 12.851562 C 671.640625 10.855469 628.605469 -33.367188 628.605469 -87.480469 C 628.605469 -141.59375 671.640625 -185.828125 725.289062 -187.804688 Z M 732.800781 -61.460938 C 745.558594 -63.300781 755.359375 -74.226562 755.359375 -87.480469 C 755.359375 -100.734375 745.558594 -111.671875 732.800781 -113.5 L 732.800781 -187.804688 C 786.449219 -185.828125 829.484375 -141.59375 829.484375 -87.480469 C 829.484375 -33.367188 786.449219 10.855469 732.800781 12.851562 Z M 332.605469 116.050781 C 442.484375 114.046875 531.246094 24.054688 531.246094 -86.285156 C 531.246094 -86.511719 531.234375 -86.746094 531.234375 -86.972656 L 531.246094 -87.324219 C 531.246094 -87.675781 531.226562 -88.019531 531.226562 -88.371094 C 530.109375 -197.761719 441.789062 -286.621094 332.605469 -288.625 L 332.605469 -340.398438 L 725.289062 -340.398438 L 725.289062 -195.324219 C 667.5 -193.339844 621.089844 -145.730469 621.089844 -87.480469 C 621.089844 -29.21875 667.5 18.378906 725.289062 20.363281 L 725.289062 165.441406 L 332.605469 165.441406 Z M 471.992188 -150.210938 L 471.992188 -150.328125 L 332.605469 -150.328125 L 332.605469 -281.101562 C 425.921875 -279.320312 503.382812 -211.660156 520.289062 -122.792969 C 509.597656 -138.433594 492.046875 -149.019531 471.992188 -150.210938 Z M 462.453125 -24.660156 C 462.707031 -24.582031 462.972656 -24.523438 463.246094 -24.503906 C 464.886719 -24.378906 466.5625 -24.308594 468.222656 -24.308594 C 490.1875 -24.308594 509.527344 -35.597656 520.816406 -52.667969 C 505.046875 37.628906 426.929688 106.75 332.605469 108.546875 L 332.605469 -24.660156 Z M 441.769531 -142.824219 C 441.605469 -142.09375 441.671875 -141.320312 441.976562 -140.585938 C 442.769531 -138.667969 444.960938 -137.777344 446.898438 -138.570312 C 449.558594 -139.675781 452.335938 -140.585938 455.144531 -141.269531 C 456.101562 -141.496094 456.867188 -142.074219 457.367188 -142.824219 L 462.382812 -142.824219 C 462.84375 -142.679688 463.324219 -142.601562 463.832031 -142.648438 L 464.46875 -142.679688 L 464.46875 -32.171875 L 457.167969 -32.171875 C 456.679688 -32.742188 456.015625 -33.160156 455.234375 -33.355469 C 452.414062 -34.042969 449.628906 -34.933594 446.957031 -36.046875 C 445.046875 -36.839844 442.835938 -35.9375 442.046875 -34.023438 C 441.789062 -33.414062 441.730469 -32.78125 441.789062 -32.171875 L 332.605469 -32.171875 L 332.605469 -142.824219 Z M 523.722656 -86.980469 C 523.554688 -57.792969 500.734375 -33.894531 471.992188 -31.957031 L 471.992188 -142.679688 C 500.507812 -140.761719 523.175781 -117.226562 523.710938 -88.359375 C 523.710938 -87.890625 523.722656 -87.441406 523.722656 -86.980469 Z M 325.082031 172.953125 L 1132.996094 172.953125 L 1132.996094 -347.914062 L 325.082031 -347.914062 L 325.082031 172.953125 " fill-opacity="1" fill-rule="nonzero"/><g clip-path="url(#713e963efb)"><g clip-path="url(#1b561f43dc)"><path fill="#d9d9d9" d="M 1046.0625 322.644531 L 401.847656 322.644531 L 401.847656 242.894531 L 1046.0625 242.894531 Z M 1046.0625 322.644531 " fill-opacity="1" fill-rule="nonzero"/></g></g><g clip-path="url(#ced1b6a2ab)"><g clip-path="url(#82d4fdcfec)"><path fill="#004aad" d="M 478.800781 373.910156 L 979.824219 373.910156 L 979.824219 577.824219 L 478.800781 577.824219 Z M 478.800781 373.910156 " fill-opacity="1" fill-rule="nonzero"/></g></g><g fill="#ffffff" fill-opacity="1"><g transform="translate(620.17591, 484.911796)"><g><path d="M 12.46875 -4.828125 C 12.46875 -3.253906 11.898438 -2.015625 10.765625 -1.109375 C 9.628906 -0.210938 8.054688 0.234375 6.046875 0.234375 C 4.191406 0.234375 2.550781 -0.113281 1.125 -0.8125 L 1.125 -4.234375 C 2.289062 -3.710938 3.28125 -3.34375 4.09375 -3.125 C 4.90625 -2.914062 5.648438 -2.8125 6.328125 -2.8125 C 7.140625 -2.8125 7.757812 -2.960938 8.1875 -3.265625 C 8.625 -3.578125 8.84375 -4.039062 8.84375 -4.65625 C 8.84375 -5 8.742188 -5.300781 8.546875 -5.5625 C 8.359375 -5.832031 8.082031 -6.085938 7.71875 -6.328125 C 7.351562 -6.578125 6.601562 -6.972656 5.46875 -7.515625 C 4.40625 -8.015625 3.601562 -8.492188 3.0625 -8.953125 C 2.53125 -9.410156 2.109375 -9.941406 1.796875 -10.546875 C 1.484375 -11.160156 1.328125 -11.878906 1.328125 -12.703125 C 1.328125 -14.242188 1.847656 -15.453125 2.890625 -16.328125 C 3.929688 -17.210938 5.375 -17.65625 7.21875 -17.65625 C 8.113281 -17.65625 8.972656 -17.546875 9.796875 -17.328125 C 10.617188 -17.109375 11.476562 -16.804688 12.375 -16.421875 L 11.1875 -13.5625 C 10.257812 -13.9375 9.488281 -14.195312 8.875 -14.34375 C 8.269531 -14.5 7.675781 -14.578125 7.09375 -14.578125 C 6.394531 -14.578125 5.859375 -14.414062 5.484375 -14.09375 C 5.109375 -13.769531 4.921875 -13.34375 4.921875 -12.8125 C 4.921875 -12.488281 4.992188 -12.207031 5.140625 -11.96875 C 5.296875 -11.726562 5.539062 -11.492188 5.875 -11.265625 C 6.207031 -11.035156 6.988281 -10.628906 8.21875 -10.046875 C 9.84375 -9.265625 10.957031 -8.484375 11.5625 -7.703125 C 12.164062 -6.921875 12.46875 -5.960938 12.46875 -4.828125 Z M 12.46875 -4.828125 "/></g></g><g transform="translate(633.601203, 484.911796)"><g><path d="M 2.1875 0 L 2.1875 -17.40625 L 5.875 -17.40625 L 5.875 0 Z M 2.1875 0 "/></g></g><g transform="translate(641.67066, 484.911796)"><g><path d="M 2.1875 0 L 2.1875 -17.40625 L 5.875 -17.40625 L 5.875 -3.046875 L 12.9375 -3.046875 L 12.9375 0 Z M 2.1875 0 "/></g></g><g transform="translate(655.441107, 484.911796)"><g><path d="M 2.1875 0 L 2.1875 -17.40625 L 5.875 -17.40625 L 5.875 -3.046875 L 12.9375 -3.046875 L 12.9375 0 Z M 2.1875 0 "/></g></g><g transform="translate(669.211553, 484.911796)"><g><path d="M 12.84375 0 L 11.578125 -4.140625 L 5.234375 -4.140625 L 3.96875 0 L 0 0 L 6.140625 -17.46875 L 10.65625 -17.46875 L 16.8125 0 Z M 10.703125 -7.234375 C 9.535156 -10.984375 8.878906 -13.101562 8.734375 -13.59375 C 8.585938 -14.09375 8.484375 -14.484375 8.421875 -14.765625 C 8.148438 -13.753906 7.398438 -11.242188 6.171875 -7.234375 Z M 10.703125 -7.234375 "/></g></g><g transform="translate(686.028874, 484.911796)"><g><path d="M 12.46875 -4.828125 C 12.46875 -3.253906 11.898438 -2.015625 10.765625 -1.109375 C 9.628906 -0.210938 8.054688 0.234375 6.046875 0.234375 C 4.191406 0.234375 2.550781 -0.113281 1.125 -0.8125 L 1.125 -4.234375 C 2.289062 -3.710938 3.28125 -3.34375 4.09375 -3.125 C 4.90625 -2.914062 5.648438 -2.8125 6.328125 -2.8125 C 7.140625 -2.8125 7.757812 -2.960938 8.1875 -3.265625 C 8.625 -3.578125 8.84375 -4.039062 8.84375 -4.65625 C 8.84375 -5 8.742188 -5.300781 8.546875 -5.5625 C 8.359375 -5.832031 8.082031 -6.085938 7.71875 -6.328125 C 7.351562 -6.578125 6.601562 -6.972656 5.46875 -7.515625 C 4.40625 -8.015625 3.601562 -8.492188 3.0625 -8.953125 C 2.53125 -9.410156 2.109375 -9.941406 1.796875 -10.546875 C 1.484375 -11.160156 1.328125 -11.878906 1.328125 -12.703125 C 1.328125 -14.242188 1.847656 -15.453125 2.890625 -16.328125 C 3.929688 -17.210938 5.375 -17.65625 7.21875 -17.65625 C 8.113281 -17.65625 8.972656 -17.546875 9.796875 -17.328125 C 10.617188 -17.109375 11.476562 -16.804688 12.375 -16.421875 L 11.1875 -13.5625 C 10.257812 -13.9375 9.488281 -14.195312 8.875 -14.34375 C 8.269531 -14.5 7.675781 -14.578125 7.09375 -14.578125 C 6.394531 -14.578125 5.859375 -14.414062 5.484375 -14.09375 C 5.109375 -13.769531 4.921875 -13.34375 4.921875 -12.8125 C 4.921875 -12.488281 4.992188 -12.207031 5.140625 -11.96875 C 5.296875 -11.726562 5.539062 -11.492188 5.875 -11.265625 C 6.207031 -11.035156 6.988281 -10.628906 8.21875 -10.046875 C 9.84375 -9.265625 10.957031 -8.484375 11.5625 -7.703125 C 12.164062 -6.921875 12.46875 -5.960938 12.46875 -4.828125 Z M 12.46875 -4.828125 "/></g></g><g transform="translate(699.454167, 484.911796)"><g/></g><g transform="translate(705.785953, 484.911796)"><g><path d="M 8.90625 0 L 5.21875 0 L 5.21875 -14.328125 L 0.484375 -14.328125 L 0.484375 -17.40625 L 13.625 -17.40625 L 13.625 -14.328125 L 8.90625 -14.328125 Z M 8.90625 0 "/></g></g><g transform="translate(719.901553, 484.911796)"><g><path d="M 5.875 -9.671875 L 7.0625 -9.671875 C 8.226562 -9.671875 9.085938 -9.863281 9.640625 -10.25 C 10.203125 -10.644531 10.484375 -11.257812 10.484375 -12.09375 C 10.484375 -12.914062 10.195312 -13.5 9.625 -13.84375 C 9.0625 -14.195312 8.1875 -14.375 7 -14.375 L 5.875 -14.375 Z M 5.875 -6.671875 L 5.875 0 L 2.1875 0 L 2.1875 -17.40625 L 7.265625 -17.40625 C 9.628906 -17.40625 11.375 -16.972656 12.5 -16.109375 C 13.632812 -15.242188 14.203125 -13.9375 14.203125 -12.1875 C 14.203125 -11.164062 13.921875 -10.253906 13.359375 -9.453125 C 12.796875 -8.660156 12 -8.035156 10.96875 -7.578125 C 13.59375 -3.671875 15.300781 -1.144531 16.09375 0 L 12 0 L 7.84375 -6.671875 Z M 5.875 -6.671875 "/></g></g><g transform="translate(735.992861, 484.911796)"><g><path d="M 2.1875 0 L 2.1875 -17.40625 L 5.875 -17.40625 L 5.875 0 Z M 2.1875 0 "/></g></g><g transform="translate(744.062319, 484.911796)"><g><path d="M 2.1875 -17.40625 L 7.609375 -17.40625 C 10.078125 -17.40625 11.867188 -17.050781 12.984375 -16.34375 C 14.097656 -15.644531 14.65625 -14.53125 14.65625 -13 C 14.65625 -11.957031 14.410156 -11.101562 13.921875 -10.4375 C 13.429688 -9.769531 12.78125 -9.367188 11.96875 -9.234375 L 11.96875 -9.109375 C 13.070312 -8.867188 13.867188 -8.410156 14.359375 -7.734375 C 14.847656 -7.054688 15.09375 -6.160156 15.09375 -5.046875 C 15.09375 -3.460938 14.519531 -2.222656 13.375 -1.328125 C 12.226562 -0.441406 10.671875 0 8.703125 0 L 2.1875 0 Z M 5.875 -10.515625 L 8.015625 -10.515625 C 9.015625 -10.515625 9.738281 -10.664062 10.1875 -10.96875 C 10.632812 -11.28125 10.859375 -11.796875 10.859375 -12.515625 C 10.859375 -13.179688 10.613281 -13.65625 10.125 -13.9375 C 9.644531 -14.226562 8.875 -14.375 7.8125 -14.375 L 5.875 -14.375 Z M 5.875 -7.578125 L 5.875 -3.046875 L 8.28125 -3.046875 C 9.300781 -3.046875 10.050781 -3.238281 10.53125 -3.625 C 11.019531 -4.019531 11.265625 -4.617188 11.265625 -5.421875 C 11.265625 -6.859375 10.234375 -7.578125 8.171875 -7.578125 Z M 5.875 -7.578125 "/></g></g><g transform="translate(760.439271, 484.911796)"><g><path d="M 16.359375 -17.40625 L 16.359375 -6.140625 C 16.359375 -4.859375 16.066406 -3.734375 15.484375 -2.765625 C 14.910156 -1.796875 14.078125 -1.050781 12.984375 -0.53125 C 11.898438 -0.0195312 10.617188 0.234375 9.140625 0.234375 C 6.898438 0.234375 5.160156 -0.335938 3.921875 -1.484375 C 2.691406 -2.628906 2.078125 -4.195312 2.078125 -6.1875 L 2.078125 -17.40625 L 5.75 -17.40625 L 5.75 -6.75 C 5.75 -5.40625 6.019531 -4.421875 6.5625 -3.796875 C 7.101562 -3.171875 7.992188 -2.859375 9.234375 -2.859375 C 10.441406 -2.859375 11.316406 -3.171875 11.859375 -3.796875 C 12.398438 -4.429688 12.671875 -5.421875 12.671875 -6.765625 L 12.671875 -17.40625 Z M 16.359375 -17.40625 "/></g></g><g transform="translate(778.863343, 484.911796)"><g><path d="M 17.625 0 L 12.9375 0 L 5.375 -13.15625 L 5.265625 -13.15625 C 5.410156 -10.832031 5.484375 -9.175781 5.484375 -8.1875 L 5.484375 0 L 2.1875 0 L 2.1875 -17.40625 L 6.84375 -17.40625 L 14.40625 -4.375 L 14.484375 -4.375 C 14.367188 -6.632812 14.3125 -8.234375 14.3125 -9.171875 L 14.3125 -17.40625 L 17.625 -17.40625 Z M 17.625 0 "/></g></g><g transform="translate(798.679932, 484.911796)"><g><path d="M 12.84375 0 L 11.578125 -4.140625 L 5.234375 -4.140625 L 3.96875 0 L 0 0 L 6.140625 -17.46875 L 10.65625 -17.46875 L 16.8125 0 Z M 10.703125 -7.234375 C 9.535156 -10.984375 8.878906 -13.101562 8.734375 -13.59375 C 8.585938 -14.09375 8.484375 -14.484375 8.421875 -14.765625 C 8.148438 -13.753906 7.398438 -11.242188 6.171875 -7.234375 Z M 10.703125 -7.234375 "/></g></g><g transform="translate(815.497253, 484.911796)"><g/></g><g transform="translate(821.82904, 484.911796)"><g><path d="M 2.1875 -17.40625 L 7.609375 -17.40625 C 10.078125 -17.40625 11.867188 -17.050781 12.984375 -16.34375 C 14.097656 -15.644531 14.65625 -14.53125 14.65625 -13 C 14.65625 -11.957031 14.410156 -11.101562 13.921875 -10.4375 C 13.429688 -9.769531 12.78125 -9.367188 11.96875 -9.234375 L 11.96875 -9.109375 C 13.070312 -8.867188 13.867188 -8.410156 14.359375 -7.734375 C 14.847656 -7.054688 15.09375 -6.160156 15.09375 -5.046875 C 15.09375 -3.460938 14.519531 -2.222656 13.375 -1.328125 C 12.226562 -0.441406 10.671875 0 8.703125 0 L 2.1875 0 Z M 5.875 -10.515625 L 8.015625 -10.515625 C 9.015625 -10.515625 9.738281 -10.664062 10.1875 -10.96875 C 10.632812 -11.28125 10.859375 -11.796875 10.859375 -12.515625 C 10.859375 -13.179688 10.613281 -13.65625 10.125 -13.9375 C 9.644531 -14.226562 8.875 -14.375 7.8125 -14.375 L 5.875 -14.375 Z M 5.875 -7.578125 L 5.875 -3.046875 L 8.28125 -3.046875 C 9.300781 -3.046875 10.050781 -3.238281 10.53125 -3.625 C 11.019531 -4.019531 11.265625 -4.617188 11.265625 -5.421875 C 11.265625 -6.859375 10.234375 -7.578125 8.171875 -7.578125 Z M 5.875 -7.578125 "/></g></g></g><g clip-path="url(#ba258e8187)"><g clip-path="url(#dc42e864f8)"><path fill="#d9d9d9" d="M 1397.015625 552.398438 L 1132.054688 552.398438 L 1132.054688 373.902344 L 1397.015625 373.902344 Z M 1397.015625 552.398438 " fill-opacity="1" fill-rule="nonzero"/></g></g><g clip-path="url(#747cdba45d)"><g clip-path="url(#514cfadedf)"><path fill="#d9d9d9" d="M 1397.007812 322.644531 L 1075.835938 322.644531 L 1075.835938 242.894531 L 1397.007812 242.894531 Z M 1397.007812 322.644531 " fill-opacity="1" fill-rule="nonzero"/></g></g><g clip-path="url(#b7c76b02ba)"><g clip-path="url(#7b20d21931)"><path fill="#d9d9d9" d="M 372.214844 322.644531 L 79.390625 322.644531 L 79.390625 242.894531 L 372.214844 242.894531 Z M 372.214844 322.644531 " fill-opacity="1" fill-rule="nonzero"/></g></g><g clip-path="url(#acc10fbc67)"><g clip-path="url(#bb4f01fc91)"><path fill="#d9d9d9" d="M 343.914062 552.398438 L 78.953125 552.398438 L 78.953125 373.902344 L 343.914062 373.902344 Z M 343.914062 552.398438 " fill-opacity="1" fill-rule="nonzero"/></g></g><g clip-path="url(#b2820f608a)"><g clip-path="url(#d9587aec2b)"><path fill="#d9d9d9" d="M 1376.324219 182.011719 L 1192.945312 182.011719 L 1192.945312 3.515625 L 1376.324219 3.515625 Z M 1376.324219 182.011719 " fill-opacity="1" fill-rule="nonzero"/></g></g><g clip-path="url(#74af819421)"><g clip-path="url(#10e7ce5d8e)"><path fill="#d9d9d9" d="M 262.574219 182.011719 L 79.195312 182.011719 L 79.195312 3.515625 L 262.574219 3.515625 Z M 262.574219 182.011719 " fill-opacity="1" fill-rule="nonzero"/></g></g><g clip-path="url(#2fbcdf09d3)"><g clip-path="url(#bff297a167)"><path fill="#ff66c4" d="M 946.972656 179.203125 L 1132.378906 179.203125 L 1132.378906 224.578125 L 946.972656 224.578125 Z M 946.972656 179.203125 " fill-opacity="1" fill-rule="nonzero"/></g></g><g fill="#000000" fill-opacity="1"><g transform="translate(1001.547313, 206.951963)"><g><path d="M 3.25 0 L 0 -8.515625 L 2.421875 -8.515625 L 4.078125 -3.65625 C 4.253906 -3.039062 4.367188 -2.460938 4.421875 -1.921875 L 4.46875 -1.921875 C 4.488281 -2.410156 4.597656 -2.988281 4.796875 -3.65625 L 6.4375 -8.515625 L 8.875 -8.515625 L 5.625 0 Z M 3.25 0 "/></g></g></g><g fill="#000000" fill-opacity="1"><g transform="translate(1010.413336, 206.951963)"><g><path d="M 1.125 -10.71875 C 1.125 -11.46875 1.546875 -11.84375 2.390625 -11.84375 C 3.222656 -11.84375 3.640625 -11.46875 3.640625 -10.71875 C 3.640625 -10.351562 3.535156 -10.070312 3.328125 -9.875 C 3.117188 -9.675781 2.804688 -9.578125 2.390625 -9.578125 C 1.546875 -9.578125 1.125 -9.957031 1.125 -10.71875 Z M 3.546875 0 L 1.21875 0 L 1.21875 -8.515625 L 3.546875 -8.515625 Z M 3.546875 0 "/></g></g></g><g fill="#000000" fill-opacity="1"><g transform="translate(1015.169787, 206.951963)"><g><path d="M 7.15625 -2.53125 C 7.15625 -1.65625 6.851562 -0.988281 6.25 -0.53125 C 5.644531 -0.0703125 4.738281 0.15625 3.53125 0.15625 C 2.90625 0.15625 2.375 0.113281 1.9375 0.03125 C 1.5 -0.0507812 1.09375 -0.175781 0.71875 -0.34375 L 0.71875 -2.265625 C 1.144531 -2.054688 1.628906 -1.882812 2.171875 -1.75 C 2.710938 -1.613281 3.1875 -1.546875 3.59375 -1.546875 C 4.4375 -1.546875 4.859375 -1.789062 4.859375 -2.28125 C 4.859375 -2.457031 4.800781 -2.601562 4.6875 -2.71875 C 4.582031 -2.832031 4.390625 -2.960938 4.109375 -3.109375 C 3.835938 -3.253906 3.472656 -3.421875 3.015625 -3.609375 C 2.367188 -3.890625 1.890625 -4.144531 1.578125 -4.375 C 1.273438 -4.613281 1.050781 -4.882812 0.90625 -5.1875 C 0.769531 -5.488281 0.703125 -5.859375 0.703125 -6.296875 C 0.703125 -7.054688 0.992188 -7.640625 1.578125 -8.046875 C 2.160156 -8.460938 2.992188 -8.671875 4.078125 -8.671875 C 5.097656 -8.671875 6.09375 -8.445312 7.0625 -8 L 6.359375 -6.328125 C 5.929688 -6.503906 5.53125 -6.648438 5.15625 -6.765625 C 4.789062 -6.890625 4.414062 -6.953125 4.03125 -6.953125 C 3.34375 -6.953125 3 -6.765625 3 -6.390625 C 3 -6.179688 3.109375 -6 3.328125 -5.84375 C 3.554688 -5.695312 4.046875 -5.472656 4.796875 -5.171875 C 5.453125 -4.910156 5.9375 -4.660156 6.25 -4.421875 C 6.5625 -4.191406 6.789062 -3.921875 6.9375 -3.609375 C 7.082031 -3.304688 7.15625 -2.945312 7.15625 -2.53125 Z M 7.15625 -2.53125 "/></g></g></g><g fill="#000000" fill-opacity="1"><g transform="translate(1022.917093, 206.951963)"><g><path d="M 1.125 -10.71875 C 1.125 -11.46875 1.546875 -11.84375 2.390625 -11.84375 C 3.222656 -11.84375 3.640625 -11.46875 3.640625 -10.71875 C 3.640625 -10.351562 3.535156 -10.070312 3.328125 -9.875 C 3.117188 -9.675781 2.804688 -9.578125 2.390625 -9.578125 C 1.546875 -9.578125 1.125 -9.957031 1.125 -10.71875 Z M 3.546875 0 L 1.21875 0 L 1.21875 -8.515625 L 3.546875 -8.515625 Z M 3.546875 0 "/></g></g></g><g fill="#000000" fill-opacity="1"><g transform="translate(1027.673544, 206.951963)"><g><path d="M 4.796875 -1.703125 C 5.203125 -1.703125 5.691406 -1.789062 6.265625 -1.96875 L 6.265625 -0.234375 C 5.679688 0.0234375 4.972656 0.15625 4.140625 0.15625 C 3.203125 0.15625 2.519531 -0.078125 2.09375 -0.546875 C 1.675781 -1.015625 1.46875 -1.722656 1.46875 -2.671875 L 1.46875 -6.765625 L 0.359375 -6.765625 L 0.359375 -7.75 L 1.640625 -8.53125 L 2.3125 -10.328125 L 3.796875 -10.328125 L 3.796875 -8.515625 L 6.171875 -8.515625 L 6.171875 -6.765625 L 3.796875 -6.765625 L 3.796875 -2.671875 C 3.796875 -2.335938 3.882812 -2.09375 4.0625 -1.9375 C 4.25 -1.78125 4.492188 -1.703125 4.796875 -1.703125 Z M 4.796875 -1.703125 "/></g></g></g><g fill="#000000" fill-opacity="1"><g transform="translate(1034.439119, 206.951963)"><g><path d="M 6.625 0 L 6.171875 -1.15625 L 6.109375 -1.15625 C 5.722656 -0.664062 5.320312 -0.320312 4.90625 -0.125 C 4.488281 0.0625 3.953125 0.15625 3.296875 0.15625 C 2.472656 0.15625 1.828125 -0.078125 1.359375 -0.546875 C 0.890625 -1.015625 0.65625 -1.679688 0.65625 -2.546875 C 0.65625 -3.453125 0.96875 -4.117188 1.59375 -4.546875 C 2.226562 -4.972656 3.1875 -5.207031 4.46875 -5.25 L 5.9375 -5.296875 L 5.9375 -5.671875 C 5.9375 -6.535156 5.492188 -6.96875 4.609375 -6.96875 C 3.929688 -6.96875 3.132812 -6.757812 2.21875 -6.34375 L 1.453125 -7.921875 C 2.429688 -8.429688 3.515625 -8.6875 4.703125 -8.6875 C 5.847656 -8.6875 6.722656 -8.4375 7.328125 -7.9375 C 7.941406 -7.445312 8.25 -6.691406 8.25 -5.671875 L 8.25 0 Z M 5.9375 -3.9375 L 5.046875 -3.90625 C 4.367188 -3.894531 3.863281 -3.773438 3.53125 -3.546875 C 3.195312 -3.328125 3.03125 -2.988281 3.03125 -2.53125 C 3.03125 -1.875 3.410156 -1.546875 4.171875 -1.546875 C 4.703125 -1.546875 5.128906 -1.695312 5.453125 -2 C 5.773438 -2.3125 5.9375 -2.726562 5.9375 -3.25 Z M 5.9375 -3.9375 "/></g></g></g><g fill="#000000" fill-opacity="1"><g transform="translate(1043.853086, 206.951963)"><g><path d="M 9.078125 0 L 6.75 0 L 6.75 -4.96875 C 6.75 -5.582031 6.640625 -6.039062 6.421875 -6.34375 C 6.203125 -6.65625 5.859375 -6.8125 5.390625 -6.8125 C 4.734375 -6.8125 4.257812 -6.59375 3.96875 -6.15625 C 3.6875 -5.726562 3.546875 -5.007812 3.546875 -4 L 3.546875 0 L 1.21875 0 L 1.21875 -8.515625 L 3 -8.515625 L 3.296875 -7.421875 L 3.4375 -7.421875 C 3.695312 -7.835938 4.050781 -8.148438 4.5 -8.359375 C 4.957031 -8.566406 5.472656 -8.671875 6.046875 -8.671875 C 7.035156 -8.671875 7.785156 -8.398438 8.296875 -7.859375 C 8.816406 -7.328125 9.078125 -6.554688 9.078125 -5.546875 Z M 9.078125 0 "/></g></g></g><g fill="#000000" fill-opacity="1"><g transform="translate(1054.096577, 206.951963)"><g><path d="M 4.796875 -1.703125 C 5.203125 -1.703125 5.691406 -1.789062 6.265625 -1.96875 L 6.265625 -0.234375 C 5.679688 0.0234375 4.972656 0.15625 4.140625 0.15625 C 3.203125 0.15625 2.519531 -0.078125 2.09375 -0.546875 C 1.675781 -1.015625 1.46875 -1.722656 1.46875 -2.671875 L 1.46875 -6.765625 L 0.359375 -6.765625 L 0.359375 -7.75 L 1.640625 -8.53125 L 2.3125 -10.328125 L 3.796875 -10.328125 L 3.796875 -8.515625 L 6.171875 -8.515625 L 6.171875 -6.765625 L 3.796875 -6.765625 L 3.796875 -2.671875 C 3.796875 -2.335938 3.882812 -2.09375 4.0625 -1.9375 C 4.25 -1.78125 4.492188 -1.703125 4.796875 -1.703125 Z M 4.796875 -1.703125 "/></g></g></g><g fill="#000000" fill-opacity="1"><g transform="translate(1060.862152, 206.951963)"><g><path d="M 4.75 -7.015625 C 4.25 -7.015625 3.859375 -6.859375 3.578125 -6.546875 C 3.304688 -6.234375 3.148438 -5.789062 3.109375 -5.21875 L 6.359375 -5.21875 C 6.347656 -5.789062 6.195312 -6.234375 5.90625 -6.546875 C 5.625 -6.859375 5.238281 -7.015625 4.75 -7.015625 Z M 5.078125 0.15625 C 3.703125 0.15625 2.628906 -0.21875 1.859375 -0.96875 C 1.085938 -1.726562 0.703125 -2.804688 0.703125 -4.203125 C 0.703125 -5.617188 1.054688 -6.71875 1.765625 -7.5 C 2.484375 -8.28125 3.472656 -8.671875 4.734375 -8.671875 C 5.929688 -8.671875 6.863281 -8.328125 7.53125 -7.640625 C 8.207031 -6.953125 8.546875 -6.003906 8.546875 -4.796875 L 8.546875 -3.671875 L 3.046875 -3.671875 C 3.078125 -3.015625 3.273438 -2.5 3.640625 -2.125 C 4.003906 -1.757812 4.515625 -1.578125 5.171875 -1.578125 C 5.691406 -1.578125 6.175781 -1.628906 6.625 -1.734375 C 7.082031 -1.835938 7.5625 -2.007812 8.0625 -2.25 L 8.0625 -0.453125 C 7.65625 -0.242188 7.21875 -0.09375 6.75 0 C 6.289062 0.101562 5.734375 0.15625 5.078125 0.15625 Z M 5.078125 0.15625 "/></g></g></g><g fill="#000000" fill-opacity="1"><g transform="translate(1070.070641, 206.951963)"><g><path d="M 7.15625 -2.53125 C 7.15625 -1.65625 6.851562 -0.988281 6.25 -0.53125 C 5.644531 -0.0703125 4.738281 0.15625 3.53125 0.15625 C 2.90625 0.15625 2.375 0.113281 1.9375 0.03125 C 1.5 -0.0507812 1.09375 -0.175781 0.71875 -0.34375 L 0.71875 -2.265625 C 1.144531 -2.054688 1.628906 -1.882812 2.171875 -1.75 C 2.710938 -1.613281 3.1875 -1.546875 3.59375 -1.546875 C 4.4375 -1.546875 4.859375 -1.789062 4.859375 -2.28125 C 4.859375 -2.457031 4.800781 -2.601562 4.6875 -2.71875 C 4.582031 -2.832031 4.390625 -2.960938 4.109375 -3.109375 C 3.835938 -3.253906 3.472656 -3.421875 3.015625 -3.609375 C 2.367188 -3.890625 1.890625 -4.144531 1.578125 -4.375 C 1.273438 -4.613281 1.050781 -4.882812 0.90625 -5.1875 C 0.769531 -5.488281 0.703125 -5.859375 0.703125 -6.296875 C 0.703125 -7.054688 0.992188 -7.640625 1.578125 -8.046875 C 2.160156 -8.460938 2.992188 -8.671875 4.078125 -8.671875 C 5.097656 -8.671875 6.09375 -8.445312 7.0625 -8 L 6.359375 -6.328125 C 5.929688 -6.503906 5.53125 -6.648438 5.15625 -6.765625 C 4.789062 -6.890625 4.414062 -6.953125 4.03125 -6.953125 C 3.34375 -6.953125 3 -6.765625 3 -6.390625 C 3 -6.179688 3.109375 -6 3.328125 -5.84375 C 3.554688 -5.695312 4.046875 -5.472656 4.796875 -5.171875 C 5.453125 -4.910156 5.9375 -4.660156 6.25 -4.421875 C 6.5625 -4.191406 6.789062 -3.921875 6.9375 -3.609375 C 7.082031 -3.304688 7.15625 -2.945312 7.15625 -2.53125 Z M 7.15625 -2.53125 "/></g></g></g><g clip-path="url(#9bec98cd14)"><g clip-path="url(#e0f7071d43)"><path fill="#ffbd59" d="M 643.628906 182.023438 L 829.140625 182.023438 L 829.140625 224.578125 L 643.628906 224.578125 Z M 643.628906 182.023438 " fill-opacity="1" fill-rule="nonzero"/></g></g><g fill="#000000" fill-opacity="1"><g transform="translate(712.817382, 209.774308)"><g><path d="M 9.96875 0 L 7.359375 0 L 7.359375 -5.609375 C 7.359375 -6.304688 7.238281 -6.828125 7 -7.171875 C 6.769531 -7.515625 6.40625 -7.6875 5.90625 -7.6875 C 5.238281 -7.6875 4.753906 -7.441406 4.453125 -6.953125 C 4.148438 -6.460938 4 -5.648438 4 -4.515625 L 4 0 L 1.375 0 L 1.375 -9.609375 L 3.375 -9.609375 L 3.734375 -8.375 L 3.875 -8.375 C 4.132812 -8.8125 4.503906 -9.15625 4.984375 -9.40625 C 5.472656 -9.65625 6.035156 -9.78125 6.671875 -9.78125 C 8.109375 -9.78125 9.082031 -9.3125 9.59375 -8.375 L 9.8125 -8.375 C 10.070312 -8.820312 10.453125 -9.164062 10.953125 -9.40625 C 11.453125 -9.65625 12.019531 -9.78125 12.65625 -9.78125 C 13.738281 -9.78125 14.5625 -9.5 15.125 -8.9375 C 15.6875 -8.382812 15.96875 -7.492188 15.96875 -6.265625 L 15.96875 0 L 13.328125 0 L 13.328125 -5.609375 C 13.328125 -6.304688 13.210938 -6.828125 12.984375 -7.171875 C 12.753906 -7.515625 12.390625 -7.6875 11.890625 -7.6875 C 11.242188 -7.6875 10.757812 -7.457031 10.4375 -7 C 10.125 -6.539062 9.96875 -5.8125 9.96875 -4.8125 Z M 9.96875 0 "/></g></g></g><g fill="#000000" fill-opacity="1"><g transform="translate(730.089446, 209.774308)"><g><path d="M 5.359375 -7.921875 C 4.796875 -7.921875 4.359375 -7.742188 4.046875 -7.390625 C 3.734375 -7.035156 3.550781 -6.535156 3.5 -5.890625 L 7.1875 -5.890625 C 7.175781 -6.535156 7.003906 -7.035156 6.671875 -7.390625 C 6.347656 -7.742188 5.910156 -7.921875 5.359375 -7.921875 Z M 5.71875 0.171875 C 4.175781 0.171875 2.96875 -0.253906 2.09375 -1.109375 C 1.226562 -1.960938 0.796875 -3.171875 0.796875 -4.734375 C 0.796875 -6.335938 1.195312 -7.578125 2 -8.453125 C 2.800781 -9.335938 3.910156 -9.78125 5.328125 -9.78125 C 6.691406 -9.78125 7.75 -9.394531 8.5 -8.625 C 9.257812 -7.851562 9.640625 -6.785156 9.640625 -5.421875 L 9.640625 -4.15625 L 3.4375 -4.15625 C 3.46875 -3.40625 3.6875 -2.820312 4.09375 -2.40625 C 4.507812 -1.988281 5.09375 -1.78125 5.84375 -1.78125 C 6.414062 -1.78125 6.957031 -1.835938 7.46875 -1.953125 C 7.988281 -2.078125 8.53125 -2.269531 9.09375 -2.53125 L 9.09375 -0.5 C 8.632812 -0.269531 8.144531 -0.101562 7.625 0 C 7.101562 0.113281 6.46875 0.171875 5.71875 0.171875 Z M 5.71875 0.171875 "/></g></g></g><g fill="#000000" fill-opacity="1"><g transform="translate(740.481882, 209.774308)"><g><path d="M 8.078125 -2.859375 C 8.078125 -1.867188 7.734375 -1.113281 7.046875 -0.59375 C 6.359375 -0.0820312 5.335938 0.171875 3.984375 0.171875 C 3.273438 0.171875 2.675781 0.125 2.1875 0.03125 C 1.695312 -0.0625 1.238281 -0.203125 0.8125 -0.390625 L 0.8125 -2.546875 C 1.289062 -2.316406 1.835938 -2.125 2.453125 -1.96875 C 3.066406 -1.820312 3.601562 -1.75 4.0625 -1.75 C 5.007812 -1.75 5.484375 -2.019531 5.484375 -2.5625 C 5.484375 -2.769531 5.421875 -2.9375 5.296875 -3.0625 C 5.171875 -3.195312 4.953125 -3.34375 4.640625 -3.5 C 4.335938 -3.664062 3.925781 -3.859375 3.40625 -4.078125 C 2.664062 -4.390625 2.125 -4.675781 1.78125 -4.9375 C 1.4375 -5.195312 1.1875 -5.5 1.03125 -5.84375 C 0.875 -6.1875 0.796875 -6.609375 0.796875 -7.109375 C 0.796875 -7.960938 1.125 -8.617188 1.78125 -9.078125 C 2.445312 -9.546875 3.382812 -9.78125 4.59375 -9.78125 C 5.75 -9.78125 6.875 -9.53125 7.96875 -9.03125 L 7.1875 -7.140625 C 6.695312 -7.347656 6.242188 -7.515625 5.828125 -7.640625 C 5.410156 -7.773438 4.984375 -7.84375 4.546875 -7.84375 C 3.773438 -7.84375 3.390625 -7.632812 3.390625 -7.21875 C 3.390625 -6.976562 3.515625 -6.769531 3.765625 -6.59375 C 4.015625 -6.425781 4.5625 -6.175781 5.40625 -5.84375 C 6.15625 -5.539062 6.703125 -5.253906 7.046875 -4.984375 C 7.398438 -4.722656 7.660156 -4.421875 7.828125 -4.078125 C 7.992188 -3.734375 8.078125 -3.328125 8.078125 -2.859375 Z M 8.078125 -2.859375 "/></g></g></g><g fill="#000000" fill-opacity="1"><g transform="translate(749.225271, 209.774308)"><g><path d="M 7.46875 0 L 6.96875 -1.3125 L 6.890625 -1.3125 C 6.453125 -0.75 6 -0.359375 5.53125 -0.140625 C 5.070312 0.0664062 4.46875 0.171875 3.71875 0.171875 C 2.789062 0.171875 2.0625 -0.0859375 1.53125 -0.609375 C 1 -1.140625 0.734375 -1.894531 0.734375 -2.875 C 0.734375 -3.894531 1.085938 -4.644531 1.796875 -5.125 C 2.515625 -5.601562 3.59375 -5.867188 5.03125 -5.921875 L 6.703125 -5.984375 L 6.703125 -6.40625 C 6.703125 -7.375 6.203125 -7.859375 5.203125 -7.859375 C 4.441406 -7.859375 3.539062 -7.628906 2.5 -7.171875 L 1.625 -8.9375 C 2.738281 -9.507812 3.96875 -9.796875 5.3125 -9.796875 C 6.59375 -9.796875 7.578125 -9.515625 8.265625 -8.953125 C 8.953125 -8.398438 9.296875 -7.550781 9.296875 -6.40625 L 9.296875 0 Z M 6.703125 -4.453125 L 5.6875 -4.421875 C 4.925781 -4.390625 4.359375 -4.25 3.984375 -4 C 3.609375 -3.75 3.421875 -3.367188 3.421875 -2.859375 C 3.421875 -2.117188 3.847656 -1.75 4.703125 -1.75 C 5.304688 -1.75 5.789062 -1.921875 6.15625 -2.265625 C 6.519531 -2.617188 6.703125 -3.082031 6.703125 -3.65625 Z M 6.703125 -4.453125 "/></g></g></g><g clip-path="url(#cf0e2b4dd8)"><g clip-path="url(#0d96658caa)"><path fill="#ff3131" d="M 310.117188 182.023438 L 494.636719 182.023438 L 494.636719 227.402344 L 310.117188 227.402344 Z M 310.117188 182.023438 " fill-opacity="1" fill-rule="nonzero"/></g></g><g fill="#ffffff" fill-opacity="1"><g transform="translate(369.811273, 212.024308)"><g><path d="M 4.546875 0 L 1.5625 0 L 1.5625 -15.203125 L 4.546875 -15.203125 Z M 4.546875 0 "/></g></g></g><g fill="#ffffff" fill-opacity="1"><g transform="translate(375.912405, 212.024308)"><g><path d="M 6.078125 -9 C 5.453125 -9 4.957031 -8.796875 4.59375 -8.390625 C 4.238281 -7.992188 4.035156 -7.429688 3.984375 -6.703125 L 8.171875 -6.703125 C 8.148438 -7.429688 7.953125 -7.992188 7.578125 -8.390625 C 7.210938 -8.796875 6.710938 -9 6.078125 -9 Z M 6.5 0.203125 C 4.75 0.203125 3.378906 -0.28125 2.390625 -1.25 C 1.398438 -2.226562 0.90625 -3.601562 0.90625 -5.375 C 0.90625 -7.207031 1.359375 -8.625 2.265625 -9.625 C 3.179688 -10.625 4.445312 -11.125 6.0625 -11.125 C 7.601562 -11.125 8.800781 -10.679688 9.65625 -9.796875 C 10.519531 -8.921875 10.953125 -7.707031 10.953125 -6.15625 L 10.953125 -4.71875 L 3.921875 -4.71875 C 3.953125 -3.875 4.203125 -3.210938 4.671875 -2.734375 C 5.140625 -2.253906 5.796875 -2.015625 6.640625 -2.015625 C 7.296875 -2.015625 7.914062 -2.082031 8.5 -2.21875 C 9.09375 -2.363281 9.707031 -2.582031 10.34375 -2.875 L 10.34375 -0.578125 C 9.820312 -0.316406 9.265625 -0.125 8.671875 0 C 8.078125 0.132812 7.351562 0.203125 6.5 0.203125 Z M 6.5 0.203125 "/></g></g></g><g fill="#ffffff" fill-opacity="1"><g transform="translate(387.724195, 212.024308)"><g><path d="M 3.9375 -5.484375 C 3.9375 -4.398438 4.113281 -3.582031 4.46875 -3.03125 C 4.820312 -2.476562 5.398438 -2.203125 6.203125 -2.203125 C 6.992188 -2.203125 7.5625 -2.472656 7.90625 -3.015625 C 8.257812 -3.566406 8.4375 -4.390625 8.4375 -5.484375 C 8.4375 -6.554688 8.257812 -7.363281 7.90625 -7.90625 C 7.5625 -8.445312 6.988281 -8.71875 6.1875 -8.71875 C 5.382812 -8.71875 4.804688 -8.445312 4.453125 -7.90625 C 4.109375 -7.375 3.9375 -6.566406 3.9375 -5.484375 Z M 11.484375 -5.484375 C 11.484375 -3.703125 11.015625 -2.304688 10.078125 -1.296875 C 9.140625 -0.296875 7.832031 0.203125 6.15625 0.203125 C 5.113281 0.203125 4.191406 -0.0234375 3.390625 -0.484375 C 2.585938 -0.953125 1.972656 -1.613281 1.546875 -2.46875 C 1.117188 -3.332031 0.90625 -4.335938 0.90625 -5.484375 C 0.90625 -7.265625 1.367188 -8.648438 2.296875 -9.640625 C 3.222656 -10.628906 4.53125 -11.125 6.21875 -11.125 C 7.269531 -11.125 8.195312 -10.894531 9 -10.4375 C 9.800781 -9.976562 10.414062 -9.320312 10.84375 -8.46875 C 11.269531 -7.625 11.484375 -6.628906 11.484375 -5.484375 Z M 11.484375 -5.484375 "/></g></g></g><g fill="#ffffff" fill-opacity="1"><g transform="translate(400.10217, 212.024308)"><g><path d="M 11.640625 0 L 8.65625 0 L 8.65625 -6.375 C 8.65625 -7.164062 8.515625 -7.753906 8.234375 -8.140625 C 7.960938 -8.535156 7.519531 -8.734375 6.90625 -8.734375 C 6.070312 -8.734375 5.46875 -8.457031 5.09375 -7.90625 C 4.726562 -7.351562 4.546875 -6.429688 4.546875 -5.140625 L 4.546875 0 L 1.5625 0 L 1.5625 -10.921875 L 3.84375 -10.921875 L 4.234375 -9.515625 L 4.40625 -9.515625 C 4.738281 -10.046875 5.195312 -10.445312 5.78125 -10.71875 C 6.363281 -10.988281 7.023438 -11.125 7.765625 -11.125 C 9.035156 -11.125 10 -10.78125 10.65625 -10.09375 C 11.3125 -9.40625 11.640625 -8.414062 11.640625 -7.125 Z M 11.640625 0 "/></g></g></g><g fill="#ffffff" fill-opacity="1"><g transform="translate(413.241566, 212.024308)"><g><path d="M 6.078125 -9 C 5.453125 -9 4.957031 -8.796875 4.59375 -8.390625 C 4.238281 -7.992188 4.035156 -7.429688 3.984375 -6.703125 L 8.171875 -6.703125 C 8.148438 -7.429688 7.953125 -7.992188 7.578125 -8.390625 C 7.210938 -8.796875 6.710938 -9 6.078125 -9 Z M 6.5 0.203125 C 4.75 0.203125 3.378906 -0.28125 2.390625 -1.25 C 1.398438 -2.226562 0.90625 -3.601562 0.90625 -5.375 C 0.90625 -7.207031 1.359375 -8.625 2.265625 -9.625 C 3.179688 -10.625 4.445312 -11.125 6.0625 -11.125 C 7.601562 -11.125 8.800781 -10.679688 9.65625 -9.796875 C 10.519531 -8.921875 10.953125 -7.707031 10.953125 -6.15625 L 10.953125 -4.71875 L 3.921875 -4.71875 C 3.953125 -3.875 4.203125 -3.210938 4.671875 -2.734375 C 5.140625 -2.253906 5.796875 -2.015625 6.640625 -2.015625 C 7.296875 -2.015625 7.914062 -2.082031 8.5 -2.21875 C 9.09375 -2.363281 9.707031 -2.582031 10.34375 -2.875 L 10.34375 -0.578125 C 9.820312 -0.316406 9.265625 -0.125 8.671875 0 C 8.078125 0.132812 7.351562 0.203125 6.5 0.203125 Z M 6.5 0.203125 "/></g></g></g><g fill="#ffffff" fill-opacity="1"><g transform="translate(425.053356, 212.024308)"><g><path d="M 9.1875 -3.25 C 9.1875 -2.125 8.796875 -1.265625 8.015625 -0.671875 C 7.234375 -0.0859375 6.066406 0.203125 4.515625 0.203125 C 3.722656 0.203125 3.046875 0.144531 2.484375 0.03125 C 1.929688 -0.0703125 1.410156 -0.226562 0.921875 -0.4375 L 0.921875 -2.90625 C 1.472656 -2.644531 2.09375 -2.425781 2.78125 -2.25 C 3.476562 -2.070312 4.09375 -1.984375 4.625 -1.984375 C 5.695312 -1.984375 6.234375 -2.296875 6.234375 -2.921875 C 6.234375 -3.148438 6.160156 -3.335938 6.015625 -3.484375 C 5.878906 -3.640625 5.632812 -3.804688 5.28125 -3.984375 C 4.925781 -4.171875 4.457031 -4.390625 3.875 -4.640625 C 3.039062 -4.992188 2.425781 -5.316406 2.03125 -5.609375 C 1.632812 -5.910156 1.347656 -6.253906 1.171875 -6.640625 C 0.992188 -7.035156 0.90625 -7.515625 0.90625 -8.078125 C 0.90625 -9.046875 1.28125 -9.796875 2.03125 -10.328125 C 2.78125 -10.859375 3.84375 -11.125 5.21875 -11.125 C 6.539062 -11.125 7.820312 -10.835938 9.0625 -10.265625 L 8.171875 -8.109375 C 7.617188 -8.347656 7.101562 -8.539062 6.625 -8.6875 C 6.15625 -8.84375 5.671875 -8.921875 5.171875 -8.921875 C 4.296875 -8.921875 3.859375 -8.679688 3.859375 -8.203125 C 3.859375 -7.929688 4 -7.695312 4.28125 -7.5 C 4.5625 -7.3125 5.179688 -7.023438 6.140625 -6.640625 C 6.992188 -6.296875 7.617188 -5.972656 8.015625 -5.671875 C 8.410156 -5.367188 8.703125 -5.019531 8.890625 -4.625 C 9.085938 -4.238281 9.1875 -3.78125 9.1875 -3.25 Z M 9.1875 -3.25 "/></g></g></g></svg>