<svg xmlns="http://www.w3.org/2000/svg" xmlns:xlink="http://www.w3.org/1999/xlink" width="2000" zoomAndPan="magnify" viewBox="0 0 1500 599.999999" height="800" preserveAspectRatio="xMidYMid meet" version="1.0"><defs><g/><clipPath id="57044feea5"><path d="M 336.855469 180 L 1178.355469 180 L 1178.355469 198 L 336.855469 198 Z M 336.855469 180 " clip-rule="nonzero"/></clipPath><clipPath id="271ed6f5a1"><path d="M 336.855469 163 L 1178.355469 163 L 1178.355469 181 L 336.855469 181 Z M 336.855469 163 " clip-rule="nonzero"/></clipPath><clipPath id="567d27a388"><path d="M 336.855469 146 L 1178.355469 146 L 1178.355469 164 L 336.855469 164 Z M 336.855469 146 " clip-rule="nonzero"/></clipPath><clipPath id="798ad0a6de"><path d="M 336.855469 128 L 1178.355469 128 L 1178.355469 147 L 336.855469 147 Z M 336.855469 128 " clip-rule="nonzero"/></clipPath><clipPath id="443b3c8323"><path d="M 336.855469 111 L 1178.355469 111 L 1178.355469 129 L 336.855469 129 Z M 336.855469 111 " clip-rule="nonzero"/></clipPath><clipPath id="cefa6a0a6a"><path d="M 336.855469 94 L 1178.355469 94 L 1178.355469 112 L 336.855469 112 Z M 336.855469 94 " clip-rule="nonzero"/></clipPath><clipPath id="aeea1b5073"><path d="M 336.855469 77 L 1178.355469 77 L 1178.355469 95 L 336.855469 95 Z M 336.855469 77 " clip-rule="nonzero"/></clipPath><clipPath id="a479993a38"><path d="M 336.855469 60 L 1178.355469 60 L 1178.355469 78 L 336.855469 78 Z M 336.855469 60 " clip-rule="nonzero"/></clipPath><clipPath id="5e03f7fcc1"><path d="M 336.855469 42 L 1178.355469 42 L 1178.355469 61 L 336.855469 61 Z M 336.855469 42 " clip-rule="nonzero"/></clipPath><clipPath id="f1143df5e0"><path d="M 336.855469 25 L 1178.355469 25 L 1178.355469 43 L 336.855469 43 Z M 336.855469 25 " clip-rule="nonzero"/></clipPath><clipPath id="4cde567a9d"><path d="M 336.855469 8 L 1178.355469 8 L 1178.355469 26 L 336.855469 26 Z M 336.855469 8 " clip-rule="nonzero"/></clipPath><clipPath id="1005807561"><path d="M 336.855469 0 L 1178.355469 0 L 1178.355469 9 L 336.855469 9 Z M 336.855469 0 " clip-rule="nonzero"/></clipPath><clipPath id="e4eebfc368"><path d="M 336.855469 180 L 1178.355469 180 L 1178.355469 198 L 336.855469 198 Z M 336.855469 180 " clip-rule="nonzero"/></clipPath><clipPath id="4f7c16b438"><path d="M 336.855469 163 L 1178.355469 163 L 1178.355469 181 L 336.855469 181 Z M 336.855469 163 " clip-rule="nonzero"/></clipPath><clipPath id="0a75a096d3"><path d="M 336.855469 146 L 1178.355469 146 L 1178.355469 164 L 336.855469 164 Z M 336.855469 146 " clip-rule="nonzero"/></clipPath><clipPath id="195cc86980"><path d="M 336.855469 128 L 1178.355469 128 L 1178.355469 147 L 336.855469 147 Z M 336.855469 128 " clip-rule="nonzero"/></clipPath><clipPath id="086d414e13"><path d="M 336.855469 111 L 1178.355469 111 L 1178.355469 129 L 336.855469 129 Z M 336.855469 111 " clip-rule="nonzero"/></clipPath><clipPath id="a6e1268c4a"><path d="M 336.855469 94 L 1178.355469 94 L 1178.355469 112 L 336.855469 112 Z M 336.855469 94 " clip-rule="nonzero"/></clipPath><clipPath id="88a050f4c9"><path d="M 336.855469 77 L 1178.355469 77 L 1178.355469 95 L 336.855469 95 Z M 336.855469 77 " clip-rule="nonzero"/></clipPath><clipPath id="2661ad3b84"><path d="M 336.855469 60 L 1178.355469 60 L 1178.355469 78 L 336.855469 78 Z M 336.855469 60 " clip-rule="nonzero"/></clipPath><clipPath id="0de89495eb"><path d="M 336.855469 42 L 1178.355469 42 L 1178.355469 61 L 336.855469 61 Z M 336.855469 42 " clip-rule="nonzero"/></clipPath><clipPath id="efbfab3149"><path d="M 336.855469 25 L 1178.355469 25 L 1178.355469 43 L 336.855469 43 Z M 336.855469 25 " clip-rule="nonzero"/></clipPath><clipPath id="b7b29c9580"><path d="M 336.855469 8 L 1178.355469 8 L 1178.355469 26 L 336.855469 26 Z M 336.855469 8 " clip-rule="nonzero"/></clipPath><clipPath id="3cbd37dc32"><path d="M 336.855469 0 L 1178.355469 0 L 1178.355469 9 L 336.855469 9 Z M 336.855469 0 " clip-rule="nonzero"/></clipPath><clipPath id="4e466f68e7"><path d="M 434.652344 248.953125 L 1070.835938 248.953125 L 1070.835938 327.707031 L 434.652344 327.707031 Z M 434.652344 248.953125 " clip-rule="nonzero"/></clipPath><clipPath id="5873af0a16"><path d="M 440.761719 248.953125 L 1064.589844 248.953125 C 1067.964844 248.953125 1070.703125 251.6875 1070.703125 255.0625 L 1070.703125 321.59375 C 1070.703125 324.96875 1067.964844 327.707031 1064.589844 327.707031 L 440.761719 327.707031 C 437.386719 327.707031 434.652344 324.96875 434.652344 321.59375 L 434.652344 255.0625 C 434.652344 251.6875 437.386719 248.953125 440.761719 248.953125 Z M 440.761719 248.953125 " clip-rule="nonzero"/></clipPath><clipPath id="7d6a7f1c5e"><path d="M 510.300781 378.324219 L 1005.074219 378.324219 L 1005.074219 579.695312 L 510.300781 579.695312 Z M 510.300781 378.324219 " clip-rule="nonzero"/></clipPath><clipPath id="61c0f03765"><path d="M 998.964844 579.695312 L 516.621094 579.695312 C 513.246094 579.695312 510.507812 576.960938 510.507812 573.585938 L 510.507812 384.4375 C 510.507812 381.0625 513.246094 378.324219 516.621094 378.324219 L 998.964844 378.324219 C 1002.339844 378.324219 1005.074219 381.0625 1005.074219 384.4375 L 1005.074219 573.585938 C 1005.074219 576.960938 1002.339844 579.695312 998.964844 579.695312 Z M 998.964844 579.695312 " clip-rule="nonzero"/></clipPath><clipPath id="6037a21a83"><path d="M 1155.613281 378.332031 L 1417.269531 378.332031 L 1417.269531 554.605469 L 1155.613281 554.605469 Z M 1155.613281 378.332031 " clip-rule="nonzero"/></clipPath><clipPath id="a99e2f3550"><path d="M 1411.160156 554.605469 L 1162.066406 554.605469 C 1158.691406 554.605469 1155.957031 551.871094 1155.957031 548.496094 L 1155.957031 384.445312 C 1155.957031 381.070312 1158.691406 378.332031 1162.066406 378.332031 L 1411.160156 378.332031 C 1414.535156 378.332031 1417.269531 381.070312 1417.269531 384.445312 L 1417.269531 548.496094 C 1417.269531 551.871094 1414.535156 554.605469 1411.160156 554.605469 Z M 1411.160156 554.605469 " clip-rule="nonzero"/></clipPath><clipPath id="168a643bab"><path d="M 1100 248.949219 L 1417.277344 248.949219 L 1417.277344 327.703125 L 1100 327.703125 Z M 1100 248.949219 " clip-rule="nonzero"/></clipPath><clipPath id="a14d4fc00b"><path d="M 1411.167969 327.703125 L 1106.207031 327.703125 C 1102.832031 327.703125 1100.097656 324.964844 1100.097656 321.589844 L 1100.097656 255.058594 C 1100.097656 251.683594 1102.832031 248.949219 1106.207031 248.949219 L 1411.167969 248.949219 C 1414.542969 248.949219 1417.277344 251.683594 1417.277344 255.058594 L 1417.277344 321.589844 C 1417.277344 324.964844 1414.542969 327.703125 1411.167969 327.703125 Z M 1411.167969 327.703125 " clip-rule="nonzero"/></clipPath><clipPath id="525d7ca31d"><path d="M 116 248.949219 L 405.246094 248.949219 L 405.246094 327.703125 L 116 327.703125 Z M 116 248.949219 " clip-rule="nonzero"/></clipPath><clipPath id="50de1a198c"><path d="M 399.136719 327.703125 L 122.09375 327.703125 C 118.71875 327.703125 115.984375 324.964844 115.984375 321.589844 L 115.984375 255.058594 C 115.984375 251.683594 118.71875 248.949219 122.09375 248.949219 L 399.136719 248.949219 C 402.511719 248.949219 405.246094 251.683594 405.246094 255.058594 L 405.246094 321.589844 C 405.246094 324.964844 402.511719 327.703125 399.136719 327.703125 Z M 399.136719 327.703125 " clip-rule="nonzero"/></clipPath><clipPath id="38805c40c1"><path d="M 115.640625 378.332031 L 377.296875 378.332031 L 377.296875 554.605469 L 115.640625 554.605469 Z M 115.640625 378.332031 " clip-rule="nonzero"/></clipPath><clipPath id="fc63c53b2d"><path d="M 371.1875 554.605469 L 122.09375 554.605469 C 118.71875 554.605469 115.984375 551.871094 115.984375 548.496094 L 115.984375 384.445312 C 115.984375 381.070312 118.71875 378.332031 122.09375 378.332031 L 371.1875 378.332031 C 374.5625 378.332031 377.296875 381.070312 377.296875 384.445312 L 377.296875 548.496094 C 377.296875 551.871094 374.5625 554.605469 371.1875 554.605469 Z M 371.1875 554.605469 " clip-rule="nonzero"/></clipPath><clipPath id="1579ad414a"><path d="M 1215.75 12.5625 L 1396.84375 12.5625 L 1396.84375 188.835938 L 1215.75 188.835938 Z M 1215.75 12.5625 " clip-rule="nonzero"/></clipPath><clipPath id="83dab6092b"><path d="M 1390.734375 188.835938 L 1221.964844 188.835938 C 1218.589844 188.835938 1215.855469 186.101562 1215.855469 182.726562 L 1215.855469 18.675781 C 1215.855469 15.300781 1218.589844 12.5625 1221.964844 12.5625 L 1390.734375 12.5625 C 1394.109375 12.5625 1396.84375 15.300781 1396.84375 18.675781 L 1396.84375 182.726562 C 1396.84375 186.101562 1394.109375 188.835938 1390.734375 188.835938 Z M 1390.734375 188.835938 " clip-rule="nonzero"/></clipPath><clipPath id="91143ac7b9"><path d="M 115.882812 12.5625 L 296.976562 12.5625 L 296.976562 188.835938 L 115.882812 188.835938 Z M 115.882812 12.5625 " clip-rule="nonzero"/></clipPath><clipPath id="924d4943f4"><path d="M 290.867188 188.835938 L 122.097656 188.835938 C 118.722656 188.835938 115.988281 186.101562 115.988281 182.726562 L 115.988281 18.675781 C 115.988281 15.300781 118.722656 12.5625 122.097656 12.5625 L 290.867188 12.5625 C 294.242188 12.5625 296.976562 15.300781 296.976562 18.675781 L 296.976562 182.726562 C 296.976562 186.101562 294.242188 188.835938 290.867188 188.835938 Z M 290.867188 188.835938 " clip-rule="nonzero"/></clipPath><clipPath id="a6728ef6eb"><path d="M 983.242188 175.164062 L 1172.6875 175.164062 L 1172.6875 221.484375 L 983.242188 221.484375 Z M 983.242188 175.164062 " clip-rule="nonzero"/></clipPath><clipPath id="7660e6c4bf"><path d="M 989.242188 175.164062 L 1166.53125 175.164062 C 1169.84375 175.164062 1172.53125 177.851562 1172.53125 181.164062 L 1172.53125 215.484375 C 1172.53125 218.796875 1169.84375 221.484375 1166.53125 221.484375 L 989.242188 221.484375 C 985.929688 221.484375 983.242188 218.796875 983.242188 215.484375 L 983.242188 181.164062 C 983.242188 177.851562 985.929688 175.164062 989.242188 175.164062 Z M 989.242188 175.164062 " clip-rule="nonzero"/></clipPath><clipPath id="bdbf00fc7e"><path d="M 663.148438 178.046875 L 852.515625 178.046875 L 852.515625 221.484375 L 663.148438 221.484375 Z M 663.148438 178.046875 " clip-rule="nonzero"/></clipPath><clipPath id="71e522f206"><path d="M 669.148438 178.046875 L 846.4375 178.046875 C 849.75 178.046875 852.4375 180.730469 852.4375 184.046875 L 852.4375 215.484375 C 852.4375 218.796875 849.75 221.484375 846.4375 221.484375 L 669.148438 221.484375 C 665.835938 221.484375 663.148438 218.796875 663.148438 215.484375 L 663.148438 184.046875 C 663.148438 180.730469 665.835938 178.046875 669.148438 178.046875 Z M 669.148438 178.046875 " clip-rule="nonzero"/></clipPath><clipPath id="7920deb983"><path d="M 322.082031 175.164062 L 510.621094 175.164062 L 510.621094 221.484375 L 322.082031 221.484375 Z M 322.082031 175.164062 " clip-rule="nonzero"/></clipPath><clipPath id="44f40688d7"><path d="M 328.082031 175.164062 L 504.507812 175.164062 C 507.824219 175.164062 510.507812 177.851562 510.507812 181.164062 L 510.507812 215.484375 C 510.507812 218.796875 507.824219 221.484375 504.507812 221.484375 L 328.082031 221.484375 C 324.769531 221.484375 322.082031 218.796875 322.082031 215.484375 L 322.082031 181.164062 C 322.082031 177.851562 324.769531 175.164062 328.082031 175.164062 Z M 328.082031 175.164062 " clip-rule="nonzero"/></clipPath></defs><g clip-path="url(#57044feea5)"><path fill="#dea55a" d="M 1178.367188 180.582031 L 336.847656 180.582031 L 336.847656 197.792969 L 1178.367188 197.792969 Z M 1178.367188 180.582031 " fill-opacity="1" fill-rule="nonzero"/></g><g clip-path="url(#271ed6f5a1)"><path fill="#d39d49" d="M 1178.367188 163.390625 L 336.847656 163.390625 L 336.847656 180.582031 L 1178.367188 180.582031 Z M 1178.367188 163.390625 " fill-opacity="1" fill-rule="nonzero"/></g><g clip-path="url(#567d27a388)"><path fill="#dea55a" d="M 1178.367188 146.179688 L 336.847656 146.179688 L 336.847656 163.390625 L 1178.367188 163.390625 Z M 1178.367188 146.179688 " fill-opacity="1" fill-rule="nonzero"/></g><g clip-path="url(#798ad0a6de)"><path fill="#dea55a" d="M 1178.367188 128.988281 L 336.847656 128.988281 L 336.847656 146.179688 L 1178.367188 146.179688 Z M 1178.367188 128.988281 " fill-opacity="1" fill-rule="nonzero"/></g><g clip-path="url(#443b3c8323)"><path fill="#dea55a" d="M 1178.367188 111.785156 L 336.847656 111.785156 L 336.847656 128.988281 L 1178.367188 128.988281 Z M 1178.367188 111.785156 " fill-opacity="1" fill-rule="nonzero"/></g><g clip-path="url(#cefa6a0a6a)"><path fill="#dea55a" d="M 1178.367188 94.585938 L 336.847656 94.585938 L 336.847656 111.785156 L 1178.367188 111.785156 Z M 1178.367188 94.585938 " fill-opacity="1" fill-rule="nonzero"/></g><g clip-path="url(#aeea1b5073)"><path fill="#dea55a" d="M 1178.367188 77.375 L 336.847656 77.375 L 336.847656 94.585938 L 1178.367188 94.585938 Z M 1178.367188 77.375 " fill-opacity="1" fill-rule="nonzero"/></g><g clip-path="url(#a479993a38)"><path fill="#d39d48" d="M 1178.367188 60.183594 L 336.847656 60.183594 L 336.847656 77.375 L 1178.367188 77.375 Z M 1178.367188 60.183594 " fill-opacity="1" fill-rule="nonzero"/></g><g clip-path="url(#5e03f7fcc1)"><path fill="#dea55a" d="M 1178.367188 42.972656 L 336.847656 42.972656 L 336.847656 60.183594 L 1178.367188 60.183594 Z M 1178.367188 42.972656 " fill-opacity="1" fill-rule="nonzero"/></g><g clip-path="url(#f1143df5e0)"><path fill="#d39d49" d="M 1178.367188 25.773438 L 336.847656 25.773438 L 336.847656 42.972656 L 1178.367188 42.972656 Z M 1178.367188 25.773438 " fill-opacity="1" fill-rule="nonzero"/></g><g clip-path="url(#4cde567a9d)"><path fill="#dea55a" d="M 1178.367188 8.570312 L 336.847656 8.570312 L 336.847656 25.773438 L 1178.367188 25.773438 Z M 1178.367188 8.570312 " fill-opacity="1" fill-rule="nonzero"/></g><g clip-path="url(#1005807561)"><path fill="#d39d48" d="M 1178.367188 -8.628906 L 336.847656 -8.628906 L 336.847656 8.570312 L 1178.367188 8.570312 Z M 1178.367188 -8.628906 " fill-opacity="1" fill-rule="nonzero"/></g><path fill="#d39d48" d="M 792.464844 128.988281 L 437.828125 128.988281 L 437.828125 146.179688 L 792.464844 146.179688 Z M 792.464844 128.988281 " fill-opacity="1" fill-rule="nonzero"/><path fill="#c79146" d="M 619.304688 111.785156 L 455.628906 111.785156 L 455.628906 128.988281 L 619.304688 128.988281 Z M 619.304688 111.785156 " fill-opacity="1" fill-rule="nonzero"/><path fill="#c28e3f" d="M 681.578125 25.773438 L 517.902344 25.773438 L 517.902344 42.972656 L 681.578125 42.972656 Z M 681.578125 25.773438 " fill-opacity="1" fill-rule="nonzero"/><path fill="#c79146" d="M 1058.285156 77.375 L 937.601562 77.375 L 937.601562 85.984375 L 1058.285156 85.984375 Z M 1058.285156 77.375 " fill-opacity="1" fill-rule="nonzero"/><path fill="#c28e3f" d="M 1058.285156 68.785156 L 937.601562 68.785156 L 937.601562 77.375 L 1058.285156 77.375 Z M 1058.285156 68.785156 " fill-opacity="1" fill-rule="nonzero"/><path fill="#c79146" d="M 1146.402344 128.988281 L 1025.742188 128.988281 L 1025.742188 146.179688 L 1146.402344 146.179688 Z M 1146.402344 128.988281 " fill-opacity="1" fill-rule="nonzero"/><g clip-path="url(#e4eebfc368)"><path fill="#ae703f" d="M 1178.367188 180.582031 L 336.847656 180.582031 L 336.847656 197.792969 L 1178.367188 197.792969 Z M 1178.367188 180.582031 " fill-opacity="1" fill-rule="nonzero"/></g><g clip-path="url(#4f7c16b438)"><path fill="#a86c37" d="M 336.847656 163.390625 L 363.652344 163.390625 L 363.652344 179.855469 L 1151.757812 179.855469 L 1151.757812 163.390625 L 1178.367188 163.390625 L 1178.367188 180.582031 L 336.847656 180.582031 L 336.847656 163.390625 " fill-opacity="1" fill-rule="nonzero"/></g><g clip-path="url(#0a75a096d3)"><path fill="#ae703f" d="M 336.847656 146.179688 L 363.652344 146.179688 L 363.652344 163.390625 L 336.847656 163.390625 L 336.847656 146.179688 M 1151.757812 146.179688 L 1178.367188 146.179688 L 1178.367188 163.390625 L 1151.757812 163.390625 L 1151.757812 146.179688 " fill-opacity="1" fill-rule="nonzero"/></g><g clip-path="url(#195cc86980)"><path fill="#ae703f" d="M 336.847656 128.988281 L 363.652344 128.988281 L 363.652344 146.179688 L 336.847656 146.179688 L 336.847656 128.988281 M 1151.757812 128.988281 L 1178.367188 128.988281 L 1178.367188 146.179688 L 1151.757812 146.179688 L 1151.757812 128.988281 " fill-opacity="1" fill-rule="nonzero"/></g><g clip-path="url(#086d414e13)"><path fill="#ae703f" d="M 336.847656 111.785156 L 363.652344 111.785156 L 363.652344 128.988281 L 336.847656 128.988281 L 336.847656 111.785156 M 1151.757812 111.785156 L 1178.367188 111.785156 L 1178.367188 128.988281 L 1151.757812 128.988281 L 1151.757812 111.785156 " fill-opacity="1" fill-rule="nonzero"/></g><g clip-path="url(#a6e1268c4a)"><path fill="#ae703f" d="M 336.847656 94.585938 L 363.652344 94.585938 L 363.652344 111.785156 L 336.847656 111.785156 L 336.847656 94.585938 M 1151.757812 94.585938 L 1178.367188 94.585938 L 1178.367188 111.785156 L 1151.757812 111.785156 L 1151.757812 94.585938 " fill-opacity="1" fill-rule="nonzero"/></g><g clip-path="url(#88a050f4c9)"><path fill="#ae703f" d="M 336.847656 77.375 L 363.652344 77.375 L 363.652344 94.585938 L 336.847656 94.585938 L 336.847656 77.375 M 1151.757812 77.375 L 1178.367188 77.375 L 1178.367188 94.585938 L 1151.757812 94.585938 L 1151.757812 77.375 " fill-opacity="1" fill-rule="nonzero"/></g><g clip-path="url(#2661ad3b84)"><path fill="#a86c36" d="M 336.847656 60.183594 L 363.652344 60.183594 L 363.652344 77.375 L 336.847656 77.375 L 336.847656 60.183594 M 1151.757812 60.183594 L 1178.367188 60.183594 L 1178.367188 77.375 L 1151.757812 77.375 L 1151.757812 60.183594 " fill-opacity="1" fill-rule="nonzero"/></g><g clip-path="url(#0de89495eb)"><path fill="#ae703f" d="M 336.847656 42.972656 L 363.652344 42.972656 L 363.652344 60.183594 L 336.847656 60.183594 L 336.847656 42.972656 M 1151.757812 42.972656 L 1178.367188 42.972656 L 1178.367188 60.183594 L 1151.757812 60.183594 L 1151.757812 42.972656 " fill-opacity="1" fill-rule="nonzero"/></g><g clip-path="url(#efbfab3149)"><path fill="#a86c37" d="M 336.847656 25.773438 L 363.652344 25.773438 L 363.652344 42.972656 L 336.847656 42.972656 L 336.847656 25.773438 M 1151.757812 25.773438 L 1178.367188 25.773438 L 1178.367188 42.972656 L 1151.757812 42.972656 L 1151.757812 25.773438 " fill-opacity="1" fill-rule="nonzero"/></g><g clip-path="url(#b7b29c9580)"><path fill="#ae703f" d="M 336.847656 8.570312 L 363.652344 8.570312 L 363.652344 25.773438 L 336.847656 25.773438 L 336.847656 8.570312 M 1151.757812 8.570312 L 1178.367188 8.570312 L 1178.367188 25.773438 L 1151.757812 25.773438 L 1151.757812 8.570312 " fill-opacity="1" fill-rule="nonzero"/></g><g clip-path="url(#3cbd37dc32)"><path fill="#a86c36" d="M 336.847656 -8.628906 L 363.652344 -8.628906 L 363.652344 8.570312 L 336.847656 8.570312 L 336.847656 -8.628906 M 1151.757812 -8.628906 L 1178.367188 -8.628906 L 1178.367188 8.570312 L 1151.757812 8.570312 L 1151.757812 -8.628906 " fill-opacity="1" fill-rule="nonzero"/></g><path fill="#ffffff" d="M 1149.128906 -276.113281 C 1097.117188 -275.175781 1048.371094 -254.488281 1011.480469 -217.59375 C 973.71875 -179.835938 952.933594 -129.625 952.933594 -76.226562 L 952.933594 -75.191406 C 952.933594 -74.84375 952.945312 -74.484375 952.945312 -74.128906 C 954.066406 33.910156 1041.304688 121.691406 1149.128906 123.664062 L 1149.128906 172.453125 L 761.285156 172.453125 L 761.285156 29.136719 C 818.367188 27.171875 864.195312 -19.847656 864.195312 -77.40625 C 864.195312 -134.949219 818.367188 -181.980469 761.285156 -183.945312 L 761.285156 -327.261719 L 1149.128906 -327.261719 Z M 1011.460938 -13.054688 L 1011.460938 -12.949219 L 1149.128906 -12.949219 L 1149.128906 116.25 C 1056.960938 114.492188 980.453125 47.652344 963.746094 -40.171875 C 974.316406 -24.699219 991.660156 -14.234375 1011.460938 -13.054688 Z M 1021.34375 -137.113281 C 1019.296875 -137.308594 1017.238281 -137.445312 1015.171875 -137.445312 C 993.457031 -137.445312 974.316406 -126.261719 963.175781 -109.363281 C 969.875 -148.179688 988.308594 -183.925781 1016.726562 -212.34375 C 1052.207031 -247.828125 1099.105469 -267.746094 1149.128906 -268.683594 L 1149.128906 -137.113281 Z M 1044.5625 -20.359375 C 1046.648438 -21.480469 1048.699219 -22.691406 1050.621094 -24.023438 C 1051.664062 -24.75 1052.226562 -25.90625 1052.226562 -27.078125 C 1052.226562 -27.800781 1052.003906 -28.546875 1051.558594 -29.183594 C 1050.390625 -30.875 1048.078125 -31.28125 1046.390625 -30.121094 C 1044.023438 -28.476562 1041.488281 -27.007812 1038.902344 -25.753906 C 1037.046875 -24.863281 1036.273438 -22.640625 1037.152344 -20.804688 L 1037.421875 -20.359375 L 1035.316406 -20.359375 C 1034.640625 -22.175781 1032.679688 -23.191406 1030.792969 -22.632812 C 1028.039062 -21.808594 1025.191406 -21.203125 1022.308594 -20.835938 C 1021.816406 -20.765625 1021.363281 -20.601562 1020.949219 -20.359375 L 1018.878906 -20.359375 L 1018.878906 -129.683594 L 1020.957031 -129.683594 C 1021.925781 -129.585938 1022.878906 -129.492188 1023.828125 -129.335938 C 1024.609375 -129.230469 1025.375 -129.355469 1026.039062 -129.683594 L 1029.90625 -129.683594 C 1030.261719 -128.589844 1031.101562 -127.691406 1032.261719 -127.296875 C 1035.007812 -126.398438 1037.703125 -125.277344 1040.273438 -123.953125 C 1042.078125 -123.015625 1044.332031 -123.730469 1045.277344 -125.546875 C 1045.546875 -126.089844 1045.683594 -126.679688 1045.683594 -127.25 C 1045.683594 -128.15625 1045.335938 -128.996094 1044.738281 -129.683594 L 1149.128906 -129.683594 L 1149.128906 -20.359375 Z M 960.367188 -75.550781 C 960.550781 -104.375 983.082031 -127.972656 1011.460938 -129.886719 L 1011.460938 -20.507812 C 983.304688 -22.398438 960.925781 -45.648438 960.386719 -74.128906 C 960.375 -74.613281 960.367188 -75.074219 960.367188 -75.550781 Z M 753.863281 -103.109375 C 741.273438 -101.300781 731.582031 -90.5 731.582031 -77.40625 C 731.582031 -64.308594 741.273438 -53.515625 753.863281 -51.699219 L 753.863281 21.714844 C 700.875 19.742188 658.371094 -23.945312 658.371094 -77.40625 C 658.371094 -130.863281 700.875 -174.5625 753.863281 -176.511719 Z M 761.285156 -51.699219 C 773.882812 -53.515625 783.566406 -64.308594 783.566406 -77.40625 C 783.566406 -90.5 773.882812 -101.300781 761.285156 -103.109375 L 761.285156 -176.511719 C 814.273438 -174.5625 856.777344 -130.863281 856.777344 -77.40625 C 856.777344 -23.945312 814.273438 19.742188 761.285156 21.714844 Z M 366.019531 123.664062 C 474.546875 121.683594 562.210938 32.777344 562.210938 -76.226562 C 562.210938 -76.449219 562.203125 -76.679688 562.203125 -76.902344 L 562.210938 -77.25 C 562.210938 -77.597656 562.191406 -77.9375 562.191406 -78.285156 C 561.089844 -186.351562 473.859375 -274.132812 366.019531 -276.113281 L 366.019531 -327.261719 L 753.863281 -327.261719 L 753.863281 -183.945312 C 696.789062 -181.980469 650.949219 -134.949219 650.949219 -77.40625 C 650.949219 -19.847656 696.789062 27.171875 753.863281 29.136719 L 753.863281 172.453125 L 366.019531 172.453125 Z M 503.6875 -139.375 L 503.6875 -139.492188 L 366.019531 -139.492188 L 366.019531 -268.683594 C 458.1875 -266.925781 534.695312 -200.082031 551.390625 -112.289062 C 540.828125 -127.742188 523.496094 -138.195312 503.6875 -139.375 Z M 494.265625 -15.34375 C 494.519531 -15.269531 494.777344 -15.210938 495.050781 -15.191406 C 496.671875 -15.066406 498.324219 -14.996094 499.96875 -14.996094 C 521.660156 -14.996094 540.761719 -26.148438 551.910156 -43.011719 C 536.335938 46.191406 459.183594 114.472656 366.019531 116.25 L 366.019531 -15.34375 Z M 473.839844 -132.082031 C 473.675781 -131.355469 473.742188 -130.59375 474.042969 -129.867188 C 474.824219 -127.972656 476.992188 -127.09375 478.902344 -127.875 C 481.53125 -128.96875 484.277344 -129.867188 487.050781 -130.542969 C 487.996094 -130.765625 488.75 -131.335938 489.242188 -132.082031 L 494.199219 -132.082031 C 494.652344 -131.933594 495.125 -131.859375 495.628906 -131.90625 L 496.257812 -131.933594 L 496.257812 -22.765625 L 489.050781 -22.765625 C 488.566406 -23.328125 487.910156 -23.742188 487.136719 -23.9375 C 484.351562 -24.613281 481.597656 -25.492188 478.960938 -26.59375 C 477.078125 -27.375 474.894531 -26.488281 474.109375 -24.59375 C 473.859375 -23.996094 473.800781 -23.367188 473.859375 -22.765625 L 366.019531 -22.765625 L 366.019531 -132.082031 Z M 554.78125 -76.910156 C 554.617188 -48.074219 532.074219 -24.46875 503.6875 -22.554688 L 503.6875 -131.933594 C 531.851562 -130.042969 554.242188 -106.789062 554.773438 -78.273438 C 554.773438 -77.808594 554.78125 -77.367188 554.78125 -76.910156 Z M 358.589844 179.875 L 1156.546875 179.875 L 1156.546875 -334.683594 L 358.589844 -334.683594 L 358.589844 179.875 " fill-opacity="1" fill-rule="nonzero"/><g clip-path="url(#4e466f68e7)"><g clip-path="url(#5873af0a16)"><path fill="#004aad" d="M 434.652344 248.953125 L 1070.835938 248.953125 L 1070.835938 327.707031 L 434.652344 327.707031 Z M 434.652344 248.953125 " fill-opacity="1" fill-rule="nonzero"/></g></g><g fill="#ffffff" fill-opacity="1"><g transform="translate(663.261827, 295.451959)"><g><path d="M 10.21875 -3.96875 C 10.21875 -2.675781 9.753906 -1.65625 8.828125 -0.90625 C 7.898438 -0.164062 6.613281 0.203125 4.96875 0.203125 C 3.4375 0.203125 2.085938 -0.0859375 0.921875 -0.671875 L 0.921875 -3.484375 C 1.878906 -3.046875 2.691406 -2.738281 3.359375 -2.5625 C 4.023438 -2.394531 4.640625 -2.3125 5.203125 -2.3125 C 5.859375 -2.3125 6.363281 -2.4375 6.71875 -2.6875 C 7.070312 -2.9375 7.25 -3.3125 7.25 -3.8125 C 7.25 -4.09375 7.171875 -4.34375 7.015625 -4.5625 C 6.859375 -4.78125 6.628906 -4.988281 6.328125 -5.1875 C 6.023438 -5.394531 5.410156 -5.71875 4.484375 -6.15625 C 3.609375 -6.570312 2.953125 -6.96875 2.515625 -7.34375 C 2.078125 -7.71875 1.726562 -8.15625 1.46875 -8.65625 C 1.207031 -9.164062 1.078125 -9.753906 1.078125 -10.421875 C 1.078125 -11.679688 1.503906 -12.671875 2.359375 -13.390625 C 3.222656 -14.117188 4.410156 -14.484375 5.921875 -14.484375 C 6.660156 -14.484375 7.363281 -14.394531 8.03125 -14.21875 C 8.707031 -14.039062 9.414062 -13.796875 10.15625 -13.484375 L 9.1875 -11.125 C 8.414062 -11.4375 7.78125 -11.65625 7.28125 -11.78125 C 6.789062 -11.90625 6.304688 -11.96875 5.828125 -11.96875 C 5.253906 -11.96875 4.8125 -11.832031 4.5 -11.5625 C 4.195312 -11.289062 4.046875 -10.941406 4.046875 -10.515625 C 4.046875 -10.253906 4.109375 -10.019531 4.234375 -9.8125 C 4.359375 -9.613281 4.550781 -9.421875 4.8125 -9.234375 C 5.082031 -9.054688 5.722656 -8.726562 6.734375 -8.25 C 8.066406 -7.601562 8.976562 -6.957031 9.46875 -6.3125 C 9.96875 -5.675781 10.21875 -4.894531 10.21875 -3.96875 Z M 10.21875 -3.96875 "/></g></g></g><g fill="#ffffff" fill-opacity="1"><g transform="translate(674.273149, 295.451959)"><g><path d="M 1.796875 0 L 1.796875 -14.28125 L 4.828125 -14.28125 L 4.828125 0 Z M 1.796875 0 "/></g></g></g><g fill="#ffffff" fill-opacity="1"><g transform="translate(680.891656, 295.451959)"><g><path d="M 1.796875 0 L 1.796875 -14.28125 L 4.828125 -14.28125 L 4.828125 -2.5 L 10.609375 -2.5 L 10.609375 0 Z M 1.796875 0 "/></g></g></g><g fill="#ffffff" fill-opacity="1"><g transform="translate(692.18607, 295.451959)"><g><path d="M 1.796875 0 L 1.796875 -14.28125 L 4.828125 -14.28125 L 4.828125 -2.5 L 10.609375 -2.5 L 10.609375 0 Z M 1.796875 0 "/></g></g></g><g fill="#ffffff" fill-opacity="1"><g transform="translate(703.480484, 295.451959)"><g><path d="M 10.53125 0 L 9.5 -3.40625 L 4.296875 -3.40625 L 3.265625 0 L 0 0 L 5.046875 -14.34375 L 8.734375 -14.34375 L 13.796875 0 Z M 8.78125 -5.9375 C 7.820312 -9.019531 7.28125 -10.757812 7.15625 -11.15625 C 7.039062 -11.5625 6.957031 -11.882812 6.90625 -12.125 C 6.6875 -11.289062 6.070312 -9.226562 5.0625 -5.9375 Z M 8.78125 -5.9375 "/></g></g></g><g fill="#ffffff" fill-opacity="1"><g transform="translate(717.273922, 295.451959)"><g><path d="M 10.21875 -3.96875 C 10.21875 -2.675781 9.753906 -1.65625 8.828125 -0.90625 C 7.898438 -0.164062 6.613281 0.203125 4.96875 0.203125 C 3.4375 0.203125 2.085938 -0.0859375 0.921875 -0.671875 L 0.921875 -3.484375 C 1.878906 -3.046875 2.691406 -2.738281 3.359375 -2.5625 C 4.023438 -2.394531 4.640625 -2.3125 5.203125 -2.3125 C 5.859375 -2.3125 6.363281 -2.4375 6.71875 -2.6875 C 7.070312 -2.9375 7.25 -3.3125 7.25 -3.8125 C 7.25 -4.09375 7.171875 -4.34375 7.015625 -4.5625 C 6.859375 -4.78125 6.628906 -4.988281 6.328125 -5.1875 C 6.023438 -5.394531 5.410156 -5.71875 4.484375 -6.15625 C 3.609375 -6.570312 2.953125 -6.96875 2.515625 -7.34375 C 2.078125 -7.71875 1.726562 -8.15625 1.46875 -8.65625 C 1.207031 -9.164062 1.078125 -9.753906 1.078125 -10.421875 C 1.078125 -11.679688 1.503906 -12.671875 2.359375 -13.390625 C 3.222656 -14.117188 4.410156 -14.484375 5.921875 -14.484375 C 6.660156 -14.484375 7.363281 -14.394531 8.03125 -14.21875 C 8.707031 -14.039062 9.414062 -13.796875 10.15625 -13.484375 L 9.1875 -11.125 C 8.414062 -11.4375 7.78125 -11.65625 7.28125 -11.78125 C 6.789062 -11.90625 6.304688 -11.96875 5.828125 -11.96875 C 5.253906 -11.96875 4.8125 -11.832031 4.5 -11.5625 C 4.195312 -11.289062 4.046875 -10.941406 4.046875 -10.515625 C 4.046875 -10.253906 4.109375 -10.019531 4.234375 -9.8125 C 4.359375 -9.613281 4.550781 -9.421875 4.8125 -9.234375 C 5.082031 -9.054688 5.722656 -8.726562 6.734375 -8.25 C 8.066406 -7.601562 8.976562 -6.957031 9.46875 -6.3125 C 9.96875 -5.675781 10.21875 -4.894531 10.21875 -3.96875 Z M 10.21875 -3.96875 "/></g></g></g><g fill="#ffffff" fill-opacity="1"><g transform="translate(728.285243, 295.451959)"><g/></g></g><g fill="#ffffff" fill-opacity="1"><g transform="translate(733.478526, 295.451959)"><g><path d="M 7.3125 0 L 4.28125 0 L 4.28125 -11.765625 L 0.40625 -11.765625 L 0.40625 -14.28125 L 11.1875 -14.28125 L 11.1875 -11.765625 L 7.3125 -11.765625 Z M 7.3125 0 "/></g></g></g><g fill="#ffffff" fill-opacity="1"><g transform="translate(745.056033, 295.451959)"><g><path d="M 4.828125 -7.9375 L 5.796875 -7.9375 C 6.753906 -7.9375 7.460938 -8.09375 7.921875 -8.40625 C 8.378906 -8.726562 8.609375 -9.234375 8.609375 -9.921875 C 8.609375 -10.597656 8.375 -11.078125 7.90625 -11.359375 C 7.4375 -11.648438 6.71875 -11.796875 5.75 -11.796875 L 4.828125 -11.796875 Z M 4.828125 -5.484375 L 4.828125 0 L 1.796875 0 L 1.796875 -14.28125 L 5.953125 -14.28125 C 7.898438 -14.28125 9.335938 -13.925781 10.265625 -13.21875 C 11.191406 -12.507812 11.65625 -11.4375 11.65625 -10 C 11.65625 -9.15625 11.425781 -8.40625 10.96875 -7.75 C 10.507812 -7.101562 9.851562 -6.59375 9 -6.21875 C 11.15625 -3.007812 12.554688 -0.9375 13.203125 0 L 9.84375 0 L 6.4375 -5.484375 Z M 4.828125 -5.484375 "/></g></g></g><g fill="#ffffff" fill-opacity="1"><g transform="translate(758.254, 295.451959)"><g><path d="M 1.796875 0 L 1.796875 -14.28125 L 4.828125 -14.28125 L 4.828125 0 Z M 1.796875 0 "/></g></g></g><g fill="#ffffff" fill-opacity="1"><g transform="translate(764.872507, 295.451959)"><g><path d="M 1.796875 -14.28125 L 6.234375 -14.28125 C 8.265625 -14.28125 9.734375 -13.988281 10.640625 -13.40625 C 11.554688 -12.832031 12.015625 -11.921875 12.015625 -10.671875 C 12.015625 -9.816406 11.816406 -9.113281 11.421875 -8.5625 C 11.023438 -8.019531 10.492188 -7.691406 9.828125 -7.578125 L 9.828125 -7.484375 C 10.734375 -7.273438 11.382812 -6.894531 11.78125 -6.34375 C 12.1875 -5.789062 12.390625 -5.054688 12.390625 -4.140625 C 12.390625 -2.835938 11.914062 -1.820312 10.96875 -1.09375 C 10.03125 -0.363281 8.753906 0 7.140625 0 L 1.796875 0 Z M 4.828125 -8.625 L 6.578125 -8.625 C 7.398438 -8.625 7.992188 -8.75 8.359375 -9 C 8.734375 -9.257812 8.921875 -9.679688 8.921875 -10.265625 C 8.921875 -10.804688 8.71875 -11.195312 8.3125 -11.4375 C 7.914062 -11.675781 7.285156 -11.796875 6.421875 -11.796875 L 4.828125 -11.796875 Z M 4.828125 -6.21875 L 4.828125 -2.5 L 6.796875 -2.5 C 7.628906 -2.5 8.242188 -2.65625 8.640625 -2.96875 C 9.035156 -3.289062 9.234375 -3.78125 9.234375 -4.4375 C 9.234375 -5.625 8.390625 -6.21875 6.703125 -6.21875 Z M 4.828125 -6.21875 "/></g></g></g><g fill="#ffffff" fill-opacity="1"><g transform="translate(778.304757, 295.451959)"><g><path d="M 13.421875 -14.28125 L 13.421875 -5.046875 C 13.421875 -3.984375 13.179688 -3.054688 12.703125 -2.265625 C 12.234375 -1.472656 11.550781 -0.863281 10.65625 -0.4375 C 9.769531 -0.0078125 8.71875 0.203125 7.5 0.203125 C 5.664062 0.203125 4.238281 -0.265625 3.21875 -1.203125 C 2.207031 -2.148438 1.703125 -3.441406 1.703125 -5.078125 L 1.703125 -14.28125 L 4.71875 -14.28125 L 4.71875 -5.53125 C 4.71875 -4.4375 4.9375 -3.628906 5.375 -3.109375 C 5.820312 -2.597656 6.554688 -2.34375 7.578125 -2.34375 C 8.566406 -2.34375 9.285156 -2.597656 9.734375 -3.109375 C 10.179688 -3.628906 10.40625 -4.445312 10.40625 -5.5625 L 10.40625 -14.28125 Z M 13.421875 -14.28125 "/></g></g></g><g fill="#ffffff" fill-opacity="1"><g transform="translate(793.416039, 295.451959)"><g><path d="M 14.46875 0 L 10.609375 0 L 4.40625 -10.796875 L 4.3125 -10.796875 C 4.4375 -8.890625 4.5 -7.53125 4.5 -6.71875 L 4.5 0 L 1.796875 0 L 1.796875 -14.28125 L 5.609375 -14.28125 L 11.8125 -3.578125 L 11.890625 -3.578125 C 11.785156 -5.441406 11.734375 -6.753906 11.734375 -7.515625 L 11.734375 -14.28125 L 14.46875 -14.28125 Z M 14.46875 0 "/></g></g></g><g fill="#ffffff" fill-opacity="1"><g transform="translate(809.669452, 295.451959)"><g><path d="M 10.53125 0 L 9.5 -3.40625 L 4.296875 -3.40625 L 3.265625 0 L 0 0 L 5.046875 -14.34375 L 8.734375 -14.34375 L 13.796875 0 Z M 8.78125 -5.9375 C 7.820312 -9.019531 7.28125 -10.757812 7.15625 -11.15625 C 7.039062 -11.5625 6.957031 -11.882812 6.90625 -12.125 C 6.6875 -11.289062 6.070312 -9.226562 5.0625 -5.9375 Z M 8.78125 -5.9375 "/></g></g></g><g fill="#ffffff" fill-opacity="1"><g transform="translate(823.46289, 295.451959)"><g/></g></g><g fill="#ffffff" fill-opacity="1"><g transform="translate(828.656173, 295.451959)"><g><path d="M 1.796875 -14.28125 L 6.234375 -14.28125 C 8.265625 -14.28125 9.734375 -13.988281 10.640625 -13.40625 C 11.554688 -12.832031 12.015625 -11.921875 12.015625 -10.671875 C 12.015625 -9.816406 11.816406 -9.113281 11.421875 -8.5625 C 11.023438 -8.019531 10.492188 -7.691406 9.828125 -7.578125 L 9.828125 -7.484375 C 10.734375 -7.273438 11.382812 -6.894531 11.78125 -6.34375 C 12.1875 -5.789062 12.390625 -5.054688 12.390625 -4.140625 C 12.390625 -2.835938 11.914062 -1.820312 10.96875 -1.09375 C 10.03125 -0.363281 8.753906 0 7.140625 0 L 1.796875 0 Z M 4.828125 -8.625 L 6.578125 -8.625 C 7.398438 -8.625 7.992188 -8.75 8.359375 -9 C 8.734375 -9.257812 8.921875 -9.679688 8.921875 -10.265625 C 8.921875 -10.804688 8.71875 -11.195312 8.3125 -11.4375 C 7.914062 -11.675781 7.285156 -11.796875 6.421875 -11.796875 L 4.828125 -11.796875 Z M 4.828125 -6.21875 L 4.828125 -2.5 L 6.796875 -2.5 C 7.628906 -2.5 8.242188 -2.65625 8.640625 -2.96875 C 9.035156 -3.289062 9.234375 -3.78125 9.234375 -4.4375 C 9.234375 -5.625 8.390625 -6.21875 6.703125 -6.21875 Z M 4.828125 -6.21875 "/></g></g></g><g clip-path="url(#7d6a7f1c5e)"><g clip-path="url(#61c0f03765)"><path fill="#d9d9d9" d="M 1005.074219 579.695312 L 510.300781 579.695312 L 510.300781 378.324219 L 1005.074219 378.324219 Z M 1005.074219 579.695312 " fill-opacity="1" fill-rule="nonzero"/></g></g><g clip-path="url(#6037a21a83)"><g clip-path="url(#a99e2f3550)"><path fill="#d9d9d9" d="M 1417.269531 554.605469 L 1155.613281 554.605469 L 1155.613281 378.332031 L 1417.269531 378.332031 Z M 1417.269531 554.605469 " fill-opacity="1" fill-rule="nonzero"/></g></g><g clip-path="url(#168a643bab)"><g clip-path="url(#a14d4fc00b)"><path fill="#d9d9d9" d="M 1417.277344 327.703125 L 1100.109375 327.703125 L 1100.109375 248.949219 L 1417.277344 248.949219 Z M 1417.277344 327.703125 " fill-opacity="1" fill-rule="nonzero"/></g></g><g clip-path="url(#525d7ca31d)"><g clip-path="url(#50de1a198c)"><path fill="#d9d9d9" d="M 405.246094 327.703125 L 116.070312 327.703125 L 116.070312 248.949219 L 405.246094 248.949219 Z M 405.246094 327.703125 " fill-opacity="1" fill-rule="nonzero"/></g></g><g clip-path="url(#38805c40c1)"><g clip-path="url(#fc63c53b2d)"><path fill="#d9d9d9" d="M 377.296875 554.605469 L 115.640625 554.605469 L 115.640625 378.332031 L 377.296875 378.332031 Z M 377.296875 554.605469 " fill-opacity="1" fill-rule="nonzero"/></g></g><g clip-path="url(#1579ad414a)"><g clip-path="url(#83dab6092b)"><path fill="#d9d9d9" d="M 1396.84375 188.835938 L 1215.75 188.835938 L 1215.75 12.5625 L 1396.84375 12.5625 Z M 1396.84375 188.835938 " fill-opacity="1" fill-rule="nonzero"/></g></g><g clip-path="url(#91143ac7b9)"><g clip-path="url(#924d4943f4)"><path fill="#d9d9d9" d="M 296.976562 188.835938 L 115.882812 188.835938 L 115.882812 12.5625 L 296.976562 12.5625 Z M 296.976562 188.835938 " fill-opacity="1" fill-rule="nonzero"/></g></g><g clip-path="url(#a6728ef6eb)"><g clip-path="url(#7660e6c4bf)"><path fill="#ff66c4" d="M 983.242188 175.164062 L 1172.503906 175.164062 L 1172.503906 221.484375 L 983.242188 221.484375 Z M 983.242188 175.164062 " fill-opacity="1" fill-rule="nonzero"/></g></g><g fill="#000000" fill-opacity="1"><g transform="translate(1039.739018, 202.914153)"><g><path d="M 3.25 0 L 0 -8.515625 L 2.421875 -8.515625 L 4.078125 -3.65625 C 4.253906 -3.039062 4.367188 -2.460938 4.421875 -1.921875 L 4.46875 -1.921875 C 4.488281 -2.410156 4.597656 -2.988281 4.796875 -3.65625 L 6.4375 -8.515625 L 8.875 -8.515625 L 5.625 0 Z M 3.25 0 "/></g></g></g><g fill="#000000" fill-opacity="1"><g transform="translate(1048.605042, 202.914153)"><g><path d="M 1.125 -10.71875 C 1.125 -11.46875 1.546875 -11.84375 2.390625 -11.84375 C 3.222656 -11.84375 3.640625 -11.46875 3.640625 -10.71875 C 3.640625 -10.351562 3.535156 -10.070312 3.328125 -9.875 C 3.117188 -9.675781 2.804688 -9.578125 2.390625 -9.578125 C 1.546875 -9.578125 1.125 -9.957031 1.125 -10.71875 Z M 3.546875 0 L 1.21875 0 L 1.21875 -8.515625 L 3.546875 -8.515625 Z M 3.546875 0 "/></g></g></g><g fill="#000000" fill-opacity="1"><g transform="translate(1053.361492, 202.914153)"><g><path d="M 7.15625 -2.53125 C 7.15625 -1.65625 6.851562 -0.988281 6.25 -0.53125 C 5.644531 -0.0703125 4.738281 0.15625 3.53125 0.15625 C 2.90625 0.15625 2.375 0.113281 1.9375 0.03125 C 1.5 -0.0507812 1.09375 -0.175781 0.71875 -0.34375 L 0.71875 -2.265625 C 1.144531 -2.054688 1.628906 -1.882812 2.171875 -1.75 C 2.710938 -1.613281 3.1875 -1.546875 3.59375 -1.546875 C 4.4375 -1.546875 4.859375 -1.789062 4.859375 -2.28125 C 4.859375 -2.457031 4.800781 -2.601562 4.6875 -2.71875 C 4.582031 -2.832031 4.390625 -2.960938 4.109375 -3.109375 C 3.835938 -3.253906 3.472656 -3.421875 3.015625 -3.609375 C 2.367188 -3.890625 1.890625 -4.144531 1.578125 -4.375 C 1.273438 -4.613281 1.050781 -4.882812 0.90625 -5.1875 C 0.769531 -5.488281 0.703125 -5.859375 0.703125 -6.296875 C 0.703125 -7.054688 0.992188 -7.640625 1.578125 -8.046875 C 2.160156 -8.460938 2.992188 -8.671875 4.078125 -8.671875 C 5.097656 -8.671875 6.09375 -8.445312 7.0625 -8 L 6.359375 -6.328125 C 5.929688 -6.503906 5.53125 -6.648438 5.15625 -6.765625 C 4.789062 -6.890625 4.414062 -6.953125 4.03125 -6.953125 C 3.34375 -6.953125 3 -6.765625 3 -6.390625 C 3 -6.179688 3.109375 -6 3.328125 -5.84375 C 3.554688 -5.695312 4.046875 -5.472656 4.796875 -5.171875 C 5.453125 -4.910156 5.9375 -4.660156 6.25 -4.421875 C 6.5625 -4.191406 6.789062 -3.921875 6.9375 -3.609375 C 7.082031 -3.304688 7.15625 -2.945312 7.15625 -2.53125 Z M 7.15625 -2.53125 "/></g></g></g><g fill="#000000" fill-opacity="1"><g transform="translate(1061.108799, 202.914153)"><g><path d="M 1.125 -10.71875 C 1.125 -11.46875 1.546875 -11.84375 2.390625 -11.84375 C 3.222656 -11.84375 3.640625 -11.46875 3.640625 -10.71875 C 3.640625 -10.351562 3.535156 -10.070312 3.328125 -9.875 C 3.117188 -9.675781 2.804688 -9.578125 2.390625 -9.578125 C 1.546875 -9.578125 1.125 -9.957031 1.125 -10.71875 Z M 3.546875 0 L 1.21875 0 L 1.21875 -8.515625 L 3.546875 -8.515625 Z M 3.546875 0 "/></g></g></g><g fill="#000000" fill-opacity="1"><g transform="translate(1065.865249, 202.914153)"><g><path d="M 4.796875 -1.703125 C 5.203125 -1.703125 5.691406 -1.789062 6.265625 -1.96875 L 6.265625 -0.234375 C 5.679688 0.0234375 4.972656 0.15625 4.140625 0.15625 C 3.203125 0.15625 2.519531 -0.078125 2.09375 -0.546875 C 1.675781 -1.015625 1.46875 -1.722656 1.46875 -2.671875 L 1.46875 -6.765625 L 0.359375 -6.765625 L 0.359375 -7.75 L 1.640625 -8.53125 L 2.3125 -10.328125 L 3.796875 -10.328125 L 3.796875 -8.515625 L 6.171875 -8.515625 L 6.171875 -6.765625 L 3.796875 -6.765625 L 3.796875 -2.671875 C 3.796875 -2.335938 3.882812 -2.09375 4.0625 -1.9375 C 4.25 -1.78125 4.492188 -1.703125 4.796875 -1.703125 Z M 4.796875 -1.703125 "/></g></g></g><g fill="#000000" fill-opacity="1"><g transform="translate(1072.630824, 202.914153)"><g><path d="M 6.625 0 L 6.171875 -1.15625 L 6.109375 -1.15625 C 5.722656 -0.664062 5.320312 -0.320312 4.90625 -0.125 C 4.488281 0.0625 3.953125 0.15625 3.296875 0.15625 C 2.472656 0.15625 1.828125 -0.078125 1.359375 -0.546875 C 0.890625 -1.015625 0.65625 -1.679688 0.65625 -2.546875 C 0.65625 -3.453125 0.96875 -4.117188 1.59375 -4.546875 C 2.226562 -4.972656 3.1875 -5.207031 4.46875 -5.25 L 5.9375 -5.296875 L 5.9375 -5.671875 C 5.9375 -6.535156 5.492188 -6.96875 4.609375 -6.96875 C 3.929688 -6.96875 3.132812 -6.757812 2.21875 -6.34375 L 1.453125 -7.921875 C 2.429688 -8.429688 3.515625 -8.6875 4.703125 -8.6875 C 5.847656 -8.6875 6.722656 -8.4375 7.328125 -7.9375 C 7.941406 -7.445312 8.25 -6.691406 8.25 -5.671875 L 8.25 0 Z M 5.9375 -3.9375 L 5.046875 -3.90625 C 4.367188 -3.894531 3.863281 -3.773438 3.53125 -3.546875 C 3.195312 -3.328125 3.03125 -2.988281 3.03125 -2.53125 C 3.03125 -1.875 3.410156 -1.546875 4.171875 -1.546875 C 4.703125 -1.546875 5.128906 -1.695312 5.453125 -2 C 5.773438 -2.3125 5.9375 -2.726562 5.9375 -3.25 Z M 5.9375 -3.9375 "/></g></g></g><g fill="#000000" fill-opacity="1"><g transform="translate(1082.044791, 202.914153)"><g><path d="M 9.078125 0 L 6.75 0 L 6.75 -4.96875 C 6.75 -5.582031 6.640625 -6.039062 6.421875 -6.34375 C 6.203125 -6.65625 5.859375 -6.8125 5.390625 -6.8125 C 4.734375 -6.8125 4.257812 -6.59375 3.96875 -6.15625 C 3.6875 -5.726562 3.546875 -5.007812 3.546875 -4 L 3.546875 0 L 1.21875 0 L 1.21875 -8.515625 L 3 -8.515625 L 3.296875 -7.421875 L 3.4375 -7.421875 C 3.695312 -7.835938 4.050781 -8.148438 4.5 -8.359375 C 4.957031 -8.566406 5.472656 -8.671875 6.046875 -8.671875 C 7.035156 -8.671875 7.785156 -8.398438 8.296875 -7.859375 C 8.816406 -7.328125 9.078125 -6.554688 9.078125 -5.546875 Z M 9.078125 0 "/></g></g></g><g fill="#000000" fill-opacity="1"><g transform="translate(1092.288283, 202.914153)"><g><path d="M 4.796875 -1.703125 C 5.203125 -1.703125 5.691406 -1.789062 6.265625 -1.96875 L 6.265625 -0.234375 C 5.679688 0.0234375 4.972656 0.15625 4.140625 0.15625 C 3.203125 0.15625 2.519531 -0.078125 2.09375 -0.546875 C 1.675781 -1.015625 1.46875 -1.722656 1.46875 -2.671875 L 1.46875 -6.765625 L 0.359375 -6.765625 L 0.359375 -7.75 L 1.640625 -8.53125 L 2.3125 -10.328125 L 3.796875 -10.328125 L 3.796875 -8.515625 L 6.171875 -8.515625 L 6.171875 -6.765625 L 3.796875 -6.765625 L 3.796875 -2.671875 C 3.796875 -2.335938 3.882812 -2.09375 4.0625 -1.9375 C 4.25 -1.78125 4.492188 -1.703125 4.796875 -1.703125 Z M 4.796875 -1.703125 "/></g></g></g><g fill="#000000" fill-opacity="1"><g transform="translate(1099.053858, 202.914153)"><g><path d="M 4.75 -7.015625 C 4.25 -7.015625 3.859375 -6.859375 3.578125 -6.546875 C 3.304688 -6.234375 3.148438 -5.789062 3.109375 -5.21875 L 6.359375 -5.21875 C 6.347656 -5.789062 6.195312 -6.234375 5.90625 -6.546875 C 5.625 -6.859375 5.238281 -7.015625 4.75 -7.015625 Z M 5.078125 0.15625 C 3.703125 0.15625 2.628906 -0.21875 1.859375 -0.96875 C 1.085938 -1.726562 0.703125 -2.804688 0.703125 -4.203125 C 0.703125 -5.617188 1.054688 -6.71875 1.765625 -7.5 C 2.484375 -8.28125 3.472656 -8.671875 4.734375 -8.671875 C 5.929688 -8.671875 6.863281 -8.328125 7.53125 -7.640625 C 8.207031 -6.953125 8.546875 -6.003906 8.546875 -4.796875 L 8.546875 -3.671875 L 3.046875 -3.671875 C 3.078125 -3.015625 3.273438 -2.5 3.640625 -2.125 C 4.003906 -1.757812 4.515625 -1.578125 5.171875 -1.578125 C 5.691406 -1.578125 6.175781 -1.628906 6.625 -1.734375 C 7.082031 -1.835938 7.5625 -2.007812 8.0625 -2.25 L 8.0625 -0.453125 C 7.65625 -0.242188 7.21875 -0.09375 6.75 0 C 6.289062 0.101562 5.734375 0.15625 5.078125 0.15625 Z M 5.078125 0.15625 "/></g></g></g><g fill="#000000" fill-opacity="1"><g transform="translate(1108.262346, 202.914153)"><g><path d="M 7.15625 -2.53125 C 7.15625 -1.65625 6.851562 -0.988281 6.25 -0.53125 C 5.644531 -0.0703125 4.738281 0.15625 3.53125 0.15625 C 2.90625 0.15625 2.375 0.113281 1.9375 0.03125 C 1.5 -0.0507812 1.09375 -0.175781 0.71875 -0.34375 L 0.71875 -2.265625 C 1.144531 -2.054688 1.628906 -1.882812 2.171875 -1.75 C 2.710938 -1.613281 3.1875 -1.546875 3.59375 -1.546875 C 4.4375 -1.546875 4.859375 -1.789062 4.859375 -2.28125 C 4.859375 -2.457031 4.800781 -2.601562 4.6875 -2.71875 C 4.582031 -2.832031 4.390625 -2.960938 4.109375 -3.109375 C 3.835938 -3.253906 3.472656 -3.421875 3.015625 -3.609375 C 2.367188 -3.890625 1.890625 -4.144531 1.578125 -4.375 C 1.273438 -4.613281 1.050781 -4.882812 0.90625 -5.1875 C 0.769531 -5.488281 0.703125 -5.859375 0.703125 -6.296875 C 0.703125 -7.054688 0.992188 -7.640625 1.578125 -8.046875 C 2.160156 -8.460938 2.992188 -8.671875 4.078125 -8.671875 C 5.097656 -8.671875 6.09375 -8.445312 7.0625 -8 L 6.359375 -6.328125 C 5.929688 -6.503906 5.53125 -6.648438 5.15625 -6.765625 C 4.789062 -6.890625 4.414062 -6.953125 4.03125 -6.953125 C 3.34375 -6.953125 3 -6.765625 3 -6.390625 C 3 -6.179688 3.109375 -6 3.328125 -5.84375 C 3.554688 -5.695312 4.046875 -5.472656 4.796875 -5.171875 C 5.453125 -4.910156 5.9375 -4.660156 6.25 -4.421875 C 6.5625 -4.191406 6.789062 -3.921875 6.9375 -3.609375 C 7.082031 -3.304688 7.15625 -2.945312 7.15625 -2.53125 Z M 7.15625 -2.53125 "/></g></g></g><g clip-path="url(#bdbf00fc7e)"><g clip-path="url(#71e522f206)"><path fill="#ffbd59" d="M 663.148438 178.046875 L 852.515625 178.046875 L 852.515625 221.484375 L 663.148438 221.484375 Z M 663.148438 178.046875 " fill-opacity="1" fill-rule="nonzero"/></g></g><g fill="#000000" fill-opacity="1"><g transform="translate(734.269479, 206.545089)"><g><path d="M 9.96875 0 L 7.359375 0 L 7.359375 -5.609375 C 7.359375 -6.304688 7.238281 -6.828125 7 -7.171875 C 6.769531 -7.515625 6.40625 -7.6875 5.90625 -7.6875 C 5.238281 -7.6875 4.753906 -7.441406 4.453125 -6.953125 C 4.148438 -6.460938 4 -5.648438 4 -4.515625 L 4 0 L 1.375 0 L 1.375 -9.609375 L 3.375 -9.609375 L 3.734375 -8.375 L 3.875 -8.375 C 4.132812 -8.8125 4.503906 -9.15625 4.984375 -9.40625 C 5.472656 -9.65625 6.035156 -9.78125 6.671875 -9.78125 C 8.109375 -9.78125 9.082031 -9.3125 9.59375 -8.375 L 9.8125 -8.375 C 10.070312 -8.820312 10.453125 -9.164062 10.953125 -9.40625 C 11.453125 -9.65625 12.019531 -9.78125 12.65625 -9.78125 C 13.738281 -9.78125 14.5625 -9.5 15.125 -8.9375 C 15.6875 -8.382812 15.96875 -7.492188 15.96875 -6.265625 L 15.96875 0 L 13.328125 0 L 13.328125 -5.609375 C 13.328125 -6.304688 13.210938 -6.828125 12.984375 -7.171875 C 12.753906 -7.515625 12.390625 -7.6875 11.890625 -7.6875 C 11.242188 -7.6875 10.757812 -7.457031 10.4375 -7 C 10.125 -6.539062 9.96875 -5.8125 9.96875 -4.8125 Z M 9.96875 0 "/></g></g></g><g fill="#000000" fill-opacity="1"><g transform="translate(751.541543, 206.545089)"><g><path d="M 5.359375 -7.921875 C 4.796875 -7.921875 4.359375 -7.742188 4.046875 -7.390625 C 3.734375 -7.035156 3.550781 -6.535156 3.5 -5.890625 L 7.1875 -5.890625 C 7.175781 -6.535156 7.003906 -7.035156 6.671875 -7.390625 C 6.347656 -7.742188 5.910156 -7.921875 5.359375 -7.921875 Z M 5.71875 0.171875 C 4.175781 0.171875 2.96875 -0.253906 2.09375 -1.109375 C 1.226562 -1.960938 0.796875 -3.171875 0.796875 -4.734375 C 0.796875 -6.335938 1.195312 -7.578125 2 -8.453125 C 2.800781 -9.335938 3.910156 -9.78125 5.328125 -9.78125 C 6.691406 -9.78125 7.75 -9.394531 8.5 -8.625 C 9.257812 -7.851562 9.640625 -6.785156 9.640625 -5.421875 L 9.640625 -4.15625 L 3.4375 -4.15625 C 3.46875 -3.40625 3.6875 -2.820312 4.09375 -2.40625 C 4.507812 -1.988281 5.09375 -1.78125 5.84375 -1.78125 C 6.414062 -1.78125 6.957031 -1.835938 7.46875 -1.953125 C 7.988281 -2.078125 8.53125 -2.269531 9.09375 -2.53125 L 9.09375 -0.5 C 8.632812 -0.269531 8.144531 -0.101562 7.625 0 C 7.101562 0.113281 6.46875 0.171875 5.71875 0.171875 Z M 5.71875 0.171875 "/></g></g></g><g fill="#000000" fill-opacity="1"><g transform="translate(761.933979, 206.545089)"><g><path d="M 8.078125 -2.859375 C 8.078125 -1.867188 7.734375 -1.113281 7.046875 -0.59375 C 6.359375 -0.0820312 5.335938 0.171875 3.984375 0.171875 C 3.273438 0.171875 2.675781 0.125 2.1875 0.03125 C 1.695312 -0.0625 1.238281 -0.203125 0.8125 -0.390625 L 0.8125 -2.546875 C 1.289062 -2.316406 1.835938 -2.125 2.453125 -1.96875 C 3.066406 -1.820312 3.601562 -1.75 4.0625 -1.75 C 5.007812 -1.75 5.484375 -2.019531 5.484375 -2.5625 C 5.484375 -2.769531 5.421875 -2.9375 5.296875 -3.0625 C 5.171875 -3.195312 4.953125 -3.34375 4.640625 -3.5 C 4.335938 -3.664062 3.925781 -3.859375 3.40625 -4.078125 C 2.664062 -4.390625 2.125 -4.675781 1.78125 -4.9375 C 1.4375 -5.195312 1.1875 -5.5 1.03125 -5.84375 C 0.875 -6.1875 0.796875 -6.609375 0.796875 -7.109375 C 0.796875 -7.960938 1.125 -8.617188 1.78125 -9.078125 C 2.445312 -9.546875 3.382812 -9.78125 4.59375 -9.78125 C 5.75 -9.78125 6.875 -9.53125 7.96875 -9.03125 L 7.1875 -7.140625 C 6.695312 -7.347656 6.242188 -7.515625 5.828125 -7.640625 C 5.410156 -7.773438 4.984375 -7.84375 4.546875 -7.84375 C 3.773438 -7.84375 3.390625 -7.632812 3.390625 -7.21875 C 3.390625 -6.976562 3.515625 -6.769531 3.765625 -6.59375 C 4.015625 -6.425781 4.5625 -6.175781 5.40625 -5.84375 C 6.15625 -5.539062 6.703125 -5.253906 7.046875 -4.984375 C 7.398438 -4.722656 7.660156 -4.421875 7.828125 -4.078125 C 7.992188 -3.734375 8.078125 -3.328125 8.078125 -2.859375 Z M 8.078125 -2.859375 "/></g></g></g><g fill="#000000" fill-opacity="1"><g transform="translate(770.677368, 206.545089)"><g><path d="M 7.46875 0 L 6.96875 -1.3125 L 6.890625 -1.3125 C 6.453125 -0.75 6 -0.359375 5.53125 -0.140625 C 5.070312 0.0664062 4.46875 0.171875 3.71875 0.171875 C 2.789062 0.171875 2.0625 -0.0859375 1.53125 -0.609375 C 1 -1.140625 0.734375 -1.894531 0.734375 -2.875 C 0.734375 -3.894531 1.085938 -4.644531 1.796875 -5.125 C 2.515625 -5.601562 3.59375 -5.867188 5.03125 -5.921875 L 6.703125 -5.984375 L 6.703125 -6.40625 C 6.703125 -7.375 6.203125 -7.859375 5.203125 -7.859375 C 4.441406 -7.859375 3.539062 -7.628906 2.5 -7.171875 L 1.625 -8.9375 C 2.738281 -9.507812 3.96875 -9.796875 5.3125 -9.796875 C 6.59375 -9.796875 7.578125 -9.515625 8.265625 -8.953125 C 8.953125 -8.398438 9.296875 -7.550781 9.296875 -6.40625 L 9.296875 0 Z M 6.703125 -4.453125 L 5.6875 -4.421875 C 4.925781 -4.390625 4.359375 -4.25 3.984375 -4 C 3.609375 -3.75 3.421875 -3.367188 3.421875 -2.859375 C 3.421875 -2.117188 3.847656 -1.75 4.703125 -1.75 C 5.304688 -1.75 5.789062 -1.921875 6.15625 -2.265625 C 6.519531 -2.617188 6.703125 -3.082031 6.703125 -3.65625 Z M 6.703125 -4.453125 "/></g></g></g><g clip-path="url(#7920deb983)"><g clip-path="url(#44f40688d7)"><path fill="#ff3131" d="M 322.082031 175.164062 L 510.441406 175.164062 L 510.441406 221.484375 L 322.082031 221.484375 Z M 322.082031 175.164062 " fill-opacity="1" fill-rule="nonzero"/></g></g><g fill="#ffffff" fill-opacity="1"><g transform="translate(383.700981, 205.164153)"><g><path d="M 4.546875 0 L 1.5625 0 L 1.5625 -15.203125 L 4.546875 -15.203125 Z M 4.546875 0 "/></g></g></g><g fill="#ffffff" fill-opacity="1"><g transform="translate(389.802112, 205.164153)"><g><path d="M 6.078125 -9 C 5.453125 -9 4.957031 -8.796875 4.59375 -8.390625 C 4.238281 -7.992188 4.035156 -7.429688 3.984375 -6.703125 L 8.171875 -6.703125 C 8.148438 -7.429688 7.953125 -7.992188 7.578125 -8.390625 C 7.210938 -8.796875 6.710938 -9 6.078125 -9 Z M 6.5 0.203125 C 4.75 0.203125 3.378906 -0.28125 2.390625 -1.25 C 1.398438 -2.226562 0.90625 -3.601562 0.90625 -5.375 C 0.90625 -7.207031 1.359375 -8.625 2.265625 -9.625 C 3.179688 -10.625 4.445312 -11.125 6.0625 -11.125 C 7.601562 -11.125 8.800781 -10.679688 9.65625 -9.796875 C 10.519531 -8.921875 10.953125 -7.707031 10.953125 -6.15625 L 10.953125 -4.71875 L 3.921875 -4.71875 C 3.953125 -3.875 4.203125 -3.210938 4.671875 -2.734375 C 5.140625 -2.253906 5.796875 -2.015625 6.640625 -2.015625 C 7.296875 -2.015625 7.914062 -2.082031 8.5 -2.21875 C 9.09375 -2.363281 9.707031 -2.582031 10.34375 -2.875 L 10.34375 -0.578125 C 9.820312 -0.316406 9.265625 -0.125 8.671875 0 C 8.078125 0.132812 7.351562 0.203125 6.5 0.203125 Z M 6.5 0.203125 "/></g></g></g><g fill="#ffffff" fill-opacity="1"><g transform="translate(401.613902, 205.164153)"><g><path d="M 3.9375 -5.484375 C 3.9375 -4.398438 4.113281 -3.582031 4.46875 -3.03125 C 4.820312 -2.476562 5.398438 -2.203125 6.203125 -2.203125 C 6.992188 -2.203125 7.5625 -2.472656 7.90625 -3.015625 C 8.257812 -3.566406 8.4375 -4.390625 8.4375 -5.484375 C 8.4375 -6.554688 8.257812 -7.363281 7.90625 -7.90625 C 7.5625 -8.445312 6.988281 -8.71875 6.1875 -8.71875 C 5.382812 -8.71875 4.804688 -8.445312 4.453125 -7.90625 C 4.109375 -7.375 3.9375 -6.566406 3.9375 -5.484375 Z M 11.484375 -5.484375 C 11.484375 -3.703125 11.015625 -2.304688 10.078125 -1.296875 C 9.140625 -0.296875 7.832031 0.203125 6.15625 0.203125 C 5.113281 0.203125 4.191406 -0.0234375 3.390625 -0.484375 C 2.585938 -0.953125 1.972656 -1.613281 1.546875 -2.46875 C 1.117188 -3.332031 0.90625 -4.335938 0.90625 -5.484375 C 0.90625 -7.265625 1.367188 -8.648438 2.296875 -9.640625 C 3.222656 -10.628906 4.53125 -11.125 6.21875 -11.125 C 7.269531 -11.125 8.195312 -10.894531 9 -10.4375 C 9.800781 -9.976562 10.414062 -9.320312 10.84375 -8.46875 C 11.269531 -7.625 11.484375 -6.628906 11.484375 -5.484375 Z M 11.484375 -5.484375 "/></g></g></g><g fill="#ffffff" fill-opacity="1"><g transform="translate(413.991877, 205.164153)"><g><path d="M 11.640625 0 L 8.65625 0 L 8.65625 -6.375 C 8.65625 -7.164062 8.515625 -7.753906 8.234375 -8.140625 C 7.960938 -8.535156 7.519531 -8.734375 6.90625 -8.734375 C 6.070312 -8.734375 5.46875 -8.457031 5.09375 -7.90625 C 4.726562 -7.351562 4.546875 -6.429688 4.546875 -5.140625 L 4.546875 0 L 1.5625 0 L 1.5625 -10.921875 L 3.84375 -10.921875 L 4.234375 -9.515625 L 4.40625 -9.515625 C 4.738281 -10.046875 5.195312 -10.445312 5.78125 -10.71875 C 6.363281 -10.988281 7.023438 -11.125 7.765625 -11.125 C 9.035156 -11.125 10 -10.78125 10.65625 -10.09375 C 11.3125 -9.40625 11.640625 -8.414062 11.640625 -7.125 Z M 11.640625 0 "/></g></g></g><g fill="#ffffff" fill-opacity="1"><g transform="translate(427.131273, 205.164153)"><g><path d="M 6.078125 -9 C 5.453125 -9 4.957031 -8.796875 4.59375 -8.390625 C 4.238281 -7.992188 4.035156 -7.429688 3.984375 -6.703125 L 8.171875 -6.703125 C 8.148438 -7.429688 7.953125 -7.992188 7.578125 -8.390625 C 7.210938 -8.796875 6.710938 -9 6.078125 -9 Z M 6.5 0.203125 C 4.75 0.203125 3.378906 -0.28125 2.390625 -1.25 C 1.398438 -2.226562 0.90625 -3.601562 0.90625 -5.375 C 0.90625 -7.207031 1.359375 -8.625 2.265625 -9.625 C 3.179688 -10.625 4.445312 -11.125 6.0625 -11.125 C 7.601562 -11.125 8.800781 -10.679688 9.65625 -9.796875 C 10.519531 -8.921875 10.953125 -7.707031 10.953125 -6.15625 L 10.953125 -4.71875 L 3.921875 -4.71875 C 3.953125 -3.875 4.203125 -3.210938 4.671875 -2.734375 C 5.140625 -2.253906 5.796875 -2.015625 6.640625 -2.015625 C 7.296875 -2.015625 7.914062 -2.082031 8.5 -2.21875 C 9.09375 -2.363281 9.707031 -2.582031 10.34375 -2.875 L 10.34375 -0.578125 C 9.820312 -0.316406 9.265625 -0.125 8.671875 0 C 8.078125 0.132812 7.351562 0.203125 6.5 0.203125 Z M 6.5 0.203125 "/></g></g></g><g fill="#ffffff" fill-opacity="1"><g transform="translate(438.943063, 205.164153)"><g><path d="M 9.1875 -3.25 C 9.1875 -2.125 8.796875 -1.265625 8.015625 -0.671875 C 7.234375 -0.0859375 6.066406 0.203125 4.515625 0.203125 C 3.722656 0.203125 3.046875 0.144531 2.484375 0.03125 C 1.929688 -0.0703125 1.410156 -0.226562 0.921875 -0.4375 L 0.921875 -2.90625 C 1.472656 -2.644531 2.09375 -2.425781 2.78125 -2.25 C 3.476562 -2.070312 4.09375 -1.984375 4.625 -1.984375 C 5.695312 -1.984375 6.234375 -2.296875 6.234375 -2.921875 C 6.234375 -3.148438 6.160156 -3.335938 6.015625 -3.484375 C 5.878906 -3.640625 5.632812 -3.804688 5.28125 -3.984375 C 4.925781 -4.171875 4.457031 -4.390625 3.875 -4.640625 C 3.039062 -4.992188 2.425781 -5.316406 2.03125 -5.609375 C 1.632812 -5.910156 1.347656 -6.253906 1.171875 -6.640625 C 0.992188 -7.035156 0.90625 -7.515625 0.90625 -8.078125 C 0.90625 -9.046875 1.28125 -9.796875 2.03125 -10.328125 C 2.78125 -10.859375 3.84375 -11.125 5.21875 -11.125 C 6.539062 -11.125 7.820312 -10.835938 9.0625 -10.265625 L 8.171875 -8.109375 C 7.617188 -8.347656 7.101562 -8.539062 6.625 -8.6875 C 6.15625 -8.84375 5.671875 -8.921875 5.171875 -8.921875 C 4.296875 -8.921875 3.859375 -8.679688 3.859375 -8.203125 C 3.859375 -7.929688 4 -7.695312 4.28125 -7.5 C 4.5625 -7.3125 5.179688 -7.023438 6.140625 -6.640625 C 6.992188 -6.296875 7.617188 -5.972656 8.015625 -5.671875 C 8.410156 -5.367188 8.703125 -5.019531 8.890625 -4.625 C 9.085938 -4.238281 9.1875 -3.78125 9.1875 -3.25 Z M 9.1875 -3.25 "/></g></g></g></svg>